<svg width="271" height="320" viewBox="0 0 271 320" fill="none" xmlns="http://www.w3.org/2000/svg">
<g clip-path="url(#clip0_1395_1053)">
<path opacity="0.95" d="M95.0828 39.6504H11.8998C5.32772 39.6504 0 44.9825 0 51.5599V134.811C0 141.388 5.32772 146.72 11.8998 146.72H95.0828C101.655 146.72 106.983 141.388 106.983 134.811V51.5599C106.983 44.9825 101.655 39.6504 95.0828 39.6504Z" fill="white"/>
<path d="M78.2564 122.343H28.7263V124.791H78.2564V122.343Z" fill="#96BFE6"/>
<path d="M71.2406 130.059H35.74V132.507H71.2406V130.059Z" fill="#96BFE6"/>
<path opacity="0.95" d="M138.599 76.7837H256.981C264.719 76.7837 270.998 83.0703 270.998 90.8124V234.754C270.998 242.498 264.716 248.783 256.981 248.783H138.599C130.863 248.783 124.582 242.496 124.582 234.754V90.8145C124.582 83.0703 130.863 76.7857 138.599 76.7857V76.7837Z" fill="white"/>
<path d="M202.581 178.253H190.969V180.405H202.581V178.253Z" fill="#4598E6"/>
<path d="M214.454 197.978H146.881V202.145H214.454V197.978Z" fill="#96BFE6"/>
<path d="M201.524 217.987H146.881V222.154H201.524V217.987Z" fill="#96BFE6"/>
<path d="M178.915 207.981H146.881V212.149H178.915V207.981Z" fill="#96BFE6"/>
<path d="M232.132 93.9363V96.0413H244.515V107.673H246.618V93.9363H232.132V93.9363ZM148.045 107.673H150.148V96.0413H162.531V93.9363H148.045V107.673ZM244.515 167.687V179.323H232.132V181.428H246.618V167.687H244.515V167.687ZM150.146 167.687H148.043V181.428H162.529V179.323H150.146V167.687Z" fill="#4598E6"/>
<path d="M240.063 222.459C233.234 222.459 227.678 216.899 227.678 210.064C227.678 203.229 233.234 197.669 240.063 197.669C246.892 197.669 252.447 203.229 252.447 210.064C252.447 216.899 246.892 222.459 240.063 222.459ZM240.063 200.071C234.556 200.071 230.076 204.555 230.076 210.066C230.076 215.577 234.556 220.061 240.063 220.061C245.57 220.061 250.05 215.577 250.05 210.066C250.05 204.555 245.57 200.071 240.063 200.071Z" fill="#4598E6"/>
<path d="M239.272 214.944L233.647 209.313L235.341 207.618L239.272 211.552L244.783 206.037L246.478 207.732L239.272 214.944Z" fill="#4598E6"/>
<path opacity="0.95" d="M127.273 0H186.308C191.707 0 196.09 4.38665 196.09 9.79028V61.0558C196.09 66.4594 191.707 70.8461 186.308 70.8461H127.273C121.874 70.8461 117.491 66.4594 117.491 61.0558V9.79028C117.491 4.38665 121.874 0 127.273 0Z" fill="white"/>
<path d="M159.608 57.4465H153.375V58.6016H159.608V57.4465Z" fill="#4598E6"/>
<path d="M160.652 13.5253C160.652 13.5253 164.36 15.5633 163.184 20.5752C162.005 25.5871 161.559 26.2488 162.514 28.2747C163.472 30.3005 164.311 38.7856 163.291 40.3385C162.271 41.8914 151.927 32.7649 150.777 25.4653C149.627 18.1657 152.215 15.064 153.132 13.9069C154.048 12.7499 157.379 11.6639 160.65 13.5253H160.652Z" fill="#344052"/>
<path d="M167.616 54.9477H163.644C163.452 52.9868 163.275 51.6227 163.312 51.4217C163.37 51.0888 159.36 40.5617 158.985 39.6929C158.608 38.8241 157.138 36.4897 156.947 34.2913C156.752 32.0929 159.618 31.2058 159.618 31.2058C163.484 31.9 164.794 37.2509 164.794 37.2509C164.794 37.2509 166.417 48.1049 167.238 51.1599C167.449 51.9434 167.565 53.3258 167.616 54.9497V54.9477Z" fill="#EEA886"/>
<path d="M165.618 39.8635L159.705 42.3583C159.705 42.3583 154.27 28.8594 158.825 30.3676C163.366 31.8697 165.411 34.6954 165.618 39.8635Z" fill="#3480B5"/>
<path d="M164.301 46.2192C164.129 47.559 163.421 52.3069 163.579 53.5878C163.606 53.7989 163.693 54.2861 163.825 54.9479H149.568C149.947 53.5939 150.292 52.3942 150.501 51.6959C151.193 49.3981 150.53 48.783 150.181 46.9439C150.045 46.2233 149.566 44.8571 149.043 43.3124C148.868 42.7968 148.688 42.2589 148.515 41.7189C147.889 39.7742 147.597 37.7849 147.416 36.6258C146.556 31.1369 150.775 30.6092 150.775 30.6092C152.343 30.3189 155.081 29.4724 155.081 29.4724L159.371 30.3656C159.371 30.3656 159.778 30.5178 160.375 30.9583C160.375 30.9583 160.377 30.9583 160.377 30.9603C160.663 31.1715 160.993 31.4496 161.342 31.8068C161.811 32.2879 162.744 33.6682 163.675 35.1826C163.959 35.6474 164.247 36.1244 164.516 36.5934C165.389 38.1036 166.009 39.3216 165.989 40.6958C165.973 42.0477 164.476 44.8774 164.303 46.2172L164.301 46.2192Z" fill="#3480B5"/>
<path d="M159.371 30.3675C159.371 30.3675 162.058 34.9633 161.058 35.3063C160.058 35.6494 154.793 34.4883 152.734 30.1463C152.734 30.1463 156.19 28.5731 159.369 30.3675H159.371Z" fill="#EEA886"/>
<path d="M158.985 32.4665C158.985 32.4665 156.598 33.4774 154.438 30.1504C154.438 30.1504 155.018 26.3707 153.791 24.1865C152.564 22.0023 159.158 26.8071 159.158 26.8071C159.158 26.8071 159.05 27.2578 158.941 27.9236C158.884 28.2646 158.825 28.6604 158.78 29.0806C158.744 29.4298 158.716 29.7992 158.703 30.1646C158.675 31.0151 158.736 31.8575 158.987 32.4685L158.985 32.4665Z" fill="#EEA886"/>
<path d="M153.059 37.6143C152.568 40.1435 149.043 43.3122 149.043 43.3122C148.868 42.7946 148.688 42.2587 148.515 41.7208C150.947 40.1679 153.059 37.6143 153.059 37.6143Z" fill="#393D63"/>
<path d="M152.174 39.6281C151.951 40.5496 150.923 49.8873 151.035 50.206C151.099 50.3886 151.598 52.5485 152.097 54.9478H147.495C147.025 53.401 146.745 52.1161 146.812 51.3894C147.106 48.241 146.039 38.201 146.039 38.201C146.039 38.201 145.084 32.1275 150.12 31.3704C150.12 31.3704 153.093 31.7621 153.274 33.9605C153.454 36.161 152.4 38.7105 152.174 39.6301V39.6281Z" fill="#EEA886"/>
<path d="M145.668 40.9191L151.917 42.3806C151.917 42.3806 156.874 32.7487 152.41 30.9908C147.704 29.1375 144.54 35.6657 145.668 40.9211V40.9191Z" fill="#3480B5"/>
<path d="M160.075 14.0611C160.075 14.0611 165.504 16.0565 162.062 25.4348C158.62 34.813 151.594 23.8332 152.655 18.0702C153.716 12.3073 160.075 14.0611 160.075 14.0611Z" fill="#EEA987"/>
<path d="M162.896 19.7612C162.896 19.7612 160.03 22.3209 155.43 22.4407C155.43 22.4407 154.355 25.0634 154.18 25.8672C154.18 25.8672 149.635 18.0581 154.86 14.114C160.085 10.1699 164.823 18.1231 162.894 19.7592L162.896 19.7612Z" fill="#344052"/>
<path d="M156.05 23.0049C156.048 22.3107 155.696 20.7131 154.645 21.1049C153.594 21.4967 154.535 24.7608 155.227 24.5943C155.227 24.5943 156.057 24.6471 156.048 23.0029L156.05 23.0049Z" fill="#EEA987"/>
<path d="M158.71 30.0022C156.158 29.2958 155.17 26.862 155.14 26.7808C157.215 29.4643 158.781 29.0786 158.781 29.0786C158.744 29.4278 158.74 29.647 158.71 30.0022Z" fill="#A77860"/>
<path d="M175.473 12.821V13.9517H182.12V20.1957H183.249V12.821H175.473ZM130.332 20.1957H131.462V13.9517H138.108V12.821H130.332V20.1957V20.1957ZM182.12 52.4125V58.6586H175.473V59.7892H183.249V52.4125H182.12V52.4125ZM131.462 52.4125H130.332V59.7892H138.108V58.6586H131.462V52.4125Z" fill="#4598E6"/>
<path d="M57.6533 110.379H49.3273V111.921H57.6533V110.379Z" fill="#4598E6"/>
<path d="M78.445 50.7723V52.2805H87.3247V60.6194H88.8317V50.7703H78.445V50.7723ZM18.1509 60.6214H19.6579V52.2826H28.5376V50.7743H18.1509V60.6235V60.6214ZM87.3247 103.654V111.997H78.445V113.507H88.8317V103.656H87.3247V103.654ZM19.6599 103.654H18.1529V113.505H28.5396V111.995H19.6599V103.652V103.654Z" fill="#4598E6"/>
<path d="M53.753 24.1739C53.753 24.1739 58.9981 20.8063 63.728 26.7925C68.4579 32.7788 66.7562 38.5336 65.7684 43.9088C64.7888 49.2393 60.0203 61.4351 62.0466 66.8083C64.0728 72.1815 61.4827 74.9787 61.4827 74.9787C61.4827 74.9787 45.2181 79.1461 47.1145 54.6633C49.0109 30.1805 53.755 24.1719 53.755 24.1719L53.753 24.1739Z" fill="#163342"/>
<path d="M43.849 78.4399C43.849 78.4399 39.0866 91.0701 34.588 102.842H22.3839C24.2479 97.0786 26.1403 90.9361 26.3492 89.8075C26.7467 87.6152 26.9292 81.1174 29.4281 76.5602C31.9309 72.0031 37.8879 70.1985 37.8879 70.1985C47.7209 70.643 43.849 78.4399 43.849 78.4399V78.4399Z" fill="#1D3B54"/>
<path d="M74.4454 90.7717C74.4454 90.7717 72.5449 96.965 70.7073 102.842H30.8844C30.7161 102.324 30.5092 101.782 30.2597 101.205C27.3451 94.4499 25.9273 88.6971 27.3451 84.8606C28.7628 81.024 36.8414 70.5172 38.9285 70.1011C41.0115 69.6849 47.0091 66.8491 47.0091 66.8491C50.9297 66.2645 56.5013 66.5548 58.4201 67.2247C60.3347 67.8905 71.0095 68.9745 74.924 72.0173C79.4329 75.523 74.4433 90.7737 74.4433 90.7737L74.4454 90.7717Z" fill="#EDDAD3"/>
<path d="M45.0923 80.2322L41.4475 75.9593L44.6136 64.7095C44.6136 64.7095 45.6764 70.9738 45.0943 80.2302L45.0923 80.2322Z" fill="#D6C5BE"/>
<path d="M44.1451 59.9171C44.1451 59.9171 45.3418 70.9334 45.0923 74.5183C45.0923 74.5183 51.3272 80.7704 58.418 67.2187C58.418 67.2187 55.4344 61.6324 57.6797 54.0222C59.925 46.412 44.1451 59.915 44.1451 59.915V59.9171Z" fill="#EEA886"/>
<path d="M45.0923 74.5203V80.2324L52.2683 74.8674L45.0923 74.5203Z" fill="#EEA886"/>
<path d="M45.0923 80.2324L48.0718 76.542L58.1076 66.5325L61.3528 69.6606L45.0923 80.2324Z" fill="#D6C5BE"/>
<path d="M78.6276 80.6646C78.6276 80.6646 76.9076 87.0487 72.2548 102.841H51.5321C50.8891 94.533 50.5321 87.9135 50.6761 85.912C51.0797 80.281 59.5031 67.4905 59.5031 67.4905C59.5031 67.4905 64.7502 68.1238 70.3847 69.3479C76.8123 70.7424 78.6276 80.6646 78.6276 80.6646V80.6646Z" fill="#1D3B54"/>
<path d="M42.5591 68.8223C37.4255 74.9709 35.6021 88.48 35.3121 102.842H30.7039C25.3574 91.6466 26.7873 86.5678 26.7873 86.5678C29.5802 76.9988 37.8859 70.1985 37.8859 70.1985L42.557 68.8223H42.5591Z" fill="#1D3B54"/>
<path d="M41.4475 75.9594L36.8535 77.2302L44.6136 64.7117L41.4475 75.9594Z" fill="#FAE6DE"/>
<path d="M48.0718 76.542L52.2683 82.0471L60.8397 67.6672L58.1076 66.5325L48.0718 76.542Z" fill="#FAE6DE"/>
<path d="M44.3926 62.3426L44.6137 64.5126C44.6137 64.5126 49.5545 65.4809 56.0389 57.5642C56.0389 57.5642 51.4428 63.1749 44.3926 62.3426Z" fill="#A77860"/>
<path d="M45.6501 62.5031C43.6989 62.4321 38.2489 61.7926 35.5615 49.2295C32.2777 33.8813 39.5349 25.92 45.7474 24.4442C51.962 22.9685 57.6919 25.1303 60.8742 33.1526C60.8742 33.1526 63.2006 39.4067 59.426 50.551C55.6514 61.6932 47.7412 62.5802 45.6501 62.5031Z" fill="#EEA987"/>
<path d="M50.6356 34.3989C50.6356 34.3989 42.2913 34.9185 34.5332 46.5804C34.5332 46.5804 30.9026 32.5476 40.3929 26.1432C49.8831 19.7388 56.5297 25.246 58.844 28.0371C58.844 28.0371 62.1642 28.8004 62.2697 35.1073C62.3752 41.4122 66.6102 50.9285 57.3147 55.443C57.3147 55.443 58.201 48.2449 57.3816 46.5987C56.5622 44.9524 53.7226 46.0628 50.6356 34.3989V34.3989Z" fill="#163342"/>
<path d="M56.9252 43.8014C57.3471 42.7093 58.4931 42.2708 59.1239 43.4401C59.7547 44.6113 59.0042 49.1482 57.3187 49.6455C55.6353 50.1428 56.0713 46.014 56.9252 43.8014Z" fill="#EEA987"/>
<path d="M86.6655 102.841H73.0985C71.6726 99.3439 70.3461 96.2442 69.4598 94.0154C66.5229 86.6163 54.8299 72.7033 62.2797 68.0649C62.2797 68.0649 72.0438 67.4661 76.938 73.1661C81.8362 78.8702 81.5685 85.6379 82.8139 88.5793C83.7367 90.7594 85.5398 98.266 86.6655 102.841V102.841Z" fill="#1D3B54"/>
<path d="M243.975 159.643H228.861C228.336 155.999 227.942 153.342 227.942 153.342C227.942 153.342 227.721 155.794 227.384 159.643H163.829C163.535 156.88 163.287 155.185 163.159 155.118C162.977 155.025 162.301 156.862 161.443 159.643H144.325C148.789 141.851 155.097 120.549 159.003 119.045C165.62 116.497 192.594 108.174 192.594 108.174H207.992C207.992 108.174 235.351 115.987 237.897 124.477C239.712 130.534 242.085 143.874 243.977 159.645L243.975 159.643Z" fill="#E65353"/>
<path d="M227.759 148.068L227.262 147.975C227.289 147.837 229.784 134.151 226.24 126.393L226.701 126.182C230.311 134.086 227.786 147.928 227.759 148.068V148.068Z" fill="#B84343"/>
<path d="M227.664 145.322C227.65 145.214 226.192 134.608 222.993 130.635L223.387 130.319C226.672 134.403 228.106 144.814 228.165 145.255L227.664 145.322V145.322Z" fill="#B84343"/>
<path d="M201.003 58.1877C201.003 58.1877 215.379 60.4551 213.19 82.9648C211.002 105.475 198.313 103.629 197.465 103.607C196.618 103.585 184.728 104.017 183.801 76.5341C183.801 76.5341 183.397 56.2105 201.003 58.1877Z" fill="#EEA987"/>
<path d="M207.712 96.9774C207.712 96.9774 207.319 106.236 208.213 108.241C209.108 110.245 196.35 116.684 188.569 109.51C188.569 109.51 190.45 99.4478 189.926 95.8813C189.403 92.3147 207.712 96.9794 207.712 96.9794V96.9774Z" fill="#EEA987"/>
<path d="M213.412 76.6072C213.412 76.6072 214.985 74.9244 215.564 76.6275C216.142 78.3306 213.121 85.9428 213.318 86.2858C213.318 86.2858 213.03 86.9455 212.653 86.5822C212.276 86.2188 213.412 76.6072 213.412 76.6072Z" fill="#EEA987"/>
<path d="M183.963 76.321C183.963 76.321 182.422 74.6077 181.811 76.3007C181.201 77.9936 184.073 85.6626 183.87 85.9996C183.87 85.9996 184.144 86.6654 184.529 86.3102C184.915 85.9549 183.963 76.323 183.963 76.323V76.321Z" fill="#EEA987"/>
<path d="M213.405 80.058L211.347 82.8126C211.347 82.8126 211.406 76.7756 211.075 75.8297C210.744 74.8837 211.464 71.5871 211.189 70.9051C210.913 70.223 201.356 72.7604 185.683 71.1994C185.683 71.1994 187.427 76.6376 186.405 77.0253C185.383 77.411 185.884 84.0955 185.884 84.0955L184.192 82.1853C184.192 82.1853 182.282 70.7671 182.468 68.861C182.716 66.3236 181.836 54.477 203.889 56.511C206.414 56.7444 208.838 57.6477 210.854 59.1864C213.119 60.9159 215.45 63.6136 215.237 67.3182C214.955 72.2164 213.405 80.06 213.405 80.06V80.058Z" fill="#424242"/>
<path d="M208.215 108.241C208.215 108.241 211.458 108.934 197.885 121.951C197.885 121.951 188.259 111.294 188.569 109.508C188.882 107.724 208.213 108.239 208.213 108.239L208.215 108.241Z" fill="#EEA987"/>
<path d="M161.725 159.643H143.854C146.631 149.016 149.98 137.821 152.055 130.633C155.628 118.275 160.502 117.93 160.502 117.93L163.157 155.118C163.157 155.118 162.559 156.923 161.725 159.643Z" fill="#4F544F"/>
<path d="M197.885 121.951L201.52 129.115L212.988 111.057L208.215 108.241L197.885 121.951Z" fill="#C24646"/>
<path d="M244.413 159.643H228.745C228.342 156.397 228.076 154.262 228.076 154.262C228.076 154.262 228.043 156.326 227.976 159.643H205.625C205.653 158.646 205.708 157.716 205.797 156.852C207.667 139.039 208.215 108.239 208.215 108.239C208.215 108.239 232.1 111.451 237.899 124.475C241.245 131.999 243.227 147.039 244.416 159.643H244.413Z" fill="#4F544F"/>
<path d="M197.885 121.951L192.752 129.115L185.332 115.839L188.569 109.508L197.885 121.951Z" fill="#C24646"/>
<path d="M188.571 109.508C188.571 109.508 185.811 121.324 184.46 138.45C184.079 143.318 182.331 151.003 179.996 159.641H163.624L163.159 155.116L160.504 117.928L188.571 109.506V109.508Z" fill="#4F544F"/>
<path d="M207.657 103.652L215.637 108.241L207.294 135.479L207.657 103.652Z" fill="#4F544F"/>
<path d="M189.34 104.766L188.569 109.508L183.308 134.403L180.61 108.176L189.34 104.766Z" fill="#4F544F"/>
<path d="M190.987 100.696C190.987 100.696 194.04 104.042 198.609 103.676C203.179 103.311 206.367 100.53 206.367 100.53C206.367 100.53 204.414 105.294 198.415 105.588C192.415 105.883 190.987 100.694 190.987 100.694V100.696Z" fill="#A77860"/>
<path d="M140.088 166.778L158.831 177.09L177.653 147.445L154.888 139.53L140.088 166.778Z" fill="#292C47"/>
<path d="M141.276 165.887L158.805 175.531L176.406 147.808L155.117 140.407L141.276 165.887Z" fill="white"/>
<path d="M134.857 160.702C134.857 160.702 138.119 159.141 139.55 158.325C140.982 157.509 144.666 156.389 144.964 156.123C145.262 155.857 155.882 155.201 156.527 154.645C157.172 154.089 157.797 155.948 155.044 156.553C152.292 157.156 148.461 158.632 148.252 159.71C148.043 160.786 151.079 161.041 151.387 161.928C151.696 162.815 151.3 162.616 150.866 162.807C150.432 162.998 147.254 161.236 145.856 161.736C144.459 162.235 142.323 161.543 141.252 161.91C140.181 162.278 134.975 164.029 134.975 164.029L134.857 160.704V160.702Z" fill="#EEA886"/>
<path d="M159.744 173.369C159.744 173.369 162.484 170.901 163.81 169.867C165.137 168.834 167.626 165.797 167.993 165.621C168.36 165.444 173.112 155.682 173.887 155.291C174.662 154.899 173.155 153.585 171.514 155.946C169.873 158.307 166.993 161.346 165.898 161.125C164.802 160.903 165.745 157.94 165.029 157.304C164.313 156.669 164.348 157.117 163.999 157.454C163.65 157.791 164.072 161.474 163.056 162.596C162.042 163.719 161.861 166.002 161.099 166.869C160.336 167.736 156.659 171.964 156.659 171.964L159.744 173.371V173.369Z" fill="#EEA886"/>
<path d="M100.721 305.318C100.721 305.318 100.129 309.436 100.054 310.053C99.979 310.673 93.4602 309.688 93.4602 309.688L92.9329 304.786C92.9329 304.786 99.9081 304.735 100.723 305.316L100.721 305.318Z" fill="#424773"/>
<path d="M100.125 309.532C100.125 309.532 102.192 312.012 104.19 313.094C106.188 314.176 109.327 314.604 110.51 315.725C111.364 316.533 113.617 320.012 105.317 319.943C97.0178 319.872 93.0161 320.434 92.1277 319.101C91.2393 317.767 93.4136 309.253 93.4136 309.253C93.4136 309.253 95.379 309.962 100.125 309.534V309.532Z" fill="#292C47"/>
<path d="M147.444 305.318C147.444 305.318 146.852 309.436 146.777 310.053C146.702 310.673 140.181 309.688 140.181 309.688L139.654 304.786C139.654 304.786 146.629 304.735 147.444 305.316V305.318Z" fill="#424773"/>
<path d="M146.846 309.532C146.846 309.532 148.913 312.012 150.911 313.094C152.909 314.176 160.263 315.065 161.443 316.184C162.297 316.992 163.715 320.245 152.038 319.941C143.743 319.724 139.737 320.432 138.849 319.099C137.96 317.765 140.135 309.251 140.135 309.251C140.135 309.251 141.986 310.007 146.846 309.532Z" fill="#292C47"/>
<path d="M106.123 199.496C106.123 199.496 99.9953 209.24 100.452 218.045C100.908 226.851 98.2307 236.467 97.3099 245.667C96.2836 255.922 92.0851 280.204 91.933 285.688C91.7809 291.175 92.5841 308.693 92.5841 308.693L100.989 308.886C100.989 308.886 108.05 266.439 109.877 262.107C111.704 257.775 120.773 226.898 121.077 223.433C121.381 219.968 106.121 199.496 106.121 199.496H106.123Z" fill="#292C47"/>
<path d="M138.376 200.815C138.376 200.815 142.992 224.953 143.603 230.342C144.211 235.732 144.619 256.427 144.923 259.797C145.228 263.166 146.956 303.88 148.58 308.886H137.835C137.835 308.886 129.586 279.288 129.586 265.283C129.586 251.279 123.213 234.839 119.1 225.599C114.986 216.358 105.569 216.139 103.04 198.997C103.04 198.997 134.952 195.377 138.378 200.815H138.376Z" fill="#292C47"/>
<path d="M116.345 117.585C116.345 117.585 124.57 114.512 128.361 120.776C132.153 127.04 131.786 139.585 127.643 141.126C123.497 142.669 117.27 141.861 115.148 137.941C113.027 134.021 111.11 128.354 111.201 124.566C111.293 120.778 114.185 118.677 116.345 117.585Z" fill="#EEA886"/>
<path d="M126.75 141.414C126.75 141.414 126.407 143.637 126.973 144.731C127.539 145.825 116.319 145.853 116.319 145.853C116.319 145.853 115.408 139.9 113.68 134.868C111.952 129.835 126.748 141.412 126.748 141.412L126.75 141.414Z" fill="#EEA886"/>
<path d="M113.682 134.87C113.682 134.87 114.457 136.148 117.617 135.653C120.777 135.158 124.635 130.948 125.955 130.485C127.275 130.022 127.288 129.247 127.288 129.247L128.113 130.454L129.515 130.544C129.515 130.544 128.237 126.778 130.166 125.244C132.095 123.709 128.164 113.056 118.027 116.602C118.027 116.602 110.24 118.75 110.524 123.181C110.808 127.613 111.942 132.661 113.684 134.87H113.682Z" fill="#3A3F47"/>
<path d="M127.641 144.599C127.641 144.599 127.606 142.508 126.659 142.307C125.712 142.106 116.203 141.191 115.039 141.65V144.085C115.039 144.085 117.28 145.466 127.641 144.599Z" fill="#E2D2CA"/>
<path d="M127.077 127.635C126.9 126.892 125.01 124.767 124.288 127.042C123.564 129.318 125.381 132.377 126.393 132.115C127.405 131.853 127.527 129.521 127.077 127.635Z" fill="#EEA886"/>
<path d="M165.378 169.311C165.378 169.311 165.368 169.309 165.362 169.311C165.426 169.339 165.436 169.341 165.378 169.311Z" fill="#323657"/>
<path d="M99.2104 222.706C99.2104 222.706 104.255 224.192 112.855 225.142C121.454 226.09 142.944 224.799 143.08 223.782C143.216 222.765 138.457 185.916 138.727 184.018C138.997 182.12 139.143 175.358 139.143 175.358C139.248 177.211 141.135 184.779 143.412 188.904C144.234 190.394 146.994 195.067 148.325 194.003C154.762 188.859 164.731 169.473 165.364 169.311C164.833 169.08 160.64 167.147 160.052 166.952C159.537 166.78 154.892 171.702 152.079 174.753C150.824 176.113 149.933 177.102 149.933 177.102C149.12 175.273 146.161 163.745 145.242 159.756C143.167 150.76 143.485 150.384 143.485 150.384C137.194 148.48 127.643 144.603 127.643 144.603L115.041 144.089C115.041 144.089 103.476 146.637 98.9204 148.697C98.4884 148.892 98.4863 159.023 97.2998 161.681L101.076 169.654C101.076 169.654 103.259 185.449 103.711 192.472C103.92 195.698 99.2125 222.71 99.2125 222.71L99.2104 222.706Z" fill="#00A78E"/>
<path d="M96.7744 174.829C97.103 175.892 98.5978 176.789 99.5673 177.183C100.188 177.435 100.886 177.516 101.585 177.386L102.078 177.295L110.715 175.691C110.715 175.691 112.605 153.912 98.9163 148.693C98.5552 148.813 93.7503 165.077 96.7744 174.829Z" fill="#00A78E"/>
<path d="M99.5693 177.181C100.19 177.433 100.888 177.514 101.587 177.384L102.08 177.293L101.228 166.163L99.5693 177.181V177.181Z" fill="#007866"/>
<path d="M149.929 177.098L150.984 181.572C150.984 181.572 152.13 177.084 152.073 174.751C150.817 176.111 149.927 177.1 149.927 177.1L149.929 177.098Z" fill="#007866"/>
<path d="M114.005 118.326C114.005 118.326 103.226 116.974 113.822 134.993L114.005 118.326Z" fill="#3A3F47"/>
<path d="M168.989 145.853L170.084 143.972L161.456 140.99L160.358 142.865L168.989 145.853Z" fill="#292C47"/>
</g>
<defs>
<clipPath id="clip0_1395_1053">
<rect width="271" height="320" fill="white"/>
</clipPath>
</defs>
</svg>
