<svg width="304" height="132" viewBox="0 0 304 132" fill="none" xmlns="http://www.w3.org/2000/svg">
<path fill-rule="evenodd" clip-rule="evenodd" d="M0.932617 10.719C0.932617 5.19614 5.40977 0.718994 10.9326 0.718994H293.933C299.455 0.718994 303.933 5.19615 303.933 10.719V55.3079C303.845 55.3058 303.757 55.3047 303.669 55.3047C297.821 55.3047 293.08 60.0453 293.08 65.8932C293.08 71.741 297.821 76.4817 303.669 76.4817C303.708 76.4817 303.746 76.4814 303.785 76.481C303.834 76.4805 303.884 76.4796 303.933 76.4784V121.067C303.933 126.59 299.455 131.067 293.933 131.067H10.9326C5.40978 131.067 0.932617 126.59 0.932617 121.067V76.4565C6.43702 76.0784 10.7849 71.4936 10.7849 65.8932C10.7849 60.2928 6.43702 55.7079 0.932617 55.3299V10.719Z" fill="#C1E4A1"/>
<g clip-path="url(#clip0_1394_1050)">
<path d="M258.063 118.103H216.813C213.763 118.103 211.193 115.833 210.813 112.813L203.083 50.9131H271.793L264.063 112.813C263.683 115.833 261.113 118.103 258.063 118.103Z" fill="#00A78E"/>
<path d="M266.003 50.9131L258.973 107.163C258.593 110.183 256.023 112.453 252.983 112.453H211.733C211.403 112.453 211.083 112.413 210.763 112.363L210.823 112.813C211.203 115.833 213.773 118.103 216.823 118.103H258.073C261.123 118.103 263.693 115.833 264.073 112.813L271.803 50.9131H266.013H266.003Z" fill="#007A69"/>
<path d="M210.763 60.603L215.683 103.223" stroke="white" stroke-width="2" stroke-miterlimit="10" stroke-linecap="round"/>
<path d="M271.223 56.5631H203.653C200.533 56.5631 198.003 54.0331 198.003 50.9131C198.003 47.7931 200.533 45.2631 203.653 45.2631H271.223C274.343 45.2631 276.873 47.7931 276.873 50.9131C276.873 54.0331 274.343 56.5631 271.223 56.5631Z" fill="#00A78E"/>
<path d="M271.713 45.2931C272.303 46.1831 272.653 47.2531 272.653 48.4131C272.653 51.5331 270.123 54.0631 267.003 54.0631H199.433C199.273 54.0631 199.103 54.0531 198.943 54.0431C199.953 55.5731 201.683 56.5731 203.653 56.5731H271.223C274.343 56.5731 276.873 54.0431 276.873 50.9231C276.873 47.9631 274.603 45.5431 271.713 45.3031V45.2931Z" fill="#007A69"/>
<path d="M277.853 51.343C277.853 73.663 259.763 91.763 237.433 91.763C215.103 91.763 197.023 73.673 197.023 51.343" stroke="#242424" stroke-width="1.51" stroke-miterlimit="10"/>
<path d="M198.163 51.5131C198.163 52.1431 197.653 52.653 197.023 52.653C196.393 52.653 195.883 52.1431 195.883 51.5131C195.883 50.8831 196.393 50.373 197.023 50.373C197.653 50.373 198.163 50.8831 198.163 51.5131Z" fill="#242424"/>
<path d="M276.713 51.5131C276.713 52.1431 277.223 52.653 277.853 52.653C278.483 52.653 278.993 52.1431 278.993 51.5131C278.993 50.8831 278.483 50.373 277.853 50.373C277.223 50.373 276.713 50.8831 276.713 51.5131Z" fill="#242424"/>
<path d="M245.283 13.6831H189.133C184.621 13.6831 180.963 17.3409 180.963 21.8531V37.0931C180.963 41.6053 184.621 45.2631 189.133 45.2631H245.283C249.796 45.2631 253.453 41.6053 253.453 37.0931V21.8531C253.453 17.3409 249.796 13.6831 245.283 13.6831Z" fill="#FFA900"/>
<path d="M248.043 14.1731C248.193 14.7931 248.283 15.4331 248.283 16.0931V31.3331C248.283 35.8431 244.623 39.5031 240.113 39.5031H183.953C182.983 39.5031 182.053 39.3231 181.193 39.0131C182.053 42.6031 185.273 45.2631 189.123 45.2631H245.273C249.783 45.2631 253.443 41.6031 253.443 37.0931V21.8531C253.443 18.3131 251.183 15.3031 248.033 14.1731H248.043Z" fill="#FF7700"/>
<path d="M197.443 24.8531C197.443 25.8331 196.393 26.6231 195.103 26.6231C193.813 26.6231 192.763 25.8331 192.763 24.8531C192.763 23.8731 193.813 23.0831 195.103 23.0831C196.393 23.0831 197.443 23.8731 197.443 24.8531Z" fill="#FF7700"/>
<path d="M188.713 20.0031C188.713 20.7431 187.923 21.3331 186.943 21.3331C185.963 21.3331 185.173 20.7331 185.173 20.0031C185.173 19.2731 185.963 18.6731 186.943 18.6731C187.923 18.6731 188.713 19.2731 188.713 20.0031Z" fill="#FF7700"/>
<path d="M205.383 18.9031C205.383 19.5131 204.723 20.0131 203.913 20.0131C203.103 20.0131 202.443 19.5131 202.443 18.9031C202.443 18.2931 203.103 17.7931 203.913 17.7931C204.723 17.7931 205.383 18.2931 205.383 18.9031Z" fill="#FF7700"/>
<path d="M210.693 30.1231C211.168 30.1231 211.553 29.8321 211.553 29.4731C211.553 29.1141 211.168 28.8231 210.693 28.8231C210.219 28.8231 209.833 29.1141 209.833 29.4731C209.833 29.8321 210.219 30.1231 210.693 30.1231Z" fill="#FF7700"/>
<path d="M219.913 38.9931C219.913 39.3531 219.523 39.6431 219.053 39.6431C218.583 39.6431 218.193 39.3531 218.193 38.9931C218.193 38.6331 218.583 38.3431 219.053 38.3431C219.523 38.3431 219.913 38.6331 219.913 38.9931Z" fill="#FF7700"/>
<path d="M188.753 32.9431C188.753 33.3031 188.363 33.5931 187.893 33.5931C187.423 33.5931 187.033 33.3031 187.033 32.9431C187.033 32.5831 187.423 32.2931 187.893 32.2931C188.363 32.2931 188.753 32.5831 188.753 32.9431Z" fill="#FF7700"/>
<path d="M241.693 20.3832C241.693 21.3632 240.643 22.1532 239.353 22.1532C238.063 22.1532 237.013 21.3632 237.013 20.3832C237.013 19.4032 238.063 18.6132 239.353 18.6132C240.643 18.6132 241.693 19.4032 241.693 20.3832Z" fill="#FF7700"/>
<path d="M250.263 18.9031C250.263 19.8831 249.213 20.6731 247.923 20.6731C246.633 20.6731 245.583 19.8831 245.583 18.9031C245.583 17.9231 246.633 17.1331 247.923 17.1331C249.213 17.1331 250.263 17.9231 250.263 18.9031Z" fill="#FF7700"/>
<path d="M237.013 36.1731C237.013 37.1531 235.963 37.9431 234.673 37.9431C233.383 37.9431 232.333 37.1531 232.333 36.1731C232.333 35.1931 233.383 34.4031 234.673 34.4031C235.963 34.4031 237.013 35.1931 237.013 36.1731Z" fill="#FF7700"/>
<path d="M250.993 29.7131C250.993 30.6931 249.943 31.4831 248.653 31.4831C247.363 31.4831 246.313 30.6931 246.313 29.7131C246.313 28.7331 247.363 27.9431 248.653 27.9431C249.943 27.9431 250.993 28.7331 250.993 29.7131Z" fill="#FF7700"/>
<path d="M227.453 20.7231C227.453 21.3631 226.763 21.8931 225.903 21.8931C225.043 21.8931 224.353 21.3731 224.353 20.7231C224.353 20.0731 225.043 19.5531 225.903 19.5531C226.763 19.5531 227.453 20.0731 227.453 20.7231Z" fill="#FF7700"/>
<path d="M226.273 29.9931C227.129 29.9931 227.823 29.4692 227.823 28.8231C227.823 28.1769 227.129 27.6531 226.273 27.6531C225.417 27.6531 224.723 28.1769 224.723 28.8231C224.723 29.4692 225.417 29.9931 226.273 29.9931Z" fill="#FF7700"/>
<path d="M201.343 40.6731C202.199 40.6731 202.893 40.1493 202.893 39.5031C202.893 38.857 202.199 38.3331 201.343 38.3331C200.487 38.3331 199.793 38.857 199.793 39.5031C199.793 40.1493 200.487 40.6731 201.343 40.6731Z" fill="#FF7700"/>
</g>
<path d="M20.9326 84.4817C20.9326 80.0634 24.5143 76.4817 28.9326 76.4817H125.933C130.351 76.4817 133.933 80.0634 133.933 84.4817V108.482C133.933 112.9 130.351 116.482 125.933 116.482H28.9326C24.5143 116.482 20.9326 112.9 20.9326 108.482V84.4817Z" fill="#00A78E"/>
<path d="M50.4046 102.642C49.5833 102.642 48.8473 102.46 48.1966 102.098C47.5566 101.724 47.05 101.218 46.6766 100.578C46.3033 99.927 46.1166 99.191 46.1166 98.3697V91.3777H47.6206V98.3377C47.6206 98.9244 47.7433 99.431 47.9886 99.8577C48.234 100.284 48.5646 100.615 48.9806 100.85C49.4073 101.084 49.882 101.202 50.4046 101.202C50.9486 101.202 51.4233 101.084 51.8286 100.85C52.2446 100.615 52.57 100.284 52.8046 99.8577C53.05 99.431 53.1726 98.9297 53.1726 98.3537V91.3777H54.6926V98.3857C54.6926 99.207 54.506 99.9377 54.1326 100.578C53.7593 101.218 53.2526 101.724 52.6126 102.098C51.9726 102.46 51.2366 102.642 50.4046 102.642ZM59.3265 102.642C58.8998 102.642 58.4945 102.588 58.1105 102.482C57.7372 102.364 57.3905 102.204 57.0705 102.002C56.7505 101.788 56.4732 101.538 56.2385 101.25L57.1665 100.322C57.4438 100.663 57.7638 100.919 58.1265 101.09C58.4892 101.25 58.8945 101.33 59.3425 101.33C59.7905 101.33 60.1372 101.255 60.3825 101.106C60.6278 100.946 60.7505 100.727 60.7505 100.45C60.7505 100.172 60.6492 99.959 60.4465 99.8097C60.2545 99.6497 60.0038 99.5217 59.6945 99.4257C59.3852 99.319 59.0545 99.2177 58.7025 99.1217C58.3612 99.015 58.0358 98.8817 57.7265 98.7217C57.4172 98.5617 57.1612 98.343 56.9585 98.0657C56.7665 97.7884 56.6705 97.4204 56.6705 96.9617C56.6705 96.503 56.7825 96.1084 57.0065 95.7777C57.2305 95.4364 57.5398 95.175 57.9345 94.9937C58.3398 94.8124 58.8252 94.7217 59.3905 94.7217C59.9878 94.7217 60.5158 94.8284 60.9745 95.0417C61.4438 95.2444 61.8278 95.5537 62.1265 95.9697L61.1985 96.8977C60.9852 96.6204 60.7185 96.407 60.3985 96.2577C60.0892 96.1084 59.7372 96.0337 59.3425 96.0337C58.9265 96.0337 58.6065 96.1084 58.3825 96.2577C58.1692 96.3964 58.0625 96.5937 58.0625 96.8497C58.0625 97.1057 58.1585 97.303 58.3505 97.4417C58.5425 97.5804 58.7932 97.6977 59.1025 97.7937C59.4225 97.8897 59.7532 97.991 60.0945 98.0977C60.4358 98.1937 60.7612 98.327 61.0705 98.4977C61.3798 98.6684 61.6305 98.8977 61.8225 99.1857C62.0252 99.4737 62.1265 99.8524 62.1265 100.322C62.1265 101.036 61.8705 101.602 61.3585 102.018C60.8572 102.434 60.1798 102.642 59.3265 102.642ZM67.2586 102.642C66.5013 102.642 65.8186 102.471 65.2106 102.13C64.6026 101.778 64.1226 101.303 63.7706 100.706C63.4186 100.108 63.2426 99.431 63.2426 98.6737C63.2426 97.927 63.4133 97.255 63.7546 96.6577C64.1066 96.0604 64.576 95.591 65.1626 95.2497C65.76 94.8977 66.4266 94.7217 67.1626 94.7217C67.8666 94.7217 68.4853 94.8817 69.0186 95.2017C69.5626 95.5217 69.984 95.9644 70.2826 96.5297C70.592 97.095 70.7466 97.735 70.7466 98.4497C70.7466 98.5564 70.7413 98.6737 70.7306 98.8017C70.72 98.919 70.6986 99.0577 70.6666 99.2177H64.2506V98.0177H69.8986L69.3706 98.4817C69.3706 97.9697 69.28 97.5377 69.0986 97.1857C68.9173 96.823 68.6613 96.5457 68.3306 96.3537C68 96.151 67.6 96.0497 67.1306 96.0497C66.64 96.0497 66.208 96.1564 65.8346 96.3697C65.4613 96.583 65.1733 96.8817 64.9706 97.2657C64.768 97.6497 64.6666 98.103 64.6666 98.6257C64.6666 99.159 64.7733 99.6284 64.9866 100.034C65.2 100.428 65.504 100.738 65.8986 100.962C66.2933 101.175 66.7466 101.282 67.2586 101.282C67.6853 101.282 68.0746 101.207 68.4266 101.058C68.7893 100.908 69.0986 100.684 69.3546 100.386L70.2826 101.33C69.92 101.756 69.472 102.082 68.9386 102.306C68.416 102.53 67.856 102.642 67.2586 102.642ZM79.1169 102.642C78.3702 102.642 77.6929 102.466 77.0849 102.114C76.4875 101.762 76.0129 101.287 75.6609 100.69C75.3195 100.082 75.1489 99.4097 75.1489 98.6737C75.1489 97.927 75.3195 97.255 75.6609 96.6577C76.0129 96.0604 76.4875 95.591 77.0849 95.2497C77.6929 94.8977 78.3702 94.7217 79.1169 94.7217C79.7035 94.7217 80.2475 94.8337 80.7489 95.0577C81.2502 95.271 81.6822 95.5857 82.0449 96.0017L81.0849 96.9617C80.8502 96.6844 80.5622 96.4764 80.2209 96.3377C79.8902 96.1884 79.5222 96.1137 79.1169 96.1137C78.6369 96.1137 78.2102 96.2257 77.8369 96.4497C77.4635 96.663 77.1702 96.9617 76.9569 97.3457C76.7435 97.7297 76.6369 98.1724 76.6369 98.6737C76.6369 99.175 76.7435 99.6177 76.9569 100.002C77.1702 100.386 77.4635 100.69 77.8369 100.914C78.2102 101.138 78.6369 101.25 79.1169 101.25C79.5222 101.25 79.8902 101.18 80.2209 101.042C80.5622 100.892 80.8555 100.679 81.1009 100.402L82.0449 101.362C81.6929 101.767 81.2609 102.082 80.7489 102.306C80.2475 102.53 79.7035 102.642 79.1169 102.642ZM86.8044 102.642C86.0577 102.642 85.3857 102.466 84.7884 102.114C84.191 101.762 83.7164 101.287 83.3644 100.69C83.0124 100.082 82.8364 99.4044 82.8364 98.6577C82.8364 97.9217 83.0124 97.2604 83.3644 96.6737C83.7164 96.0764 84.191 95.6017 84.7884 95.2497C85.3857 94.8977 86.0577 94.7217 86.8044 94.7217C87.5404 94.7217 88.207 94.8977 88.8044 95.2497C89.4124 95.591 89.8924 96.0604 90.2444 96.6577C90.5964 97.255 90.7724 97.9217 90.7724 98.6577C90.7724 99.4044 90.5964 100.082 90.2444 100.69C89.8924 101.287 89.4124 101.762 88.8044 102.114C88.207 102.466 87.5404 102.642 86.8044 102.642ZM86.8044 101.25C87.2844 101.25 87.711 101.138 88.0844 100.914C88.4577 100.69 88.751 100.386 88.9644 100.002C89.1777 99.607 89.2844 99.159 89.2844 98.6577C89.2844 98.167 89.1724 97.7297 88.9484 97.3457C88.735 96.9617 88.4417 96.663 88.0684 96.4497C87.7057 96.2257 87.2844 96.1137 86.8044 96.1137C86.3244 96.1137 85.8977 96.2257 85.5244 96.4497C85.151 96.663 84.8577 96.9617 84.6444 97.3457C84.431 97.7297 84.3244 98.167 84.3244 98.6577C84.3244 99.159 84.431 99.607 84.6444 100.002C84.8577 100.386 85.151 100.69 85.5244 100.914C85.8977 101.138 86.3244 101.25 86.8044 101.25ZM95.6109 102.642C94.9069 102.642 94.2775 102.471 93.7229 102.13C93.1682 101.778 92.7255 101.303 92.3949 100.706C92.0749 100.108 91.9149 99.4364 91.9149 98.6897C91.9149 97.943 92.0749 97.271 92.3949 96.6737C92.7255 96.0764 93.1682 95.6017 93.7229 95.2497C94.2775 94.8977 94.9069 94.7217 95.6109 94.7217C96.1762 94.7217 96.6882 94.8444 97.1469 95.0897C97.6055 95.3244 97.9735 95.655 98.2509 96.0817C98.5389 96.4977 98.6989 96.983 98.7309 97.5377V99.8257C98.6989 100.37 98.5442 100.855 98.2669 101.282C97.9895 101.708 97.6215 102.044 97.1629 102.29C96.7042 102.524 96.1869 102.642 95.6109 102.642ZM95.8509 101.282C96.3309 101.282 96.7469 101.17 97.0989 100.946C97.4615 100.722 97.7442 100.418 97.9469 100.034C98.1495 99.639 98.2509 99.191 98.2509 98.6897C98.2509 98.167 98.1442 97.7137 97.9309 97.3297C97.7282 96.9457 97.4455 96.6417 97.0829 96.4177C96.7309 96.1937 96.3149 96.0817 95.8349 96.0817C95.3549 96.0817 94.9335 96.1937 94.5709 96.4177C94.2082 96.6417 93.9202 96.951 93.7069 97.3457C93.5042 97.7297 93.4029 98.1724 93.4029 98.6737C93.4029 99.1857 93.5042 99.639 93.7069 100.034C93.9202 100.418 94.2082 100.722 94.5709 100.946C94.9442 101.17 95.3709 101.282 95.8509 101.282ZM99.6109 102.482H98.1549V100.434L98.4269 98.5777L98.1549 96.7377V91.0577H99.6109V102.482ZM105.227 102.642C104.47 102.642 103.787 102.471 103.179 102.13C102.571 101.778 102.091 101.303 101.739 100.706C101.387 100.108 101.211 99.431 101.211 98.6737C101.211 97.927 101.382 97.255 101.723 96.6577C102.075 96.0604 102.545 95.591 103.131 95.2497C103.729 94.8977 104.395 94.7217 105.131 94.7217C105.835 94.7217 106.454 94.8817 106.987 95.2017C107.531 95.5217 107.953 95.9644 108.251 96.5297C108.561 97.095 108.715 97.735 108.715 98.4497C108.715 98.5564 108.71 98.6737 108.699 98.8017C108.689 98.919 108.667 99.0577 108.635 99.2177H102.219V98.0177H107.867L107.339 98.4817C107.339 97.9697 107.249 97.5377 107.067 97.1857C106.886 96.823 106.63 96.5457 106.299 96.3537C105.969 96.151 105.569 96.0497 105.099 96.0497C104.609 96.0497 104.177 96.1564 103.803 96.3697C103.43 96.583 103.142 96.8817 102.939 97.2657C102.737 97.6497 102.635 98.103 102.635 98.6257C102.635 99.159 102.742 99.6284 102.955 100.034C103.169 100.428 103.473 100.738 103.867 100.962C104.262 101.175 104.715 101.282 105.227 101.282C105.654 101.282 106.043 101.207 106.395 101.058C106.758 100.908 107.067 100.684 107.323 100.386L108.251 101.33C107.889 101.756 107.441 102.082 106.907 102.306C106.385 102.53 105.825 102.642 105.227 102.642Z" fill="white"/>
<path d="M22.4497 57.7524V47.9524H24.0597V57.7524H22.4497ZM23.5557 53.5524V52.0824H28.5397V53.5524H23.5557ZM23.5557 49.4224V47.9524H28.7777V49.4224H23.5557ZM30.1834 57.7524V51.0324H31.7234V57.7524H30.1834ZM30.9534 49.8004C30.6921 49.8004 30.4728 49.7118 30.2954 49.5344C30.1274 49.3571 30.0434 49.1378 30.0434 48.8764C30.0434 48.6151 30.1274 48.3958 30.2954 48.2184C30.4728 48.0411 30.6921 47.9524 30.9534 47.9524C31.2241 47.9524 31.4434 48.0411 31.6114 48.2184C31.7794 48.3958 31.8634 48.6151 31.8634 48.8764C31.8634 49.1378 31.7794 49.3571 31.6114 49.5344C31.4434 49.7118 31.2241 49.8004 30.9534 49.8004ZM33.4507 57.7524V51.0324H34.9907V57.7524H33.4507ZM34.9907 54.0144L34.4587 53.7484C34.4587 52.8991 34.6453 52.2131 35.0187 51.6904C35.4013 51.1584 35.9753 50.8924 36.7407 50.8924C37.0767 50.8924 37.38 50.9531 37.6507 51.0744C37.9213 51.1958 38.1733 51.3918 38.4067 51.6624L37.3987 52.6984C37.2773 52.5678 37.142 52.4744 36.9927 52.4184C36.8433 52.3624 36.6707 52.3344 36.4747 52.3344C36.0453 52.3344 35.6907 52.4698 35.4107 52.7404C35.1307 53.0111 34.9907 53.4358 34.9907 54.0144ZM41.1995 57.8924C40.8261 57.8924 40.4668 57.8458 40.1215 57.7524C39.7761 57.6498 39.4588 57.5098 39.1695 57.3324C38.8801 57.1458 38.6281 56.9218 38.4135 56.6604L39.3935 55.6804C39.6268 55.9511 39.8928 56.1564 40.1915 56.2964C40.4995 56.4271 40.8448 56.4924 41.2275 56.4924C41.5728 56.4924 41.8341 56.4411 42.0115 56.3384C42.1888 56.2358 42.2775 56.0864 42.2775 55.8904C42.2775 55.6851 42.1935 55.5264 42.0255 55.4144C41.8575 55.3024 41.6381 55.2091 41.3675 55.1344C41.1061 55.0504 40.8261 54.9664 40.5275 54.8824C40.2381 54.7984 39.9581 54.6864 39.6875 54.5464C39.4261 54.3971 39.2115 54.1964 39.0435 53.9444C38.8755 53.6924 38.7915 53.3658 38.7915 52.9644C38.7915 52.5351 38.8895 52.1664 39.0855 51.8584C39.2908 51.5504 39.5755 51.3124 39.9395 51.1444C40.3128 50.9764 40.7561 50.8924 41.2695 50.8924C41.8108 50.8924 42.2868 50.9904 42.6975 51.1864C43.1175 51.3731 43.4675 51.6578 43.7475 52.0404L42.7675 53.0204C42.5715 52.7778 42.3475 52.5958 42.0955 52.4744C41.8435 52.3531 41.5541 52.2924 41.2275 52.2924C40.9195 52.2924 40.6815 52.3391 40.5135 52.4324C40.3455 52.5258 40.2615 52.6611 40.2615 52.8384C40.2615 53.0251 40.3455 53.1698 40.5135 53.2724C40.6815 53.3751 40.8961 53.4638 41.1575 53.5384C41.4281 53.6131 41.7081 53.6971 41.9975 53.7904C42.2961 53.8744 42.5761 53.9958 42.8375 54.1544C43.1081 54.3038 43.3275 54.5091 43.4955 54.7704C43.6635 55.0224 43.7475 55.3538 43.7475 55.7644C43.7475 56.4178 43.5188 56.9358 43.0615 57.3184C42.6041 57.7011 41.9835 57.8924 41.1995 57.8924ZM46.0391 57.7524V48.2324H47.5791V57.7524H46.0391ZM44.4291 52.4324V51.0324H49.1891V52.4324H44.4291ZM56.2048 57.8924C55.5422 57.8924 54.9402 57.7384 54.3988 57.4304C53.8668 57.1224 53.4468 56.7024 53.1388 56.1704C52.8308 55.6384 52.6768 55.0458 52.6768 54.3924C52.6768 53.7298 52.8308 53.1371 53.1388 52.6144C53.4468 52.0824 53.8668 51.6624 54.3988 51.3544C54.9402 51.0464 55.5422 50.8924 56.2048 50.8924C56.7275 50.8924 57.2128 50.9951 57.6608 51.2004C58.1182 51.3964 58.5055 51.6811 58.8228 52.0544L57.8148 53.0764C57.6188 52.8431 57.3808 52.6704 57.1008 52.5584C56.8302 52.4371 56.5315 52.3764 56.2048 52.3764C55.8222 52.3764 55.4815 52.4651 55.1828 52.6424C54.8935 52.8104 54.6648 53.0438 54.4968 53.3424C54.3382 53.6411 54.2588 53.9911 54.2588 54.3924C54.2588 54.7844 54.3382 55.1344 54.4968 55.4424C54.6648 55.7411 54.8935 55.9791 55.1828 56.1564C55.4815 56.3244 55.8222 56.4084 56.2048 56.4084C56.5315 56.4084 56.8302 56.3524 57.1008 56.2404C57.3808 56.1191 57.6188 55.9418 57.8148 55.7084L58.8228 56.7304C58.5055 57.1038 58.1182 57.3931 57.6608 57.5984C57.2128 57.7944 56.7275 57.8924 56.2048 57.8924ZM59.9331 57.7524V47.6724H61.4731V57.7524H59.9331ZM66.309 57.8924C65.637 57.8924 65.0303 57.7431 64.489 57.4444C63.957 57.1364 63.5323 56.7164 63.215 56.1844C62.907 55.6524 62.753 55.0551 62.753 54.3924C62.753 53.7298 62.907 53.1371 63.215 52.6144C63.523 52.0824 63.9383 51.6624 64.461 51.3544C64.993 51.0464 65.581 50.8924 66.225 50.8924C66.8503 50.8924 67.401 51.0371 67.877 51.3264C68.3623 51.6158 68.7403 52.0124 69.011 52.5164C69.291 53.0204 69.431 53.5944 69.431 54.2384C69.431 54.3504 69.4217 54.4671 69.403 54.5884C69.3937 54.7004 69.375 54.8264 69.347 54.9664H63.831V53.7064H68.549L67.975 54.2104C67.9563 53.7998 67.877 53.4544 67.737 53.1744C67.597 52.8944 67.3963 52.6798 67.135 52.5304C66.883 52.3811 66.5703 52.3064 66.197 52.3064C65.805 52.3064 65.4643 52.3904 65.175 52.5584C64.8857 52.7264 64.6617 52.9644 64.503 53.2724C64.3443 53.5711 64.265 53.9304 64.265 54.3504C64.265 54.7704 64.349 55.1391 64.517 55.4564C64.685 55.7738 64.923 56.0211 65.231 56.1984C65.539 56.3664 65.8937 56.4504 66.295 56.4504C66.6403 56.4504 66.9577 56.3898 67.247 56.2684C67.5457 56.1471 67.7977 55.9698 68.003 55.7364L68.983 56.7304C68.6563 57.1131 68.2597 57.4024 67.793 57.5984C67.3263 57.7944 66.8317 57.8924 66.309 57.8924ZM73.4795 57.8924C72.8729 57.8924 72.3222 57.7384 71.8275 57.4304C71.3422 57.1224 70.9549 56.7071 70.6655 56.1844C70.3855 55.6524 70.2455 55.0598 70.2455 54.4064C70.2455 53.7438 70.3855 53.1511 70.6655 52.6284C70.9549 52.0964 71.3422 51.6764 71.8275 51.3684C72.3222 51.0511 72.8729 50.8924 73.4795 50.8924C73.9929 50.8924 74.4455 51.0044 74.8375 51.2284C75.2389 51.4431 75.5562 51.7418 75.7895 52.1244C76.0229 52.5071 76.1395 52.9411 76.1395 53.4264V55.3584C76.1395 55.8438 76.0229 56.2778 75.7895 56.6604C75.5655 57.0431 75.2529 57.3464 74.8515 57.5704C74.4502 57.7851 73.9929 57.8924 73.4795 57.8924ZM73.7315 56.4364C74.3009 56.4364 74.7582 56.2451 75.1035 55.8624C75.4582 55.4798 75.6355 54.9898 75.6355 54.3924C75.6355 53.9911 75.5562 53.6364 75.3975 53.3284C75.2389 53.0204 75.0149 52.7824 74.7255 52.6144C74.4455 52.4371 74.1142 52.3484 73.7315 52.3484C73.3582 52.3484 73.0269 52.4371 72.7375 52.6144C72.4575 52.7824 72.2335 53.0204 72.0655 53.3284C71.9069 53.6364 71.8275 53.9911 71.8275 54.3924C71.8275 54.7938 71.9069 55.1484 72.0655 55.4564C72.2335 55.7644 72.4575 56.0071 72.7375 56.1844C73.0269 56.3524 73.3582 56.4364 73.7315 56.4364ZM75.5375 57.7524V55.9464L75.8035 54.3084L75.5375 52.6844V51.0324H77.0775V57.7524H75.5375ZM83.3926 57.7524V53.8744C83.3926 53.4264 83.248 53.0578 82.9586 52.7684C82.6786 52.4791 82.3146 52.3344 81.8666 52.3344C81.568 52.3344 81.302 52.3998 81.0686 52.5304C80.8353 52.6611 80.6533 52.8431 80.5226 53.0764C80.392 53.3098 80.3266 53.5758 80.3266 53.8744L79.7246 53.5384C79.7246 53.0251 79.8366 52.5724 80.0606 52.1804C80.2846 51.7791 80.5926 51.4664 80.9846 51.2424C81.386 51.0091 81.834 50.8924 82.3286 50.8924C82.8326 50.8924 83.2806 51.0231 83.6726 51.2844C84.0646 51.5364 84.3726 51.8678 84.5966 52.2784C84.8206 52.6798 84.9326 53.0998 84.9326 53.5384V57.7524H83.3926ZM78.7866 57.7524V51.0324H80.3266V57.7524H78.7866ZM86.5116 57.7524V51.0324H88.0516V57.7524H86.5116ZM87.2816 49.8004C87.0202 49.8004 86.8009 49.7118 86.6236 49.5344C86.4556 49.3571 86.3716 49.1378 86.3716 48.8764C86.3716 48.6151 86.4556 48.3958 86.6236 48.2184C86.8009 48.0411 87.0202 47.9524 87.2816 47.9524C87.5522 47.9524 87.7716 48.0411 87.9396 48.2184C88.1076 48.3958 88.1916 48.6151 88.1916 48.8764C88.1916 49.1378 88.1076 49.3571 87.9396 49.5344C87.7716 49.7118 87.5522 49.8004 87.2816 49.8004ZM94.3848 57.7524V53.8744C94.3848 53.4264 94.2401 53.0578 93.9508 52.7684C93.6708 52.4791 93.3068 52.3344 92.8588 52.3344C92.5601 52.3344 92.2941 52.3998 92.0608 52.5304C91.8275 52.6611 91.6455 52.8431 91.5148 53.0764C91.3841 53.3098 91.3188 53.5758 91.3188 53.8744L90.7168 53.5384C90.7168 53.0251 90.8288 52.5724 91.0528 52.1804C91.2768 51.7791 91.5848 51.4664 91.9768 51.2424C92.3781 51.0091 92.8261 50.8924 93.3208 50.8924C93.8248 50.8924 94.2728 51.0231 94.6648 51.2844C95.0568 51.5364 95.3648 51.8678 95.5888 52.2784C95.8128 52.6798 95.9248 53.0998 95.9248 53.5384V57.7524H94.3848ZM89.7788 57.7524V51.0324H91.3188V57.7524H89.7788ZM100.29 60.6924C99.5804 60.6924 98.9597 60.5618 98.4277 60.3004C97.8957 60.0484 97.4664 59.6891 97.1397 59.2224L98.1477 58.2144C98.4184 58.5504 98.7264 58.8024 99.0717 58.9704C99.4171 59.1384 99.8324 59.2224 100.318 59.2224C100.924 59.2224 101.405 59.0638 101.76 58.7464C102.114 58.4384 102.292 58.0138 102.292 57.4724V55.8204L102.558 54.3364L102.292 52.8384V51.0324H103.832V57.4724C103.832 58.1164 103.682 58.6764 103.384 59.1524C103.085 59.6378 102.67 60.0158 102.138 60.2864C101.606 60.5571 100.99 60.6924 100.29 60.6924ZM100.22 57.6124C99.6224 57.6124 99.0811 57.4678 98.5957 57.1784C98.1197 56.8798 97.7417 56.4738 97.4617 55.9604C97.1911 55.4471 97.0557 54.8731 97.0557 54.2384C97.0557 53.6038 97.1911 53.0344 97.4617 52.5304C97.7417 52.0264 98.1197 51.6298 98.5957 51.3404C99.0811 51.0418 99.6224 50.8924 100.22 50.8924C100.752 50.8924 101.218 50.9998 101.62 51.2144C102.021 51.4291 102.334 51.7278 102.558 52.1104C102.782 52.4838 102.894 52.9224 102.894 53.4264V55.0784C102.894 55.5731 102.777 56.0118 102.544 56.3944C102.32 56.7771 102.007 57.0758 101.606 57.2904C101.204 57.5051 100.742 57.6124 100.22 57.6124ZM100.528 56.1564C100.901 56.1564 101.228 56.0771 101.508 55.9184C101.788 55.7598 102.002 55.5404 102.152 55.2604C102.31 54.9711 102.39 54.6351 102.39 54.2524C102.39 53.8698 102.31 53.5384 102.152 53.2584C102.002 52.9691 101.788 52.7451 101.508 52.5864C101.228 52.4278 100.901 52.3484 100.528 52.3484C100.154 52.3484 99.8231 52.4278 99.5337 52.5864C99.2537 52.7451 99.0344 52.9691 98.8757 53.2584C98.7171 53.5384 98.6377 53.8698 98.6377 54.2524C98.6377 54.6258 98.7171 54.9571 98.8757 55.2464C99.0344 55.5358 99.2537 55.7598 99.5337 55.9184C99.8231 56.0771 100.154 56.1564 100.528 56.1564ZM108.345 57.7524V51.0324H109.885V57.7524H108.345ZM109.885 54.0144L109.353 53.7484C109.353 52.8991 109.54 52.2131 109.913 51.6904C110.296 51.1584 110.87 50.8924 111.635 50.8924C111.971 50.8924 112.275 50.9531 112.545 51.0744C112.816 51.1958 113.068 51.3918 113.301 51.6624L112.293 52.6984C112.172 52.5678 112.037 52.4744 111.887 52.4184C111.738 52.3624 111.565 52.3344 111.369 52.3344C110.94 52.3344 110.585 52.4698 110.305 52.7404C110.025 53.0111 109.885 53.4358 109.885 54.0144ZM116.963 57.8924C116.291 57.8924 115.685 57.7431 115.143 57.4444C114.611 57.1364 114.187 56.7164 113.869 56.1844C113.561 55.6524 113.407 55.0551 113.407 54.3924C113.407 53.7298 113.561 53.1371 113.869 52.6144C114.177 52.0824 114.593 51.6624 115.115 51.3544C115.647 51.0464 116.235 50.8924 116.879 50.8924C117.505 50.8924 118.055 51.0371 118.531 51.3264C119.017 51.6158 119.395 52.0124 119.665 52.5164C119.945 53.0204 120.085 53.5944 120.085 54.2384C120.085 54.3504 120.076 54.4671 120.057 54.5884C120.048 54.7004 120.029 54.8264 120.001 54.9664H114.485V53.7064H119.203L118.629 54.2104C118.611 53.7998 118.531 53.4544 118.391 53.1744C118.251 52.8944 118.051 52.6798 117.789 52.5304C117.537 52.3811 117.225 52.3064 116.851 52.3064C116.459 52.3064 116.119 52.3904 115.829 52.5584C115.54 52.7264 115.316 52.9644 115.157 53.2724C114.999 53.5711 114.919 53.9304 114.919 54.3504C114.919 54.7704 115.003 55.1391 115.171 55.4564C115.339 55.7738 115.577 56.0211 115.885 56.1984C116.193 56.3664 116.548 56.4504 116.949 56.4504C117.295 56.4504 117.612 56.3898 117.901 56.2684C118.2 56.1471 118.452 55.9698 118.657 55.7364L119.637 56.7304C119.311 57.1131 118.914 57.4024 118.447 57.5984C117.981 57.7944 117.486 57.8924 116.963 57.8924ZM124.134 57.8924C123.527 57.8924 122.976 57.7384 122.482 57.4304C121.996 57.1224 121.609 56.7071 121.32 56.1844C121.04 55.6524 120.9 55.0598 120.9 54.4064C120.9 53.7438 121.04 53.1511 121.32 52.6284C121.609 52.0964 121.996 51.6764 122.482 51.3684C122.976 51.0511 123.527 50.8924 124.134 50.8924C124.647 50.8924 125.1 51.0044 125.492 51.2284C125.893 51.4431 126.21 51.7418 126.444 52.1244C126.677 52.5071 126.794 52.9411 126.794 53.4264V55.3584C126.794 55.8438 126.677 56.2778 126.444 56.6604C126.22 57.0431 125.907 57.3464 125.506 57.5704C125.104 57.7851 124.647 57.8924 124.134 57.8924ZM124.386 56.4364C124.955 56.4364 125.412 56.2451 125.758 55.8624C126.112 55.4798 126.29 54.9898 126.29 54.3924C126.29 53.9911 126.21 53.6364 126.052 53.3284C125.893 53.0204 125.669 52.7824 125.38 52.6144C125.1 52.4371 124.768 52.3484 124.386 52.3484C124.012 52.3484 123.681 52.4371 123.392 52.6144C123.112 52.7824 122.888 53.0204 122.72 53.3284C122.561 53.6364 122.482 53.9911 122.482 54.3924C122.482 54.7938 122.561 55.1484 122.72 55.4564C122.888 55.7644 123.112 56.0071 123.392 56.1844C123.681 56.3524 124.012 56.4364 124.386 56.4364ZM126.192 60.5524V56.1004L126.458 54.4764L126.192 52.8384V51.0324H127.732V60.5524H126.192ZM132.199 57.8924C131.63 57.8924 131.121 57.7664 130.673 57.5144C130.234 57.2624 129.889 56.9171 129.637 56.4784C129.394 56.0304 129.273 55.5171 129.273 54.9384V51.0324H130.813V54.8684C130.813 55.1951 130.864 55.4751 130.967 55.7084C131.079 55.9324 131.238 56.1051 131.443 56.2264C131.658 56.3478 131.91 56.4084 132.199 56.4084C132.647 56.4084 132.988 56.2778 133.221 56.0164C133.464 55.7458 133.585 55.3631 133.585 54.8684V51.0324H135.125V54.9384C135.125 55.5264 134.999 56.0444 134.747 56.4924C134.504 56.9311 134.164 57.2764 133.725 57.5284C133.286 57.7711 132.778 57.8924 132.199 57.8924ZM139.795 57.8924C139.123 57.8924 138.517 57.7431 137.975 57.4444C137.443 57.1364 137.019 56.7164 136.701 56.1844C136.393 55.6524 136.239 55.0551 136.239 54.3924C136.239 53.7298 136.393 53.1371 136.701 52.6144C137.009 52.0824 137.425 51.6624 137.947 51.3544C138.479 51.0464 139.067 50.8924 139.711 50.8924C140.337 50.8924 140.887 51.0371 141.363 51.3264C141.849 51.6158 142.227 52.0124 142.497 52.5164C142.777 53.0204 142.917 53.5944 142.917 54.2384C142.917 54.3504 142.908 54.4671 142.889 54.5884C142.88 54.7004 142.861 54.8264 142.833 54.9664H137.317V53.7064H142.035L141.461 54.2104C141.443 53.7998 141.363 53.4544 141.223 53.1744C141.083 52.8944 140.883 52.6798 140.621 52.5304C140.369 52.3811 140.057 52.3064 139.683 52.3064C139.291 52.3064 138.951 52.3904 138.661 52.5584C138.372 52.7264 138.148 52.9644 137.989 53.2724C137.831 53.5711 137.751 53.9304 137.751 54.3504C137.751 54.7704 137.835 55.1391 138.003 55.4564C138.171 55.7738 138.409 56.0211 138.717 56.1984C139.025 56.3664 139.38 56.4504 139.781 56.4504C140.127 56.4504 140.444 56.3898 140.733 56.2684C141.032 56.1471 141.284 55.9698 141.489 55.7364L142.469 56.7304C142.143 57.1131 141.746 57.4024 141.279 57.5984C140.813 57.7944 140.318 57.8924 139.795 57.8924ZM146.35 57.8924C145.977 57.8924 145.617 57.8458 145.272 57.7524C144.927 57.6498 144.609 57.5098 144.32 57.3324C144.031 57.1458 143.779 56.9218 143.564 56.6604L144.544 55.6804C144.777 55.9511 145.043 56.1564 145.342 56.2964C145.65 56.4271 145.995 56.4924 146.378 56.4924C146.723 56.4924 146.985 56.4411 147.162 56.3384C147.339 56.2358 147.428 56.0864 147.428 55.8904C147.428 55.6851 147.344 55.5264 147.176 55.4144C147.008 55.3024 146.789 55.2091 146.518 55.1344C146.257 55.0504 145.977 54.9664 145.678 54.8824C145.389 54.7984 145.109 54.6864 144.838 54.5464C144.577 54.3971 144.362 54.1964 144.194 53.9444C144.026 53.6924 143.942 53.3658 143.942 52.9644C143.942 52.5351 144.04 52.1664 144.236 51.8584C144.441 51.5504 144.726 51.3124 145.09 51.1444C145.463 50.9764 145.907 50.8924 146.42 50.8924C146.961 50.8924 147.437 50.9904 147.848 51.1864C148.268 51.3731 148.618 51.6578 148.898 52.0404L147.918 53.0204C147.722 52.7778 147.498 52.5958 147.246 52.4744C146.994 52.3531 146.705 52.2924 146.378 52.2924C146.07 52.2924 145.832 52.3391 145.664 52.4324C145.496 52.5258 145.412 52.6611 145.412 52.8384C145.412 53.0251 145.496 53.1698 145.664 53.2724C145.832 53.3751 146.047 53.4638 146.308 53.5384C146.579 53.6131 146.859 53.6971 147.148 53.7904C147.447 53.8744 147.727 53.9958 147.988 54.1544C148.259 54.3038 148.478 54.5091 148.646 54.7704C148.814 55.0224 148.898 55.3538 148.898 55.7644C148.898 56.4178 148.669 56.9358 148.212 57.3184C147.755 57.7011 147.134 57.8924 146.35 57.8924ZM151.189 57.7524V48.2324H152.729V57.7524H151.189ZM149.579 52.4324V51.0324H154.339V52.4324H149.579Z" fill="#00A78E"/>
<path d="M21.6978 31.0842L27.1178 25.4842C27.4511 25.1509 27.7178 24.8442 27.9178 24.5642C28.1178 24.2842 28.2644 24.0242 28.3578 23.7842C28.4511 23.5309 28.4978 23.2776 28.4978 23.0242C28.4978 22.4776 28.3178 22.0509 27.9578 21.7442C27.6111 21.4242 27.1511 21.2642 26.5778 21.2642C26.0178 21.2642 25.5111 21.4176 25.0578 21.7242C24.6178 22.0176 24.1911 22.5042 23.7778 23.1842L21.6778 21.3642C22.2378 20.4176 22.9511 19.7042 23.8178 19.2242C24.6844 18.7442 25.6778 18.5042 26.7978 18.5042C27.7711 18.5042 28.6111 18.6842 29.3178 19.0442C30.0378 19.4042 30.5911 19.9176 30.9778 20.5842C31.3778 21.2509 31.5778 22.0309 31.5778 22.9242C31.5778 23.4842 31.5044 24.0042 31.3578 24.4842C31.2111 24.9509 30.9711 25.4176 30.6378 25.8842C30.3178 26.3376 29.8844 26.8376 29.3378 27.3842L25.5778 31.1242L21.6978 31.0842ZM21.6978 32.8442V31.0842L24.3578 30.1642H31.8578V32.8442H21.6978ZM37.5868 33.0642C36.6135 33.0642 35.7002 32.8976 34.8468 32.5642C34.0068 32.2176 33.3068 31.7242 32.7468 31.0842L34.7868 29.0642C35.0402 29.4376 35.4068 29.7442 35.8868 29.9842C36.3802 30.2109 36.9135 30.3242 37.4868 30.3242C37.9935 30.3242 38.4335 30.2376 38.8068 30.0642C39.1802 29.8776 39.4735 29.6176 39.6868 29.2842C39.9002 28.9376 40.0068 28.5376 40.0068 28.0842C40.0068 27.6176 39.9002 27.2176 39.6868 26.8842C39.4735 26.5509 39.1735 26.2976 38.7868 26.1242C38.4135 25.9376 37.9868 25.8442 37.5068 25.8442C37.0268 25.8442 36.5868 25.9109 36.1868 26.0442C35.7868 26.1642 35.4202 26.3509 35.0868 26.6042L35.3468 24.6042C35.6535 24.3642 35.9468 24.1709 36.2268 24.0242C36.5068 23.8642 36.8135 23.7442 37.1468 23.6642C37.4802 23.5842 37.8735 23.5442 38.3268 23.5442C39.3668 23.5442 40.2402 23.7576 40.9468 24.1842C41.6668 24.6109 42.2068 25.1776 42.5668 25.8842C42.9402 26.5909 43.1268 27.3709 43.1268 28.2242C43.1268 29.1576 42.8935 29.9909 42.4268 30.7242C41.9735 31.4576 41.3335 32.0309 40.5068 32.4442C39.6802 32.8576 38.7068 33.0642 37.5868 33.0642ZM35.0868 26.6042L33.7268 25.3442L34.4068 18.7242H37.2468L36.5068 25.2842L35.0868 26.6042ZM34.8268 21.3842L34.4068 18.7242H42.3468V21.3842H34.8268ZM47.3182 24.4042C46.7716 24.4042 46.2716 24.2776 45.8182 24.0242C45.3782 23.7576 45.0249 23.4042 44.7582 22.9642C44.4916 22.5109 44.3582 22.0042 44.3582 21.4442C44.3582 20.8976 44.4916 20.4042 44.7582 19.9642C45.0249 19.5242 45.3782 19.1776 45.8182 18.9242C46.2582 18.6576 46.7516 18.5242 47.2982 18.5242C47.8716 18.5242 48.3782 18.6576 48.8182 18.9242C49.2716 19.1776 49.6316 19.5242 49.8982 19.9642C50.1649 20.4042 50.2982 20.8976 50.2982 21.4442C50.2982 22.0042 50.1649 22.5109 49.8982 22.9642C49.6316 23.4042 49.2716 23.7576 48.8182 24.0242C48.3782 24.2776 47.8782 24.4042 47.3182 24.4042ZM47.3182 22.3242C47.5716 22.3242 47.7782 22.2442 47.9382 22.0842C48.0982 21.9242 48.1782 21.7176 48.1782 21.4642C48.1782 21.2109 48.0982 21.0042 47.9382 20.8442C47.7782 20.6842 47.5716 20.6042 47.3182 20.6042C47.0782 20.6042 46.8782 20.6842 46.7182 20.8442C46.5582 21.0042 46.4782 21.2109 46.4782 21.4642C46.4782 21.7176 46.5582 21.9242 46.7182 22.0842C46.8782 22.2442 47.0782 22.3242 47.3182 22.3242ZM53.7582 33.0442C53.2116 33.0442 52.7116 32.9109 52.2582 32.6442C51.8182 32.3776 51.4649 32.0242 51.1982 31.5842C50.9316 31.1309 50.7982 30.6309 50.7982 30.0842C50.7982 29.5242 50.9316 29.0309 51.1982 28.6042C51.4649 28.1642 51.8182 27.8109 52.2582 27.5442C52.6982 27.2776 53.1916 27.1442 53.7382 27.1442C54.3116 27.1442 54.8182 27.2776 55.2582 27.5442C55.7116 27.8109 56.0716 28.1642 56.3382 28.6042C56.6049 29.0309 56.7382 29.5242 56.7382 30.0842C56.7382 30.6309 56.6049 31.1309 56.3382 31.5842C56.0716 32.0376 55.7116 32.3976 55.2582 32.6642C54.8182 32.9176 54.3182 33.0442 53.7582 33.0442ZM53.7582 30.9642C54.0116 30.9642 54.2182 30.8842 54.3782 30.7242C54.5382 30.5642 54.6182 30.3509 54.6182 30.0842C54.6182 29.8442 54.5382 29.6442 54.3782 29.4842C54.2182 29.3109 54.0116 29.2242 53.7582 29.2242C53.5182 29.2242 53.3182 29.3109 53.1582 29.4842C52.9982 29.6442 52.9182 29.8442 52.9182 30.0842C52.9182 30.3509 52.9982 30.5642 53.1582 30.7242C53.3182 30.8842 53.5182 30.9642 53.7582 30.9642ZM44.9182 32.8442L53.3782 18.7242H56.1782L47.7182 32.8442H44.9182ZM69.1582 33.0442C68.1849 33.0442 67.2782 32.8642 66.4382 32.5042C65.6116 32.1309 64.8849 31.6242 64.2582 30.9842C63.6316 30.3309 63.1382 29.5776 62.7782 28.7242C62.4316 27.8576 62.2582 26.9309 62.2582 25.9442C62.2582 24.9442 62.4316 24.0176 62.7782 23.1642C63.1249 22.3109 63.6116 21.5642 64.2382 20.9242C64.8649 20.2842 65.5916 19.7842 66.4182 19.4242C67.2449 19.0642 68.1449 18.8842 69.1182 18.8842C70.0916 18.8842 70.9916 19.0642 71.8182 19.4242C72.6582 19.7842 73.3916 20.2842 74.0182 20.9242C74.6449 21.5642 75.1316 22.3176 75.4782 23.1842C75.8249 24.0376 75.9982 24.9642 75.9982 25.9642C75.9982 26.9509 75.8249 27.8776 75.4782 28.7442C75.1316 29.5976 74.6449 30.3442 74.0182 30.9842C73.4049 31.6242 72.6849 32.1309 71.8582 32.5042C71.0316 32.8642 70.1316 33.0442 69.1582 33.0442ZM69.1182 31.6242C70.1582 31.6242 71.0782 31.3776 71.8782 30.8842C72.6916 30.3909 73.3249 29.7176 73.7782 28.8642C74.2449 28.0109 74.4782 27.0376 74.4782 25.9442C74.4782 25.1309 74.3449 24.3842 74.0782 23.7042C73.8116 23.0109 73.4382 22.4109 72.9582 21.9042C72.4782 21.3842 71.9116 20.9842 71.2582 20.7042C70.6182 20.4242 69.9049 20.2842 69.1182 20.2842C68.0916 20.2842 67.1716 20.5309 66.3582 21.0242C65.5582 21.5042 64.9249 22.1709 64.4582 23.0242C64.0049 23.8776 63.7782 24.8509 63.7782 25.9442C63.7782 26.7576 63.9116 27.5109 64.1782 28.2042C64.4449 28.8976 64.8182 29.5042 65.2982 30.0242C65.7782 30.5309 66.3449 30.9242 66.9982 31.2042C67.6516 31.4842 68.3582 31.6242 69.1182 31.6242ZM78.8371 32.8442V19.0842H80.2971V32.8442H78.8371ZM79.7971 26.6242V25.2842H87.1771V26.6242H79.7971ZM79.7971 20.4242V19.0842H87.5171V20.4242H79.7971ZM90.1848 32.8442V19.0842H91.6448V32.8442H90.1848ZM91.1448 26.6242V25.2842H98.5248V26.6242H91.1448ZM91.1448 20.4242V19.0842H98.8648V20.4242H91.1448Z" fill="#00A78E"/>
<defs>
<clipPath id="clip0_1394_1050">
<rect width="98.03" height="104.42" fill="white" transform="translate(180.963 13.6831)"/>
</clipPath>
</defs>
</svg>
