<svg width="203" height="220" viewBox="0 0 203 220" fill="none" xmlns="http://www.w3.org/2000/svg">
<g clip-path="url(#clip0_689_841)">
<path d="M54.4654 137.816H90.9319C90.9319 137.816 96.7626 193.19 73.3904 193.19C50.0181 193.19 54.4654 137.816 54.4654 137.816Z" fill="#A5E4F3"/>
<path d="M54.4654 137.816C54.4654 137.816 45.114 118.984 42.7545 108.561C40.3951 98.1386 38.0356 90.4081 41.2227 94.508C44.4099 98.6079 52.3406 114.872 56.2565 123.084C58.6672 128.158 61.3901 133.079 64.4097 137.816H54.4654Z" fill="#A5E4F3"/>
<path d="M90.9317 137.817C95.2858 132.24 98.7526 126.025 101.21 119.392C104.495 109.599 106.151 104.573 101.345 108.401C96.54 112.229 80.938 137.817 80.938 137.817H90.9317Z" fill="#A5E4F3"/>
<path d="M67.3249 137.816C66.5952 125.995 65.0182 114.242 62.6059 102.646C58.9 84.5669 54.107 72.8846 52.044 74.9346C49.981 76.9845 53.2793 95.3354 56.2194 111.34C57.7879 120.291 59.921 129.134 62.6059 137.816H67.3249Z" fill="#A5E4F3"/>
<path d="M71.2161 137.816C71.352 137.816 72.7109 109.191 71.2161 91.9764C69.7214 74.7617 69.5484 66.3766 66.6331 66.5618C64.3107 66.71 62.3836 85.2091 63.7177 100.818C65.0519 116.428 67.3248 137.866 67.3248 137.866L71.2161 137.816Z" fill="#A5E4F3"/>
<path d="M71.2163 137.816C71.2163 137.816 78.8258 100.053 83.7671 100.991C88.7084 101.93 78.8258 137.816 78.8258 137.816H71.2163Z" fill="#A5E4F3"/>
<path d="M83.0136 137.817C83.7054 137.298 91.7597 117.07 95.3668 106.264C98.9739 95.459 99.258 92.2976 97.7386 91.9889C96.2191 91.6801 86.2378 106.944 81.7659 121.207C77.2941 135.47 76.627 137.817 76.627 137.817H83.0136Z" fill="#A5E4F3"/>
<path d="M71.908 138.619C72.0439 138.619 78.8751 107.746 81.2099 94.1622C83.5446 80.5781 85.3235 72.2301 83.2606 71.9337C81.1976 71.6374 73.798 90.5439 71.0432 107.055C68.2885 123.566 65.4967 138.607 66.2749 138.607L71.908 138.619Z" fill="#A5E4F3"/>
<path d="M62.6057 137.816C62.1487 136.359 54.2797 96.2492 50.6602 96.5579C47.0407 96.8667 57.3309 137.816 57.3309 137.816H62.6057Z" fill="#A5E4F3"/>
<path d="M0 193.647H203C203 193.647 194.723 203.526 187.299 211.776C179.875 220.025 79.1963 220.012 79.1963 220.012L12.7609 206.824L0 193.647Z" fill="#F6EDC4"/>
<path d="M64.9531 182.52C64.9531 182.52 67.1519 186.67 76.5527 187.855C78.7688 188.139 81.0017 188.271 83.2358 188.25C85.712 188.298 88.179 187.934 90.5365 187.176L92.0313 179.766L99.4432 143.336C99.4432 143.336 99.3444 142.731 96.4908 141.756C91.5835 140.249 86.5707 139.11 81.494 138.347L67.6337 175.395L64.9531 182.52Z" fill="#00A58D"/>
<path d="M81.4814 138.397C86.5581 139.159 91.5709 140.298 96.4782 141.805C99.3318 142.781 99.4306 143.349 99.4306 143.386L101.061 135.347C100.646 134.908 100.205 134.496 99.7394 134.112V134.285L98.8871 133.852C96.8364 132.852 91.5863 130.531 88.1892 131.062L88.2757 130.852C86.8491 130.931 85.436 131.172 84.0632 131.568L81.4814 138.397Z" fill="#7DBA47"/>
<path d="M83.2358 188.25C85.7121 188.298 88.179 187.935 90.5365 187.176L92.0313 179.767L99.4432 143.337L101.061 135.347C100.647 134.908 100.205 134.496 99.7397 134.112V134.285L98.8873 133.852C98.3561 135.544 97.5285 138.31 96.5279 141.756C92.1178 156.735 84.4217 184.064 83.2358 188.25Z" fill="#1C7263"/>
<path d="M88.1401 131.111C90.48 130.973 92.8206 131.37 94.9839 132.272C96.5958 132.856 98.168 133.545 99.6904 134.334V134.161L108.609 99.9787L106.843 99.5094L100.666 97.8423L88.1896 130.901L88.1401 131.111Z" fill="#7DBA47"/>
<path d="M94.9839 132.272C96.5958 132.856 98.168 133.545 99.6904 134.334V134.161L108.609 99.9786L106.843 99.5094L94.9839 132.272Z" fill="#7DBA47"/>
<path d="M59.7032 188.781C59.9626 188.88 63.5202 193.202 77.2446 194.128H77.9488C91.0802 194.919 94.1809 192.251 94.1809 192.251C94.1809 192.251 95.1074 187.645 95.4162 184.521C95.725 181.397 94.0944 180.334 91.9943 179.791L90.4997 187.201C88.3535 187.899 86.1105 188.253 83.8536 188.25C81.4017 188.328 78.9475 188.204 76.5158 187.88C67.115 186.645 64.9162 182.545 64.9162 182.545L67.5845 175.42C62.322 173.629 59.4437 188.695 59.7032 188.781Z" fill="#FFC625"/>
<path d="M77.9487 194.166C91.0802 194.956 94.1808 192.289 94.1808 192.289C94.1808 192.289 95.1073 187.682 95.4162 184.558C95.725 181.434 94.0943 180.372 91.9943 179.828L90.4996 187.238C88.3535 187.936 86.1104 188.29 83.8536 188.287C82.2363 190.57 80.239 192.558 77.9487 194.166Z" fill="#F9B313"/>
<path d="M114.526 192.98L115.502 193.943L116.293 194.758C116.293 194.758 123.915 185.743 128.868 178.248C133.822 170.752 135.23 161.095 132.426 154.994C132.426 154.994 141.333 125.146 142.729 120.577C144.125 116.008 144.125 117.144 144.125 117.144L146.533 117.267C150.107 124.54 153.166 132.055 155.687 139.755C159.504 151.697 171.956 192.721 171.956 192.721L172.623 192.98L173.982 193.486C173.982 193.486 176.786 175.827 176.786 166.689C176.786 157.55 174.872 153.722 168.782 147.622C168.782 147.622 168.016 126.035 164.458 113.587C163.147 108.905 161.596 104.293 159.813 99.7687C158.578 96.7556 157.849 95.286 157.849 95.286C156.229 93.8001 154.824 92.096 153.674 90.2228L153.464 89.8894C152.949 89.0484 152.483 88.1784 152.068 87.2837L151.784 86.6663C151.784 86.6663 151.784 86.5428 151.697 86.4811C151.611 86.4193 151.549 86.1476 151.475 85.9624L151.388 85.7895C151.289 85.5549 151.191 85.3202 151.079 85.0856C151.084 85.0363 151.084 84.9867 151.079 84.9374L150.808 84.3076L150.721 84.0977C150.721 83.9989 150.635 83.8877 150.585 83.7766L150.437 83.4185V83.2826C150.326 82.9986 150.202 82.7269 150.091 82.4429C150.068 82.3789 150.039 82.3169 150.005 82.2577C149.918 82.023 149.819 81.7884 149.721 81.5414L149.646 81.3315C149.399 80.7387 149.152 80.0966 148.918 79.5038L148.844 79.3062C148.745 79.0592 148.633 78.7876 148.535 78.5159C148.535 78.5159 148.535 78.4047 148.473 78.3553L148.115 77.3921L147.781 76.4782L147.707 76.2807C147.608 75.9967 147.509 75.7126 147.423 75.4409C147.418 75.404 147.418 75.3667 147.423 75.3298C147.312 75.0087 147.201 74.6876 147.102 74.3789V74.2184L146.842 73.4404L146.768 73.2304C146.682 72.9341 146.583 72.6377 146.496 72.3413C145.691 71.7466 144.826 71.2375 143.915 70.8223C143.915 70.8223 144.73 69.5875 145.422 68.2537C145.348 67.8833 145.286 67.5375 145.236 67.2041C145.23 67.1756 145.23 67.1461 145.236 67.1176C145.236 66.9818 145.236 66.8459 145.236 66.7101C145.236 66.5743 145.236 66.4013 145.236 66.2531C144.878 61.6346 145.002 57.3494 145.014 56.7814C145.014 56.7814 134.687 55.3489 129.35 55.6823L126.88 61.2641C125.434 64.4255 123.606 68.3772 122.074 71.4522C122.241 77.1364 122.773 82.804 123.668 88.4199C123.828 89.3214 123.989 90.334 124.137 91.4331C124.137 91.5566 124.137 91.6677 124.199 91.7912C124.471 93.8535 124.718 96.1751 124.94 98.645C125.833 107.986 126.031 117.381 125.533 126.752C124.681 136.112 120.147 177.865 114.526 192.98Z" fill="#00A58D"/>
<path d="M147.077 116.823C144.917 115.886 142.67 115.163 140.369 114.662L147.077 116.823Z" fill="#7C312D"/>
<path d="M124.137 91.4825C124.137 91.606 124.137 91.7171 124.199 91.8406C124.471 93.9029 124.718 96.2245 124.94 98.6944C129.377 97.8976 133.643 96.3436 137.553 94.1005C142.284 91.2042 146.64 87.7368 150.524 83.7766L150.375 83.4185V83.2826C150.264 82.9986 150.141 82.7269 150.03 82.4429C150.006 82.3789 149.977 82.3169 149.943 82.2577C149.857 82.023 149.758 81.7884 149.659 81.5414L149.585 81.3315C149.338 80.7387 149.091 80.0966 148.856 79.5038L148.782 79.3062C148.683 79.0592 148.572 78.7876 148.473 78.5159C148.473 78.5159 148.473 78.4047 148.411 78.3553L148.053 77.3921L147.719 76.4782L147.645 76.2807C147.547 75.9967 147.448 75.7126 147.361 75.4409C147.357 75.404 147.357 75.3667 147.361 75.3298C147.25 75.0087 147.139 74.6876 147.04 74.3789V74.2184L146.781 73.4404L146.707 73.2304C146.62 72.9341 146.521 72.6377 146.435 72.3413C145.629 71.7466 144.764 71.2375 143.853 70.8223C143.853 70.8223 144.668 69.5874 145.36 68.2537C145.286 67.8833 145.224 67.5375 145.175 67.2041C145.169 67.1756 145.169 67.1461 145.175 67.1176C145.175 66.9818 145.175 66.8459 145.175 66.7101C145.175 66.5743 145.175 66.4013 145.175 66.2531C144.816 61.6346 144.94 57.3494 144.952 56.7814C144.162 59.9057 143.482 70.8223 143.482 70.8223C143.482 70.8223 139.146 76.7252 134.835 81.5908C130.524 86.4564 126.595 91.8529 126.595 91.8529L124.137 91.4825Z" fill="#1C7263"/>
<path d="M115.502 193.943L116.293 194.758C116.293 194.758 123.915 185.743 128.869 178.248C133.822 170.752 135.231 161.095 132.426 154.994C132.426 154.994 141.333 125.146 142.729 120.577C144.125 116.008 144.125 117.144 144.125 117.144L146.534 117.267C150.107 124.54 153.166 132.055 155.687 139.755C159.504 151.697 171.957 192.721 171.957 192.721L172.624 192.98C171.942 187.992 170.869 183.066 169.412 178.248C168.646 175.876 168.399 175.024 168.399 174.95C168.498 175.086 169.276 177.334 169.399 177.679C169.091 176.679 164.248 160.317 161.913 152.067C159.443 143.559 149.153 117.774 149.153 117.774C149.153 117.774 141.074 113.97 140.382 112.834C140.382 112.834 139.146 118.614 136.676 130.913C134.205 143.213 130.709 157.291 130.709 157.291C130.709 157.291 132.229 163.379 128.918 172.11C126.163 179.334 118.245 190.251 115.502 193.943Z" fill="#1C7263"/>
<path d="M111.908 70.2666C112.853 71.2715 113.892 72.1852 115.008 72.9958C115.635 73.4801 116.203 74.0354 116.701 74.6506C117.444 75.5291 118.09 76.4855 118.628 77.5033C119.479 76.3119 120.192 75.0276 120.753 73.675C121.308 72.3784 121.679 71.341 121.679 71.341L122.334 70.0197C125.299 63.8451 128.992 55.5835 128.992 55.5835C134.329 55.2501 144.656 56.6826 144.656 56.6826C144.656 56.6826 144.495 61.2518 144.878 66.2161C144.878 66.3643 144.878 66.5125 144.878 66.6731C144.878 66.8336 144.878 66.9447 144.878 67.0806C144.872 67.1091 144.872 67.1385 144.878 67.167C144.878 67.5005 144.99 67.8462 145.064 68.2167C144.372 69.5257 143.557 70.7853 143.557 70.7853C144.468 71.2005 145.333 71.7096 146.138 72.3043C146.225 72.6007 146.324 72.897 146.41 73.1934L146.484 73.4033L146.744 74.1813V74.3419C146.842 74.6506 146.954 74.9717 147.065 75.2928C147.06 75.3297 147.06 75.367 147.065 75.4039C147.151 75.6756 147.25 75.9596 147.349 76.2437L147.423 76.4412L147.645 77.0463C147.645 77.1451 147.707 77.2439 147.757 77.3551L148.115 78.3183C148.115 78.3183 148.115 78.4295 148.177 78.4789C148.275 78.7505 148.387 79.0222 148.486 79.2692L148.56 79.4668C148.794 80.0842 149.041 80.7017 149.288 81.2945L149.363 81.5044C149.461 81.7514 149.56 81.986 149.647 82.2206C149.681 82.2799 149.71 82.3418 149.733 82.4059C149.844 82.6899 149.968 82.9616 150.079 83.2456V83.3815C150.166 83.6037 150.264 83.8384 150.363 84.0607L150.45 84.2706L150.721 84.9004C150.726 84.9497 150.726 84.9993 150.721 85.0486C150.833 85.2832 150.931 85.5178 151.03 85.7525C151.052 85.8031 151.077 85.8525 151.104 85.9007C151.178 86.09 151.253 86.2629 151.327 86.4193C151.327 86.4811 151.327 86.5552 151.413 86.6046L151.697 87.222C152.686 89.3479 153.953 91.333 155.465 93.1249C156.081 93.876 156.754 94.578 157.479 95.2243L154.6 81.0104L153.661 76.8364C157.494 72.1386 160.013 66.5101 160.962 60.5232C161.56 57.1287 161.518 53.6525 160.839 50.2734C160.313 48.2053 159.281 46.3 157.837 44.7286C156.073 42.5969 153.744 41.0049 151.117 40.1347C150.808 40.0359 150.499 39.9495 150.178 39.8754C149.522 39.7181 148.858 39.5985 148.189 39.5173C147.584 39.4432 146.954 39.4061 146.348 39.3691C140.981 39.1418 135.604 39.423 130.289 40.2088C129.486 40.3323 128.708 40.4682 127.967 40.6287C127.226 40.7892 126.732 40.9251 126.151 41.0856C125.877 41.1577 125.609 41.2485 125.348 41.3573C120.036 43.3208 117.331 49.2978 116.058 53.5336C115.144 56.6703 111.908 70.2666 111.908 70.2666Z" fill="#FFC625"/>
<path d="M147.868 77.0463C147.868 77.1451 147.929 77.2439 147.979 77.355L148.337 78.3183C148.337 78.3183 148.337 78.4294 148.399 78.4788C148.498 78.7505 148.609 79.0222 148.708 79.2691L148.782 79.4667C149.017 80.0842 149.264 80.7017 149.511 81.2944L149.585 81.5043C149.684 81.7513 149.782 81.986 149.869 82.2206C149.903 82.2799 149.932 82.3418 149.955 82.4058C150.067 82.6899 150.19 82.9615 150.301 83.2456V83.3814C150.388 83.6037 150.487 83.8383 150.585 84.0606L150.672 84.2706L150.944 84.9004C150.948 84.9496 150.948 84.9993 150.944 85.0485C151.055 85.2832 151.154 85.5178 151.252 85.7524C152.191 84.2829 153.377 82.4305 154.452 80.9116L153.513 76.7376C157.345 72.0398 159.864 66.4112 160.814 60.4243C161.411 57.0299 161.37 53.5537 160.69 50.1746L159.863 55.0031C159.863 55.0031 157.491 64.1414 155.453 67.8091C153.772 70.6031 151.876 73.262 149.782 75.762L147.868 77.0463Z" fill="#F9B313"/>
<path d="M116.713 74.6506C117.457 75.529 118.103 76.4855 118.64 77.5032C119.491 76.3119 120.204 75.0275 120.765 73.675C121.321 72.3783 121.691 71.341 121.691 71.341L122.346 70.0197L121.111 65.8827L120.234 69.1305C120.234 69.1305 118.183 72.5636 116.713 74.6506Z" fill="#F9B313"/>
<path d="M125.397 41.3202C129.14 42.3521 132.962 43.0667 136.824 43.4566C144.384 44.1728 148.078 42.2217 150.178 39.8383C149.522 39.681 148.858 39.5614 148.189 39.4802C147.584 39.4061 146.954 39.369 146.348 39.332C140.981 39.1047 135.604 39.3858 130.289 40.1717C129.486 40.2952 128.708 40.431 127.967 40.5916C127.226 40.7521 126.732 40.888 126.151 41.0485C125.894 41.1227 125.642 41.2134 125.397 41.3202Z" fill="#F9B313"/>
<path d="M130.265 23.8338C130.265 23.8338 132.599 25.9702 138.022 27.0323C140.347 27.5578 142.753 27.6166 145.101 27.2051C146.149 27.0708 147.118 26.5777 147.843 25.8097C148.486 23.5979 148.899 21.3261 149.079 19.03C149.387 15.1277 149.289 12.8554 149.079 12.5467C148.955 12.4026 148.814 12.274 148.659 12.1639C146.912 10.8712 144.951 9.89718 142.865 9.28655C139.727 8.43446 137.318 8.48385 136.812 8.78023C136.407 9.08855 136.064 9.46967 135.799 9.904C134.719 12.0393 133.81 14.2567 133.081 16.5355C132.179 19.3881 130.265 23.8338 130.265 23.8338Z" fill="#F3B6AB"/>
<path d="M149.078 25.6739C149.103 25.8405 149.162 26.0002 149.251 26.1432C149.645 26.8625 150.285 27.4151 151.055 27.6991C151.316 27.8049 151.608 27.8049 151.87 27.6991C152.895 27.1558 153.797 22.1297 152.932 20.9441C152.888 20.8749 152.829 20.816 152.759 20.7713C152.535 20.6294 152.271 20.5636 152.006 20.5836C151.741 20.6036 151.49 20.7084 151.289 20.8824C150.572 21.4616 150.008 22.2079 149.646 23.0559C149.271 23.8776 149.077 24.7705 149.078 25.6739Z" fill="#F3B6AB"/>
<path d="M149.647 22.9694C149.264 23.8063 149.07 24.7169 149.078 25.6369C149.103 25.8034 149.162 25.9631 149.251 26.1061C149.645 26.8254 150.285 27.3781 151.055 27.6621C151.379 25.3214 152.011 23.0337 152.933 20.8578C152.888 20.7885 152.829 20.7295 152.76 20.6848C152.535 20.543 152.271 20.4772 152.006 20.4972C151.741 20.5172 151.49 20.622 151.29 20.796C150.572 21.3751 150.008 22.1215 149.647 22.9694Z" fill="#F4948E"/>
<path d="M145.101 27.2052C146.149 27.0709 147.118 26.5778 147.843 25.8097C148.485 23.5979 148.899 21.3262 149.078 19.0301C149.387 15.1277 149.288 12.8555 149.078 12.5468C148.954 12.4026 148.813 12.2741 148.658 12.1639C148.387 15.56 147.559 23.1423 145.101 27.2052Z" fill="#F4948E"/>
<path d="M112.822 100.547C112.822 100.547 109.919 109.87 105.607 111.661L104.533 115.749C107.236 114.289 109.578 112.242 111.387 109.759C113.195 107.276 114.424 104.419 114.984 101.399L112.822 100.547Z" fill="#67C7CE"/>
<path d="M96.6887 97.3236C96.6887 97.3236 93.8474 106.808 96.2069 109.734L94.7862 113.526C92.445 108.226 92.2896 102.218 94.3539 96.8049L96.6887 97.3236Z" fill="#67C7CE"/>
<path d="M149.968 82.4429C149.944 82.3789 149.915 82.3169 149.881 82.2577C149.915 82.3169 149.944 82.3789 149.968 82.4429Z" fill="#8E3D35"/>
<path d="M151.784 86.6663C151.784 86.6663 151.784 86.5428 151.697 86.4811C151.611 86.4193 151.71 86.6169 151.784 86.6663Z" fill="#8E3D35"/>
<path d="M150.375 83.4802C150.378 83.4349 150.378 83.3896 150.375 83.3444C150.378 83.3896 150.378 83.4349 150.375 83.4802Z" fill="#8E3D35"/>
<path d="M150.746 84.3077C150.746 84.2459 150.684 84.1718 150.66 84.0977C150.635 84.0236 150.721 84.2459 150.746 84.3077Z" fill="#8E3D35"/>
<path d="M151.475 85.95C151.451 85.886 151.422 85.824 151.388 85.7648C151.422 85.824 151.451 85.886 151.475 85.95Z" fill="#8E3D35"/>
<path d="M146.608 73.4033L146.534 73.1934L146.608 73.4033Z" fill="#8E3D35"/>
<path d="M149.597 81.5413C149.574 81.4733 149.545 81.4072 149.511 81.3438C149.545 81.4072 149.574 81.4733 149.597 81.5413Z" fill="#8E3D35"/>
<path d="M146.917 74.3418C146.911 74.2884 146.911 74.2347 146.917 74.1813C146.911 74.2347 146.911 74.2884 146.917 74.3418Z" fill="#8E3D35"/>
<path d="M145.002 67.1551C144.997 67.1264 144.997 67.097 145.002 67.0682C144.997 67.097 144.997 67.1264 145.002 67.1551Z" fill="#8E3D35"/>
<path d="M148.794 79.5038L148.72 79.3186L148.794 79.5038Z" fill="#8E3D35"/>
<path d="M148.411 78.5406C148.398 78.4805 148.378 78.4224 148.35 78.3677C148.378 78.4224 148.398 78.4805 148.411 78.5406Z" fill="#8E3D35"/>
<path d="M147.645 76.4412L147.571 76.2313L147.645 76.4412Z" fill="#8E3D35"/>
<path d="M90.0795 92.8409C89.8942 91.9764 89.7954 91.2231 89.7954 91.2231C89.7954 91.2231 89.9436 91.9764 90.0795 92.8409Z" fill="#F3B6AB"/>
<path d="M147.472 17.6222C146.809 16.6544 145.94 15.8448 144.928 15.2511C144.056 14.7682 143.092 14.4776 142.099 14.399C142.702 15.4903 143.642 16.3569 144.779 16.8689C146.842 17.8321 147.472 17.6222 147.472 17.6222Z" fill="#5E240B"/>
<path d="M137.936 13.6459C138.356 13.9423 135.947 15.0907 133.662 15.0043C133.662 15.0043 136.033 12.3369 137.936 13.6459Z" fill="#5E240B"/>
<path d="M135.786 39.7766L136.379 41.5919C139.224 42.0909 142.145 41.9475 144.928 41.1721C145.446 40.8386 145.656 38.7887 145.656 38.7887C145.656 38.7887 144.606 38.8628 142.395 39.2703L141.283 39.4802C139.475 39.8446 137.623 39.9444 135.786 39.7766Z" fill="#F3B6AB"/>
<path d="M141.827 41.7648C142.868 41.6848 143.895 41.4859 144.891 41.1721C145.41 40.8386 145.62 38.7887 145.62 38.7887C145.62 38.7887 144.57 38.8628 142.358 39.2703C142.227 40.1109 142.05 40.9437 141.827 41.7648Z" fill="#F4948E"/>
<path d="M173.945 193.486V195.228H163.186C163.186 195.228 169.412 189.967 173.945 193.486Z" fill="#FFC625"/>
<path d="M116.293 194.758H105.533C105.533 194.758 113.328 189.041 116.293 194.758Z" fill="#FFC625"/>
<path d="M142.543 56.3986L144.668 56.6702C144.668 56.6702 148.584 44.7286 151.117 40.0977C150.163 39.7986 149.182 39.5919 148.189 39.4802C146.941 42.2958 143.062 51.3725 142.543 56.3986Z" fill="#00A58D"/>
<path d="M128.016 40.5917L129.004 55.5712H130.783C130.783 55.5712 130.524 44.6669 130.339 40.2212C129.536 40.2582 128.757 40.4311 128.016 40.5917Z" fill="#00A58D"/>
<path d="M127.608 32.1078C127.608 35.0716 129.857 38.3441 135.786 39.7766C141.716 41.2091 145.669 39.0974 147.386 37.5784C149.103 36.0595 148.955 33.2562 149.066 29.8232C149.066 28.2919 149.14 27.1558 149.251 26.1184C149.162 25.9754 149.103 25.8158 149.078 25.6492C149.07 24.7292 149.264 23.8186 149.646 22.9818C150.008 22.1338 150.572 21.3875 151.289 20.8083C152.333 19.1555 153.011 17.2987 153.278 15.3623C153.407 14.1587 153.143 12.9456 152.525 11.9046C152.228 11.2974 151.76 10.7906 151.178 10.4474C150.771 10.3609 151.067 9.05194 150.116 7.23661C149.114 4.87407 147.497 2.82299 145.434 1.29668C142.729 -0.605091 141.16 -0.0987698 140.196 0.666877C138.712 2.28195 137.465 4.09882 136.49 6.06345C136.439 6.16782 136.394 6.27503 136.354 6.38454C136.03 7.52679 135.847 8.70474 135.811 9.89169C136.076 9.45736 136.419 9.07624 136.824 8.76791C137.33 8.47153 139.739 8.42214 142.877 9.27423C145.145 9.9062 147.252 11.018 149.053 12.5344C149.263 12.8678 149.362 15.1154 149.053 19.0177C148.967 20.1415 148.831 21.1788 148.683 22.105C148.479 23.3569 148.194 24.5944 147.83 25.8097C146.867 27.1064 143.433 28.0943 137.948 27.0446C132.463 25.995 130.19 23.8462 130.19 23.8462C128.955 24.76 127.584 28.86 127.534 31.8114L127.608 32.1078Z" fill="#723212"/>
<path d="M127.411 72.2178C127.408 72.2627 127.419 72.3074 127.444 72.3452C127.468 72.383 127.504 72.4119 127.546 72.4277C131.378 73.4794 135.333 74.0192 139.307 74.0331C140.52 74.0386 141.732 73.9809 142.939 73.8602C142.986 73.8571 143.029 73.8362 143.062 73.8018C143.094 73.7674 143.112 73.722 143.111 73.675L143.346 65.8703V65.4875V63.2152C143.363 63.1716 143.363 63.1231 143.346 63.0794C143.311 63.0419 143.262 63.0197 143.21 63.0177C143.111 63.0177 133.525 62.9435 128.708 61.6963C128.656 61.6774 128.599 61.6774 128.547 61.6963C128.507 61.7335 128.477 61.7803 128.461 61.8321L128.3 63.4375V63.8203L127.411 72.2178ZM127.806 72.1066L128.658 63.9562V63.5734L128.806 62.1162C133.34 63.2276 141.629 63.3511 143 63.3511L142.939 65.4134V65.7962L142.704 73.4527C141.592 73.5638 140.443 73.6132 139.282 73.6132C135.407 73.6113 131.55 73.1048 127.806 72.1066Z" fill="#A2E7F4"/>
<path d="M128.238 63.8451L128.609 63.9562C132.982 65.2652 140.431 65.7222 142.914 65.8457H143.297V65.4628H142.914C140.443 65.3393 132.945 64.8701 128.634 63.5734L128.263 63.4623L128.238 63.8451Z" fill="#A2E7F4"/>
<path d="M121.333 72.5018C121.489 72.4643 121.626 72.3732 121.721 72.2444C121.816 72.1157 121.862 71.9575 121.852 71.7979C121.852 71.6991 121.852 71.378 121.716 70.6247C121.063 66.3551 120.765 62.0387 120.827 57.7199C120.83 57.6946 120.828 57.6688 120.821 57.6443C120.814 57.6197 120.802 57.5968 120.786 57.5771C120.77 57.5574 120.75 57.5413 120.727 57.5297C120.704 57.5181 120.679 57.5114 120.654 57.51C120.629 57.5064 120.604 57.5082 120.58 57.5153C120.556 57.5223 120.534 57.5345 120.515 57.551C120.496 57.5674 120.481 57.5877 120.471 57.6104C120.461 57.6332 120.456 57.6579 120.456 57.6828C120.384 62.0302 120.677 66.3759 121.333 70.6742C121.407 71.2669 121.469 71.7238 121.469 71.7979C121.469 72.0943 121.259 72.1313 121.259 72.1313C121.234 72.1357 121.211 72.1451 121.19 72.1587C121.169 72.1724 121.151 72.1902 121.137 72.2109C121.124 72.2317 121.114 72.255 121.11 72.2796C121.105 72.3041 121.105 72.3293 121.111 72.3536C121.115 72.3782 121.124 72.4016 121.138 72.4225C121.152 72.4433 121.17 72.4612 121.19 72.4751C121.211 72.4889 121.234 72.4984 121.259 72.503C121.284 72.5076 121.309 72.5072 121.333 72.5018Z" fill="#913F36"/>
<path d="M144.78 64.8577C144.827 64.8556 144.873 64.8374 144.909 64.8059C144.945 64.7745 144.969 64.7318 144.977 64.6848C145.649 59.856 147.153 55.1804 149.424 50.8661C149.459 50.8294 149.479 50.7808 149.479 50.7303C149.479 50.6797 149.459 50.6311 149.424 50.5944C149.38 50.5716 149.328 50.5666 149.28 50.5804C149.232 50.5941 149.191 50.6256 149.165 50.6685C146.855 55.0239 145.328 59.7515 144.656 64.6354C144.652 64.6855 144.666 64.7356 144.695 64.7764C144.725 64.8172 144.768 64.846 144.817 64.8577H144.78Z" fill="#913F36"/>
<path d="M124.137 91.4454C124.137 91.5813 124.137 91.7047 124.199 91.8406C128.173 92.5657 132.204 92.9336 136.243 92.9396C139.383 92.9484 142.518 92.7089 145.619 92.2234C148.361 91.808 151.057 91.1383 153.674 90.2228L153.464 89.8894C150.289 91.0255 139.356 94.2487 124.137 91.4454Z" fill="#A2E7F4"/>
<path d="M150.042 25.2046C150.036 25.2209 150.034 25.2384 150.036 25.2555C150.039 25.2727 150.045 25.2891 150.054 25.3035C150.064 25.3179 150.077 25.3298 150.092 25.3384C150.107 25.347 150.124 25.3519 150.141 25.3528C150.169 25.3513 150.196 25.341 150.218 25.3233C150.241 25.3056 150.257 25.2813 150.264 25.2541C150.301 25.0736 150.35 24.8961 150.413 24.723C150.684 24.9947 151.104 25.3775 151.413 25.3775C151.466 25.3901 151.521 25.3901 151.574 25.3775C151.883 25.1676 151.574 24.1426 151.24 23.414C151.504 23.106 151.798 22.8247 152.117 22.5743C152.13 22.5639 152.141 22.5507 152.148 22.5357C152.155 22.5208 152.159 22.5044 152.159 22.4878C152.159 22.4712 152.155 22.4549 152.148 22.44C152.141 22.425 152.13 22.4118 152.117 22.4014C152.094 22.3788 152.063 22.3661 152.031 22.3661C151.999 22.3661 151.968 22.3788 151.944 22.4014C151.019 23.1012 150.351 24.0865 150.042 25.2046ZM150.549 24.4637C150.693 24.1569 150.871 23.867 151.08 23.5993C151.317 24.0751 151.444 24.5987 151.45 25.1306C151.376 25.1799 150.969 24.9083 150.549 24.4637Z" fill="#993022"/>
<path d="M137.874 25.9455C138.202 25.9451 138.53 25.9078 138.85 25.8344C138.881 25.8231 138.908 25.8004 138.924 25.7707C138.94 25.7411 138.944 25.7065 138.936 25.6738C138.933 25.6576 138.927 25.6422 138.918 25.6287C138.909 25.6152 138.897 25.6039 138.882 25.5956C138.868 25.5874 138.852 25.5823 138.836 25.5809C138.82 25.5795 138.803 25.5817 138.788 25.5874C138.231 25.7165 137.653 25.725 137.092 25.6121C136.532 25.4992 136.002 25.2676 135.539 24.9329C135.367 24.805 135.226 24.6396 135.128 24.4491C135.029 24.2586 134.976 24.0482 134.971 23.8338C134.971 22.6606 136.873 22.5989 136.886 22.5989C136.899 22.6065 136.914 22.6105 136.929 22.6105C136.944 22.6105 136.959 22.6065 136.972 22.5989C137.849 21.5739 138.442 16.4243 138.368 16.1897C138.362 16.1742 138.354 16.1599 138.343 16.1477C138.332 16.1355 138.318 16.1257 138.303 16.1188C138.288 16.1119 138.272 16.108 138.256 16.1075C138.239 16.1069 138.223 16.1097 138.207 16.1156C138.193 16.1185 138.179 16.1244 138.166 16.1329C138.154 16.1413 138.143 16.1523 138.135 16.165C138.127 16.1777 138.121 16.1919 138.119 16.2068C138.117 16.2216 138.117 16.2368 138.121 16.2514C138.121 16.6219 137.59 21.364 136.811 22.426C136.466 22.426 134.785 22.6483 134.724 23.9326C134.721 24.187 134.779 24.4384 134.893 24.666C135.007 24.8936 135.173 25.0909 135.378 25.2416C136.109 25.7465 136.987 25.9942 137.874 25.9455Z" fill="#993022"/>
<path d="M143.927 29.996C143.927 29.996 137.071 28.5635 134.848 28.3165C134.949 29.1762 135.291 29.9898 135.835 30.663C136.38 31.3361 137.104 31.8413 137.924 32.1201C140.728 32.9475 143.927 29.996 143.927 29.996Z" fill="white"/>
<path d="M141.913 19.771C142.025 20.5983 142.408 21.2281 142.766 21.1787C143.124 21.1293 143.297 20.4131 143.173 19.5857C143.05 18.7583 142.679 18.1409 142.321 18.1903C141.963 18.2397 141.827 18.9559 141.913 19.771Z" fill="#1E1724"/>
<path d="M134.205 18.9806C134.329 19.808 134.712 20.4378 135.057 20.3884C135.403 20.339 135.601 19.6228 135.477 18.8077C135.354 17.9927 134.971 17.3505 134.625 17.3999C134.279 17.4493 134.094 18.1655 134.205 18.9806Z" fill="#1E1724"/>
<path d="M59.7028 188.781C59.9622 188.88 63.5199 193.19 77.232 194.129C90.944 195.067 94.1805 192.276 94.1805 192.276L93.5876 197.932C93.5876 197.932 75.2555 200.303 59.6904 195.82L59.7028 188.781Z" fill="#1C7263"/>
<path d="M98.5908 131.494L91.6484 129.37C91.6186 129.356 91.5931 129.335 91.5742 129.308C91.5618 129.276 91.5618 129.241 91.5742 129.209L102.297 101.337C102.302 101.322 102.311 101.307 102.322 101.295C102.333 101.283 102.347 101.273 102.361 101.266C102.376 101.259 102.393 101.256 102.409 101.255C102.426 101.254 102.442 101.257 102.457 101.263L105.657 102.374C105.672 102.379 105.686 102.386 105.698 102.396C105.71 102.406 105.72 102.418 105.727 102.432C105.734 102.446 105.738 102.461 105.739 102.477C105.739 102.493 105.737 102.508 105.731 102.523L98.8008 131.395C98.8094 131.423 98.8094 131.453 98.8008 131.481H98.5908V131.494ZM102.433 101.547L91.8954 129.172L98.5661 131.21L105.447 102.572L102.433 101.547Z" fill="#67C7CE"/>
<path d="M97.0961 139.706C93.647 138.426 90.0473 137.596 86.3859 137.236C86.3637 137.236 86.342 137.23 86.3226 137.219C86.3032 137.208 86.2868 137.193 86.2747 137.174C86.2658 137.155 86.2612 137.134 86.2612 137.112C86.2612 137.091 86.2658 137.07 86.2747 137.051L88.0289 133.346C88.0369 133.323 88.052 133.304 88.0721 133.29C88.0921 133.277 88.1159 133.271 88.14 133.272C91.5199 133.509 94.8256 134.376 97.8867 135.828C97.9104 135.841 97.9293 135.861 97.9404 135.886C97.9516 135.91 97.9544 135.938 97.9484 135.964L97.269 139.607C97.269 139.607 97.269 139.669 97.269 139.693H97.1579L97.0961 139.706ZM88.2141 133.531L86.5836 137.001C90.1596 137.391 93.6738 138.221 97.0467 139.471L97.6767 136.075C94.7084 134.646 91.4992 133.783 88.2141 133.531Z" fill="#A2E7F4"/>
<path d="M88.7085 186.114C88.7362 186.118 88.7642 186.111 88.7871 186.095C88.81 186.079 88.826 186.055 88.832 186.028L89.5979 182.977C89.6026 182.943 89.5953 182.909 89.5773 182.879C89.5592 182.85 89.5316 182.828 89.4991 182.817C89.4666 182.813 89.4337 182.82 89.4065 182.838C89.3793 182.857 89.3595 182.884 89.3509 182.916L88.585 185.966C88.5814 185.982 88.5811 185.999 88.5841 186.015C88.5872 186.032 88.5935 186.047 88.6028 186.061C88.612 186.075 88.6239 186.087 88.6378 186.096C88.6517 186.105 88.6674 186.111 88.6837 186.114H88.7085Z" fill="#232661"/>
<path d="M85.2866 186.114C85.311 186.096 85.3298 186.071 85.3408 186.043C85.3517 186.014 85.3544 185.983 85.3484 185.953C85.5711 185.112 85.8517 184.286 86.1884 183.484C86.1941 183.468 86.1967 183.452 86.196 183.435C86.1954 183.419 86.1914 183.403 86.1846 183.388C86.1777 183.373 86.168 183.36 86.1559 183.348C86.1438 183.337 86.1297 183.329 86.1143 183.323C86.0989 183.317 86.0824 183.315 86.066 183.315C86.0496 183.316 86.0335 183.32 86.0186 183.327C86.0037 183.334 85.9903 183.343 85.9792 183.356C85.968 183.368 85.9594 183.382 85.9537 183.397C85.0025 185.867 85.089 185.99 85.1137 186.04C85.1274 186.072 85.153 186.098 85.1852 186.112C85.2175 186.125 85.2537 186.126 85.2866 186.114Z" fill="#232661"/>
<path d="M82.5318 186.114C82.5576 186.116 82.5833 186.11 82.6055 186.097C82.6276 186.084 82.6451 186.064 82.6553 186.04L83.7671 183.508C83.7753 183.494 83.7802 183.478 83.7814 183.462C83.7826 183.445 83.7802 183.429 83.7743 183.413C83.7684 183.398 83.7592 183.384 83.7472 183.373C83.7353 183.362 83.721 183.353 83.7054 183.348C83.6894 183.34 83.6718 183.336 83.6539 183.335C83.636 183.335 83.6182 183.338 83.6018 183.345C83.5853 183.352 83.5706 183.363 83.5587 183.376C83.5467 183.389 83.5377 183.405 83.5324 183.422L82.5195 185.954C82.5071 185.986 82.5079 186.023 82.5217 186.055C82.5355 186.087 82.5613 186.113 82.5936 186.126L82.5318 186.114Z" fill="#232661"/>
<path d="M79.4433 185.608C79.4673 185.609 79.4911 185.602 79.5112 185.589C79.5312 185.576 79.5465 185.556 79.5545 185.534L80.4932 182.99C80.5028 182.957 80.5007 182.921 80.4871 182.89C80.4736 182.858 80.4496 182.832 80.4191 182.817C80.3864 182.809 80.3518 182.813 80.3222 182.829C80.2925 182.845 80.2698 182.871 80.2585 182.903L79.3197 185.435C79.3074 185.468 79.3082 185.504 79.322 185.536C79.3358 185.568 79.3616 185.594 79.3939 185.608H79.4433Z" fill="#232661"/>
<path d="M81.42 188.646C84.5245 188.643 87.6122 188.19 90.5861 187.299C90.6061 187.291 90.6234 187.277 90.6364 187.26C90.6495 187.243 90.6577 187.222 90.6603 187.201L92.155 179.791C92.155 179.791 92.155 179.668 92.0562 179.643C92.0237 179.639 91.9908 179.647 91.9636 179.665C91.9364 179.683 91.9166 179.71 91.9079 179.742L90.4256 187.028C86.2704 188.263 81.9037 188.62 77.6029 188.077C70.3393 187.028 66.6704 184.126 65.1015 182.446L68.1527 174.296C68.1642 174.265 68.1628 174.23 68.1489 174.2C68.135 174.17 68.1097 174.147 68.0786 174.135C68.0475 174.124 68.0131 174.125 67.983 174.139C67.9529 174.153 67.9295 174.178 67.918 174.209L64.8297 182.422C64.8178 182.442 64.8115 182.466 64.8115 182.489C64.8115 182.513 64.8178 182.537 64.8297 182.557C66.3738 184.249 70.1045 187.262 77.5288 188.324C78.8161 188.528 80.1168 188.635 81.42 188.646Z" fill="#232661"/>
<path d="M87.5347 95.286L109.597 100.189L122.988 103.165L123.655 100.534L111.512 97.8052L87.9176 92.5198L87.5347 95.286Z" fill="#69E8FF"/>
<path d="M109.598 100.189L122.989 103.165L123.668 100.547L111.512 97.8175L109.598 100.189Z" fill="#67C7CE"/>
<path d="M90.1904 94.224C90.1822 93.7611 90.145 93.2991 90.0792 92.8408C90.1985 93.5837 90.4406 94.3015 90.7957 94.9649C90.3378 93.435 90.0681 91.855 89.9927 90.2599C89.9867 90.2119 89.9632 90.1678 89.9268 90.1359C89.8904 90.104 89.8435 90.0866 89.7951 90.087C89.7691 90.0849 89.743 90.0886 89.7187 90.098C89.6944 90.1073 89.6725 90.1221 89.6547 90.1411C89.6369 90.1601 89.6236 90.1828 89.6158 90.2077C89.608 90.2325 89.606 90.2588 89.6098 90.2846C89.6717 91.6138 89.8662 92.9334 90.1904 94.224Z" fill="#913F36"/>
<path d="M127.608 32.1077C127.608 35.0715 129.857 38.344 135.786 39.7765C141.716 41.209 145.669 39.0973 147.386 37.5784C149.103 36.0594 148.955 33.2562 149.066 29.8231C149.066 28.2918 149.14 27.1557 149.251 26.1184C149.162 25.9754 149.103 25.8157 149.078 25.6491C149.07 24.7292 149.264 23.8186 149.646 22.9817C150.008 22.1337 150.572 21.3874 151.289 20.8083C152.333 19.1555 153.011 17.2986 153.278 15.3623C153.407 14.1586 153.143 12.9456 152.525 11.9045C152.037 12.124 151.498 12.2032 150.968 12.1334C150.437 12.0636 149.937 11.8475 149.523 11.5094C149.523 11.5094 148.905 10.6573 145.187 9.03953C142.888 8.10748 140.459 7.53678 137.985 7.34771C137.415 7.02124 136.902 6.60415 136.466 6.11279C136.414 6.21716 136.369 6.32436 136.33 6.43386C136.005 7.57612 135.822 8.75408 135.786 9.94104C136.051 9.5067 136.394 9.12558 136.799 8.81726C137.306 8.52088 139.714 8.47149 142.852 9.32358C145.121 9.95555 147.227 11.0673 149.029 12.5837C149.239 12.9172 149.338 15.1647 149.029 19.067C148.942 20.1908 148.806 21.2281 148.658 22.1543C148.658 22.7594 148.658 23.3892 148.72 23.8832C148.72 27.8967 145.619 33.6761 145.619 33.6761C144.979 34.6392 144.099 35.419 143.066 35.9387C142.033 36.4584 140.882 36.7001 139.727 36.6399C135.663 36.467 129.301 34.4417 128.251 33.0833C127.972 32.7026 127.744 32.2875 127.571 31.8484L127.608 32.1077Z" fill="#5E240B"/>
<path d="M115.082 100.053C115.861 100.411 115.675 98.9166 115.577 98.3239C115.713 98.9537 116.133 100.621 116.812 100.621C117.491 100.621 117.405 99.3859 117.368 98.7684C117.368 98.5338 117.368 98.3486 117.368 98.3486L117.813 98.7314L118.69 99.497C118.69 99.497 120.345 101.214 120.79 100.967C120.853 100.92 120.905 100.859 120.939 100.788C120.974 100.716 120.99 100.638 120.987 100.559C120.978 100.202 120.916 99.848 120.802 99.5094C120.838 99.5823 120.879 99.6525 120.926 99.7193C121.197 100.164 121.778 101.028 122.161 100.954C122.161 100.954 122.272 100.868 122.297 100.744C122.369 99.6065 122.323 98.4644 122.161 97.3359C123.932 97.6607 125.759 97.4853 127.436 96.8296C130.932 95.7429 136.651 92.1246 141.481 88.1235C146.311 84.1224 151.141 79.6767 152.154 77.8366C151.471 76.9321 150.724 76.0778 149.918 75.2803C149.396 74.751 148.848 74.2482 148.275 73.7738C146.893 72.6066 145.38 71.6037 143.767 70.7853C143.767 70.7853 136.515 79.4914 133.39 83.9247C130.265 88.3581 126.163 93.0755 126.163 93.0755C126.163 93.0755 120.58 91.9394 117.393 93.2113C114.205 94.4833 114.131 99.6082 115.082 100.053Z" fill="#F3B6AB"/>
<path d="M119.591 96.8791C119.692 98.2139 120.158 99.4954 120.938 100.584C120.929 100.227 120.866 99.8728 120.753 99.5341C120.788 99.6071 120.83 99.6772 120.876 99.7441C120.369 98.8799 120.061 97.914 119.974 96.9161C119.974 96.8658 119.955 96.8173 119.921 96.7806C119.886 96.7439 119.839 96.7217 119.789 96.7185C119.742 96.7177 119.697 96.7334 119.661 96.7627C119.625 96.7921 119.6 96.8333 119.591 96.8791Z" fill="#913F36"/>
<path d="M117.355 98.756C117.355 98.5214 117.355 98.3362 117.355 98.3362L117.8 98.719C117.477 98.1705 117.322 97.5393 117.355 96.9037C117.362 96.853 117.35 96.8016 117.32 96.7602C117.29 96.7187 117.245 96.6905 117.195 96.6814C117.144 96.6778 117.094 96.6938 117.055 96.726C117.016 96.7581 116.991 96.804 116.985 96.8543C116.916 97.5109 117.045 98.173 117.355 98.756Z" fill="#913F36"/>
<path d="M120.938 95.8293C121.437 97.4529 121.849 99.1018 122.173 100.769C122.245 99.6312 122.2 98.489 122.037 97.3606C123.809 97.6853 125.635 97.51 127.312 96.8543C130.808 95.7676 136.528 92.1493 141.358 88.1482C146.188 84.147 151.018 79.7014 152.031 77.8613C151.348 76.9568 150.601 76.1025 149.795 75.3051C147.308 79.145 144.445 82.7275 141.247 85.9994C136.417 91.0132 126.843 96.9284 125.756 96.7185L120.938 95.8293Z" fill="#F4948E"/>
<path d="M87.831 94.1499C87.8786 94.1691 87.9317 94.1691 87.9793 94.1499C88.1093 93.9672 88.1665 93.7427 88.1399 93.5201C88.1156 92.8166 88.0204 92.1174 87.8558 91.4331C88.0287 92.0382 88.9923 95.286 89.7952 95.3354C90.1041 95.3354 90.2029 94.8908 90.1905 94.2734C90.1823 93.8105 90.1452 93.3485 90.0793 92.8903C89.9187 92.1864 89.8323 91.5566 89.8076 91.3466C89.8076 91.5566 89.9805 92.1864 90.0793 92.8903C90.1986 93.6331 90.4408 94.351 90.7958 95.0143C90.9441 95.2119 91.0923 95.3354 91.2653 95.3354C91.4382 95.3354 91.6235 95.0514 91.71 94.6315C91.8092 93.3218 91.7678 92.0053 91.5865 90.7045C93.0092 91.9383 94.8425 92.5947 96.7254 92.5445C100.16 92.6062 105.051 90.0006 109.177 86.9009C112.731 84.2172 115.913 81.0736 118.64 77.5527C118.094 76.5401 117.449 75.5844 116.713 74.7C116.215 74.0848 115.647 73.5294 115.02 73.0452C113.904 72.2346 112.865 71.3209 111.92 70.316C111.92 70.316 108.869 74.4283 106.138 77.9231C103.408 81.4179 94.2794 87.8024 94.2794 87.8024C92.9369 86.8703 91.4133 86.2308 89.8076 85.9254C86.6328 85.1474 86.1016 85.9995 85.4963 88.6669C84.891 91.3343 87.1269 94.0758 87.831 94.1499Z" fill="#F3B6AB"/>
<path d="M86.9419 89.7289C87.0838 91.2271 87.433 92.6983 87.9795 94.1005C88.1095 93.9178 88.1668 93.6933 88.1401 93.4707C87.7302 92.2703 87.4567 91.0275 87.3248 89.7659C87.32 89.714 87.2978 89.6651 87.262 89.6271C87.2262 89.589 87.1788 89.564 87.1271 89.556V89.6548L86.9419 89.7289Z" fill="#913F36"/>
<path d="M90.7961 89.5067C90.7961 89.7042 91.3396 92.5816 91.7102 94.5821C91.8095 93.2725 91.7681 91.956 91.5867 90.6551C93.0095 91.8889 94.8428 92.5454 96.7256 92.4951C100.16 92.5569 105.052 89.9512 109.178 86.8516C112.732 84.1678 115.914 81.0243 118.64 77.5033C118.094 76.4907 117.449 75.5351 116.713 74.6506C113.492 79.4929 109.484 83.7628 104.854 87.2838C98.9245 91.4825 95.4532 91.5689 93.415 90.7168C91.3767 89.8648 90.722 89.2226 90.7961 89.5067Z" fill="#F4948E"/>
</g>
<defs>
<clipPath id="clip0_689_841">
<rect width="203" height="220" fill="white"/>
</clipPath>
</defs>
</svg>
