<svg width="291" height="316" viewBox="0 0 291 316" fill="none" xmlns="http://www.w3.org/2000/svg">
<g clip-path="url(#clip0_919_693)">
<path d="M78.5028 197.874H130.598C130.598 197.874 138.927 277.159 105.539 277.159C72.1496 277.159 78.5028 197.874 78.5028 197.874Z" fill="#A5E4F3"/>
<path d="M78.5028 197.874C78.5028 197.874 65.1437 170.91 61.773 155.986C58.4024 141.063 55.0317 129.994 59.5848 135.864C64.1378 141.735 75.4674 165.022 81.0616 176.78C84.5054 184.046 88.3953 191.091 92.709 197.874H78.5028Z" fill="#A5E4F3"/>
<path d="M130.598 197.874C136.818 189.89 141.771 180.992 145.281 171.493C149.975 157.472 152.34 150.275 145.475 155.756C138.61 161.238 116.321 197.874 116.321 197.874H130.598Z" fill="#A5E4F3"/>
<path d="M96.8737 197.874C95.8314 180.948 93.5785 164.119 90.1324 147.517C84.8382 121.631 77.991 104.904 75.0439 107.839C72.0968 110.774 76.8086 137.049 81.0087 159.965C83.2495 172.781 86.2968 185.443 90.1324 197.874H96.8737Z" fill="#A5E4F3"/>
<path d="M102.433 197.874C102.627 197.874 104.568 156.888 102.433 132.24C100.297 107.591 100.05 95.5854 95.8856 95.8506C92.5679 96.0628 89.8149 122.55 91.7208 144.9C93.6268 167.249 96.8738 197.945 96.8738 197.945L102.433 197.874Z" fill="#A5E4F3"/>
<path d="M102.433 197.874C102.433 197.874 113.303 143.804 120.362 145.147C127.421 146.491 113.303 197.874 113.303 197.874H102.433Z" fill="#A5E4F3"/>
<path d="M119.286 197.874C120.274 197.132 131.78 168.169 136.933 152.697C142.086 137.226 142.492 132.699 140.322 132.257C138.151 131.815 123.892 153.67 117.503 174.092C111.115 194.515 110.162 197.874 110.162 197.874H119.286Z" fill="#A5E4F3"/>
<path d="M103.421 199.024C103.615 199.024 113.374 154.819 116.71 135.369C120.045 115.919 122.586 103.967 119.639 103.542C116.692 103.118 106.121 130.189 102.186 153.829C98.2504 177.47 94.2621 199.006 95.3739 199.006L103.421 199.024Z" fill="#A5E4F3"/>
<path d="M90.1323 197.874C89.4794 195.788 78.238 138.357 73.0673 138.8C67.8966 139.242 82.5968 197.874 82.5968 197.874H90.1323Z" fill="#A5E4F3"/>
<path d="M0.695312 277.813H290.695C290.695 277.813 278.872 291.959 268.265 303.77C257.659 315.582 113.833 315.564 113.833 315.564L18.9251 296.68L0.695312 277.813Z" fill="#F6EDC4"/>
<path d="M93.4854 261.882C93.4854 261.882 96.6265 267.823 110.056 269.521C113.222 269.926 116.412 270.115 119.603 270.086C123.141 270.154 126.665 269.634 130.033 268.548L132.168 257.939L142.757 205.778C142.757 205.778 142.616 204.912 138.539 203.515C131.529 201.357 124.368 199.726 117.115 198.635L97.3148 251.68L93.4854 261.882Z" fill="#00A58D"/>
<path d="M117.098 198.705C124.35 199.797 131.511 201.428 138.522 203.585C142.598 204.982 142.739 205.796 142.739 205.849L145.069 194.338C144.476 193.71 143.846 193.12 143.18 192.57V192.817L141.963 192.198C139.033 190.766 131.533 187.442 126.68 188.202L126.804 187.902C124.766 188.016 122.747 188.36 120.786 188.927L117.098 198.705Z" fill="#7DBA47"/>
<path d="M119.604 270.086C123.141 270.154 126.665 269.634 130.033 268.548L132.168 257.939L142.757 205.778L145.069 194.338C144.476 193.71 143.846 193.12 143.18 192.57V192.817L141.963 192.198C141.204 194.621 140.022 198.582 138.592 203.515C132.292 224.963 121.298 264.092 119.604 270.086Z" fill="#1C7263"/>
<path d="M126.61 188.273C129.952 188.075 133.296 188.644 136.386 189.935C138.689 190.772 140.935 191.759 143.11 192.888V192.64L155.851 143.697L153.328 143.025L144.504 140.638L126.68 187.972L126.61 188.273Z" fill="#7DBA47"/>
<path d="M136.386 189.935C138.689 190.772 140.935 191.759 143.11 192.888V192.64L155.851 143.697L153.328 143.026L136.386 189.935Z" fill="#7DBA47"/>
<path d="M85.9852 270.847C86.3558 270.988 91.4382 277.177 111.044 278.503H112.05C130.81 279.635 135.239 275.815 135.239 275.815C135.239 275.815 136.563 269.22 137.004 264.747C137.445 260.273 135.116 258.752 132.115 257.974L129.98 268.583C126.914 269.583 123.71 270.09 120.486 270.086C116.983 270.197 113.477 270.02 110.003 269.556C96.5736 267.788 93.4324 261.917 93.4324 261.917L97.2443 251.715C89.7265 249.151 85.6146 270.723 85.9852 270.847Z" fill="#FFC625"/>
<path d="M112.051 278.556C130.81 279.688 135.239 275.868 135.239 275.868C135.239 275.868 136.563 269.273 137.004 264.8C137.445 260.326 135.116 258.805 132.116 258.027L129.98 268.637C126.914 269.636 123.71 270.143 120.486 270.139C118.176 273.408 115.322 276.255 112.051 278.556V278.556Z" fill="#F9B313"/>
<path d="M164.304 276.859L165.699 278.238L166.828 279.405C166.828 279.405 177.716 266.497 184.793 255.764C191.87 245.031 193.881 231.204 189.876 222.47C189.876 222.47 202.599 179.733 204.593 173.191C206.588 166.648 206.588 168.275 206.588 168.275L210.029 168.452C215.134 178.865 219.504 189.624 223.106 200.65C228.559 217.749 246.347 276.487 246.347 276.487L247.3 276.859L249.241 277.584C249.241 277.584 253.247 252.299 253.247 239.214C253.247 226.13 250.512 220.648 241.812 211.914C241.812 211.914 240.718 181.006 235.635 163.183C233.762 156.478 231.547 149.874 229 143.397C227.235 139.083 226.194 136.978 226.194 136.978C223.879 134.851 221.872 132.411 220.229 129.729L219.929 129.252C219.193 128.047 218.527 126.802 217.935 125.521L217.529 124.637C217.529 124.637 217.529 124.46 217.405 124.371C217.282 124.283 217.194 123.894 217.088 123.629L216.964 123.381C216.823 123.045 216.682 122.709 216.523 122.373C216.53 122.303 216.53 122.232 216.523 122.161L216.135 121.259L216.011 120.959C216.011 120.817 215.888 120.658 215.817 120.499L215.605 119.986V119.792C215.447 119.385 215.27 118.996 215.111 118.589C215.078 118.498 215.036 118.409 214.988 118.324C214.864 117.988 214.723 117.652 214.582 117.299L214.476 116.998C214.123 116.149 213.77 115.23 213.435 114.381L213.329 114.098C213.188 113.745 213.029 113.356 212.888 112.967C212.888 112.967 212.888 112.808 212.8 112.737L212.288 111.358L211.811 110.049L211.705 109.766C211.564 109.36 211.423 108.953 211.3 108.564C211.293 108.511 211.293 108.458 211.3 108.405C211.141 107.945 210.982 107.485 210.841 107.043V106.813L210.47 105.699L210.364 105.399C210.241 104.975 210.099 104.55 209.976 104.126C208.825 103.274 207.589 102.545 206.288 101.951C206.288 101.951 207.452 100.183 208.441 98.2732C208.335 97.7427 208.246 97.2476 208.176 96.7702C208.167 96.7294 208.167 96.6872 208.176 96.6464C208.176 96.4519 208.176 96.2574 208.176 96.0629C208.176 95.8684 208.176 95.6208 208.176 95.4087C207.664 88.7957 207.841 82.6602 207.858 81.8468C207.858 81.8468 193.105 79.7957 185.481 80.2731L181.952 88.2653C179.887 92.7918 177.275 98.45 175.087 102.853C175.325 110.991 176.085 119.106 177.363 127.147C177.593 128.438 177.822 129.888 178.034 131.462C178.034 131.639 178.034 131.798 178.122 131.975C178.511 134.927 178.864 138.252 179.181 141.788C180.456 155.163 180.739 168.614 180.028 182.032C178.811 195.434 172.334 255.216 164.304 276.859Z" fill="#00A58D"/>
<path d="M210.805 167.815C207.719 166.474 204.51 165.438 201.223 164.721L210.805 167.815Z" fill="#7C312D"/>
<path d="M178.034 131.532C178.034 131.709 178.034 131.868 178.122 132.045C178.511 134.998 178.864 138.322 179.181 141.858C185.519 140.718 191.614 138.493 197.199 135.281C203.958 131.134 210.181 126.169 215.729 120.499L215.517 119.986V119.792C215.358 119.385 215.182 118.996 215.023 118.589C214.989 118.498 214.948 118.409 214.9 118.324C214.776 117.988 214.635 117.652 214.494 117.299L214.388 116.998C214.035 116.149 213.682 115.23 213.347 114.381L213.241 114.098C213.1 113.745 212.941 113.356 212.8 112.967C212.8 112.967 212.8 112.807 212.711 112.737L212.2 111.357L211.723 110.049L211.617 109.766C211.476 109.359 211.335 108.953 211.211 108.564C211.205 108.511 211.205 108.457 211.211 108.405C211.052 107.945 210.894 107.485 210.752 107.043V106.813L210.382 105.699L210.276 105.399C210.153 104.974 210.011 104.55 209.888 104.126C208.737 103.274 207.501 102.545 206.199 101.951C206.199 101.951 207.364 100.183 208.352 98.273C208.247 97.7426 208.158 97.2475 208.088 96.7701C208.079 96.7293 208.079 96.6871 208.088 96.6463C208.088 96.4518 208.088 96.2573 208.088 96.0628C208.088 95.8683 208.088 95.6207 208.088 95.4085C207.576 88.7956 207.752 82.66 207.77 81.8467C206.641 86.3202 205.67 101.951 205.67 101.951C205.67 101.951 199.476 110.403 193.317 117.369C187.158 124.336 181.546 132.063 181.546 132.063L178.034 131.532Z" fill="#1C7263"/>
<path d="M165.699 278.238L166.828 279.405C166.828 279.405 177.717 266.497 184.793 255.764C191.87 245.031 193.882 231.204 189.876 222.47C189.876 222.47 202.599 179.733 204.594 173.191C206.588 166.648 206.588 168.275 206.588 168.275L210.029 168.452C215.134 178.865 219.504 189.624 223.106 200.65C228.559 217.749 246.347 276.487 246.347 276.487L247.3 276.859C246.327 269.717 244.793 262.664 242.712 255.764C241.618 252.369 241.265 251.149 241.265 251.043C241.406 251.238 242.518 254.456 242.694 254.951C242.253 253.519 235.335 230.09 232 218.279C228.471 206.096 213.77 169.177 213.77 169.177C213.77 169.177 202.229 163.731 201.241 162.104C201.241 162.104 199.476 170.379 195.946 187.99C192.417 205.601 187.423 225.758 187.423 225.758C187.423 225.758 189.593 234.475 184.864 246.976C180.928 257.32 169.616 272.951 165.699 278.238Z" fill="#1C7263"/>
<path d="M160.563 101.155C161.914 102.594 163.397 103.902 164.993 105.063C165.887 105.756 166.699 106.551 167.41 107.432C168.473 108.69 169.396 110.06 170.163 111.517C171.379 109.811 172.398 107.972 173.199 106.035C173.993 104.179 174.522 102.694 174.522 102.694L175.458 100.802C179.693 91.9608 184.97 80.1317 184.97 80.1317C192.593 79.6543 207.346 81.7053 207.346 81.7053C207.346 81.7053 207.117 88.2476 207.664 95.3556C207.664 95.5678 207.664 95.78 207.664 96.0099C207.664 96.2398 207.664 96.3989 207.664 96.5934C207.656 96.6342 207.656 96.6764 207.664 96.7172C207.664 97.1946 207.823 97.6897 207.929 98.2201C206.941 100.094 205.776 101.898 205.776 101.898C207.078 102.492 208.314 103.221 209.464 104.073C209.588 104.497 209.729 104.921 209.852 105.346L209.958 105.646L210.329 106.76V106.99C210.47 107.432 210.629 107.892 210.788 108.352C210.781 108.405 210.781 108.458 210.788 108.511C210.911 108.9 211.052 109.307 211.194 109.713L211.3 109.996L211.617 110.863C211.617 111.004 211.705 111.145 211.776 111.305L212.288 112.684C212.288 112.684 212.288 112.843 212.376 112.914C212.517 113.303 212.676 113.692 212.817 114.045L212.923 114.328C213.258 115.212 213.611 116.096 213.964 116.945L214.07 117.246C214.211 117.599 214.353 117.935 214.476 118.271C214.524 118.356 214.566 118.445 214.6 118.536C214.758 118.943 214.935 119.332 215.094 119.739V119.933C215.217 120.252 215.358 120.587 215.5 120.906L215.623 121.206L216.011 122.108C216.018 122.179 216.018 122.25 216.011 122.32C216.17 122.656 216.311 122.992 216.453 123.328C216.484 123.401 216.52 123.471 216.558 123.54C216.664 123.811 216.77 124.059 216.876 124.283C216.876 124.371 216.876 124.477 217 124.548L217.405 125.432C218.818 128.476 220.628 131.318 222.788 133.884C223.667 134.96 224.629 135.965 225.664 136.89L221.553 116.538L220.211 110.562C225.686 103.836 229.284 95.7765 230.641 87.2044C231.495 82.3441 231.435 77.3668 230.465 72.5285C229.713 69.5673 228.239 66.8394 226.176 64.5894C223.656 61.5372 220.329 59.2577 216.576 58.0118C216.135 57.8704 215.694 57.7466 215.235 57.6405C214.298 57.4153 213.35 57.2441 212.394 57.1277C211.529 57.0217 210.629 56.9686 209.764 56.9156C202.096 56.5901 194.415 56.9927 186.822 58.1179C185.675 58.2947 184.564 58.4892 183.505 58.7191C182.446 58.949 181.74 59.1435 180.911 59.3734C180.52 59.4766 180.137 59.6065 179.764 59.7624C172.175 62.5738 168.31 71.1317 166.493 77.1965C165.187 81.6877 160.563 101.155 160.563 101.155Z" fill="#FFC625"/>
<path d="M211.935 110.862C211.935 111.004 212.023 111.145 212.094 111.304L212.605 112.684C212.605 112.684 212.605 112.843 212.694 112.914C212.835 113.303 212.994 113.691 213.135 114.045L213.241 114.328C213.576 115.212 213.929 116.096 214.282 116.945L214.388 117.245C214.529 117.599 214.67 117.935 214.794 118.271C214.842 118.356 214.883 118.445 214.917 118.536C215.076 118.943 215.252 119.332 215.411 119.739V119.933C215.535 120.251 215.676 120.587 215.817 120.906L215.941 121.206L216.329 122.108C216.336 122.179 216.336 122.25 216.329 122.32C216.488 122.656 216.629 122.992 216.77 123.328C218.111 121.224 219.805 118.572 221.341 116.397L220 110.42C225.474 103.694 229.073 95.6349 230.429 87.0628C231.283 82.2025 231.223 77.2252 230.253 72.387L229.07 79.3005C229.07 79.3005 225.682 92.385 222.77 97.6365C220.369 101.637 217.661 105.444 214.67 109.024L211.935 110.862Z" fill="#F9B313"/>
<path d="M167.428 107.432C168.49 108.69 169.413 110.059 170.181 111.517C171.397 109.811 172.415 107.972 173.216 106.035C174.011 104.179 174.54 102.694 174.54 102.694L175.475 100.802L173.71 94.8782L172.458 99.5285C172.458 99.5285 169.528 104.444 167.428 107.432Z" fill="#F9B313"/>
<path d="M179.834 59.7092C185.18 61.1867 190.641 62.21 196.158 62.7682C206.958 63.7937 212.235 61 215.235 57.5874C214.298 57.3622 213.35 57.191 212.394 57.0746C211.529 56.9686 210.629 56.9155 209.764 56.8625C202.096 56.537 194.415 56.9396 186.823 58.0648C185.675 58.2416 184.564 58.4361 183.505 58.666C182.446 58.8959 181.74 59.0904 180.911 59.3203C180.544 59.4265 180.184 59.5563 179.834 59.7092V59.7092Z" fill="#F9B313"/>
<path d="M186.787 34.6719C186.787 34.6719 190.123 37.7308 197.87 39.2514C201.191 40.004 204.628 40.0881 207.982 39.499C209.479 39.3067 210.863 38.6006 211.9 37.5009C212.817 34.334 213.409 31.0813 213.664 27.7937C214.106 22.2062 213.964 18.9528 213.664 18.5107C213.487 18.3044 213.286 18.1203 213.064 17.9626C210.569 16.1118 207.767 14.7171 204.788 13.8428C200.305 12.6228 196.864 12.6935 196.14 13.1178C195.562 13.5593 195.072 14.105 194.693 14.7269C193.151 17.7842 191.853 20.9591 190.811 24.222C189.523 28.3064 186.787 34.6719 186.787 34.6719Z" fill="#F3B6AB"/>
<path d="M213.664 37.3065C213.7 37.545 213.784 37.7736 213.911 37.9784C214.474 39.0083 215.389 39.7996 216.488 40.2062C216.861 40.3576 217.279 40.3576 217.653 40.2062C219.117 39.4282 220.406 32.2318 219.17 30.5343C219.106 30.4352 219.022 30.3508 218.923 30.2868C218.603 30.0837 218.225 29.9894 217.847 30.0181C217.469 30.0468 217.11 30.1968 216.823 30.4459C215.798 31.2752 214.993 32.3438 214.476 33.558C213.94 34.7345 213.663 36.013 213.664 37.3065V37.3065Z" fill="#F3B6AB"/>
<path d="M214.476 33.4342C213.93 34.6324 213.653 35.9362 213.664 37.2534C213.7 37.4919 213.784 37.7206 213.912 37.9253C214.474 38.9553 215.389 39.7465 216.488 40.1532C216.951 36.8018 217.853 33.5261 219.17 30.4106C219.107 30.3115 219.022 30.227 218.923 30.163C218.603 29.9599 218.225 29.8657 217.847 29.8943C217.469 29.923 217.11 30.073 216.823 30.3222C215.798 31.1514 214.993 32.22 214.476 33.4342Z" fill="#F4948E"/>
<path d="M207.982 39.499C209.479 39.3067 210.863 38.6006 211.9 37.5009C212.817 34.3341 213.409 31.0813 213.664 27.7937C214.106 22.2063 213.964 18.9528 213.664 18.5108C213.487 18.3044 213.286 18.1203 213.064 17.9626C212.676 22.8251 211.494 33.6817 207.982 39.499Z" fill="#F4948E"/>
<path d="M161.869 144.511C161.869 144.511 157.722 157.86 151.563 160.424L150.028 166.277C153.89 164.187 157.236 161.257 159.819 157.701C162.403 154.146 164.159 150.055 164.958 145.731L161.869 144.511Z" fill="#67C7CE"/>
<path d="M138.822 139.896C138.822 139.896 134.763 153.475 138.133 157.666L136.104 163.094C132.759 155.507 132.537 146.904 135.486 139.153L138.822 139.896Z" fill="#67C7CE"/>
<path d="M214.935 118.589C214.901 118.498 214.86 118.409 214.812 118.324C214.86 118.409 214.901 118.498 214.935 118.589V118.589Z" fill="#8E3D35"/>
<path d="M217.529 124.637C217.529 124.637 217.529 124.46 217.406 124.371C217.282 124.283 217.423 124.566 217.529 124.637Z" fill="#8E3D35"/>
<path d="M215.517 120.075C215.52 120.01 215.52 119.945 215.517 119.88C215.52 119.945 215.52 120.01 215.517 120.075Z" fill="#8E3D35"/>
<path d="M216.047 121.259C216.047 121.171 215.959 121.065 215.923 120.959C215.888 120.853 216.011 121.171 216.047 121.259Z" fill="#8E3D35"/>
<path d="M217.088 123.611C217.054 123.519 217.013 123.431 216.964 123.346C217.013 123.431 217.054 123.519 217.088 123.611V123.611Z" fill="#8E3D35"/>
<path d="M210.135 105.646L210.029 105.346L210.135 105.646Z" fill="#8E3D35"/>
<path d="M214.406 117.299C214.372 117.201 214.331 117.107 214.282 117.016C214.331 117.107 214.372 117.201 214.406 117.299V117.299Z" fill="#8E3D35"/>
<path d="M210.576 106.99C210.568 106.914 210.568 106.837 210.576 106.76C210.568 106.837 210.568 106.914 210.576 106.99V106.99Z" fill="#8E3D35"/>
<path d="M207.841 96.6999C207.833 96.6588 207.833 96.6167 207.841 96.5756C207.833 96.6167 207.833 96.6588 207.841 96.6999Z" fill="#8E3D35"/>
<path d="M213.258 114.381L213.153 114.116L213.258 114.381Z" fill="#8E3D35"/>
<path d="M212.712 113.002C212.693 112.916 212.663 112.833 212.623 112.754C212.663 112.833 212.693 112.916 212.712 113.002Z" fill="#8E3D35"/>
<path d="M211.617 109.996L211.511 109.695L211.617 109.996Z" fill="#8E3D35"/>
<path d="M129.38 133.477C129.116 132.24 128.974 131.161 128.974 131.161C128.974 131.161 129.186 132.24 129.38 133.477Z" fill="#F3B6AB"/>
<path d="M211.37 25.778C210.422 24.3923 209.181 23.2331 207.735 22.3831C206.49 21.6917 205.112 21.2756 203.694 21.1631C204.555 22.7256 205.899 23.9664 207.523 24.6994C210.47 26.0786 211.37 25.778 211.37 25.778Z" fill="#5E240B"/>
<path d="M197.746 20.0844C198.346 20.5088 194.905 22.1532 191.64 22.0294C191.64 22.0294 195.029 18.2102 197.746 20.0844Z" fill="#5E240B"/>
<path d="M194.676 57.499L195.523 60.0982C199.587 60.8127 203.76 60.6073 207.735 59.497C208.476 59.0196 208.776 56.0845 208.776 56.0845C208.776 56.0845 207.276 56.1906 204.117 56.7741L202.529 57.0746C199.946 57.5964 197.3 57.7393 194.676 57.499V57.499Z" fill="#F3B6AB"/>
<path d="M203.305 60.3458C204.792 60.2311 206.26 59.9463 207.682 59.497C208.423 59.0196 208.723 56.0845 208.723 56.0845C208.723 56.0845 207.223 56.1906 204.064 56.7741C203.876 57.9776 203.623 59.17 203.305 60.3458V60.3458Z" fill="#F4948E"/>
<path d="M249.189 277.583V280.077H233.818C233.818 280.077 242.712 272.544 249.189 277.583Z" fill="#FFC625"/>
<path d="M166.828 279.405H151.457C151.457 279.405 162.593 271.218 166.828 279.405Z" fill="#FFC625"/>
<path d="M204.329 81.2986L207.364 81.6876C207.364 81.6876 212.958 64.5893 216.576 57.9587C215.213 57.5305 213.813 57.2345 212.394 57.0746C210.611 61.106 205.07 74.1021 204.329 81.2986Z" fill="#00A58D"/>
<path d="M183.575 58.6659L184.987 80.1139H187.528C187.528 80.1139 187.158 64.5009 186.893 58.1355C185.746 58.1885 184.634 58.4361 183.575 58.6659Z" fill="#00A58D"/>
<path d="M182.993 46.5186C182.993 50.7622 186.205 55.4478 194.676 57.4989C203.146 59.55 208.794 56.5264 211.247 54.3516C213.7 52.1767 213.488 48.163 213.647 43.2474C213.647 41.0549 213.753 39.4282 213.911 37.9429C213.784 37.7382 213.7 37.5096 213.664 37.2711C213.653 35.9538 213.93 34.65 214.476 33.4518C214.993 32.2376 215.798 31.169 216.823 30.3398C218.314 27.9733 219.283 25.3146 219.664 22.5422C219.849 20.8187 219.471 19.0819 218.588 17.5913C218.165 16.7219 217.496 15.9963 216.664 15.5048C216.082 15.381 216.506 13.5068 215.147 10.9076C213.716 7.52485 211.406 4.58808 208.458 2.40267C204.594 -0.320316 202.352 0.404645 200.976 1.50091C198.856 3.8134 197.074 6.41483 195.682 9.22782C195.608 9.37726 195.543 9.53076 195.487 9.68756C195.024 11.3231 194.763 13.0097 194.711 14.7092V14.7092C195.089 14.0873 195.58 13.5416 196.158 13.1001C196.882 12.6758 200.323 12.605 204.805 13.8251C208.046 14.7299 211.055 16.3218 213.629 18.493C213.929 18.9704 214.07 22.1885 213.629 27.7759C213.505 29.385 213.311 30.8702 213.1 32.1964C212.808 33.9889 212.401 35.7607 211.882 37.5009C210.505 39.3575 205.599 40.772 197.764 39.2691C189.929 37.7661 186.681 34.6895 186.681 34.6895C184.917 35.9979 182.958 41.8683 182.887 46.0942L182.993 46.5186Z" fill="#723212"/>
<path d="M182.711 103.949C182.707 104.013 182.723 104.077 182.758 104.131C182.793 104.185 182.845 104.227 182.905 104.249C188.379 105.755 194.028 106.528 199.705 106.548C201.438 106.556 203.17 106.473 204.894 106.301C204.961 106.296 205.024 106.266 205.069 106.217C205.115 106.168 205.141 106.103 205.141 106.035L205.476 94.8605V94.3123V91.0589C205.5 90.9964 205.5 90.9269 205.476 90.8644C205.425 90.8107 205.356 90.7789 205.282 90.776C205.141 90.776 191.446 90.6699 184.564 88.884C184.49 88.857 184.408 88.857 184.334 88.884C184.277 88.9373 184.235 89.0043 184.211 89.0786L183.981 91.3772V91.9253L182.711 103.949ZM183.276 103.79L184.493 92.1198V91.5717L184.705 89.4853C191.182 91.0766 203.023 91.2534 204.982 91.2534L204.894 94.2063V94.7544L204.558 105.717C202.97 105.876 201.329 105.947 199.67 105.947C194.135 105.944 188.624 105.219 183.276 103.79V103.79Z" fill="#A2E7F4"/>
<path d="M183.893 91.9607L184.422 92.1199C190.67 93.9941 201.311 94.6483 204.858 94.8251H205.405V94.277H204.858C201.329 94.1002 190.617 93.4283 184.458 91.5717L183.928 91.4126L183.893 91.9607Z" fill="#A2E7F4"/>
<path d="M174.028 104.356C174.25 104.302 174.447 104.171 174.582 103.987C174.718 103.803 174.784 103.576 174.769 103.348C174.769 103.206 174.769 102.747 174.575 101.668C173.642 95.5547 173.217 89.3744 173.305 83.1906C173.31 83.1544 173.307 83.1175 173.297 83.0823C173.287 83.0471 173.27 83.0144 173.247 82.9862C173.224 82.9579 173.195 82.9348 173.162 82.9183C173.13 82.9017 173.094 82.8921 173.058 82.89C173.022 82.8849 172.986 82.8875 172.952 82.8976C172.918 82.9077 172.886 82.9252 172.86 82.9487C172.833 82.9722 172.811 83.0013 172.797 83.0339C172.782 83.0665 172.775 83.1018 172.775 83.1375C172.672 89.3621 173.091 95.5845 174.028 101.739C174.134 102.587 174.222 103.242 174.222 103.348C174.222 103.772 173.922 103.825 173.922 103.825C173.887 103.831 173.854 103.845 173.824 103.864C173.794 103.884 173.769 103.909 173.749 103.939C173.729 103.969 173.716 104.002 173.709 104.037C173.702 104.072 173.703 104.109 173.711 104.143C173.717 104.179 173.73 104.212 173.75 104.242C173.769 104.272 173.795 104.298 173.824 104.317C173.854 104.337 173.887 104.351 173.922 104.357C173.957 104.364 173.993 104.363 174.028 104.356V104.356Z" fill="#913F36"/>
<path d="M207.523 93.4106C207.591 93.4076 207.656 93.3815 207.708 93.3365C207.759 93.2915 207.793 93.2303 207.805 93.163C208.764 86.2491 210.914 79.5544 214.159 73.3772C214.208 73.3246 214.236 73.2551 214.236 73.1827C214.236 73.1104 214.208 73.0407 214.159 72.9882C214.095 72.9555 214.021 72.9484 213.952 72.968C213.883 72.9877 213.825 73.0328 213.788 73.0943C210.487 79.3304 208.307 86.0995 207.347 93.0923C207.34 93.1641 207.36 93.2357 207.402 93.2942C207.444 93.3526 207.506 93.3939 207.576 93.4106H207.523Z" fill="#913F36"/>
<path d="M178.034 131.479C178.034 131.674 178.034 131.851 178.122 132.045C183.799 133.083 189.558 133.61 195.329 133.619C199.813 133.631 204.292 133.288 208.723 132.593C212.639 131.999 216.491 131.04 220.229 129.729L219.929 129.251C215.394 130.878 199.776 135.493 178.034 131.479Z" fill="#A2E7F4"/>
<path d="M215.041 36.6346C215.033 36.6579 215.03 36.6829 215.033 36.7075C215.036 36.732 215.045 36.7555 215.058 36.7761C215.072 36.7967 215.09 36.8139 215.112 36.8261C215.133 36.8384 215.157 36.8455 215.182 36.8468V36.8468C215.222 36.8446 215.261 36.8298 215.293 36.8045C215.325 36.7791 215.348 36.7444 215.359 36.7053C215.41 36.447 215.481 36.1929 215.57 35.945C215.959 36.334 216.559 36.8822 217 36.8822C217.075 36.9002 217.154 36.9002 217.229 36.8822C217.67 36.5816 217.229 35.114 216.753 34.0707C217.13 33.6297 217.55 33.227 218.006 32.8684C218.024 32.8535 218.039 32.8346 218.049 32.8132C218.059 32.7918 218.065 32.7683 218.065 32.7446C218.065 32.7209 218.059 32.6975 218.049 32.6761C218.039 32.6547 218.024 32.6358 218.006 32.6209C217.973 32.5885 217.928 32.5703 217.882 32.5703C217.836 32.5703 217.792 32.5885 217.759 32.6209C216.437 33.6229 215.482 35.0336 215.041 36.6346V36.6346ZM215.764 35.5737C215.971 35.1345 216.226 34.7194 216.523 34.336C216.863 35.0174 217.044 35.767 217.053 36.5285C216.947 36.5992 216.364 36.2102 215.764 35.5737Z" fill="#993022"/>
<path d="M197.658 37.6955C198.127 37.6949 198.595 37.6415 199.052 37.5363C199.098 37.5202 199.135 37.4877 199.158 37.4453C199.181 37.4028 199.187 37.3533 199.176 37.3065C199.172 37.2833 199.163 37.2612 199.15 37.2419C199.137 37.2225 199.119 37.2063 199.099 37.1945C199.079 37.1827 199.056 37.1755 199.033 37.1735C199.009 37.1714 198.986 37.1746 198.964 37.1827C198.168 37.3676 197.343 37.3797 196.542 37.2181C195.741 37.0564 194.985 36.7248 194.323 36.2456C194.077 36.0625 193.876 35.8256 193.735 35.5529C193.594 35.2801 193.518 34.9788 193.511 34.6719C193.511 32.9921 196.229 32.9037 196.246 32.9037C196.265 32.9146 196.286 32.9203 196.308 32.9203C196.33 32.9203 196.351 32.9146 196.37 32.9037C197.623 31.4362 198.47 24.0629 198.364 23.7269C198.356 23.7047 198.344 23.6842 198.328 23.6668C198.312 23.6494 198.293 23.6353 198.272 23.6254C198.25 23.6155 198.227 23.61 198.204 23.6092C198.18 23.6084 198.157 23.6124 198.135 23.6208C198.114 23.625 198.093 23.6334 198.076 23.6455C198.058 23.6577 198.043 23.6733 198.031 23.6915C198.02 23.7097 198.012 23.7301 198.009 23.7514C198.005 23.7726 198.006 23.7944 198.011 23.8153C198.011 24.3458 197.252 31.1355 196.14 32.6562C195.646 32.6562 193.246 32.9744 193.158 34.8133C193.155 35.1777 193.238 35.5376 193.4 35.8635C193.563 36.1893 193.8 36.4718 194.093 36.6876C195.137 37.4106 196.391 37.7651 197.658 37.6955V37.6955Z" fill="#993022"/>
<path d="M206.305 43.4951C206.305 43.4951 196.511 41.444 193.334 41.0903C193.479 42.3213 193.968 43.4862 194.746 44.45C195.523 45.4138 196.558 46.1372 197.729 46.5363C201.735 47.721 206.305 43.4951 206.305 43.4951Z" fill="white"/>
<path d="M203.429 28.8546C203.588 30.0393 204.135 30.941 204.647 30.8703C205.158 30.7996 205.405 29.7741 205.229 28.5894C205.052 27.4047 204.523 26.5206 204.011 26.5914C203.499 26.6621 203.305 27.6876 203.429 28.8546Z" fill="#1E1724"/>
<path d="M192.417 27.7229C192.593 28.9076 193.14 29.8094 193.635 29.7386C194.129 29.6679 194.411 28.6424 194.235 27.4754C194.058 26.3084 193.511 25.3889 193.017 25.4596C192.523 25.5304 192.258 26.5559 192.417 27.7229Z" fill="#1E1724"/>
<path d="M85.9854 270.847C86.356 270.988 91.4385 277.159 111.027 278.503C130.616 279.847 135.239 275.851 135.239 275.851L134.392 283.949C134.392 283.949 108.204 287.344 85.9678 280.925L85.9854 270.847Z" fill="#1C7263"/>
<path d="M141.539 188.821L131.622 185.78C131.579 185.76 131.543 185.73 131.516 185.691C131.498 185.646 131.498 185.596 131.516 185.55L146.834 145.642C146.842 145.62 146.854 145.6 146.87 145.582C146.886 145.565 146.905 145.551 146.926 145.541C146.947 145.531 146.971 145.526 146.994 145.525C147.018 145.524 147.041 145.528 147.063 145.536L151.634 147.128C151.655 147.134 151.675 147.144 151.693 147.158C151.71 147.172 151.724 147.19 151.734 147.21C151.744 147.23 151.75 147.252 151.751 147.274C151.752 147.297 151.748 147.319 151.74 147.34L141.839 188.68C141.852 188.72 141.852 188.763 141.839 188.803H141.539V188.821ZM147.028 145.943L131.975 185.497L141.504 188.414L151.334 147.411L147.028 145.943Z" fill="#67C7CE"/>
<path d="M139.404 200.579C134.477 198.747 129.334 197.558 124.104 197.043C124.072 197.043 124.041 197.034 124.013 197.019C123.986 197.003 123.962 196.981 123.945 196.955C123.932 196.927 123.926 196.897 123.926 196.866C123.926 196.836 123.932 196.806 123.945 196.778L126.451 191.473C126.462 191.441 126.484 191.413 126.512 191.394C126.541 191.375 126.575 191.365 126.609 191.367C131.438 191.707 136.16 192.948 140.533 195.027C140.567 195.046 140.594 195.075 140.61 195.11C140.626 195.145 140.63 195.184 140.622 195.222L139.651 200.438C139.651 200.438 139.651 200.526 139.651 200.562H139.492L139.404 200.579ZM126.715 191.739L124.386 196.707C129.495 197.266 134.515 198.453 139.333 200.244L140.233 195.381C135.993 193.334 131.408 192.099 126.715 191.739V191.739Z" fill="#A2E7F4"/>
<path d="M127.421 267.027C127.461 267.033 127.501 267.023 127.534 267C127.566 266.977 127.589 266.943 127.598 266.904L128.692 262.536C128.699 262.488 128.688 262.438 128.662 262.396C128.637 262.354 128.597 262.322 128.551 262.306C128.504 262.301 128.457 262.312 128.419 262.338C128.38 262.364 128.351 262.403 128.339 262.448L127.245 266.815C127.24 266.839 127.239 266.863 127.244 266.886C127.248 266.909 127.257 266.932 127.27 266.952C127.284 266.971 127.301 266.988 127.32 267.001C127.34 267.014 127.363 267.023 127.386 267.027H127.421Z" fill="#232661"/>
<path d="M122.533 267.027C122.568 267.001 122.595 266.966 122.61 266.925C122.626 266.885 122.63 266.84 122.621 266.798C122.939 265.593 123.34 264.411 123.821 263.261C123.829 263.239 123.833 263.216 123.832 263.192C123.831 263.169 123.826 263.146 123.816 263.124C123.806 263.103 123.792 263.084 123.775 263.068C123.758 263.052 123.737 263.04 123.715 263.031C123.693 263.023 123.67 263.02 123.646 263.021C123.623 263.021 123.6 263.027 123.579 263.037C123.557 263.047 123.538 263.061 123.522 263.078C123.506 263.095 123.494 263.115 123.486 263.138C122.127 266.674 122.251 266.851 122.286 266.921C122.306 266.968 122.342 267.004 122.388 267.024C122.434 267.044 122.486 267.045 122.533 267.027V267.027Z" fill="#232661"/>
<path d="M118.598 267.027C118.635 267.03 118.671 267.022 118.703 267.003C118.735 266.984 118.76 266.955 118.774 266.921L120.362 263.297C120.374 263.276 120.381 263.253 120.383 263.23C120.385 263.206 120.381 263.183 120.373 263.161C120.364 263.139 120.351 263.119 120.334 263.103C120.317 263.086 120.297 263.074 120.274 263.067C120.251 263.055 120.226 263.049 120.201 263.048C120.175 263.048 120.15 263.053 120.126 263.063C120.103 263.073 120.082 263.088 120.065 263.107C120.048 263.126 120.035 263.148 120.027 263.173L118.58 266.798C118.562 266.845 118.564 266.897 118.583 266.943C118.603 266.989 118.64 267.026 118.686 267.045L118.598 267.027Z" fill="#232661"/>
<path d="M114.186 266.303C114.22 266.305 114.254 266.295 114.283 266.276C114.311 266.257 114.333 266.229 114.345 266.196L115.686 262.554C115.699 262.507 115.696 262.456 115.677 262.411C115.658 262.366 115.623 262.329 115.58 262.306C115.533 262.295 115.484 262.301 115.441 262.324C115.399 262.347 115.367 262.385 115.35 262.43L114.009 266.055C113.992 266.102 113.993 266.154 114.013 266.2C114.032 266.246 114.069 266.283 114.115 266.303H114.186Z" fill="#232661"/>
<path d="M117.009 270.652C121.444 270.649 125.855 270 130.104 268.725C130.132 268.713 130.157 268.693 130.176 268.668C130.194 268.644 130.206 268.614 130.21 268.584L132.345 257.974C132.345 257.974 132.345 257.798 132.204 257.762C132.158 257.756 132.111 257.767 132.072 257.793C132.033 257.819 132.005 257.859 131.992 257.904L129.874 268.336C123.939 270.104 117.7 270.616 111.556 269.839C101.18 268.336 95.9384 264.181 93.6972 261.776L98.0561 250.106C98.0725 250.062 98.0706 250.012 98.0507 249.969C98.0308 249.926 97.9947 249.893 97.9502 249.876C97.9057 249.86 97.8566 249.862 97.8136 249.882C97.7706 249.902 97.7372 249.938 97.7208 249.982L93.3089 261.741C93.2919 261.77 93.283 261.804 93.283 261.838C93.283 261.872 93.2919 261.906 93.3089 261.935C95.5148 264.358 100.844 268.672 111.451 270.193C113.29 270.484 115.148 270.638 117.009 270.652V270.652Z" fill="#232661"/>
<path d="M125.745 136.978L157.263 143.998L176.393 148.259L177.346 144.493L159.998 140.585L126.292 133.018L125.745 136.978Z" fill="#69E8FF"/>
<path d="M157.263 143.998L176.393 148.259L177.364 144.511L159.999 140.603L157.263 143.998Z" fill="#67C7CE"/>
<path d="M129.539 135.458C129.527 134.795 129.474 134.133 129.38 133.477C129.551 134.541 129.897 135.569 130.404 136.519C129.75 134.328 129.364 132.066 129.257 129.782C129.248 129.713 129.215 129.65 129.163 129.604C129.111 129.559 129.044 129.534 128.974 129.534C128.937 129.531 128.9 129.537 128.865 129.55C128.831 129.563 128.799 129.584 128.774 129.612C128.748 129.639 128.729 129.671 128.718 129.707C128.707 129.743 128.704 129.78 128.71 129.817C128.798 131.72 129.076 133.61 129.539 135.458V135.458Z" fill="#913F36"/>
<path d="M182.993 46.5186C182.993 50.7622 186.205 55.4479 194.676 57.4989C203.146 59.55 208.794 56.5264 211.247 54.3516C213.7 52.1767 213.488 48.163 213.647 43.2475C213.647 41.0549 213.753 39.4282 213.911 37.943C213.784 37.7382 213.7 37.5096 213.664 37.2711C213.653 35.9538 213.93 34.65 214.476 33.4518C214.992 32.2377 215.798 31.1691 216.823 30.3398C218.314 27.9733 219.283 25.3146 219.664 22.5422C219.848 20.8187 219.471 19.0819 218.588 17.5913C217.891 17.9055 217.121 18.019 216.364 17.919C215.606 17.8191 214.891 17.5097 214.3 17.0255C214.3 17.0255 213.417 15.8055 208.105 13.4891C204.821 12.1546 201.351 11.3375 197.817 11.0668C197.002 10.5993 196.269 10.0021 195.646 9.29858C195.573 9.44802 195.508 9.6015 195.452 9.7583C194.988 11.3938 194.727 13.0804 194.676 14.7799V14.7799C195.054 14.158 195.545 13.6124 196.123 13.1709C196.846 12.7465 200.288 12.6758 204.77 13.8958C208.011 14.8007 211.02 16.3926 213.594 18.5638C213.894 19.0412 214.035 22.2593 213.594 27.8467C213.47 29.4557 213.276 30.941 213.064 32.2671C213.064 33.1335 213.064 34.0353 213.153 34.7426C213.153 40.4891 208.723 48.7642 208.723 48.7642C207.809 50.1432 206.552 51.2597 205.076 52.0038C203.599 52.7479 201.955 53.094 200.305 53.0078C194.499 52.7603 185.411 49.8605 183.911 47.9155C183.513 47.3704 183.186 46.7761 182.94 46.1473L182.993 46.5186Z" fill="#5E240B"/>
<path d="M165.099 143.804C166.21 144.316 165.946 142.177 165.805 141.328C165.999 142.23 166.599 144.617 167.569 144.617C168.54 144.617 168.416 142.849 168.363 141.965C168.363 141.629 168.363 141.363 168.363 141.363L168.999 141.912L170.252 143.008C170.252 143.008 172.616 145.466 173.252 145.112C173.343 145.045 173.416 144.957 173.466 144.856C173.515 144.754 173.538 144.641 173.534 144.528C173.521 144.017 173.432 143.51 173.269 143.026C173.321 143.13 173.38 143.23 173.446 143.326C173.834 143.963 174.664 145.2 175.211 145.094C175.211 145.094 175.369 144.971 175.405 144.794C175.508 143.165 175.443 141.529 175.211 139.914C177.741 140.378 180.35 140.127 182.746 139.189C187.74 137.633 195.911 132.452 202.811 126.723C209.711 120.994 216.611 114.629 218.059 111.994C217.083 110.699 216.015 109.476 214.864 108.334C214.118 107.576 213.335 106.856 212.517 106.177C210.543 104.506 208.381 103.07 206.076 101.898C206.076 101.898 195.717 114.363 191.252 120.711C186.787 127.059 180.928 133.813 180.928 133.813C180.928 133.813 172.952 132.187 168.399 134.008C163.846 135.829 163.74 143.167 165.099 143.804Z" fill="#F3B6AB"/>
<path d="M171.54 139.259C171.684 141.171 172.35 143.005 173.464 144.564C173.451 144.052 173.362 143.546 173.199 143.061C173.25 143.165 173.309 143.266 173.375 143.362C172.652 142.124 172.212 140.741 172.087 139.312C172.087 139.24 172.06 139.171 172.011 139.118C171.962 139.066 171.894 139.034 171.822 139.029V139.029C171.756 139.028 171.691 139.051 171.639 139.093C171.588 139.135 171.553 139.194 171.54 139.259Z" fill="#913F36"/>
<path d="M168.346 141.947C168.346 141.611 168.346 141.346 168.346 141.346L168.981 141.894C168.52 141.109 168.299 140.205 168.346 139.295C168.356 139.222 168.338 139.149 168.295 139.089C168.252 139.03 168.188 138.989 168.116 138.976C168.044 138.971 167.973 138.994 167.917 139.04C167.861 139.086 167.825 139.152 167.816 139.224C167.719 140.164 167.903 141.112 168.346 141.947V141.947Z" fill="#913F36"/>
<path d="M173.464 137.756C174.176 140.081 174.765 142.442 175.228 144.829C175.331 143.2 175.266 141.565 175.034 139.949C177.564 140.414 180.174 140.163 182.57 139.224C187.564 137.668 195.735 132.487 202.635 126.758C209.535 121.029 216.435 114.664 217.882 112.03C216.906 110.734 215.839 109.511 214.688 108.369C211.135 113.868 207.045 118.997 202.476 123.682C195.576 130.861 181.899 139.33 180.346 139.029L173.464 137.756Z" fill="#F4948E"/>
<path d="M126.168 135.352C126.236 135.379 126.312 135.379 126.38 135.352C126.566 135.09 126.648 134.769 126.61 134.45C126.575 133.443 126.439 132.442 126.204 131.462C126.451 132.328 127.827 136.978 128.974 137.049C129.416 137.049 129.557 136.413 129.539 135.528C129.527 134.866 129.474 134.204 129.38 133.548C129.151 132.54 129.027 131.639 128.992 131.338C128.992 131.639 129.239 132.54 129.38 133.548C129.551 134.612 129.897 135.64 130.404 136.589C130.616 136.872 130.827 137.049 131.074 137.049C131.321 137.049 131.586 136.642 131.71 136.041C131.851 134.166 131.792 132.281 131.533 130.418C133.566 132.185 136.185 133.125 138.875 133.053C143.781 133.141 150.769 129.411 156.663 124.972C161.74 121.13 166.286 116.629 170.181 111.587C169.401 110.138 168.479 108.769 167.428 107.503C166.716 106.622 165.905 105.827 165.01 105.134C163.415 103.973 161.932 102.665 160.581 101.226C160.581 101.226 156.222 107.114 152.322 112.118C148.422 117.122 135.38 126.263 135.38 126.263C133.462 124.929 131.286 124.013 128.992 123.576C124.457 122.462 123.698 123.682 122.833 127.501C121.968 131.32 125.162 135.246 126.168 135.352Z" fill="#F3B6AB"/>
<path d="M124.898 129.022C125.101 131.167 125.599 133.273 126.38 135.281C126.566 135.019 126.648 134.698 126.61 134.379C126.024 132.66 125.633 130.881 125.445 129.075C125.438 129 125.406 128.93 125.355 128.876C125.304 128.821 125.236 128.786 125.163 128.774V128.915L124.898 129.022Z" fill="#913F36"/>
<path d="M130.404 128.703C130.404 128.986 131.18 133.106 131.71 135.971C131.851 134.095 131.792 132.21 131.533 130.348C133.566 132.114 136.185 133.054 138.874 132.982C143.78 133.071 150.769 129.34 156.663 124.902C161.74 121.059 166.286 116.558 170.181 111.517C169.401 110.067 168.479 108.699 167.428 107.432C162.826 114.366 157.1 120.479 150.486 125.521C142.016 131.532 137.057 131.656 134.145 130.436C131.233 129.216 130.298 128.297 130.404 128.703Z" fill="#F4948E"/>
</g>
<defs>
<clipPath id="clip0_919_693">
<rect width="290" height="315" fill="white" transform="translate(0.695312 0.546143)"/>
</clipPath>
</defs>
</svg>
