<svg width="283" height="251" viewBox="0 0 283 251" fill="none" xmlns="http://www.w3.org/2000/svg">
<g clip-path="url(#clip0_1466_2468)">
<path d="M120.464 35.2986H14.9097V129.607H120.464V35.2986Z" fill="#FAFAFA"/>
<path d="M120.464 129.613C120.464 129.613 120.446 129.006 120.44 127.864C120.434 126.705 120.421 125.016 120.409 122.812C120.397 118.385 120.373 111.912 120.348 103.665C120.318 87.1836 120.275 63.6398 120.227 35.3047L120.464 35.5416C90.0667 35.5537 53.7895 35.5659 14.9219 35.5841H14.9098L15.1895 35.3047C15.1773 69.6154 15.1652 101.904 15.153 129.613L14.9037 129.364C46.3954 129.419 72.749 129.462 91.2464 129.492C100.501 129.522 107.792 129.541 112.778 129.559C115.265 129.571 117.174 129.583 118.476 129.589C119.114 129.595 119.6 129.601 119.947 129.601C120.275 129.601 120.452 129.613 120.452 129.613C120.452 129.613 120.294 129.626 119.971 129.626C119.637 129.626 119.157 129.632 118.53 129.638C117.235 129.644 115.344 129.656 112.881 129.668C107.907 129.686 100.635 129.705 91.4045 129.735C72.8645 129.765 46.4562 129.808 14.8976 129.862H14.6483V129.613C14.6361 101.904 14.624 69.6154 14.6118 35.3047V35.0254H14.9037C53.7713 35.0436 90.0485 35.0558 120.446 35.0679H120.683V35.3047C120.634 63.7066 120.592 87.3051 120.561 103.817C120.537 112.039 120.513 118.494 120.5 122.909C120.488 125.095 120.482 126.771 120.47 127.919C120.464 129.049 120.446 129.619 120.446 129.619L120.464 129.613Z" fill="#E0E0E0"/>
<path d="M55.3825 52.0594C55.3825 52.2173 49.8248 52.3387 42.9719 52.3387C36.119 52.3387 30.5613 52.2112 30.5613 52.0594C30.5613 51.9076 36.1129 51.78 42.9719 51.78C49.8309 51.78 55.3825 51.9076 55.3825 52.0594Z" fill="#E0E0E0"/>
<path d="M100.106 59.1399C100.106 59.2978 84.8433 59.4193 66.0176 59.4193C47.1919 59.4193 31.9294 59.2918 31.9294 59.1399C31.9294 58.9881 47.1919 58.8606 66.0176 58.8606C84.8433 58.8606 100.106 58.9881 100.106 59.1399Z" fill="#E0E0E0"/>
<path d="M35.195 71.1335H30.75V75.5727H35.195V71.1335Z" fill="#E0E0E0"/>
<path d="M46.14 71.1335H41.6951V75.5727H46.14V71.1335Z" fill="#E0E0E0"/>
<path d="M57.2858 70.9331H52.8408V75.3722H57.2858V70.9331Z" fill="#E0E0E0"/>
<path d="M68.0304 71.1335H63.5854V75.5727H68.0304V71.1335Z" fill="#E0E0E0"/>
<path d="M78.9816 71.1335H74.5366V75.5727H78.9816V71.1335Z" fill="#E0E0E0"/>
<path d="M89.9269 71.1335H85.4819V75.5727H89.9269V71.1335Z" fill="#E0E0E0"/>
<path d="M100.872 71.1335H96.427V75.5727H100.872V71.1335Z" fill="#EBEBEB"/>
<path d="M35.195 80.5767H30.75V85.0158H35.195V80.5767Z" fill="#EBEBEB"/>
<path d="M46.14 80.5767H41.6951V85.0158H46.14V80.5767Z" fill="#E0E0E0"/>
<path d="M57.0853 80.5767H52.6404V85.0158H57.0853V80.5767Z" fill="#EBEBEB"/>
<path d="M68.0304 80.5767H63.5854V85.0158H68.0304V80.5767Z" fill="#E0E0E0"/>
<path d="M78.9816 80.5767H74.5366V85.0158H78.9816V80.5767Z" fill="#E0E0E0"/>
<path d="M90.1276 80.3762H85.6826V84.8153H90.1276V80.3762Z" fill="#E0E0E0"/>
<path d="M100.872 80.5767H96.427V85.0158H100.872V80.5767Z" fill="#E0E0E0"/>
<path d="M35.195 90.0195H30.75V94.4587H35.195V90.0195Z" fill="#E0E0E0"/>
<path d="M46.3407 89.813H41.8958V94.2521H46.3407V89.813Z" fill="#E0E0E0"/>
<path d="M57.0853 90.0195H52.6404V94.4587H57.0853V90.0195Z" fill="#E0E0E0"/>
<path d="M68.0304 90.0195H63.5854V94.4587H68.0304V90.0195Z" fill="#EBEBEB"/>
<path d="M78.9816 90.0195H74.5366V94.4587H78.9816V90.0195Z" fill="#E0E0E0"/>
<path d="M89.9269 90.0195H85.4819V94.4587H89.9269V90.0195Z" fill="#E0E0E0"/>
<path d="M100.872 90.0195H96.427V94.4587H100.872V90.0195Z" fill="#E0E0E0"/>
<path d="M35.195 99.4565H30.75V103.896H35.195V99.4565Z" fill="#E0E0E0"/>
<path d="M46.14 99.4565H41.6951V103.896H46.14V99.4565Z" fill="#E0E0E0"/>
<path d="M57.0853 99.4565H52.6404V103.896H57.0853V99.4565Z" fill="#E0E0E0"/>
<path d="M68.2372 99.2561H63.7922V103.695H68.2372V99.2561Z" fill="#E0E0E0"/>
<path d="M78.9816 99.4565H74.5366V103.896H78.9816V99.4565Z" fill="#E0E0E0"/>
<path d="M89.9269 99.4565H85.4819V103.896H89.9269V99.4565Z" fill="#EBEBEB"/>
<path d="M100.872 99.4565H96.427V103.896H100.872V99.4565Z" fill="#E0E0E0"/>
<path d="M35.195 108.899H30.75V113.339H35.195V108.899Z" fill="#E0E0E0"/>
<path d="M46.14 108.899H41.6951V113.339H46.14V108.899Z" fill="#EBEBEB"/>
<path d="M57.0853 108.899H52.6404V113.339H57.0853V108.899Z" fill="#E0E0E0"/>
<path d="M68.0304 108.899H63.5854V113.339H68.0304V108.899Z" fill="#E0E0E0"/>
<path d="M78.9816 108.899H74.5366V113.339H78.9816V108.899Z" fill="#E0E0E0"/>
<path d="M90.1276 108.699H85.6826V113.138H90.1276V108.699Z" fill="#E0E0E0"/>
<path d="M100.872 108.899H96.427V113.339H100.872V108.899Z" fill="#E0E0E0"/>
<path d="M239.661 12.8457L232.875 12.8823L233.058 46.5913L239.844 46.5546L239.661 12.8457Z" fill="#E0E0E0"/>
<path d="M191.673 12.9351L174.107 13.03L174.207 31.6364L191.774 31.5415L191.673 12.9351Z" fill="#EBEBEB"/>
<path d="M209.161 12.8406L191.594 12.9355L191.695 31.542L209.262 31.447L209.161 12.8406Z" fill="#F5F5F5"/>
<path d="M174.138 18.1795C185.813 18.2767 197.512 18.2099 209.187 18.0155C209.424 18.0155 209.424 17.6451 209.187 17.6451C197.512 17.5783 185.813 17.639 174.138 17.8576C173.931 17.8576 173.931 18.1734 174.138 18.1795Z" fill="#E0E0E0"/>
<path d="M195.075 31.2377L163.158 31.4102L163.24 46.5734L195.157 46.4009L195.075 31.2377Z" fill="#EBEBEB"/>
<path d="M226.839 31.0661L194.922 31.2385L195.004 46.4018L226.921 46.2293L226.839 31.0661Z" fill="#F5F5F5"/>
<path d="M163.18 35.6325C184.384 35.8693 205.66 35.6568 226.857 35.3167C227.094 35.3167 227.094 34.9463 226.857 34.9463C205.654 34.837 184.378 34.8491 163.18 35.3107C162.974 35.3107 162.974 35.6264 163.18 35.6325Z" fill="#E0E0E0"/>
<path d="M274.894 46.5815H151.244V52.0166H274.894V46.5815Z" fill="#E0E0E0"/>
<path d="M176.503 49.1929H171.487V67.7328H176.503V49.1929Z" fill="#E0E0E0"/>
<path d="M251.441 49.1929H246.419V67.7328H251.441V49.1929Z" fill="#E0E0E0"/>
<path d="M246.281 0.275832L239.495 0.3125L239.747 46.6706L246.532 46.634L246.281 0.275832Z" fill="#EBEBEB"/>
<path d="M256.872 8.90864L246.334 8.96558L246.538 46.5367L257.075 46.4797L256.872 8.90864Z" fill="#F5F5F5"/>
<path d="M256.804 16.1575C256.804 16.2608 254.445 16.3397 251.532 16.3397C248.62 16.3397 246.26 16.2608 246.26 16.1575C246.26 16.0543 248.62 15.9753 251.532 15.9753C254.445 15.9753 256.804 16.0543 256.804 16.1575Z" fill="#E0E0E0"/>
<path d="M256.804 14.5787C256.804 14.6819 254.445 14.7608 251.532 14.7608C248.62 14.7608 246.26 14.6819 246.26 14.5787C246.26 14.4754 248.62 14.3965 251.532 14.3965C254.445 14.3965 256.804 14.4754 256.804 14.5787Z" fill="#E0E0E0"/>
<path d="M256.804 40.837C256.804 40.9402 254.445 41.0191 251.532 41.0191C248.62 41.0191 246.26 40.9402 246.26 40.837C246.26 40.7337 248.62 40.6548 251.532 40.6548C254.445 40.6548 256.804 40.7337 256.804 40.837Z" fill="#E0E0E0"/>
<path d="M256.804 39.2579C256.804 39.3611 254.445 39.44 251.532 39.44C248.62 39.44 246.26 39.3611 246.26 39.2579C246.26 39.1546 248.62 39.0757 251.532 39.0757C254.445 39.0757 256.804 39.1546 256.804 39.2579Z" fill="#E0E0E0"/>
<path d="M251.703 35.8147C251.599 35.8147 251.52 32.0253 251.52 27.3493C251.52 22.6734 251.599 18.884 251.703 18.884C251.806 18.884 251.885 22.6734 251.885 27.3493C251.885 32.0253 251.806 35.8147 251.703 35.8147Z" fill="#E0E0E0"/>
<path d="M268.394 18.1433H256.92V46.5027H268.394V18.1433Z" fill="#EBEBEB"/>
<path d="M244.734 8.20226C244.734 9.27712 243.859 10.1516 242.782 10.1516C241.706 10.1516 240.831 9.27712 240.831 8.20226C240.831 7.1274 241.706 6.25293 242.782 6.25293C243.859 6.25293 244.734 7.1274 244.734 8.20226Z" fill="#E0E0E0"/>
<path d="M243.384 13.5583H242.18V41.1405H243.384V13.5583Z" fill="#E0E0E0"/>
<path d="M35.0427 189.545C38.2229 187.905 41.9746 187.692 45.5075 188.275C47.4047 188.591 49.387 189.156 50.6761 190.577C51.9652 191.998 52.2145 194.506 50.7308 195.733C49.8491 196.461 48.6147 196.571 47.4716 196.558C44.7049 196.528 41.6402 196.042 39.4268 197.7C38.1681 198.647 37.329 200.226 35.821 200.688C34.3495 201.143 32.6834 200.275 31.899 198.945C31.1146 197.615 31.0903 195.957 31.4551 194.457C31.4551 194.457 31.8382 191.19 35.0427 189.538V189.545Z" fill="#00A78E"/>
<path d="M27.752 175.486C29.6978 178.262 33.48 177.345 35.2312 175.65C36.9824 173.956 37.7243 171.503 38.3992 169.159C39.9437 163.809 41.4943 158.197 40.3511 152.75C40.0106 151.123 39.3964 149.495 38.2533 148.287C37.1101 147.078 35.3467 146.362 33.7353 146.787C31.826 147.291 30.6464 149.155 29.789 150.928C27.2716 156.145 25.9399 161.926 25.9156 167.713C25.9034 170.416 26.2257 173.252 27.752 175.486Z" fill="#00A78E"/>
<path d="M22.4072 179.47C24.5171 176.968 24.9185 173.312 23.982 170.179C23.0395 167.039 20.9174 164.373 18.473 162.193C15.6029 159.637 12.2281 157.651 8.60405 156.376C7.1751 155.872 5.67317 155.477 4.16517 155.623C2.65717 155.768 1.14308 156.534 0.437726 157.876C-0.602066 159.855 0.395162 162.254 1.47144 164.209C3.3686 167.659 5.5394 170.956 7.95342 174.065C9.89923 176.567 12.1248 179.033 15.086 180.168C18.0473 181.298 21.1241 181.164 22.6929 179.118" fill="#00A78E"/>
<path d="M27.6244 217.357C27.6609 217.357 27.7217 216.908 27.8008 216.094C27.892 215.177 28.0014 214.024 28.1352 212.651C28.2933 211.206 28.5061 209.481 28.9074 207.605C29.3088 205.734 29.9351 203.706 30.7438 201.647C31.5769 199.601 32.5984 197.743 33.7902 196.255C34.9759 194.761 36.3502 193.68 37.6393 193.055C38.9284 192.417 40.0837 192.162 40.8803 192.047C41.689 191.961 42.139 191.901 42.139 191.864C42.139 191.828 41.689 191.822 40.862 191.846C40.0411 191.901 38.8372 192.107 37.4812 192.727C36.1191 193.328 34.6597 194.427 33.4193 195.951C32.1667 197.469 31.1147 199.37 30.2634 201.453C29.4425 203.548 28.8223 205.595 28.4392 207.508C28.0562 209.414 27.8798 211.157 27.7643 212.621C27.6548 214.084 27.6123 215.268 27.594 216.082C27.5758 216.902 27.5879 217.351 27.6183 217.357H27.6244Z" fill="#263238"/>
<path d="M27.8614 214.704C27.8614 214.704 27.8918 214.503 27.8979 214.121C27.8979 213.684 27.8979 213.125 27.8979 212.445C27.8979 210.993 27.8979 208.892 27.9709 206.293C28.0986 201.101 28.5486 195.514 29.412 187.644C30.2329 180.241 31.3274 171.618 32.4888 166.019C32.7381 164.744 32.9874 163.596 33.2246 162.594C33.4496 161.586 33.6441 160.718 33.8266 160.019C33.9847 159.357 34.1124 158.823 34.2157 158.392C34.3009 158.015 34.3373 157.821 34.3191 157.815C34.3009 157.815 34.234 157.997 34.1184 158.361C33.9907 158.78 33.8326 159.315 33.632 159.965C33.4131 160.663 33.1942 161.525 32.9449 162.527C32.6834 163.529 32.4037 164.671 32.1361 165.946C30.9869 171.023 29.7768 178.122 28.9012 186.016C28.0378 193.911 27.6425 201.095 27.6121 206.299C27.5817 208.898 27.6365 211.006 27.7033 212.463C27.7459 213.143 27.7763 213.696 27.8067 214.133C27.8371 214.516 27.8614 214.716 27.8797 214.716L27.8614 214.704Z" fill="#263238"/>
<path d="M27.8919 200.846C27.9284 200.846 27.9223 200.226 27.8798 199.097C27.8129 197.974 27.6609 196.352 27.3447 194.36C27.0102 192.375 26.542 190.018 25.8002 187.462C25.4779 186.29 24.73 183.484 22.9119 179.294C20.5161 173.616 17.2568 168.976 14.4293 166.098C13.7665 165.333 13.0247 164.786 12.4349 164.246C12.1308 163.985 11.8572 163.73 11.5836 163.523C11.3039 163.335 11.0485 163.153 10.8113 162.989C9.881 162.351 9.35807 162.017 9.33982 162.048C9.25469 162.163 11.4255 163.438 14.1679 166.353C16.8981 169.262 20.0661 173.871 22.4436 179.5C23.7692 182.555 24.6935 185.276 25.3502 187.589C26.1103 190.122 26.6089 192.46 26.992 194.421C27.3507 196.389 27.5636 197.998 27.6913 199.109C27.7946 200.226 27.8676 200.84 27.9041 200.84L27.8919 200.846Z" fill="#263238"/>
<path d="M14.478 225.294L15.8705 244.32H40.3452L41.7376 225.294H14.478Z" fill="#263238"/>
<path d="M44.6563 217.795H12.1187V225.294H44.6563V217.795Z" fill="#263238"/>
<path d="M12.1187 243.591V245.674H13.6449H44.1212V243.591H12.1187Z" fill="#455A64"/>
<path d="M15.1469 249.33L13.645 245.674H42.9538L41.2026 249.33H15.1469Z" fill="#455A64"/>
<path d="M41.2814 231.513C41.2814 231.513 41.251 231.573 41.1659 231.689C41.0686 231.816 40.947 231.974 40.801 232.175C40.4544 232.618 39.9741 233.231 39.3782 233.996L39.3174 234.075L39.2566 233.99C38.3627 232.752 37.1648 231.1 35.7541 229.15H35.9548C34.915 230.626 33.7536 232.266 32.507 234.027L32.3976 234.179L32.276 234.033C31.0051 232.521 29.6187 230.881 28.1837 229.175H28.4208C28.3478 229.26 28.2749 229.357 28.1958 229.454C26.925 231.045 25.7028 232.582 24.5414 234.033L24.4197 234.185L24.3103 234.027C23.0698 232.272 21.9084 230.632 20.8626 229.15L21.0632 229.163C19.3606 231.1 17.9195 232.739 16.8128 233.996L16.7399 234.082L16.6851 233.984C16.1257 233.043 15.6758 232.296 15.3535 231.75C15.2136 231.507 15.1042 231.312 15.013 231.154C14.94 231.021 14.9035 230.948 14.9096 230.942C14.9157 230.942 14.9643 231.003 15.0494 231.13C15.1467 231.282 15.2744 231.47 15.4264 231.701C15.767 232.235 16.2352 232.97 16.825 233.893L16.6912 233.881C17.7797 232.606 19.1965 230.948 20.8747 228.987L20.9781 228.865L21.0754 228.999C22.1334 230.474 23.3009 232.108 24.5535 233.851H24.3164C25.4717 232.387 26.7 230.851 27.9648 229.26C28.0438 229.163 28.1168 229.065 28.1898 228.98L28.3053 228.835L28.4269 228.98C29.8559 230.687 31.2362 232.333 32.507 233.851H32.276C33.5347 232.108 34.7082 230.474 35.7602 229.005L35.8635 228.865L35.9608 229.005C37.3411 230.972 38.5147 232.642 39.3903 233.893H39.2687C39.895 233.14 40.3876 232.545 40.7524 232.114C40.9105 231.926 41.0443 231.774 41.1476 231.652C41.2388 231.549 41.2875 231.501 41.2936 231.507L41.2814 231.513Z" fill="#E0E0E0"/>
<path d="M42.0782 225.167C42.0782 225.252 35.9428 225.319 28.3845 225.319C20.8263 225.319 14.6848 225.252 14.6848 225.167C14.6848 225.082 20.8141 225.015 28.3845 225.015C35.955 225.015 42.0782 225.082 42.0782 225.167Z" fill="#455A64"/>
<path d="M43.3124 245.875C43.3124 245.96 36.648 246.027 28.427 246.027C20.2059 246.027 13.5415 245.96 13.5415 245.875C13.5415 245.79 20.2059 245.723 28.427 245.723C36.648 245.723 43.3124 245.79 43.3124 245.875Z" fill="#263238"/>
<path d="M210.677 169.062H267.549C272.626 169.062 276.749 173.179 276.749 178.249V249.676H201.483V178.249C201.483 173.179 205.605 169.062 210.683 169.062H210.677Z" fill="#455A64"/>
<path d="M270.413 169.474C270.498 169.474 270.571 187.419 270.571 209.554C270.571 231.689 270.498 249.634 270.413 249.634C270.328 249.634 270.255 231.689 270.255 209.554C270.255 187.419 270.328 169.474 270.413 169.474Z" fill="#263238"/>
<path d="M233.333 81.554C240.229 91.3735 244.248 103.179 244.771 115.16C245.124 123.237 244.035 131.842 247.872 138.965C253.381 149.179 265.293 148.827 268.942 159.843C270.529 164.634 267.604 175.17 266.813 180.156C265.92 185.822 269.386 190.577 268.492 196.237C267.671 201.429 263.779 205.133 259.109 207.55C254.95 209.7 251.107 209.754 246.784 207.969C238.544 204.562 231.685 200.967 225.812 194.263C217.566 184.85 215.079 171.818 213.668 159.388C210.561 131.994 211.194 104.175 215.535 76.9509" fill="#263238"/>
<path d="M250.961 209.117C250.961 209.117 251.052 209.086 251.229 209.05C251.405 209.007 251.673 208.965 252.007 208.868C252.682 208.686 253.679 208.364 254.853 207.732C256.02 207.101 257.401 206.172 258.611 204.72C259.207 203.998 259.754 203.129 260.082 202.115C260.392 201.101 260.532 199.959 260.599 198.775C260.715 196.395 260.356 193.789 259.809 191.038C259.28 188.281 258.562 185.342 258.386 182.16C258.301 180.575 258.374 178.923 258.732 177.29C259.073 175.65 259.663 174.053 260.277 172.444C260.897 170.835 261.548 169.213 262.016 167.513C262.46 165.813 262.733 164.009 262.435 162.23C262.174 160.444 261.444 158.78 260.465 157.323C259.486 155.859 258.264 154.59 257.018 153.418C254.506 151.074 251.788 149.143 249.465 146.969C244.777 142.657 241.621 137.751 239.627 133.403C238.63 131.223 237.87 129.182 237.365 127.348C237.073 126.443 236.909 125.569 236.696 124.779C236.538 123.978 236.398 123.249 236.27 122.593C236.076 121.269 235.936 120.237 235.899 119.533C235.875 119.193 235.851 118.925 235.839 118.731C235.826 118.549 235.826 118.458 235.826 118.458C235.826 118.458 235.845 118.549 235.869 118.731C235.893 118.925 235.924 119.186 235.96 119.527C236.021 120.231 236.179 121.251 236.392 122.575C236.526 123.231 236.678 123.96 236.848 124.749C237.067 125.532 237.237 126.401 237.535 127.3C238.058 129.121 238.83 131.15 239.834 133.312C241.846 137.623 245.002 142.487 249.666 146.756C251.977 148.906 254.701 150.837 257.236 153.193C258.495 154.372 259.736 155.653 260.733 157.147C261.736 158.635 262.49 160.347 262.758 162.187C263.068 164.021 262.782 165.873 262.326 167.598C261.846 169.323 261.189 170.956 260.569 172.559C259.954 174.162 259.365 175.747 259.03 177.357C258.678 178.96 258.605 180.581 258.684 182.148C258.848 185.294 259.553 188.227 260.07 190.996C260.599 193.759 260.958 196.388 260.824 198.793C260.751 199.996 260.605 201.131 260.277 202.182C259.936 203.226 259.365 204.107 258.751 204.836C257.504 206.305 256.099 207.222 254.914 207.842C253.722 208.467 252.712 208.771 252.025 208.929C251.338 209.092 250.967 209.117 250.967 209.117H250.961Z" fill="#455A64"/>
<path d="M137.745 230.814L166.926 216.975C166.926 216.975 178.291 161.865 180.438 157.73C182.584 153.594 191.571 150.017 191.571 150.017L190.069 224.638L187.406 241.848L146.252 245.741L137.751 230.814H137.745Z" fill="#00A78E"/>
<path d="M112.839 243.871C112.681 243.865 111.866 244.375 112.547 245.65C113.228 246.931 118.166 251.164 119.619 249.688C121.072 248.213 118.853 246.415 118.853 246.415L112.839 243.871Z" fill="#FFBE9D"/>
<path d="M119.066 246.476C119.066 246.476 125.031 247.229 127.329 248.097C129.822 249.044 132.863 248.401 134.906 247.016C136.949 245.632 138.141 244.381 138.141 244.381L145.754 244.259C145.754 244.259 149.408 240.476 147.237 234.84C146.86 233.857 146.453 233.079 145.492 231.871C144.586 230.893 143.157 230.104 140.694 229.679L131.652 231.628C131.652 231.628 117.643 230.626 115.15 231.804C115.15 231.804 112.018 233.656 111.051 234.434C110.686 234.725 109.58 238.29 111.854 240.136C111.854 240.136 109.872 241.709 110.942 243.124L111.459 243.749C111.459 243.749 110.127 245.474 110.808 246.227C111.495 246.98 117.491 250.484 119.631 249.652C121.777 248.814 120.002 246.834 119.059 246.47" fill="#FFBE9D"/>
<path d="M113.362 237.069C113.362 237.069 113.629 237.154 114.104 237.336C114.578 237.518 115.259 237.774 116.122 238.047C116.554 238.186 117.028 238.32 117.539 238.46C118.05 238.599 118.609 238.709 119.187 238.897C119.759 239.085 120.379 239.358 120.829 239.887C121.261 240.397 121.552 241.162 121.267 241.885C121.127 242.243 120.841 242.51 120.525 242.68C120.203 242.844 119.862 242.923 119.528 242.96C118.853 243.02 118.226 242.941 117.624 242.856C116.426 242.674 115.387 242.352 114.535 242.049C113.678 241.745 113.003 241.46 112.535 241.259C112.067 241.059 111.817 240.937 111.823 240.925C111.829 240.907 112.097 240.998 112.571 241.174C113.046 241.344 113.733 241.605 114.59 241.885C115.447 242.164 116.481 242.462 117.661 242.632C118.245 242.705 118.877 242.777 119.503 242.717C119.813 242.68 120.13 242.607 120.409 242.462C120.683 242.316 120.92 242.085 121.036 241.794C121.273 241.199 121.036 240.512 120.64 240.045C120.245 239.571 119.661 239.304 119.114 239.116C118.555 238.927 117.995 238.812 117.484 238.66C116.968 238.514 116.493 238.363 116.068 238.217C115.21 237.919 114.529 237.64 114.067 237.433C113.605 237.227 113.356 237.093 113.362 237.081V237.069Z" fill="#EB996E"/>
<path d="M113.897 232.758C113.897 232.758 114.165 232.843 114.633 233.025C115.101 233.207 115.782 233.468 116.639 233.747C117.491 234.033 118.518 234.343 119.674 234.616C120.245 234.762 120.902 234.877 121.443 235.332C121.711 235.557 121.911 235.885 121.96 236.249C122.015 236.608 121.954 236.978 121.808 237.312C121.51 237.992 120.878 238.429 120.245 238.642C119.607 238.861 118.944 238.873 118.342 238.794C117.132 238.612 116.141 238.18 115.283 237.907C114.463 237.622 113.782 237.385 113.265 237.203C112.79 237.033 112.529 236.929 112.535 236.911C112.535 236.893 112.809 236.966 113.295 237.112C113.818 237.276 114.505 237.488 115.338 237.743C116.202 237.992 117.211 238.405 118.372 238.569C118.95 238.642 119.57 238.624 120.166 238.417C120.75 238.217 121.315 237.816 121.577 237.221C121.851 236.632 121.759 235.909 121.279 235.527C120.817 235.132 120.184 234.998 119.613 234.853C118.451 234.561 117.424 234.233 116.573 233.93C115.721 233.62 115.046 233.334 114.59 233.128C114.128 232.915 113.885 232.788 113.891 232.77L113.897 232.758Z" fill="#EB996E"/>
<path d="M116.773 233.99C116.7 233.99 116.664 233.444 116.499 232.794C116.347 232.144 116.135 231.64 116.195 231.604C116.25 231.573 116.579 232.047 116.743 232.733C116.907 233.419 116.834 233.99 116.773 233.99Z" fill="#EB996E"/>
<path d="M137.831 234.167L132.51 232.12C132.51 232.12 117.74 225.234 117.491 225.61C117.241 225.981 116.439 225.944 116.615 227.742C116.792 229.539 125.396 233.165 125.669 233.79C125.943 234.415 125.487 237.561 128.667 239.82C131.847 242.079 134.14 242.128 134.14 242.128" fill="#FFBE9D"/>
<path d="M134.14 242.122C134.14 242.122 134.097 242.128 134.012 242.122C133.927 242.122 133.805 242.11 133.641 242.085C133.319 242.043 132.844 241.946 132.261 241.751C131.671 241.563 130.972 241.271 130.199 240.852C129.433 240.427 128.57 239.917 127.749 239.158C126.928 238.405 126.259 237.324 125.937 236.055C125.767 235.423 125.706 234.737 125.621 234.069C125.608 233.984 125.59 233.911 125.566 233.839C125.548 233.79 125.493 233.747 125.426 233.699C125.292 233.602 125.146 233.511 124.994 233.419C124.69 233.243 124.374 233.073 124.058 232.903C122.775 232.223 121.413 231.531 120.039 230.741C119.351 230.347 118.658 229.928 117.989 229.448C117.655 229.205 117.327 228.95 117.029 228.646C116.877 228.495 116.737 228.325 116.621 228.136C116.573 228.033 116.518 227.93 116.5 227.802C116.475 227.681 116.481 227.584 116.469 227.474C116.451 227.049 116.469 226.594 116.694 226.193C116.81 225.993 116.998 225.841 117.162 225.725C117.248 225.665 117.32 225.61 117.369 225.549C117.387 225.537 117.357 225.549 117.418 225.501C117.485 225.458 117.497 225.47 117.521 225.47C117.576 225.47 117.588 225.47 117.625 225.476C117.679 225.489 117.734 225.501 117.783 225.513C118.585 225.762 119.315 226.078 120.051 226.381C121.51 226.995 122.903 227.614 124.234 228.209C126.885 229.399 129.263 230.505 131.251 231.434C131.75 231.664 132.224 231.901 132.674 232.09C133.136 232.272 133.568 232.442 133.975 232.6C134.784 232.922 135.477 233.195 136.055 233.426C136.608 233.65 137.052 233.826 137.368 233.954C137.508 234.015 137.618 234.057 137.709 234.1C137.782 234.136 137.824 234.154 137.818 234.154C137.818 234.154 137.776 234.148 137.697 234.124L137.35 234.002C137.028 233.887 136.584 233.723 136.019 233.517C135.435 233.298 134.729 233.037 133.921 232.733C133.513 232.581 133.075 232.411 132.613 232.241C132.151 232.053 131.683 231.822 131.178 231.598C129.172 230.693 126.788 229.612 124.137 228.422C122.811 227.833 121.413 227.219 119.953 226.606C119.224 226.308 118.476 225.987 117.716 225.75C117.667 225.738 117.625 225.725 117.576 225.719C117.564 225.719 117.527 225.713 117.527 225.719C117.527 225.713 117.527 225.738 117.521 225.701C117.503 225.653 117.521 225.665 117.509 225.64C117.509 225.634 117.497 225.628 117.491 225.622C117.661 225.738 117.533 225.659 117.57 225.689L117.558 225.707C117.479 225.81 117.381 225.877 117.302 225.938C117.132 226.059 116.992 226.169 116.901 226.333C116.712 226.655 116.688 227.074 116.706 227.474C116.718 227.693 116.731 227.857 116.828 228.021C116.925 228.185 117.053 228.343 117.193 228.482C117.472 228.768 117.795 229.017 118.123 229.26C118.78 229.727 119.467 230.146 120.148 230.541C121.516 231.33 122.872 232.023 124.155 232.709C124.477 232.885 124.794 233.055 125.098 233.237C125.25 233.328 125.402 233.419 125.548 233.535C125.614 233.59 125.706 233.656 125.754 233.772C125.791 233.869 125.809 233.96 125.821 234.045C125.906 234.743 125.955 235.393 126.119 236.013C126.429 237.245 127.062 238.302 127.852 239.043C128.637 239.79 129.5 240.312 130.248 240.743C131.008 241.168 131.695 241.466 132.273 241.672C132.85 241.873 133.313 241.982 133.629 242.043C133.787 242.073 133.909 242.091 133.994 242.103C134.073 242.116 134.115 242.122 134.115 242.122H134.14Z" fill="#EB996E"/>
<path d="M117.849 242.814C117.849 242.814 118.062 242.838 118.415 242.978C118.768 243.118 119.266 243.361 119.807 243.78C120.075 243.992 120.355 244.241 120.61 244.557C120.853 244.873 121.103 245.298 121.042 245.802C120.975 246.306 120.543 246.707 120.057 246.864C119.552 247.034 119.011 246.956 118.506 246.816C116.524 246.215 114.803 245.486 113.611 244.854C113.015 244.539 112.547 244.253 112.237 244.041C111.921 243.828 111.757 243.701 111.769 243.688C111.781 243.67 111.963 243.773 112.286 243.962C112.614 244.144 113.088 244.405 113.69 244.703C114.894 245.292 116.621 245.99 118.573 246.585C119.053 246.719 119.552 246.786 119.978 246.64C120.403 246.506 120.756 246.172 120.811 245.777C120.871 245.377 120.671 244.994 120.446 244.696C120.215 244.393 119.941 244.144 119.692 243.925C118.664 243.075 117.819 242.869 117.843 242.82L117.849 242.814Z" fill="#EB996E"/>
<g opacity="0.3">
<path d="M187.193 241.866C182.414 225.768 178.2 205.036 173.421 188.937C171.676 203.797 173.858 223.418 176.601 238.132C176.923 239.856 177.069 241.545 178.407 242.68L187.193 241.866Z" fill="black"/>
</g>
<path d="M179.368 230.814C179.301 230.826 179.1 229.764 178.455 228.154C178.139 227.347 177.671 226.424 177.087 225.446C176.479 224.48 175.731 223.46 174.844 222.489C173.937 221.529 172.977 220.709 172.059 220.029C171.122 219.367 170.234 218.839 169.456 218.462C167.899 217.697 166.847 217.418 166.872 217.357C166.872 217.339 167.139 217.4 167.614 217.533C167.851 217.594 168.137 217.685 168.459 217.813C168.781 217.94 169.164 218.068 169.553 218.262C170.356 218.614 171.268 219.136 172.229 219.792C173.171 220.466 174.156 221.292 175.081 222.27C175.987 223.26 176.741 224.298 177.343 225.288C177.926 226.29 178.376 227.237 178.674 228.063C178.845 228.47 178.942 228.853 179.045 229.187C179.155 229.521 179.215 229.812 179.264 230.049C179.361 230.529 179.404 230.796 179.386 230.802L179.368 230.814Z" fill="#263238"/>
<path d="M188.476 149.264C188.476 149.264 173.189 183.362 173.189 189.623C173.189 195.884 184.645 239.383 184.645 239.383C184.536 241.108 184.092 249.779 184.092 249.779L248.298 249.998L249.277 236.213L244.266 223.078L249.271 185.949C249.271 185.949 252.639 164.391 252.937 158.361C253.314 150.819 227.721 142.074 228.42 141.03L223.999 135.121L198.686 155.647L193.687 141.218L187.692 146.878L188.476 149.264Z" fill="#00A78E"/>
<path d="M230.524 158.337C223.574 170.081 210.859 191.482 210.859 191.482L188.069 217.43C188.069 217.43 186.579 230.62 189.558 234.658C192.538 238.703 197.652 241.466 197.652 241.466C197.652 241.466 203.672 241.466 211.309 235.083C218.952 228.701 240.034 202.327 240.034 202.327L247.276 193.607C247.276 193.607 255.911 172.426 254.299 161.64C253.679 157.487 251.904 155.756 249.544 153.849C243.603 149.064 234.409 151.772 230.53 158.337H230.524Z" fill="#00A78E"/>
<path d="M249.958 186.241C249.958 186.241 249.927 186.326 249.855 186.484C249.769 186.654 249.66 186.885 249.52 187.176C249.216 187.783 248.754 188.664 248.122 189.781C246.863 192.022 244.911 195.192 242.351 199.006C241.068 200.912 239.639 202.983 238.07 205.181C236.514 207.392 234.708 209.645 233.23 212.293C231.722 214.916 230.421 217.831 228.809 220.728C227.198 223.618 225.295 226.491 223.021 229.175C220.74 231.853 218.162 234.185 215.341 235.952C212.531 237.731 209.467 238.885 206.451 239.389C203.435 239.911 200.461 239.741 197.841 239.025C196.521 238.678 195.305 238.15 194.198 237.549C193.085 236.954 192.076 236.274 191.2 235.521C190.313 234.78 189.553 233.972 188.938 233.128C188.3 232.302 187.832 231.434 187.443 230.602C186.695 228.92 186.379 227.359 186.22 226.084C186.093 224.802 186.087 223.8 186.117 223.126C186.135 222.798 186.154 222.543 186.16 222.355C186.172 222.185 186.178 222.094 186.184 222.094C186.184 222.094 186.19 222.185 186.19 222.355C186.19 222.543 186.184 222.798 186.178 223.12C186.166 223.794 186.19 224.79 186.342 226.059C186.518 227.322 186.853 228.871 187.607 230.523C188.002 231.337 188.47 232.193 189.103 233C189.711 233.826 190.471 234.616 191.346 235.338C192.216 236.079 193.219 236.741 194.32 237.324C195.42 237.913 196.612 238.423 197.914 238.763C200.504 239.456 203.435 239.614 206.408 239.091C209.388 238.581 212.404 237.446 215.177 235.678C217.961 233.93 220.515 231.616 222.777 228.956C225.033 226.29 226.93 223.436 228.542 220.564C230.153 217.691 231.454 214.77 232.981 212.135C234.47 209.469 236.301 207.21 237.857 205.018C239.432 202.825 240.879 200.767 242.169 198.872C244.747 195.077 246.729 191.931 248.018 189.714C248.669 188.609 249.149 187.735 249.465 187.14C249.617 186.854 249.739 186.629 249.83 186.465C249.915 186.314 249.958 186.235 249.964 186.241H249.958Z" fill="#263238"/>
<path d="M186.926 216.258C186.95 216.307 186.603 216.501 186.184 216.969C185.764 217.424 185.302 218.195 185.211 219.137C185.126 220.078 185.442 220.922 185.764 221.444C186.093 221.979 186.397 222.24 186.366 222.276C186.348 222.307 185.977 222.1 185.582 221.566C185.187 221.043 184.803 220.139 184.895 219.106C184.992 218.074 185.533 217.254 186.02 216.811C186.506 216.355 186.907 216.228 186.92 216.258H186.926Z" fill="#263238"/>
<path d="M191.115 223.151C191.115 223.151 191.243 223.169 191.474 223.236C191.59 223.266 191.729 223.315 191.9 223.351C192.076 223.381 192.271 223.418 192.489 223.46C193.377 223.606 194.709 223.588 196.247 223.114C197.78 222.622 199.488 221.681 201.088 220.272C202.687 218.863 204.122 216.981 205.624 215.019C207.12 213.046 208.628 211.193 210.294 209.803C211.121 209.111 211.929 208.497 212.61 207.835C213.285 207.179 213.827 206.469 214.131 205.74C214.702 204.246 214.319 202.837 213.778 202.157C213.218 201.453 212.653 201.38 212.677 201.338C212.677 201.325 212.805 201.356 213.03 201.441C213.249 201.544 213.571 201.72 213.869 202.084C214.465 202.783 214.909 204.234 214.331 205.825C214.021 206.603 213.468 207.343 212.787 208.024C212.106 208.71 211.291 209.335 210.476 210.028C208.846 211.406 207.363 213.24 205.867 215.214C204.365 217.181 202.912 219.07 201.276 220.497C199.64 221.918 197.883 222.859 196.308 223.333C194.727 223.794 193.359 223.776 192.465 223.588C192.246 223.539 192.052 223.491 191.875 223.448C191.705 223.4 191.565 223.339 191.456 223.302C191.231 223.217 191.115 223.169 191.121 223.157L191.115 223.151Z" fill="#263238"/>
<path d="M233.619 154.73C233.619 154.73 233.54 154.863 233.364 155.094C233.169 155.349 232.908 155.683 232.585 156.108C231.892 156.971 230.937 158.258 229.776 159.861C227.471 163.08 224.516 167.695 221.664 173.021C218.8 178.34 216.423 183.277 214.605 186.8C213.699 188.567 212.957 189.988 212.422 190.959L211.802 192.077C211.656 192.332 211.577 192.459 211.564 192.453C211.552 192.453 211.619 192.307 211.741 192.046C211.887 191.755 212.069 191.378 212.306 190.905C212.817 189.878 213.528 188.451 214.398 186.702C216.161 183.156 218.502 178.201 221.379 172.869C224.237 167.531 227.228 162.922 229.587 159.727C230.773 158.136 231.758 156.867 232.482 156.029C232.822 155.622 233.096 155.301 233.309 155.052C233.497 154.833 233.607 154.718 233.613 154.724L233.619 154.73Z" fill="#263238"/>
<g opacity="0.3">
<path d="M186.172 222.094C189.139 223.697 192.392 223.527 195.7 222.877C199.008 222.227 202.073 220.4 204.213 217.794C203.635 220.679 202.401 223.503 200.291 225.555C198.181 227.608 195.135 228.804 192.234 228.276C189.34 227.748 186.415 225.027 186.172 222.094Z" fill="black"/>
</g>
<g opacity="0.3">
<path d="M214.203 204.574C216.07 207.429 216.733 211.036 216.009 214.364C218.521 210.526 219.111 205.661 218.436 201.125C217.761 196.589 215.912 192.314 213.857 188.208C213.857 188.208 211.589 192.028 211.571 192.453C211.461 194.658 212.276 198.817 212.702 200.985C213.845 202.06 214.386 203.736 214.082 205.273" fill="black"/>
</g>
<g opacity="0.3">
<path d="M196.217 237.986C202.261 242.692 211.224 242.911 217.84 239.049C224.206 235.326 228.128 228.622 231.765 222.215C237.395 212.293 244.272 200.02 248.298 189.344C248.298 189.344 237.018 204.714 233.619 211.339C231.053 216.337 229.083 219.635 225.927 224.28C219.579 233.62 208.086 239.207 196.807 238.448" fill="black"/>
</g>
<path d="M184.092 249.779C184.092 249.779 184.08 249.712 184.08 249.591C184.08 249.445 184.08 249.263 184.092 249.038C184.11 248.522 184.135 247.818 184.171 246.931C184.256 245.085 184.378 242.492 184.518 239.377V239.419C183.429 235.776 182.152 231.361 180.833 226.588C179.082 220.26 177.604 214.503 176.607 210.319C176.108 208.224 175.725 206.53 175.482 205.352C175.366 204.787 175.275 204.331 175.202 203.997C175.141 203.688 175.117 203.524 175.129 203.518C175.141 203.518 175.19 203.675 175.269 203.979C175.354 204.313 175.464 204.762 175.604 205.321C175.902 206.517 176.315 208.2 176.826 210.264C177.878 214.436 179.386 220.175 181.137 226.503C182.456 231.276 183.715 235.697 184.773 239.346V239.389C184.591 242.504 184.433 245.091 184.317 246.937C184.256 247.818 184.208 248.522 184.171 249.038C184.153 249.263 184.135 249.439 184.123 249.591C184.11 249.719 184.098 249.779 184.092 249.779Z" fill="#263238"/>
<path d="M248.322 153.485C248.304 153.533 247.665 153.309 246.613 153.048C245.561 152.786 244.078 152.519 242.424 152.471C240.77 152.422 239.274 152.598 238.204 152.799C237.134 152.999 236.483 153.181 236.471 153.133C236.465 153.114 236.623 153.041 236.909 152.938C237.194 152.829 237.626 152.707 238.161 152.574C239.231 152.313 240.752 152.1 242.436 152.149C244.12 152.203 245.622 152.507 246.674 152.829C247.203 152.987 247.617 153.139 247.903 153.266C248.182 153.388 248.334 153.467 248.328 153.485H248.322Z" fill="#263238"/>
<path d="M227.988 142.287C227.988 142.287 227.94 142.402 227.824 142.603C227.69 142.833 227.514 143.119 227.307 143.471C226.851 144.224 226.176 145.299 225.319 146.617C223.598 149.252 221.136 152.835 218.229 156.655C215.888 159.734 213.62 162.491 211.759 164.659L211.631 164.81L211.546 164.628C210.665 162.697 209.935 161.094 209.4 159.934C209.163 159.4 208.974 158.962 208.828 158.628C208.701 158.325 208.64 158.167 208.652 158.161C208.664 158.161 208.749 158.307 208.901 158.598C209.065 158.926 209.278 159.351 209.54 159.873C210.093 161.021 210.859 162.606 211.783 164.525L211.571 164.495C213.395 162.309 215.645 159.539 217.98 156.467C220.886 152.653 223.373 149.094 225.137 146.495C225.994 145.22 226.699 144.169 227.21 143.404C227.441 143.064 227.63 142.785 227.776 142.566C227.909 142.378 227.982 142.281 227.994 142.287H227.988Z" fill="#263238"/>
<path d="M242.764 240.209C242.679 240.197 242.959 237.045 243.385 233.17C243.816 229.29 244.236 226.157 244.321 226.163C244.406 226.175 244.126 229.326 243.701 233.201C243.269 237.081 242.849 240.215 242.764 240.203V240.209Z" fill="#263238"/>
<path d="M198.759 239.383C198.844 239.371 199.172 241.745 199.482 244.672C199.798 247.605 199.981 249.986 199.89 249.998C199.805 250.01 199.476 247.636 199.166 244.709C198.856 241.775 198.667 239.395 198.759 239.383Z" fill="#263238"/>
<path d="M231.236 170.021C231.156 169.517 230.457 169.243 230.056 169.553L230.013 169.59C229.636 169.93 229.776 170.664 230.257 170.834C230.737 171.004 231.315 170.525 231.229 170.027L231.236 170.021Z" fill="white"/>
<path d="M224.893 154.59C224.814 154.086 224.115 153.813 223.714 154.122L223.671 154.159C223.294 154.499 223.434 155.234 223.914 155.404C224.395 155.574 224.972 155.094 224.887 154.596L224.893 154.59Z" fill="white"/>
<path d="M210.342 167.015C210.263 166.511 209.564 166.238 209.163 166.547L209.12 166.584C208.743 166.924 208.883 167.659 209.363 167.829C209.844 167.999 210.421 167.519 210.336 167.021L210.342 167.015Z" fill="white"/>
<path d="M194.612 160.778C194.533 160.274 193.833 160.001 193.432 160.311L193.39 160.347C193.013 160.687 193.152 161.422 193.633 161.592C194.113 161.762 194.691 161.282 194.606 160.784L194.612 160.778Z" fill="white"/>
<path d="M191.833 154.627C191.754 154.123 191.054 153.849 190.653 154.159L190.61 154.195C190.233 154.536 190.373 155.27 190.854 155.44C191.334 155.61 191.912 155.131 191.827 154.633L191.833 154.627Z" fill="white"/>
<path d="M193.037 147.516C192.958 147.012 192.258 146.738 191.857 147.048L191.815 147.084C191.438 147.424 191.577 148.159 192.058 148.329C192.538 148.499 193.116 148.02 193.031 147.522L193.037 147.516Z" fill="white"/>
<path d="M184.329 157.292C184.25 156.788 183.551 156.515 183.15 156.825L183.107 156.861C182.73 157.201 182.87 157.936 183.35 158.106C183.831 158.276 184.408 157.796 184.323 157.298L184.329 157.292Z" fill="white"/>
<path d="M204.505 160.11C204.426 159.606 203.726 159.333 203.325 159.643L203.283 159.679C202.906 160.019 203.045 160.754 203.526 160.924C204.006 161.094 204.584 160.614 204.499 160.116L204.505 160.11Z" fill="white"/>
<path d="M187.424 172.784C187.345 172.28 186.646 172.007 186.245 172.316L186.202 172.353C185.825 172.693 185.965 173.428 186.445 173.598C186.926 173.768 187.503 173.288 187.418 172.79L187.424 172.784Z" fill="white"/>
<path d="M171.785 209.232C171.706 208.728 171.007 208.455 170.605 208.764L170.563 208.801C170.186 209.141 170.325 209.876 170.806 210.046C171.286 210.216 171.864 209.736 171.779 209.238L171.785 209.232Z" fill="white"/>
<path d="M177.367 188.208C177.288 187.704 176.589 187.431 176.187 187.741L176.145 187.777C175.768 188.117 175.908 188.852 176.388 189.022C176.868 189.192 177.446 188.712 177.361 188.214L177.367 188.208Z" fill="white"/>
<path d="M218.49 151.299C218.411 150.795 217.712 150.521 217.311 150.831L217.268 150.868C216.891 151.208 217.031 151.942 217.511 152.112C217.992 152.283 218.569 151.803 218.484 151.305L218.49 151.299Z" fill="white"/>
<path d="M238.125 193.158C238.046 192.654 237.347 192.38 236.945 192.69L236.903 192.726C236.526 193.067 236.666 193.801 237.146 193.971C237.626 194.141 238.204 193.662 238.119 193.164L238.125 193.158Z" fill="white"/>
<path d="M245.768 157.135C245.689 156.631 244.99 156.357 244.589 156.667L244.546 156.704C244.169 157.044 244.309 157.778 244.789 157.948C245.27 158.118 245.847 157.639 245.762 157.141L245.768 157.135Z" fill="white"/>
<path d="M242.764 180.727C242.685 180.223 241.986 179.95 241.585 180.259L241.542 180.296C241.165 180.636 241.305 181.371 241.785 181.541C242.266 181.711 242.843 181.231 242.758 180.733L242.764 180.727Z" fill="white"/>
<path d="M225.617 197.761C225.538 197.257 224.839 196.983 224.437 197.293L224.395 197.329C224.018 197.67 224.158 198.404 224.638 198.574C225.118 198.744 225.696 198.265 225.611 197.767L225.617 197.761Z" fill="white"/>
<path d="M226.341 183.581C226.261 183.077 225.562 182.804 225.161 183.113L225.118 183.15C224.741 183.49 224.881 184.225 225.362 184.395C225.842 184.565 226.42 184.085 226.334 183.587L226.341 183.581Z" fill="white"/>
<path d="M236.684 157.256C236.605 156.752 235.905 156.479 235.504 156.788L235.462 156.825C235.085 157.165 235.224 157.9 235.705 158.07C236.185 158.24 236.763 157.76 236.678 157.262L236.684 157.256Z" fill="white"/>
<path d="M222.753 143.52C222.674 143.016 221.975 142.742 221.573 143.052L221.531 143.089C221.154 143.429 221.294 144.163 221.774 144.333C222.254 144.503 222.832 144.024 222.747 143.526L222.753 143.52Z" fill="white"/>
<path d="M222.248 165.667C222.169 165.163 221.47 164.889 221.069 165.199L221.026 165.236C220.649 165.576 220.789 166.31 221.269 166.48C221.75 166.65 222.327 166.171 222.242 165.673L222.248 165.667Z" fill="white"/>
<path d="M204.468 233.225C204.389 232.721 203.69 232.448 203.289 232.758L203.246 232.794C202.869 233.134 203.009 233.869 203.489 234.039C203.97 234.209 204.547 233.729 204.462 233.231L204.468 233.225Z" fill="white"/>
<path d="M184.068 222.112C183.989 221.608 183.289 221.335 182.888 221.645L182.846 221.681C182.469 222.021 182.608 222.756 183.089 222.926C183.569 223.096 184.147 222.616 184.062 222.118L184.068 222.112Z" fill="white"/>
<path d="M167.571 227.559C167.492 227.055 166.793 226.782 166.391 227.092L166.349 227.128C165.972 227.468 166.112 228.203 166.592 228.373C167.072 228.543 167.65 228.064 167.565 227.566L167.571 227.559Z" fill="white"/>
<path d="M165.808 236.942C165.728 236.438 165.029 236.165 164.628 236.474L164.585 236.511C164.208 236.851 164.348 237.586 164.829 237.756C165.309 237.926 165.887 237.446 165.801 236.948L165.808 236.942Z" fill="white"/>
<path d="M181.271 240.087C181.192 239.583 180.492 239.31 180.091 239.62L180.048 239.656C179.671 239.996 179.811 240.731 180.292 240.901C180.772 241.071 181.35 240.591 181.265 240.093L181.271 240.087Z" fill="white"/>
<path d="M176.102 219.076C176.023 218.572 175.324 218.299 174.923 218.608L174.88 218.645C174.503 218.985 174.643 219.72 175.123 219.89C175.604 220.06 176.181 219.58 176.096 219.082L176.102 219.076Z" fill="white"/>
<path d="M195.074 224.414C194.995 223.91 194.295 223.636 193.894 223.946L193.851 223.983C193.474 224.323 193.614 225.057 194.095 225.227C194.575 225.398 195.153 224.918 195.068 224.42L195.074 224.414Z" fill="white"/>
<path d="M240.174 219.039C240.095 218.535 239.396 218.262 238.994 218.572L238.952 218.608C238.575 218.948 238.715 219.683 239.195 219.853C239.675 220.023 240.253 219.543 240.168 219.046L240.174 219.039Z" fill="white"/>
<path d="M212.27 245.747C212.191 245.243 211.492 244.97 211.09 245.279L211.048 245.316C210.671 245.656 210.811 246.391 211.291 246.561C211.771 246.731 212.349 246.251 212.264 245.753L212.27 245.747Z" fill="white"/>
<path d="M224.17 230.881C224.091 230.377 223.391 230.104 222.99 230.414L222.947 230.45C222.57 230.79 222.71 231.525 223.191 231.695C223.671 231.865 224.249 231.385 224.164 230.887L224.17 230.881Z" fill="white"/>
<path d="M231.242 242.972C231.163 242.468 230.463 242.195 230.062 242.504L230.019 242.541C229.642 242.881 229.782 243.616 230.263 243.786C230.743 243.956 231.321 243.476 231.236 242.978L231.242 242.972Z" fill="white"/>
<path d="M211.57 179.652C211.491 179.148 210.792 178.875 210.391 179.184L210.348 179.221C209.971 179.561 210.111 180.296 210.592 180.466C211.072 180.636 211.65 180.156 211.564 179.658L211.57 179.652Z" fill="white"/>
<path d="M227.575 210.519C227.496 210.015 226.797 209.742 226.395 210.052L226.353 210.088C225.976 210.428 226.116 211.163 226.596 211.333C227.076 211.503 227.654 211.023 227.569 210.526L227.575 210.519Z" fill="white"/>
<path d="M222.388 222.209C222.309 221.705 221.61 221.432 221.208 221.742L221.166 221.778C220.789 222.118 220.929 222.853 221.409 223.023C221.89 223.193 222.467 222.713 222.382 222.215L222.388 222.209Z" fill="white"/>
<path d="M239.456 231.598C239.377 231.094 238.678 230.821 238.277 231.13L238.234 231.167C237.857 231.507 237.997 232.242 238.477 232.412C238.958 232.582 239.536 232.102 239.45 231.604L239.456 231.598Z" fill="white"/>
<path d="M192.751 245.158C192.672 244.654 191.973 244.381 191.571 244.691L191.529 244.727C191.152 245.067 191.292 245.802 191.772 245.972C192.252 246.142 192.83 245.662 192.745 245.164L192.751 245.158Z" fill="white"/>
<path d="M153.835 241.611C153.756 241.107 153.056 240.834 152.655 241.144L152.612 241.18C152.235 241.52 152.375 242.255 152.856 242.425C153.336 242.595 153.914 242.116 153.829 241.618L153.835 241.611Z" fill="white"/>
<path d="M188.105 235.229C188.026 234.725 187.327 234.452 186.926 234.762L186.883 234.798C186.506 235.138 186.646 235.873 187.126 236.043C187.607 236.213 188.184 235.733 188.099 235.235L188.105 235.229Z" fill="white"/>
<path d="M155.276 228.282C155.197 227.778 154.497 227.505 154.096 227.815L154.054 227.851C153.677 228.191 153.816 228.926 154.297 229.096C154.777 229.266 155.355 228.786 155.27 228.288L155.276 228.282Z" fill="white"/>
<path d="M210.13 206.238C210.051 205.734 209.351 205.461 208.95 205.771L208.907 205.807C208.53 206.147 208.67 206.882 209.151 207.052C209.631 207.222 210.209 206.742 210.123 206.244L210.13 206.238Z" fill="white"/>
<path d="M198.649 172.784C198.57 172.28 197.871 172.007 197.469 172.316L197.427 172.353C197.05 172.693 197.19 173.428 197.67 173.598C198.15 173.768 198.728 173.288 198.643 172.79L198.649 172.784Z" fill="white"/>
<path d="M195.779 201.799C195.7 201.295 195.001 201.022 194.6 201.331L194.557 201.368C194.18 201.708 194.32 202.443 194.8 202.613C195.281 202.783 195.858 202.303 195.773 201.805L195.779 201.799Z" fill="white"/>
<path d="M191.109 192.332C191.03 191.828 190.331 191.554 189.93 191.864L189.887 191.901C189.51 192.241 189.65 192.975 190.13 193.145C190.611 193.315 191.188 192.836 191.103 192.338L191.109 192.332Z" fill="white"/>
<path d="M211.765 222.082C211.686 221.578 210.987 221.305 210.585 221.614L210.543 221.651C210.166 221.991 210.306 222.726 210.786 222.896C211.266 223.066 211.844 222.586 211.759 222.088L211.765 222.082Z" fill="white"/>
<path d="M197.202 216.24C197.123 215.736 196.424 215.463 196.022 215.772L195.98 215.809C195.603 216.149 195.743 216.884 196.223 217.054C196.703 217.224 197.281 216.744 197.196 216.246L197.202 216.24Z" fill="white"/>
<path d="M203.435 184.206C203.356 183.702 202.656 183.429 202.255 183.739L202.213 183.775C201.836 184.115 201.975 184.85 202.456 185.02C202.936 185.19 203.514 184.71 203.429 184.213L203.435 184.206Z" fill="white"/>
<path d="M181.271 206.888C181.192 206.384 180.492 206.111 180.091 206.421L180.048 206.457C179.671 206.797 179.811 207.532 180.292 207.702C180.772 207.872 181.35 207.392 181.265 206.894L181.271 206.888Z" fill="white"/>
<path d="M215.48 196.479C215.401 195.975 214.702 195.702 214.301 196.012L214.258 196.048C213.881 196.388 214.021 197.123 214.501 197.293C214.982 197.463 215.559 196.983 215.474 196.485L215.48 196.479Z" fill="white"/>
<path d="M247.216 169.298C247.136 168.794 246.437 168.521 246.036 168.831L245.993 168.867C245.616 169.207 245.756 169.942 246.237 170.112C246.717 170.282 247.295 169.802 247.209 169.304L247.216 169.298Z" fill="white"/>
<path d="M234.331 148.724C234.251 148.22 233.552 147.946 233.151 148.256L233.108 148.293C232.731 148.633 232.871 149.367 233.352 149.538C233.832 149.708 234.41 149.228 234.324 148.73L234.331 148.724Z" fill="white"/>
<path d="M209.363 151.299C209.284 150.795 208.585 150.521 208.184 150.831L208.141 150.868C207.764 151.208 207.904 151.942 208.384 152.112C208.865 152.283 209.442 151.803 209.357 151.305L209.363 151.299Z" fill="white"/>
<path d="M183.892 77.4246C179.1 80.467 177.191 86.8433 178.103 90.6144C178.565 92.5152 179.428 94.4281 179.051 96.341C178.723 97.9988 177.531 99.3226 176.637 100.756C173.658 105.541 174.187 112.233 177.878 116.496C181.569 120.753 188.124 122.241 193.292 119.982" fill="#263238"/>
<path d="M181.058 102.317C169.407 76.7263 197.117 63.8705 212.24 68.1335C226.45 72.1415 232.513 79.204 234.848 88.6956C237.189 98.1932 237.073 108.474 233.346 117.523C231.509 121.98 228.201 126.51 223.404 127.069" fill="#263238"/>
<path d="M194.709 164.81C194.508 152.586 194.369 135.789 194.362 135.856C194.362 135.856 183.837 134.113 181.66 120.401C180.578 113.581 180.918 102.402 181.496 93.2621C182.013 85.0337 187.473 74.9409 195.682 75.8093L221.312 82.2767C223.805 82.5378 225.684 84.6632 225.635 87.1712L223.963 140.113" fill="#FFBE9D"/>
<path d="M186.074 101.636C186.032 102.559 186.78 103.355 187.741 103.422C188.701 103.483 189.522 102.79 189.565 101.867C189.607 100.944 188.859 100.149 187.899 100.082C186.932 100.021 186.117 100.713 186.074 101.636Z" fill="#263238"/>
<path d="M204.268 101.636C204.225 102.559 204.973 103.355 205.934 103.422C206.895 103.483 207.716 102.79 207.758 101.867C207.801 100.944 207.053 100.149 206.092 100.082C205.125 100.021 204.31 100.713 204.268 101.636Z" fill="#263238"/>
<path d="M184.177 98.4421C184.39 98.6789 185.752 97.7376 187.649 97.8044C189.541 97.8469 190.897 98.8671 191.115 98.6425C191.219 98.5453 191.012 98.1202 190.422 97.6648C189.839 97.2093 188.841 96.7478 187.662 96.7113C186.482 96.681 185.473 97.0818 184.889 97.5069C184.293 97.9319 184.08 98.3388 184.184 98.4481L184.177 98.4421Z" fill="#263238"/>
<path d="M202.164 98.8915C202.383 99.1222 203.714 98.1263 205.606 98.1263C207.497 98.096 208.895 99.0615 209.096 98.8308C209.193 98.7275 208.974 98.3146 208.366 97.8773C207.77 97.4401 206.749 97.0211 205.569 97.0272C204.389 97.0393 203.398 97.4765 202.827 97.9259C202.249 98.3753 202.048 98.7882 202.158 98.8915H202.164Z" fill="#263238"/>
<path d="M195.67 113.466C195.676 113.357 194.502 113.156 192.593 112.913C192.106 112.865 191.65 112.768 191.571 112.44C191.456 112.087 191.663 111.571 191.894 111.007C192.35 109.835 192.824 108.614 193.323 107.326C195.311 102.086 196.746 97.7802 196.533 97.7013C196.32 97.6223 194.539 101.806 192.55 107.047C192.07 108.341 191.614 109.567 191.182 110.751C191 111.298 190.684 111.924 190.933 112.646C191.061 113.004 191.419 113.272 191.729 113.351C192.04 113.448 192.313 113.448 192.55 113.466C194.472 113.569 195.664 113.575 195.67 113.466Z" fill="#263238"/>
<path d="M194.363 135.862C194.363 135.862 203.599 136.457 212.75 130.961C212.75 130.961 208.105 140.502 194.363 139.22V135.862Z" fill="#EB996E"/>
<path d="M201.696 96.2012C201.884 96.7174 203.775 96.4745 205.995 96.7417C208.226 96.9664 210.014 97.6161 210.312 97.1546C210.446 96.936 210.13 96.4502 209.406 95.9522C208.689 95.4543 207.539 94.9806 206.208 94.8348C204.876 94.6891 203.654 94.9016 202.839 95.2296C202.024 95.5575 201.611 95.9644 201.69 96.2073L201.696 96.2012Z" fill="#263238"/>
<path d="M184.615 93.6873C184.95 94.1185 186.257 93.6691 187.826 93.6509C189.394 93.578 190.726 93.9424 191.03 93.493C191.164 93.2744 190.957 92.8432 190.373 92.4364C189.802 92.0295 188.841 91.7016 187.765 91.7319C186.689 91.7684 185.752 92.157 185.205 92.5943C184.652 93.0376 184.469 93.4809 184.615 93.6873Z" fill="#263238"/>
<path d="M223.27 105.225C223.471 105.128 230.621 101.97 230.7 110.181C230.786 118.391 222.516 116.782 222.498 116.545C222.479 116.308 223.27 105.225 223.27 105.225Z" fill="#FFBE9D"/>
<path d="M224.978 113.405C225.015 113.381 225.124 113.502 225.368 113.612C225.605 113.715 226.012 113.788 226.438 113.624C227.301 113.296 228.019 111.911 228.043 110.43C228.055 109.683 227.891 108.972 227.624 108.383C227.368 107.788 226.973 107.369 226.535 107.296C226.097 107.199 225.793 107.466 225.696 107.697C225.587 107.928 225.641 108.092 225.599 108.104C225.574 108.122 225.422 107.97 225.483 107.63C225.514 107.466 225.611 107.272 225.799 107.114C225.994 106.95 226.286 106.865 226.59 106.895C227.222 106.932 227.8 107.509 228.098 108.152C228.432 108.796 228.633 109.598 228.615 110.436C228.578 112.087 227.745 113.648 226.559 114C225.982 114.158 225.501 113.988 225.246 113.794C224.991 113.593 224.942 113.411 224.972 113.393L224.978 113.405Z" fill="#EB996E"/>
<path d="M192.939 71.7588C188.367 74.1211 186.482 83.4608 188.379 88.2461C190.27 93.0253 195.372 95.3633 200.4 96.4624C205.429 97.5616 210.361 97.6952 215.316 96.3167C215.663 99.6445 217.663 103.07 220.898 103.944C225.185 105.11 229.502 101.187 230.451 96.8572C231.406 92.5273 229.977 88.07 228.566 83.8616" fill="#263238"/>
<path d="M229.211 101.551C229.211 101.551 229.004 101.788 228.578 102.153C228.146 102.511 227.52 103.021 226.681 103.58C225.842 104.132 224.79 104.746 223.483 105.122C222.2 105.493 220.619 105.626 219.123 105.061C217.627 104.491 216.52 103.361 215.821 102.213C215.116 101.047 214.793 99.8571 214.635 98.8612C214.483 97.8592 214.483 97.0455 214.508 96.4807C214.532 95.922 214.587 95.6123 214.617 95.6123C214.708 95.6123 214.611 96.8572 214.97 98.7944C215.164 99.7539 215.505 100.889 216.192 101.976C216.873 103.051 217.919 104.096 219.293 104.612C220.661 105.134 222.133 105.031 223.367 104.697C224.614 104.363 225.653 103.798 226.499 103.288C228.177 102.238 229.162 101.479 229.211 101.545V101.551Z" fill="#263238"/>
<path d="M196.229 118.737C196.503 119.435 196.788 120.146 197.251 120.735C197.713 121.324 198.388 121.798 199.142 121.828C199.944 121.865 200.711 121.391 201.16 120.729C201.604 120.067 201.756 119.235 201.72 118.44C201.689 117.717 201.355 116.855 200.638 116.77C200.34 116.733 200.042 116.848 199.762 116.964C198.503 117.474 197.245 117.984 195.98 118.494" fill="#EB996E"/>
<path d="M197.737 121.846C197.755 121.731 198.588 122.065 199.756 121.597C200.321 121.373 200.942 120.923 201.282 120.213C201.623 119.514 201.69 118.567 201.331 117.741C201.246 117.535 201.124 117.346 201.002 117.176C200.85 117.019 200.881 117.025 200.717 117.049C200.565 117.091 200.315 117.207 200.109 117.286C199.896 117.371 199.689 117.456 199.488 117.541C198.68 117.869 197.944 118.154 197.33 118.385C196.089 118.846 195.311 119.089 195.268 119.004C195.232 118.919 195.949 118.519 197.141 117.948C197.737 117.662 198.449 117.328 199.245 116.97C199.446 116.879 199.646 116.788 199.859 116.697C200.078 116.606 200.248 116.508 200.553 116.411C200.698 116.369 200.911 116.344 201.112 116.43C201.313 116.508 201.434 116.648 201.531 116.757C201.702 116.982 201.848 117.213 201.957 117.474C202.401 118.506 202.292 119.648 201.842 120.492C201.379 121.354 200.589 121.84 199.92 122.041C199.239 122.247 198.655 122.199 198.284 122.101C197.907 122.004 197.731 121.877 197.749 121.834L197.737 121.846Z" fill="#263238"/>
<path d="M232.488 99.602C231.643 99.5413 224.857 100.422 225.392 113.023C225.891 124.798 234.16 122.205 236.799 117.771C239.299 113.575 240.746 100.179 232.488 99.602Z" fill="#455A64"/>
<path d="M236.684 101.09C236.684 101.09 236.666 100.974 236.653 100.756C236.641 100.513 236.629 100.191 236.611 99.7963C236.586 98.9279 236.55 97.7134 236.507 96.2074C236.447 93.1103 236.362 88.8108 236.258 83.8434L236.41 83.9952C235.291 83.9952 234.112 83.9952 232.908 83.9952L233.066 83.8313C233.09 84.7725 233.121 85.7624 233.145 86.7644C233.26 91.495 233.37 95.8977 233.461 99.5838V99.6931L233.358 99.7174C231.783 100.088 230.536 100.999 229.752 102.037C228.949 103.076 228.554 104.175 228.311 105.08C228.067 105.99 227.988 106.731 227.94 107.229C227.915 107.478 227.903 107.673 227.897 107.806C227.891 107.934 227.885 108.007 227.879 108.007C227.873 108.007 227.861 107.94 227.855 107.806C227.849 107.673 227.849 107.478 227.855 107.229C227.873 106.725 227.934 105.972 228.159 105.043C228.384 104.12 228.767 102.991 229.575 101.91C230.366 100.829 231.661 99.8571 233.291 99.4623L233.187 99.5959C233.084 95.9098 232.956 91.5071 232.816 86.7765C232.792 85.7745 232.762 84.7847 232.737 83.8434V83.6794H232.896C234.1 83.6794 235.273 83.6794 236.398 83.6794H236.55V83.8313C236.605 88.7987 236.653 93.0982 236.69 96.1952C236.69 97.7012 236.696 98.9158 236.702 99.7842C236.702 100.179 236.696 100.501 236.69 100.744C236.69 100.962 236.678 101.078 236.666 101.078L236.684 101.09Z" fill="#455A64"/>
<path d="M232.488 83.8496C232.488 83.8496 228.937 75.5482 220.479 71.4552C216.381 69.4695 213.316 68.4492 210.343 67.7023C210.343 67.7023 215.28 66.5303 223.264 70.0828C226.894 71.6981 230.549 73.7932 232.969 76.9449C234.507 78.9428 236.422 82.8536 236.416 83.8556H232.488V83.8496Z" fill="#455A64"/>
<path d="M210.586 184.328C210.586 184.328 210.634 184.267 210.738 184.164C210.841 184.055 210.999 183.903 211.2 183.691C211.601 183.272 212.173 182.628 212.842 181.747C213.516 180.867 214.264 179.725 215.061 178.347C215.851 176.968 216.678 175.347 217.572 173.531C219.366 169.9 221.44 165.503 223.586 160.463C224.662 157.942 225.757 155.264 226.845 152.447C227.113 151.742 227.386 151.026 227.666 150.309C227.94 149.586 228.219 148.846 228.645 148.159C229.059 147.467 229.667 146.86 230.409 146.483C230.779 146.295 231.193 146.149 231.643 146.168C231.868 146.186 232.099 146.259 232.287 146.404C232.482 146.544 232.598 146.75 232.695 146.951L232.713 146.993L232.701 147.042C232.64 147.321 232.555 147.601 232.373 147.85C232.196 148.099 231.91 148.281 231.613 148.348C231.004 148.469 230.427 148.281 229.916 148.038C228.815 147.582 228.165 146.283 228.414 145.093C228.53 144.498 228.901 143.951 229.399 143.611C229.898 143.265 230.512 143.083 231.126 143.119C231.728 143.155 232.385 143.404 232.719 144C232.889 144.291 232.871 144.722 232.658 144.989C232.458 145.263 232.178 145.427 231.886 145.554C230.859 145.961 229.624 145.603 228.974 144.728C228.645 144.291 228.511 143.726 228.578 143.198C228.633 142.67 228.864 142.166 229.211 141.765C229.557 141.364 230.038 141.079 230.579 141.012C231.108 140.957 231.673 141.109 232.056 141.522C232.251 141.722 232.354 142.014 232.348 142.299C232.348 142.591 232.202 142.864 231.996 143.046C231.588 143.417 231.029 143.55 230.506 143.447C229.965 143.332 229.575 142.925 229.32 142.494C229.071 142.056 228.943 141.57 228.876 141.091C228.755 140.143 228.767 139.147 229.198 138.261C229.43 137.83 229.752 137.435 230.232 137.241C230.706 137.052 231.229 137.101 231.679 137.289C232.111 137.478 232.549 137.872 232.567 138.413C232.604 138.941 232.239 139.409 231.795 139.597C231.357 139.803 230.822 139.815 230.396 139.579C229.971 139.348 229.679 138.941 229.533 138.516C229.375 138.091 229.381 137.599 229.448 137.186C229.503 136.761 229.582 136.336 229.727 135.923C229.867 135.516 230.117 135.115 230.463 134.848C230.804 134.581 231.187 134.38 231.606 134.277C231.807 134.235 232.044 134.192 232.275 134.271C232.494 134.344 232.677 134.472 232.829 134.623C232.981 134.775 233.102 134.957 233.187 135.164C233.273 135.364 233.303 135.613 233.206 135.838C233.023 136.299 232.512 136.451 232.117 136.439C231.698 136.439 231.302 136.281 230.974 136.057C230.323 135.595 229.904 134.884 229.752 134.144C229.588 133.409 229.673 132.632 230.007 131.982C230.184 131.666 230.396 131.362 230.688 131.15C230.974 130.931 231.315 130.791 231.661 130.731C232.008 130.676 232.379 130.7 232.695 130.877C233.005 131.053 233.236 131.381 233.254 131.739C233.279 132.461 232.719 133.026 232.111 133.196C231.454 133.366 230.828 133.014 230.457 132.577C230.068 132.127 229.873 131.569 229.831 131.022C229.776 129.917 230.214 128.988 230.427 128.113C230.676 127.239 230.901 126.443 231.102 125.721C231.509 124.294 231.831 123.188 232.05 122.417C232.16 122.053 232.245 121.767 232.306 121.561C232.367 121.367 232.403 121.27 232.403 121.27C232.403 121.27 232.385 121.373 232.336 121.567C232.281 121.774 232.208 122.065 232.111 122.435C231.904 123.207 231.606 124.324 231.223 125.757C231.029 126.48 230.81 127.281 230.573 128.156C230.366 129.036 229.946 129.972 230.007 131.01C230.044 131.52 230.238 132.042 230.597 132.455C230.938 132.856 231.515 133.16 232.056 133.008C232.585 132.868 233.078 132.334 233.041 131.763C233.029 131.484 232.841 131.217 232.592 131.077C232.336 130.931 232.014 130.913 231.704 130.962C231.394 131.016 231.09 131.144 230.834 131.344C230.579 131.532 230.378 131.812 230.22 132.103C229.916 132.698 229.837 133.421 229.995 134.107C230.135 134.793 230.53 135.449 231.12 135.862C231.418 136.063 231.752 136.202 232.117 136.196C232.47 136.202 232.847 136.069 232.956 135.759C233.078 135.467 232.883 135.085 232.634 134.836C232.506 134.708 232.348 134.605 232.184 134.55C232.032 134.496 231.844 134.526 231.655 134.563C230.913 134.757 230.208 135.261 229.971 136.038C229.837 136.415 229.758 136.828 229.709 137.241C229.642 137.666 229.642 138.054 229.782 138.443C229.916 138.82 230.165 139.166 230.512 139.348C230.852 139.536 231.29 139.53 231.649 139.36C232.014 139.196 232.281 138.844 232.251 138.455C232.239 138.067 231.91 137.751 231.533 137.587C231.15 137.429 230.7 137.392 230.317 137.544C229.94 137.69 229.636 138.048 229.442 138.425C229.053 139.214 229.034 140.174 229.156 141.079C229.223 141.534 229.338 141.983 229.563 142.372C229.782 142.749 230.129 143.095 230.542 143.174C230.956 143.259 231.442 143.137 231.752 142.852C232.081 142.579 232.081 142.068 231.795 141.765C231.509 141.449 231.023 141.309 230.585 141.358C230.141 141.413 229.721 141.662 229.417 142.008C228.803 142.694 228.627 143.823 229.198 144.576C229.746 145.329 230.865 145.651 231.74 145.293C231.983 145.19 232.227 145.038 232.373 144.838C232.519 144.643 232.531 144.394 232.415 144.182C232.172 143.732 231.613 143.502 231.077 143.471C230.001 143.398 228.876 144.139 228.688 145.196C228.475 146.24 229.034 147.394 230.019 147.795C230.494 148.026 231.035 148.184 231.509 148.086C232.002 147.995 232.269 147.522 232.36 147.024L232.373 147.115C232.233 146.769 231.941 146.544 231.582 146.52C231.223 146.502 230.846 146.623 230.506 146.799C229.813 147.151 229.253 147.71 228.858 148.36C228.451 149.016 228.177 149.738 227.903 150.461C227.624 151.184 227.35 151.894 227.082 152.605C225.988 155.428 224.881 158.106 223.799 160.62C221.634 165.661 219.53 170.057 217.712 173.677C216.806 175.486 215.967 177.108 215.158 178.486C214.35 179.865 213.577 180.994 212.89 181.875C211.516 183.63 210.555 184.395 210.555 184.395L210.586 184.328Z" fill="white"/>
<path d="M239.858 93.6935C239.803 93.7056 239.882 92.8311 239.305 91.4466C238.745 90.0863 237.359 88.2402 234.939 87.0803C233.735 86.5156 232.294 86.1573 230.731 86.054C229.162 85.9508 227.478 86.1026 225.739 86.4366C222.254 87.0742 218.594 88.5803 214.496 89.1936C212.44 89.4608 210.409 89.4487 208.476 89.1875C206.542 88.9143 204.73 88.3677 203.064 87.724C199.75 86.3577 197.074 84.4508 195.183 82.5258C193.28 80.6068 192.052 78.7668 191.365 77.4248C191.17 77.1029 191.03 76.7993 190.915 76.5321L190.617 75.858C190.544 75.688 190.489 75.5544 190.44 75.4451C190.404 75.3479 190.386 75.2993 190.392 75.2993C190.392 75.2993 190.422 75.3418 190.471 75.4329C190.526 75.5422 190.592 75.6698 190.678 75.8337C190.769 76.0159 190.872 76.2345 191 76.4896C191.121 76.7507 191.267 77.0482 191.474 77.364C192.186 78.6818 193.438 80.4854 195.341 82.3618C197.239 84.2504 199.896 86.1148 203.173 87.4507C204.821 88.0823 206.609 88.6167 208.518 88.8778C210.428 89.1329 212.428 89.145 214.453 88.8778C218.497 88.2706 222.163 86.7767 225.69 86.1451C227.447 85.8172 229.156 85.6714 230.755 85.7868C232.348 85.9022 233.814 86.2787 235.042 86.8738C237.505 88.0884 238.885 89.9952 239.426 91.3919C239.718 92.0963 239.791 92.6854 239.852 93.0801L239.87 93.5295C239.87 93.6327 239.87 93.6813 239.87 93.6813L239.858 93.6935Z" fill="#455A64"/>
<path d="M230.682 80.6069C230.682 80.6069 230.53 80.6433 230.245 80.6858C229.959 80.7223 229.533 80.7891 228.992 80.8802C227.91 81.0623 226.353 81.4024 224.444 81.8821C222.534 82.3558 220.248 82.9266 217.645 83.1999C215.049 83.4732 212.148 83.4489 209.163 83.0177C206.177 82.5866 203.392 81.7911 200.972 80.8194C198.546 79.8417 196.473 78.7183 194.825 77.6313C194.01 77.0787 193.274 76.5685 192.66 76.0827C192.058 75.5848 191.517 75.1779 191.115 74.8014C190.732 74.4431 190.422 74.1516 190.191 73.933C189.984 73.7326 189.875 73.6233 189.881 73.6172C189.887 73.6112 190.009 73.7022 190.234 73.8905C190.477 74.097 190.799 74.3702 191.195 74.7103C191.608 75.0747 192.155 75.4633 192.769 75.9491C193.39 76.4167 194.131 76.9147 194.946 77.4491C198.236 79.5502 203.265 81.87 209.212 82.7141C212.173 83.1453 215.037 83.1756 217.615 82.9206C220.193 82.6716 222.473 82.1251 224.395 81.6757C226.31 81.2263 227.879 80.9166 228.974 80.7708C229.521 80.698 229.947 80.6494 230.238 80.6312C230.53 80.613 230.682 80.6069 230.682 80.619V80.6069Z" fill="#455A64"/>
<path d="M231.582 121.294C231.582 121.294 231.497 121.282 231.345 121.227C231.193 121.166 230.974 121.069 230.713 120.899C230.19 120.571 229.497 119.964 228.931 119.004C228.36 118.051 227.983 116.757 227.837 115.306C227.697 113.861 227.697 112.264 227.837 110.594C227.976 108.93 228.256 107.351 228.615 105.948C228.968 104.545 229.393 103.288 229.971 102.341C230.542 101.387 231.236 100.774 231.759 100.458C232.02 100.294 232.239 100.197 232.391 100.137C232.543 100.082 232.628 100.064 232.628 100.07C232.64 100.094 232.318 100.209 231.825 100.556C231.333 100.902 230.688 101.515 230.159 102.45C229.624 103.385 229.229 104.618 228.895 106.015C228.554 107.406 228.287 108.966 228.147 110.612C228.013 112.258 228.007 113.843 228.128 115.27C228.256 116.691 228.597 117.948 229.126 118.883C229.643 119.824 230.293 120.437 230.78 120.79C231.266 121.142 231.594 121.257 231.576 121.288L231.582 121.294Z" fill="#263238"/>
<path d="M204.238 119.427L197.997 120.649C197.058 120.833 196.446 121.743 196.63 122.681L196.676 122.913C196.86 123.851 197.771 124.463 198.71 124.279L204.951 123.056C205.89 122.872 206.502 121.962 206.318 121.024L206.273 120.792C206.088 119.854 205.178 119.243 204.238 119.427Z" fill="#455A64"/>
<path d="M205.429 120.346L234.282 111.31C234.993 111.085 235.753 111.48 235.985 112.191C236.222 112.932 235.796 113.715 235.042 113.915L205.539 121.877L205.429 120.346Z" fill="#455A64"/>
<path d="M226.754 116.375C226.754 116.375 227.088 116.235 227.709 116.041C228.384 115.834 229.271 115.567 230.348 115.239C231.454 114.899 232.816 114.541 234.251 114.067C234.598 113.934 234.938 113.751 235.194 113.484C235.443 113.223 235.607 112.853 235.601 112.482C235.601 112.112 235.364 111.778 235.005 111.656C234.647 111.535 234.215 111.59 233.801 111.693C230.445 112.768 227.417 113.745 225.149 114.474C224.078 114.808 223.191 115.081 222.516 115.288C221.889 115.47 221.543 115.567 221.537 115.543C221.531 115.525 221.865 115.391 222.479 115.166C223.148 114.936 224.024 114.626 225.082 114.255C227.289 113.509 230.317 112.47 233.722 111.383C234.16 111.274 234.641 111.201 235.109 111.359C235.583 111.511 235.917 111.996 235.911 112.476C235.911 112.944 235.717 113.381 235.413 113.697C235.103 114.007 234.726 114.201 234.355 114.34C232.865 114.814 231.533 115.136 230.408 115.458C229.326 115.743 228.426 115.98 227.745 116.162C227.113 116.32 226.76 116.399 226.754 116.381V116.375Z" fill="#263238"/>
<path d="M179.58 94.3005C180.565 97.762 177.045 100.732 175.804 104.114C174.606 107.381 175.628 111.043 177.106 114.201C178.583 117.358 180.529 120.346 181.283 123.747C183.15 132.127 175.561 141.157 177.008 149.617C177.537 152.701 178.778 155.914 179.854 158.853C180.93 161.786 180.857 164.476 179.854 167.434C178.212 172.28 175.427 174.563 173.469 179.294C172.466 181.711 172.545 184.419 172.594 187.03C172.642 189.642 172.624 192.374 171.463 194.718C170.295 197.062 167.632 198.872 165.102 198.192C167.747 201.301 172.636 202.23 176.242 200.311C179.568 198.538 181.429 194.943 183.022 191.53C190.732 175.006 194.812 173.61 194.6 155.38C194.587 154.208 194.369 135.947 194.369 135.947C194.369 135.947 191.48 135.176 189.814 134.028C181.198 128.089 180.888 117.51 180.955 109.312" fill="#263238"/>
<path d="M196.813 149.617V156.497C196.813 156.497 191.517 183.49 189.923 198.484C188.336 213.477 188.063 217.436 188.063 217.436C188.063 217.436 191.863 223.357 199.811 213.301C207.758 203.245 209.175 201.66 212.349 201.483C212.349 201.483 208.463 159.321 208.64 157.736C208.816 156.151 210.05 154.736 210.05 154.736L196.801 149.623L196.813 149.617Z" fill="#FFBE9D"/>
<path d="M207.235 134.089C207.235 134.089 198.582 145.554 197.871 147.145C197.165 148.73 196.813 149.617 196.813 149.617L210.062 154.73L222.96 140.617L227.727 128.095L226.316 113.278C226.316 113.278 223.489 113.102 222.96 115.573C222.431 118.045 222.607 120.334 222.607 120.334L218.648 117.158L212.27 115.215C212.27 115.215 210.768 117.686 213.243 118.919C215.718 120.152 216.423 120.152 216.423 120.152L218.648 124.032L217.675 128.38L213.17 124.16C212.264 123.31 210.883 123.225 209.88 123.953L206.967 126.067L204.237 124.846L198.941 129.498L196.819 131.441C196.819 131.441 198.23 134.089 201.057 132.85L203.885 131.617L207.241 134.089H207.235Z" fill="#FFBE9D"/>
<path d="M196.813 151.936C196.813 151.936 196.801 151.815 196.813 151.572C196.819 151.329 196.843 150.965 196.898 150.497C196.959 150.023 197.05 149.44 197.226 148.766C197.421 148.098 197.646 147.309 198.157 146.544C200.139 143.507 203.258 139.281 207.144 134.028L207.168 134.186C206.122 133.415 204.985 132.583 203.806 131.72L203.927 131.733C203.356 131.982 202.772 132.237 202.182 132.498C201.586 132.747 201.002 133.062 200.321 133.22C199.652 133.372 198.892 133.324 198.254 132.984C197.603 132.662 197.08 132.139 196.697 131.502L196.643 131.417L196.722 131.344C199.002 129.206 201.531 127.051 204.134 124.743L204.213 124.676L204.304 124.731C205.034 125.162 205.843 125.636 206.657 126.115H206.499C207.405 125.526 208.324 124.919 209.254 124.312C209.728 124.008 210.166 123.698 210.683 123.389C211.236 123.109 211.948 123.164 212.452 123.547C214.204 125.022 215.991 126.534 217.815 128.071L217.56 128.156C217.852 126.85 218.168 125.435 218.484 124.002L218.503 124.111C217.797 122.885 217.043 121.561 216.277 120.231L216.417 120.31C215.997 120.261 215.681 120.14 215.316 120.012C214.97 119.885 214.623 119.739 214.276 119.587C213.93 119.435 213.589 119.265 213.243 119.101C213.073 119.016 212.896 118.907 212.726 118.804C212.574 118.67 212.398 118.567 212.27 118.403C211.862 117.972 211.625 117.371 211.656 116.782C211.668 116.193 211.844 115.64 212.124 115.13L212.185 115.021L212.306 115.057C214.459 115.713 216.587 116.363 218.679 117H218.709L218.734 117.031C220.071 118.105 221.391 119.162 222.692 120.207L222.443 120.34C222.358 118.743 222.473 117.17 222.777 115.646C222.911 114.869 223.373 114.098 224.066 113.691C224.747 113.272 225.532 113.108 226.316 113.126H226.444L226.456 113.259C226.955 118.524 227.423 123.492 227.855 128.077V128.138C226.079 132.753 224.474 136.943 223.057 140.653V140.672L223.033 140.684C218.794 145.293 215.383 149.003 213.018 151.566C211.844 152.835 210.932 153.819 210.3 154.493C209.996 154.821 209.759 155.07 209.588 155.246C209.43 155.416 209.339 155.495 209.339 155.495C209.339 155.495 209.412 155.398 209.564 155.222C209.728 155.039 209.953 154.784 210.251 154.444C210.871 153.758 211.765 152.762 212.927 151.475C215.268 148.894 218.655 145.159 222.868 140.526L222.844 140.562C224.255 136.846 225.842 132.65 227.593 128.028V128.089C227.143 123.498 226.663 118.537 226.158 113.272L226.298 113.405C225.593 113.393 224.839 113.545 224.231 113.927C223.61 114.298 223.209 114.96 223.081 115.689C222.783 117.176 222.674 118.743 222.753 120.298L222.771 120.644L222.504 120.425C221.202 119.381 219.883 118.324 218.545 117.249L218.6 117.28C216.502 116.642 214.38 115.998 212.221 115.342L212.404 115.276C212.154 115.725 211.99 116.253 211.978 116.769C211.954 117.292 212.154 117.796 212.507 118.172C212.616 118.318 212.781 118.409 212.914 118.524C213.073 118.616 213.225 118.713 213.395 118.798C213.735 118.968 214.076 119.132 214.416 119.284C215.085 119.575 215.803 119.885 216.423 119.982L216.526 120L216.563 120.067C217.329 121.397 218.083 122.721 218.788 123.947L218.819 124.002L218.807 124.063C218.484 125.49 218.168 126.905 217.876 128.216L217.822 128.465L217.627 128.301C215.809 126.765 214.027 125.259 212.288 123.783C211.875 123.474 211.285 123.425 210.829 123.656C210.373 123.923 209.892 124.263 209.43 124.555C208.5 125.162 207.582 125.769 206.676 126.358L206.597 126.407L206.518 126.358C205.703 125.872 204.894 125.399 204.17 124.968L204.341 124.949C201.738 127.251 199.196 129.401 196.916 131.532L196.947 131.374C197.287 131.945 197.792 132.461 198.382 132.747C198.971 133.056 199.652 133.105 200.279 132.965C200.905 132.826 201.495 132.51 202.097 132.261C202.693 132 203.277 131.751 203.848 131.502L203.909 131.471L203.964 131.514C205.137 132.382 206.268 133.22 207.314 133.992L207.405 134.058L207.338 134.149C203.429 139.384 200.279 143.592 198.278 146.598C197.774 147.339 197.536 148.123 197.336 148.779C197.147 149.447 197.044 150.023 196.977 150.491C196.91 150.959 196.88 151.317 196.861 151.56C196.843 151.803 196.831 151.924 196.831 151.924L196.813 151.936Z" fill="#EB996E"/>
<path d="M213.206 136.749C213.146 136.736 213.377 135.813 213.474 134.307C213.504 133.56 213.462 132.649 213.054 131.757C212.653 130.864 211.856 130.093 210.944 129.388C209.108 127.974 207.345 126.838 206.043 126.055C205.435 125.696 204.918 125.393 204.493 125.144C204.128 124.931 203.921 124.804 203.933 124.785C203.946 124.767 204.164 124.852 204.548 125.034C204.937 125.217 205.484 125.496 206.153 125.86C207.491 126.601 209.29 127.712 211.139 129.139C212.063 129.85 212.896 130.67 213.322 131.635C213.741 132.601 213.76 133.56 213.699 134.319C213.632 135.091 213.498 135.692 213.401 136.111C213.298 136.524 213.231 136.749 213.206 136.749Z" fill="#EB996E"/>
<path d="M222.479 131.241C222.431 131.228 222.558 130.627 222.704 129.656C222.85 128.684 222.99 127.324 222.978 125.824C222.966 124.324 222.802 122.97 222.643 121.998C222.485 121.026 222.345 120.425 222.394 120.413C222.431 120.401 222.643 120.984 222.868 121.955C223.087 122.927 223.288 124.3 223.3 125.824C223.312 127.348 223.136 128.72 222.929 129.698C222.729 130.676 222.522 131.259 222.485 131.247L222.479 131.241Z" fill="#EB996E"/>
<path d="M163.43 86.2481L157.094 75.0926C159.897 70.5442 161.52 65.1941 161.52 59.4676C161.52 42.9864 148.143 29.6265 131.64 29.6265C115.137 29.6265 101.76 42.9864 101.76 59.4676C101.76 75.9488 115.137 89.3087 131.64 89.3087C138.53 89.3087 144.872 86.9708 149.925 83.06L149.913 83.0721L163.43 86.2481Z" fill="white"/>
<path d="M163.43 86.2482C162.877 86.1207 158.541 85.1247 149.894 83.1451L149.773 83.1208L149.846 83.0236L149.858 83.0115L149.967 83.1208C148.265 84.4385 146.222 85.7381 143.82 86.819C141.418 87.8817 138.663 88.7501 135.629 89.1509C134.115 89.3453 132.528 89.4667 130.898 89.3878C130.084 89.3392 129.257 89.321 128.424 89.2542C127.597 89.1266 126.751 88.9991 125.9 88.8716C122.519 88.2036 119.059 86.9223 115.837 84.9243C112.614 82.9325 109.628 80.2302 107.239 76.9023C104.849 73.5867 103.037 69.6516 102.192 65.3825C101.352 61.1134 101.425 56.5406 102.544 52.1137C103.675 47.7049 105.785 43.3933 108.947 39.8469L110.169 38.5048C110.571 38.0554 111.051 37.685 111.483 37.272C111.939 36.8834 112.346 36.4401 112.839 36.0939C113.319 35.7357 113.793 35.3774 114.274 35.0252C114.736 34.6486 115.247 34.3511 115.758 34.0475C116.262 33.7377 116.767 33.4341 117.272 33.1305C117.801 32.8754 118.33 32.6143 118.859 32.3592C119.388 32.1163 119.905 31.8249 120.458 31.6487C124.793 29.9302 129.421 29.2743 133.848 29.5962C138.268 29.912 142.506 31.1811 146.137 33.2216C149.779 35.2438 152.85 37.9522 155.221 40.9703C157.599 43.9945 159.277 47.3223 160.317 50.6441C161.35 53.978 161.63 57.2876 161.618 60.3482C161.533 63.4149 160.973 66.2448 160.159 68.7285C159.344 71.2122 158.274 73.3498 157.167 75.1473V75.0684C161.192 82.2463 163.175 85.7867 163.442 86.2603C163.175 85.7927 161.144 82.2706 157.039 75.1413L157.015 75.1048L157.039 75.0684C158.128 73.2709 159.186 71.1394 159.982 68.6678C160.779 66.1962 161.326 63.3906 161.399 60.3421C161.399 57.2997 161.113 54.0205 160.079 50.717C159.04 47.4256 157.374 44.1281 155.008 41.1403C152.655 38.1526 149.603 35.4806 145.997 33.4766C142.397 31.4605 138.207 30.2095 133.829 29.8998C129.451 29.5901 124.872 30.2399 120.58 31.9402C120.026 32.1163 119.521 32.4018 118.992 32.6447C118.47 32.8997 117.947 33.1487 117.424 33.4037C116.925 33.7074 116.426 34.011 115.928 34.3146C115.423 34.6122 114.918 34.9158 114.462 35.2863C113.988 35.6385 113.52 35.9907 113.046 36.3429C112.559 36.683 112.158 37.1263 111.708 37.5089C111.276 37.9157 110.802 38.2862 110.407 38.7295L109.203 40.0533C106.077 43.5633 103.985 47.8264 102.867 52.1865C101.754 56.5649 101.681 61.0952 102.508 65.3157C103.341 69.5483 105.129 73.4409 107.494 76.7262C109.859 80.0176 112.808 82.7017 116.001 84.6814C119.193 86.6672 122.617 87.9485 125.967 88.6165C126.812 88.7441 127.645 88.8777 128.466 88.9991C129.293 89.072 130.114 89.0902 130.923 89.1388C132.54 89.2238 134.109 89.1024 135.617 88.9141C138.633 88.5254 141.369 87.6692 143.759 86.6247C146.149 85.562 148.18 84.2806 149.888 82.9811L150.369 82.6167L150.004 83.0904L149.992 83.1025L149.949 82.9811C158.571 85.0579 162.895 86.1024 163.448 86.236L163.43 86.2482Z" fill="#263238"/>
<path d="M125.164 59.4616C125.164 60.7976 124.076 61.8846 122.738 61.8846C121.4 61.8846 120.312 60.7976 120.312 59.4616C120.312 58.1256 121.4 57.0386 122.738 57.0386C124.076 57.0386 125.164 58.1256 125.164 59.4616Z" fill="#263238"/>
<path d="M134.869 59.4616C134.869 60.7976 133.781 61.8846 132.443 61.8846C131.105 61.8846 130.017 60.7976 130.017 59.4616C130.017 58.1256 131.105 57.0386 132.443 57.0386C133.781 57.0386 134.869 58.1256 134.869 59.4616Z" fill="#263238"/>
<path d="M144.556 58.2532C145.224 59.4131 144.829 60.8948 143.668 61.5628C142.506 62.2308 141.023 61.8361 140.354 60.6762C139.685 59.5163 140.08 58.0346 141.242 57.3666C142.403 56.6986 143.887 57.0933 144.556 58.2532Z" fill="#263238"/>
<path d="M283 249.852C283 249.937 221.184 250.01 144.951 250.01C68.7175 250.01 6.8833 249.937 6.8833 249.852C6.8833 249.767 68.6871 249.694 144.951 249.694C221.214 249.694 283 249.767 283 249.852Z" fill="#263238"/>
<path d="M204.87 249.998C204.87 249.998 208.992 242.966 217.876 242.662C226.76 242.359 231.199 249.998 231.199 249.998H204.87Z" fill="#455A64"/>
<path d="M221.895 249.779C221.829 249.779 221.816 249.257 221.634 248.456C221.458 247.654 221.069 246.573 220.369 245.535C219.664 244.502 218.8 243.743 218.113 243.282C217.432 242.82 216.952 242.614 216.976 242.553C216.988 242.517 217.511 242.632 218.259 243.051C219.007 243.464 219.944 244.235 220.685 245.316C221.421 246.403 221.792 247.563 221.902 248.407C222.017 249.257 221.932 249.786 221.889 249.779H221.895Z" fill="#263238"/>
<path d="M199.373 249.676V249.622C199.342 247.763 197.822 246.27 195.962 246.27H120.355C118.47 246.27 116.943 247.794 116.943 249.676H199.373Z" fill="#455A64"/>
<path d="M54.6287 117.407C54.6287 118.998 55.8205 213.829 55.8205 213.829L126.35 230.778H132.181L128.472 98.3816H123.17L54.6347 117.407H54.6287Z" fill="#263238"/>
<path d="M69.5445 209.858L47.6846 249.871H67.6656C64.0902 249.512 99.3033 249.871 99.3033 249.871L67.6656 241.49L77.5589 219.052L76.7136 209.858H69.5445Z" fill="#263238"/>
<path d="M70.0309 217.242L67.6655 142.676L89.1424 140.617L91.7875 220.236L84.1198 220.625L70.0309 217.242Z" fill="#263238"/>
<path d="M94.7915 223.193C94.7915 223.193 94.7854 223.078 94.7793 222.847C94.7793 222.61 94.7733 222.27 94.7672 221.827C94.7672 220.916 94.755 219.586 94.7428 217.868C94.7307 214.4 94.7185 209.366 94.7003 203.038C94.6881 190.364 94.6638 172.529 94.6455 151.845L94.7976 151.997C86.8501 151.997 78.3007 151.997 69.4595 152.003L69.6176 151.845C69.6176 152.932 69.6176 154.111 69.6176 155.289C69.6054 175.456 69.5993 194.233 69.5932 209.87V209.906L69.575 209.937C62.9957 221.979 57.5414 231.968 53.7227 238.958C51.8134 242.438 50.3115 245.17 49.2838 247.041C48.7731 247.964 48.3778 248.674 48.1103 249.16C47.8427 249.64 47.6968 249.883 47.6968 249.883C47.6968 249.883 47.8184 249.628 48.0738 249.142C48.3352 248.65 48.7183 247.933 49.2169 247.004C50.2263 245.128 51.71 242.383 53.5889 238.885C57.3833 231.883 62.8072 221.876 69.3439 209.809L69.3257 209.87C69.3196 194.227 69.3074 175.456 69.3014 155.289C69.3014 154.111 69.3014 152.938 69.3014 151.845V151.688H69.4595C78.3007 151.688 86.8501 151.688 94.7976 151.694H94.9496V151.845C94.9253 172.529 94.907 190.364 94.8949 203.038C94.8766 209.366 94.8584 214.406 94.8523 217.868C94.8401 219.592 94.8341 220.922 94.828 221.827C94.828 222.27 94.8158 222.61 94.8158 222.847C94.8158 223.078 94.8037 223.193 94.8037 223.193H94.7915Z" fill="#455A64"/>
<path d="M77.559 219.052C77.638 219.088 74.5977 226.108 70.7669 234.738C66.9361 243.367 63.762 250.332 63.6829 250.296C63.6039 250.259 66.6442 243.239 70.475 234.61C74.3058 225.987 77.4799 219.021 77.559 219.052Z" fill="#455A64"/>
<path d="M126.35 230.772C126.35 230.772 126.338 230.657 126.332 230.432C126.332 230.195 126.32 229.861 126.314 229.43C126.302 228.537 126.289 227.244 126.265 225.58C126.241 222.24 126.162 217.4 126.046 211.424C125.821 199.473 125.28 182.974 124.617 164.75C123.954 146.52 123.45 130.014 123.279 118.057C123.188 112.082 123.152 107.242 123.164 103.902C123.164 102.238 123.176 100.944 123.176 100.052C123.176 99.6204 123.182 99.2864 123.188 99.0495C123.188 98.8249 123.2 98.7095 123.2 98.7095C123.2 98.7095 123.213 98.8249 123.219 99.0495C123.219 99.2864 123.231 99.6204 123.237 100.052C123.249 100.944 123.261 102.238 123.286 103.902C123.31 107.242 123.389 112.082 123.504 118.051C123.729 130.002 124.271 146.501 124.933 164.738C125.596 182.962 126.101 199.467 126.271 211.418C126.362 217.394 126.399 222.234 126.387 225.574C126.387 227.238 126.374 228.531 126.374 229.424C126.374 229.855 126.368 230.189 126.362 230.426C126.362 230.651 126.35 230.766 126.35 230.766V230.772Z" fill="#455A64"/>
<path d="M90.9423 151.281C91.0274 151.281 91.1004 167.143 91.1004 186.703C91.1004 206.263 91.0274 222.125 90.9423 222.125C90.8571 222.125 90.7842 206.269 90.7842 186.703C90.7842 167.137 90.8571 151.281 90.9423 151.281Z" fill="#455A64"/>
<path d="M52.9442 243.622C52.9442 243.622 52.8287 243.482 52.6402 243.197C52.5429 243.045 52.4274 242.875 52.2936 242.668C52.1477 242.462 52.0017 242.219 51.8558 241.928C51.1991 240.81 50.4512 239.061 49.9282 236.796C49.4114 234.531 49.235 231.732 49.5512 228.677C49.8978 225.628 50.7187 222.313 52.1842 219.082C52.9199 217.461 53.8746 215.991 54.9387 214.704C55.1941 214.37 55.4616 214.054 55.7414 213.756C56.0211 213.453 56.2886 213.149 56.5683 212.864C57.1521 212.311 57.7054 211.746 58.3074 211.267C59.4627 210.252 60.691 209.445 61.8403 208.71C62.4422 208.382 63.0017 208.036 63.5732 207.757C64.1509 207.495 64.686 207.198 65.2333 206.998C67.3858 206.123 69.2404 205.698 70.5356 205.589C71.1801 205.479 71.6848 205.522 72.0254 205.498C72.3659 205.491 72.5483 205.498 72.5483 205.498C72.5483 205.498 72.372 205.528 72.0314 205.552C71.6909 205.595 71.1862 205.577 70.5538 205.704C69.2708 205.85 67.4466 206.305 65.3245 207.198C64.7833 207.398 64.2604 207.702 63.6888 207.963C63.1294 208.242 62.5699 208.589 61.9801 208.923C60.843 209.657 59.6391 210.465 58.502 211.479C57.9061 211.959 57.3649 212.518 56.7872 213.07C56.5136 213.356 56.246 213.659 55.9724 213.957C55.6927 214.248 55.4312 214.57 55.1819 214.898C54.1361 216.173 53.1936 217.625 52.47 219.216C51.0228 222.41 50.1958 225.695 49.837 228.713C49.5026 231.738 49.6546 234.507 50.1411 236.754C50.6275 239.001 51.339 240.743 51.9592 241.873C52.093 242.164 52.2328 242.413 52.3666 242.626C52.4882 242.832 52.5977 243.015 52.6889 243.166C52.8591 243.458 52.9503 243.616 52.9382 243.622H52.9442Z" fill="#455A64"/>
</g>
<defs>
<clipPath id="clip0_1466_2468">
<rect width="283" height="250" fill="white" transform="translate(0 0.289551)"/>
</clipPath>
</defs>
</svg>
