<?xml version="1.0" encoding="utf-8"?>
<!-- Generator: Adobe Illustrator 26.1.0, SVG Export Plug-In . SVG Version: 6.00 Build 0)  -->
<svg version="1.1" id="Capa_1" xmlns="http://www.w3.org/2000/svg" xmlns:xlink="http://www.w3.org/1999/xlink" x="0px" y="0px"
	 viewBox="0 0 528 396" style="enable-background:new 0 0 528 396;" xml:space="preserve">
<style type="text/css">
	.st0{fill:#D0EBFF;}
	.st1{fill:#B7E1E2;}
	.st2{fill:#81C6C4;}
	.st3{fill:#74B5B4;}
	.st4{opacity:0.4;}
	.st5{fill:#EBF7FF;}
	.st6{fill:#ABC6D9;}
	.st7{fill:#B3BCC3;}
	.st8{fill:#94A2AA;}
	.st9{fill:#A8B5BE;}
	.st10{fill:#6D4D42;}
	.st11{fill:#E5E5E7;}
	.st12{opacity:0.5;fill:#FFFFFF;enable-background:new    ;}
	.st13{fill:#F7422E;}
	.st14{fill:#8196FC;}
	.st15{fill:#7585F8;}
	.st16{fill:#E23629;}
	.st17{fill:#F4A517;}
	.st18{opacity:0.3;}
	.st19{fill:#F28F19;}
	.st20{fill:#F9D483;}
	.st21{fill:#A4DCFF;}
	.st22{fill:#F7B2A0;}
	.st23{fill:#EDA503;}
	.st24{fill:#DFD9CD;}
	.st25{fill:#BFBBB4;}
	.st26{fill:#FFB502;}
	.st27{fill:#FBC6B4;}
	.st28{fill:#163A54;}
	.st29{fill:#464F72;}
	.st30{fill:#FFFFFF;}
	.st31{fill:#1D1B3A;}
</style>
<path class="st0" d="M528,0H0v377.4h528V0z"/>
<path class="st1" d="M38.9,177.6H0v115.9h38.9V177.6z"/>
<path class="st2" d="M13.2,182.4H5.3v8.8h7.9V182.4z"/>
<path class="st2" d="M23.4,182.4h-7.9v8.8h7.9V182.4z"/>
<path class="st2" d="M33.6,182.4h-7.9v8.8h7.9V182.4z"/>
<path class="st2" d="M13.2,194.2H5.3v8.8h7.9V194.2z"/>
<path class="st2" d="M23.4,194.2h-7.9v8.8h7.9V194.2z"/>
<path class="st2" d="M33.6,194.2h-7.9v8.8h7.9V194.2z"/>
<path class="st2" d="M13.2,205.3H5.3v8.8h7.9V205.3z"/>
<path class="st2" d="M23.4,205.3h-7.9v8.8h7.9V205.3z"/>
<path class="st2" d="M33.6,205.3h-7.9v8.8h7.9V205.3z"/>
<path class="st2" d="M13.2,216.1H5.3v8.8h7.9V216.1z"/>
<path class="st2" d="M23.4,216.1h-7.9v8.8h7.9V216.1z"/>
<path class="st2" d="M33.6,216.1h-7.9v8.8h7.9V216.1z"/>
<path class="st2" d="M13.2,226.8H5.3v8.8h7.9V226.8z"/>
<path class="st2" d="M23.4,226.8h-7.9v8.8h7.9V226.8z"/>
<path class="st2" d="M33.6,226.8h-7.9v8.8h7.9V226.8z"/>
<path class="st2" d="M13.2,238H5.3v8.8h7.9V238z"/>
<path class="st2" d="M23.4,238h-7.9v8.8h7.9V238z"/>
<path class="st2" d="M33.6,238h-7.9v8.8h7.9V238z"/>
<path class="st2" d="M13.2,249.8H5.3v8.8h7.9V249.8z"/>
<path class="st2" d="M23.4,249.8h-7.9v8.8h7.9V249.8z"/>
<path class="st2" d="M33.6,249.8h-7.9v8.8h7.9V249.8z"/>
<path class="st2" d="M13.2,260.9H5.3v8.8h7.9V260.9z"/>
<path class="st2" d="M23.4,260.9h-7.9v8.8h7.9V260.9z"/>
<path class="st2" d="M33.6,260.9h-7.9v8.8h7.9V260.9z"/>
<path class="st2" d="M13.2,271.7H5.3v8.8h7.9V271.7z"/>
<path class="st2" d="M23.4,271.7h-7.9v8.8h7.9V271.7z"/>
<path class="st2" d="M33.6,271.7h-7.9v8.8h7.9V271.7z"/>
<path class="st2" d="M13.2,282.4H5.3v8.8h7.9V282.4z"/>
<path class="st2" d="M23.4,282.4h-7.9v8.8h7.9V282.4z"/>
<path class="st2" d="M33.6,282.4h-7.9v8.8h7.9V282.4z"/>
<path class="st1" d="M82.1,207.6H43.2v86h38.9V207.6z"/>
<path class="st2" d="M56.4,214.9h-7.9v12.5h7.9V214.9z"/>
<path class="st2" d="M66.6,214.9h-7.9v12.5h7.9V214.9z"/>
<path class="st2" d="M76.8,214.9h-7.9v12.5h7.9V214.9z"/>
<path class="st2" d="M56.4,231.7h-7.9v12.5h7.9V231.7z"/>
<path class="st2" d="M66.6,231.7h-7.9v12.5h7.9V231.7z"/>
<path class="st2" d="M76.8,231.7h-7.9v12.5h7.9V231.7z"/>
<path class="st2" d="M56.4,247.4h-7.9v12.5h7.9V247.4z"/>
<path class="st2" d="M66.6,247.4h-7.9v12.5h7.9V247.4z"/>
<path class="st2" d="M76.8,247.4h-7.9v12.5h7.9V247.4z"/>
<path class="st2" d="M56.4,262.6h-7.9V275h7.9V262.6z"/>
<path class="st2" d="M66.6,262.6h-7.9V275h7.9V262.6z"/>
<path class="st2" d="M76.8,262.6h-7.9V275h7.9V262.6z"/>
<path class="st2" d="M56.4,277.7h-7.9v12.5h7.9V277.7z"/>
<path class="st2" d="M66.6,277.7h-7.9v12.5h7.9V277.7z"/>
<path class="st2" d="M76.8,277.7h-7.9v12.5h7.9V277.7z"/>
<path class="st3" d="M49.7,224.9h-34v68.6h34V224.9z"/>
<path class="st1" d="M26.7,228.4h-8v10.3h8V228.4z"/>
<path class="st1" d="M37,228.4h-8v10.3h8V228.4z"/>
<path class="st1" d="M47.2,228.4h-8v10.3h8V228.4z"/>
<path class="st1" d="M26.7,242.3h-8v10.3h8V242.3z"/>
<path class="st1" d="M37,242.3h-8v10.3h8V242.3z"/>
<path class="st1" d="M47.2,242.3h-8v10.3h8V242.3z"/>
<path class="st1" d="M26.7,255.2h-8v10.3h8V255.2z"/>
<path class="st1" d="M37,255.2h-8v10.3h8V255.2z"/>
<path class="st1" d="M47.2,255.2h-8v10.3h8V255.2z"/>
<path class="st1" d="M26.7,267.7h-8v10.3h8V267.7z"/>
<path class="st1" d="M37,267.7h-8v10.3h8V267.7z"/>
<path class="st1" d="M47.2,267.7h-8v10.3h8V267.7z"/>
<path class="st1" d="M26.7,280.2h-8v10.3h8V280.2z"/>
<path class="st1" d="M37,280.2h-8v10.3h8V280.2z"/>
<path class="st1" d="M47.2,280.2h-8v10.3h8V280.2z"/>
<path class="st1" d="M113.8,156.4H74.9v136.9h38.9V156.4z"/>
<path class="st2" d="M88.1,162.1h-7.9v10.4h7.9V162.1z"/>
<path class="st2" d="M98.3,162.1h-7.9v10.4h7.9V162.1z"/>
<path class="st2" d="M108.5,162.1h-7.9v10.4h7.9V162.1z"/>
<path class="st2" d="M88.1,176.1h-7.9v10.4h7.9V176.1z"/>
<path class="st2" d="M98.3,176.1h-7.9v10.4h7.9V176.1z"/>
<path class="st2" d="M108.5,176.1h-7.9v10.4h7.9V176.1z"/>
<path class="st2" d="M88.1,189.2h-7.9v10.4h7.9V189.2z"/>
<path class="st2" d="M98.3,189.2h-7.9v10.4h7.9V189.2z"/>
<path class="st2" d="M108.5,189.2h-7.9v10.4h7.9V189.2z"/>
<path class="st2" d="M88.1,201.8h-7.9v10.4h7.9V201.8z"/>
<path class="st2" d="M98.3,201.8h-7.9v10.4h7.9V201.8z"/>
<path class="st2" d="M108.5,201.8h-7.9v10.4h7.9V201.8z"/>
<path class="st2" d="M88.1,214.5h-7.9v10.4h7.9V214.5z"/>
<path class="st2" d="M98.3,214.5h-7.9v10.4h7.9V214.5z"/>
<path class="st2" d="M108.5,214.5h-7.9v10.4h7.9V214.5z"/>
<path class="st2" d="M88.1,227.7h-7.9v10.4h7.9V227.7z"/>
<path class="st2" d="M98.3,227.7h-7.9v10.4h7.9V227.7z"/>
<path class="st2" d="M108.5,227.7h-7.9v10.4h7.9V227.7z"/>
<path class="st2" d="M88.1,241.7h-7.9v10.4h7.9V241.7z"/>
<path class="st2" d="M98.3,241.7h-7.9v10.4h7.9V241.7z"/>
<path class="st2" d="M108.5,241.7h-7.9v10.4h7.9V241.7z"/>
<path class="st2" d="M88.1,254.8h-7.9v10.4h7.9V254.8z"/>
<path class="st2" d="M98.3,254.8h-7.9v10.4h7.9V254.8z"/>
<path class="st2" d="M108.5,254.8h-7.9v10.4h7.9V254.8z"/>
<path class="st2" d="M88.1,267.4h-7.9v10.4h7.9V267.4z"/>
<path class="st2" d="M98.3,267.4h-7.9v10.4h7.9V267.4z"/>
<path class="st2" d="M108.5,267.4h-7.9v10.4h7.9V267.4z"/>
<path class="st2" d="M88.1,280.1h-7.9v10.4h7.9V280.1z"/>
<path class="st2" d="M98.3,280.1h-7.9v10.4h7.9V280.1z"/>
<path class="st2" d="M108.5,280.1h-7.9v10.4h7.9V280.1z"/>
<path class="st1" d="M205.9,186.8H167v106.5h38.9V186.8z"/>
<path class="st2" d="M180.2,191.1h-7.9v8.1h7.9V191.1z"/>
<path class="st2" d="M190.4,191.1h-7.9v8.1h7.9V191.1z"/>
<path class="st2" d="M200.6,191.1h-7.9v8.1h7.9V191.1z"/>
<path class="st2" d="M180.2,202h-7.9v8.1h7.9V202z"/>
<path class="st2" d="M190.4,202h-7.9v8.1h7.9V202z"/>
<path class="st2" d="M200.6,202h-7.9v8.1h7.9V202z"/>
<path class="st2" d="M180.2,212.2h-7.9v8.1h7.9V212.2z"/>
<path class="st2" d="M190.4,212.2h-7.9v8.1h7.9V212.2z"/>
<path class="st2" d="M200.6,212.2h-7.9v8.1h7.9V212.2z"/>
<path class="st2" d="M180.2,222.1h-7.9v8.1h7.9V222.1z"/>
<path class="st2" d="M190.4,222.1h-7.9v8.1h7.9V222.1z"/>
<path class="st2" d="M200.6,222.1h-7.9v8.1h7.9V222.1z"/>
<path class="st2" d="M180.2,231.9h-7.9v8.1h7.9V231.9z"/>
<path class="st2" d="M190.4,231.9h-7.9v8.1h7.9V231.9z"/>
<path class="st2" d="M200.6,231.9h-7.9v8.1h7.9V231.9z"/>
<path class="st2" d="M180.2,242.2h-7.9v8.1h7.9V242.2z"/>
<path class="st2" d="M190.4,242.2h-7.9v8.1h7.9V242.2z"/>
<path class="st2" d="M200.6,242.2h-7.9v8.1h7.9V242.2z"/>
<path class="st2" d="M180.2,253.1h-7.9v8.1h7.9V253.1z"/>
<path class="st2" d="M190.4,253.1h-7.9v8.1h7.9V253.1z"/>
<path class="st2" d="M200.6,253.1h-7.9v8.1h7.9V253.1z"/>
<path class="st2" d="M180.2,263.3h-7.9v8.1h7.9V263.3z"/>
<path class="st2" d="M190.4,263.3h-7.9v8.1h7.9V263.3z"/>
<path class="st2" d="M200.6,263.3h-7.9v8.1h7.9V263.3z"/>
<path class="st2" d="M180.2,273.2h-7.9v8.1h7.9V273.2z"/>
<path class="st2" d="M190.4,273.2h-7.9v8.1h7.9V273.2z"/>
<path class="st2" d="M200.6,273.2h-7.9v8.1h7.9V273.2z"/>
<path class="st2" d="M180.2,283h-7.9v8.1h7.9V283z"/>
<path class="st2" d="M190.4,283h-7.9v8.1h7.9V283z"/>
<path class="st2" d="M200.6,283h-7.9v8.1h7.9V283z"/>
<path class="st1" d="M157,207.3h-38.9v86H157V207.3z"/>
<path class="st2" d="M131.3,214.6h-7.9V227h7.9V214.6z"/>
<path class="st2" d="M141.6,214.6h-7.9V227h7.9V214.6z"/>
<path class="st2" d="M151.8,214.6h-7.9V227h7.9V214.6z"/>
<path class="st2" d="M131.3,231.4h-7.9v12.5h7.9V231.4z"/>
<path class="st2" d="M141.6,231.4h-7.9v12.5h7.9V231.4z"/>
<path class="st2" d="M151.8,231.4h-7.9v12.5h7.9V231.4z"/>
<path class="st2" d="M131.3,247.1h-7.9v12.5h7.9V247.1z"/>
<path class="st2" d="M141.6,247.1h-7.9v12.5h7.9V247.1z"/>
<path class="st2" d="M151.8,247.1h-7.9v12.5h7.9V247.1z"/>
<path class="st2" d="M131.3,262.3h-7.9v12.5h7.9V262.3z"/>
<path class="st2" d="M141.6,262.3h-7.9v12.5h7.9V262.3z"/>
<path class="st2" d="M151.8,262.3h-7.9v12.5h7.9V262.3z"/>
<path class="st2" d="M131.3,277.5h-7.9v12.5h7.9V277.5z"/>
<path class="st2" d="M141.6,277.5h-7.9v12.5h7.9V277.5z"/>
<path class="st2" d="M151.8,277.5h-7.9v12.5h7.9V277.5z"/>
<path class="st3" d="M124.6,224.6h-34v68.6h34V224.6z"/>
<path class="st1" d="M101.6,228.2h-8v10.3h8V228.2z"/>
<path class="st1" d="M111.9,228.2h-8v10.3h8V228.2z"/>
<path class="st1" d="M122.1,228.2h-8v10.3h8V228.2z"/>
<path class="st1" d="M101.6,242h-8v10.3h8V242z"/>
<path class="st1" d="M111.9,242h-8v10.3h8V242z"/>
<path class="st1" d="M122.1,242h-8v10.3h8V242z"/>
<path class="st1" d="M101.6,254.9h-8v10.3h8V254.9z"/>
<path class="st1" d="M111.9,254.9h-8v10.3h8V254.9z"/>
<path class="st1" d="M122.1,254.9h-8v10.3h8V254.9z"/>
<path class="st1" d="M101.6,267.4h-8v10.3h8V267.4z"/>
<path class="st1" d="M111.9,267.4h-8v10.3h8V267.4z"/>
<path class="st1" d="M122.1,267.4h-8v10.3h8V267.4z"/>
<path class="st1" d="M101.6,279.9h-8v10.3h8V279.9z"/>
<path class="st1" d="M111.9,279.9h-8v10.3h8V279.9z"/>
<path class="st1" d="M122.1,279.9h-8v10.3h8V279.9z"/>
<path class="st3" d="M179.7,224.9h-34v68.6h34V224.9z"/>
<path class="st1" d="M156.7,228.4h-8v10.3h8V228.4z"/>
<path class="st1" d="M167,228.4h-8v10.3h8V228.4z"/>
<path class="st1" d="M177.2,228.4h-8v10.3h8V228.4z"/>
<path class="st1" d="M156.7,242.3h-8v10.3h8V242.3z"/>
<path class="st1" d="M167,242.3h-8v10.3h8V242.3z"/>
<path class="st1" d="M177.2,242.3h-8v10.3h8V242.3z"/>
<path class="st1" d="M156.7,255.2h-8v10.3h8V255.2z"/>
<path class="st1" d="M167,255.2h-8v10.3h8V255.2z"/>
<path class="st1" d="M177.2,255.2h-8v10.3h8V255.2z"/>
<path class="st1" d="M156.7,267.7h-8v10.3h8V267.7z"/>
<path class="st1" d="M167,267.7h-8v10.3h8V267.7z"/>
<path class="st1" d="M177.2,267.7h-8v10.3h8V267.7z"/>
<path class="st1" d="M156.7,280.2h-8v10.3h8V280.2z"/>
<path class="st1" d="M167,280.2h-8v10.3h8V280.2z"/>
<path class="st1" d="M177.2,280.2h-8v10.3h8V280.2z"/>
<path class="st1" d="M239.8,204.7h-38.9v115.9h38.9V204.7z"/>
<path class="st2" d="M214.1,209.4h-7.9v8.8h7.9V209.4z"/>
<path class="st2" d="M224.3,209.4h-7.9v8.8h7.9V209.4z"/>
<path class="st2" d="M234.5,209.4h-7.9v8.8h7.9V209.4z"/>
<path class="st2" d="M214.1,221.3h-7.9v8.8h7.9V221.3z"/>
<path class="st2" d="M224.3,221.3h-7.9v8.8h7.9V221.3z"/>
<path class="st2" d="M234.5,221.3h-7.9v8.8h7.9V221.3z"/>
<path class="st2" d="M214.1,232.4h-7.9v8.8h7.9V232.4z"/>
<path class="st2" d="M224.3,232.4h-7.9v8.8h7.9V232.4z"/>
<path class="st2" d="M234.5,232.4h-7.9v8.8h7.9V232.4z"/>
<path class="st2" d="M214.1,243.1h-7.9v8.8h7.9V243.1z"/>
<path class="st2" d="M224.3,243.1h-7.9v8.8h7.9V243.1z"/>
<path class="st2" d="M234.5,243.1h-7.9v8.8h7.9V243.1z"/>
<path class="st2" d="M214.1,253.9h-7.9v8.8h7.9V253.9z"/>
<path class="st2" d="M224.3,253.9h-7.9v8.8h7.9V253.9z"/>
<path class="st2" d="M234.5,253.9h-7.9v8.8h7.9V253.9z"/>
<path class="st2" d="M214.1,265h-7.9v8.8h7.9V265z"/>
<path class="st2" d="M224.3,265h-7.9v8.8h7.9V265z"/>
<path class="st2" d="M234.5,265h-7.9v8.8h7.9V265z"/>
<path class="st2" d="M214.1,276.9h-7.9v8.8h7.9V276.9z"/>
<path class="st2" d="M224.3,276.9h-7.9v8.8h7.9V276.9z"/>
<path class="st2" d="M234.5,276.9h-7.9v8.8h7.9V276.9z"/>
<path class="st2" d="M214.1,288h-7.9v8.8h7.9V288z"/>
<path class="st2" d="M224.3,288h-7.9v8.8h7.9V288z"/>
<path class="st2" d="M234.5,288h-7.9v8.8h7.9V288z"/>
<path class="st2" d="M214.1,298.7h-7.9v8.8h7.9V298.7z"/>
<path class="st2" d="M224.3,298.7h-7.9v8.8h7.9V298.7z"/>
<path class="st2" d="M234.5,298.7h-7.9v8.8h7.9V298.7z"/>
<path class="st2" d="M214.1,309.5h-7.9v8.8h7.9V309.5z"/>
<path class="st2" d="M224.3,309.5h-7.9v8.8h7.9V309.5z"/>
<path class="st2" d="M234.5,309.5h-7.9v8.8h7.9V309.5z"/>
<path class="st1" d="M283,234.7h-38.9v86H283V234.7z"/>
<path class="st2" d="M257.3,241.9h-7.9v12.5h7.9V241.9z"/>
<path class="st2" d="M267.5,241.9h-7.9v12.5h7.9V241.9z"/>
<path class="st2" d="M277.7,241.9h-7.9v12.5h7.9V241.9z"/>
<path class="st2" d="M257.3,258.7h-7.9v12.5h7.9V258.7z"/>
<path class="st2" d="M267.5,258.7h-7.9v12.5h7.9V258.7z"/>
<path class="st2" d="M277.7,258.7h-7.9v12.5h7.9V258.7z"/>
<path class="st2" d="M257.3,274.5h-7.9v12.5h7.9V274.5z"/>
<path class="st2" d="M267.5,274.5h-7.9v12.5h7.9V274.5z"/>
<path class="st2" d="M277.7,274.5h-7.9v12.5h7.9V274.5z"/>
<path class="st2" d="M257.3,289.6h-7.9v12.5h7.9V289.6z"/>
<path class="st2" d="M267.5,289.6h-7.9v12.5h7.9V289.6z"/>
<path class="st2" d="M277.7,289.6h-7.9v12.5h7.9V289.6z"/>
<path class="st2" d="M257.3,304.8h-7.9v12.5h7.9V304.8z"/>
<path class="st2" d="M267.5,304.8h-7.9v12.5h7.9V304.8z"/>
<path class="st2" d="M277.7,304.8h-7.9v12.5h7.9V304.8z"/>
<path class="st3" d="M250.6,251.9h-34v68.6h34V251.9z"/>
<path class="st1" d="M227.6,255.5h-8v10.3h8V255.5z"/>
<path class="st1" d="M237.8,255.5h-8v10.3h8V255.5z"/>
<path class="st1" d="M248.1,255.5h-8v10.3h8V255.5z"/>
<path class="st1" d="M227.6,269.3h-8v10.3h8V269.3z"/>
<path class="st1" d="M237.8,269.3h-8v10.3h8V269.3z"/>
<path class="st1" d="M248.1,269.3h-8v10.3h8V269.3z"/>
<path class="st1" d="M227.6,282.3h-8v10.3h8V282.3z"/>
<path class="st1" d="M237.8,282.3h-8v10.3h8V282.3z"/>
<path class="st1" d="M248.1,282.3h-8v10.3h8V282.3z"/>
<path class="st1" d="M227.6,294.8h-8V305h8V294.8z"/>
<path class="st1" d="M237.8,294.8h-8V305h8V294.8z"/>
<path class="st1" d="M248.1,294.8h-8V305h8V294.8z"/>
<path class="st1" d="M227.6,307.3h-8v10.3h8V307.3z"/>
<path class="st1" d="M237.8,307.3h-8v10.3h8V307.3z"/>
<path class="st1" d="M248.1,307.3h-8v10.3h8V307.3z"/>
<path class="st1" d="M314.7,183.5h-38.9v136.8h38.9V183.5z"/>
<path class="st2" d="M289,189.1h-7.9v10.4h7.9V189.1z"/>
<path class="st2" d="M299.2,189.1h-7.9v10.4h7.9V189.1z"/>
<path class="st2" d="M309.4,189.1h-7.9v10.4h7.9V189.1z"/>
<path class="st2" d="M289,203.1h-7.9v10.4h7.9V203.1z"/>
<path class="st2" d="M299.2,203.1h-7.9v10.4h7.9V203.1z"/>
<path class="st2" d="M309.4,203.1h-7.9v10.4h7.9V203.1z"/>
<path class="st2" d="M289,216.2h-7.9v10.4h7.9V216.2z"/>
<path class="st2" d="M299.2,216.2h-7.9v10.4h7.9V216.2z"/>
<path class="st2" d="M309.4,216.2h-7.9v10.4h7.9V216.2z"/>
<path class="st2" d="M289,228.9h-7.9v10.4h7.9V228.9z"/>
<path class="st2" d="M299.2,228.9h-7.9v10.4h7.9V228.9z"/>
<path class="st2" d="M309.4,228.9h-7.9v10.4h7.9V228.9z"/>
<path class="st2" d="M289,241.6h-7.9v10.4h7.9V241.6z"/>
<path class="st2" d="M299.2,241.6h-7.9v10.4h7.9V241.6z"/>
<path class="st2" d="M309.4,241.6h-7.9v10.4h7.9V241.6z"/>
<path class="st2" d="M289,254.7h-7.9v10.4h7.9V254.7z"/>
<path class="st2" d="M299.2,254.7h-7.9v10.4h7.9V254.7z"/>
<path class="st2" d="M309.4,254.7h-7.9v10.4h7.9V254.7z"/>
<path class="st2" d="M289,268.8h-7.9v10.4h7.9V268.8z"/>
<path class="st2" d="M299.2,268.8h-7.9v10.4h7.9V268.8z"/>
<path class="st2" d="M309.4,268.8h-7.9v10.4h7.9V268.8z"/>
<path class="st2" d="M289,281.9h-7.9v10.4h7.9V281.9z"/>
<path class="st2" d="M299.2,281.9h-7.9v10.4h7.9V281.9z"/>
<path class="st2" d="M309.4,281.9h-7.9v10.4h7.9V281.9z"/>
<path class="st2" d="M289,294.5h-7.9v10.4h7.9V294.5z"/>
<path class="st2" d="M299.2,294.5h-7.9v10.4h7.9V294.5z"/>
<path class="st2" d="M309.4,294.5h-7.9v10.4h7.9V294.5z"/>
<path class="st2" d="M289,307.2h-7.9v10.4h7.9V307.2z"/>
<path class="st2" d="M299.2,307.2h-7.9v10.4h7.9V307.2z"/>
<path class="st2" d="M309.4,307.2h-7.9v10.4h7.9V307.2z"/>
<path class="st1" d="M406.8,213.8h-38.9v106.5h38.9V213.8z"/>
<path class="st2" d="M381.1,218.2h-7.9v8.1h7.9V218.2z"/>
<path class="st2" d="M391.3,218.2h-7.9v8.1h7.9V218.2z"/>
<path class="st2" d="M401.5,218.2h-7.9v8.1h7.9V218.2z"/>
<path class="st2" d="M381.1,229.1h-7.9v8.1h7.9V229.1z"/>
<path class="st2" d="M391.3,229.1h-7.9v8.1h7.9V229.1z"/>
<path class="st2" d="M401.5,229.1h-7.9v8.1h7.9V229.1z"/>
<path class="st2" d="M381.1,239.3h-7.9v8.1h7.9V239.3z"/>
<path class="st2" d="M391.3,239.3h-7.9v8.1h7.9V239.3z"/>
<path class="st2" d="M401.5,239.3h-7.9v8.1h7.9V239.3z"/>
<path class="st2" d="M381.1,249.2h-7.9v8.1h7.9V249.2z"/>
<path class="st2" d="M391.3,249.2h-7.9v8.1h7.9V249.2z"/>
<path class="st2" d="M401.5,249.2h-7.9v8.1h7.9V249.2z"/>
<path class="st2" d="M381.1,259h-7.9v8.1h7.9V259z"/>
<path class="st2" d="M391.3,259h-7.9v8.1h7.9V259z"/>
<path class="st2" d="M401.5,259h-7.9v8.1h7.9V259z"/>
<path class="st2" d="M381.1,269.3h-7.9v8.1h7.9V269.3z"/>
<path class="st2" d="M391.3,269.3h-7.9v8.1h7.9V269.3z"/>
<path class="st2" d="M401.5,269.3h-7.9v8.1h7.9V269.3z"/>
<path class="st2" d="M381.1,280.2h-7.9v8.1h7.9V280.2z"/>
<path class="st2" d="M391.3,280.2h-7.9v8.1h7.9V280.2z"/>
<path class="st2" d="M401.5,280.2h-7.9v8.1h7.9V280.2z"/>
<path class="st2" d="M381.1,290.4h-7.9v8.1h7.9V290.4z"/>
<path class="st2" d="M391.3,290.4h-7.9v8.1h7.9V290.4z"/>
<path class="st2" d="M401.5,290.4h-7.9v8.1h7.9V290.4z"/>
<path class="st2" d="M381.1,300.2h-7.9v8.1h7.9V300.2z"/>
<path class="st2" d="M391.3,300.2h-7.9v8.1h7.9V300.2z"/>
<path class="st2" d="M401.5,300.2h-7.9v8.1h7.9V300.2z"/>
<path class="st2" d="M381.1,310.1h-7.9v8.1h7.9V310.1z"/>
<path class="st2" d="M391.3,310.1h-7.9v8.1h7.9V310.1z"/>
<path class="st2" d="M401.5,310.1h-7.9v8.1h7.9V310.1z"/>
<path class="st1" d="M357.9,234.4h-38.9v86h38.9V234.4z"/>
<path class="st2" d="M332.2,241.7h-7.9v12.5h7.9V241.7z"/>
<path class="st2" d="M342.5,241.7h-7.9v12.5h7.9V241.7z"/>
<path class="st2" d="M352.7,241.7h-7.9v12.5h7.9V241.7z"/>
<path class="st2" d="M332.2,258.5h-7.9v12.5h7.9V258.5z"/>
<path class="st2" d="M342.5,258.5h-7.9v12.5h7.9V258.5z"/>
<path class="st2" d="M352.7,258.5h-7.9v12.5h7.9V258.5z"/>
<path class="st2" d="M332.2,274.2h-7.9v12.5h7.9V274.2z"/>
<path class="st2" d="M342.5,274.2h-7.9v12.5h7.9V274.2z"/>
<path class="st2" d="M352.7,274.2h-7.9v12.5h7.9V274.2z"/>
<path class="st2" d="M332.2,289.4h-7.9v12.5h7.9V289.4z"/>
<path class="st2" d="M342.5,289.4h-7.9v12.5h7.9V289.4z"/>
<path class="st2" d="M352.7,289.4h-7.9v12.5h7.9V289.4z"/>
<path class="st2" d="M332.2,304.5h-7.9V317h7.9V304.5z"/>
<path class="st2" d="M342.5,304.5h-7.9V317h7.9V304.5z"/>
<path class="st2" d="M352.7,304.5h-7.9V317h7.9V304.5z"/>
<path class="st3" d="M325.5,251.7h-34v68.6h34V251.7z"/>
<path class="st1" d="M302.5,255.2h-8v10.3h8V255.2z"/>
<path class="st1" d="M312.8,255.2h-8v10.3h8V255.2z"/>
<path class="st1" d="M323,255.2h-8v10.3h8V255.2z"/>
<path class="st1" d="M302.5,269.1h-8v10.3h8V269.1z"/>
<path class="st1" d="M312.8,269.1h-8v10.3h8V269.1z"/>
<path class="st1" d="M323,269.1h-8v10.3h8V269.1z"/>
<path class="st1" d="M302.5,282h-8v10.3h8V282z"/>
<path class="st1" d="M312.8,282h-8v10.3h8V282z"/>
<path class="st1" d="M323,282h-8v10.3h8V282z"/>
<path class="st1" d="M302.5,294.5h-8v10.3h8V294.5z"/>
<path class="st1" d="M312.8,294.5h-8v10.3h8V294.5z"/>
<path class="st1" d="M323,294.5h-8v10.3h8V294.5z"/>
<path class="st1" d="M302.5,307h-8v10.3h8V307z"/>
<path class="st1" d="M312.8,307h-8v10.3h8V307z"/>
<path class="st1" d="M323,307h-8v10.3h8V307z"/>
<path class="st3" d="M380.6,251.9h-34v68.6h34V251.9z"/>
<path class="st1" d="M357.6,255.5h-8v10.3h8V255.5z"/>
<path class="st1" d="M367.9,255.5h-8v10.3h8V255.5z"/>
<path class="st1" d="M378.1,255.5h-8v10.3h8V255.5z"/>
<path class="st1" d="M357.6,269.3h-8v10.3h8V269.3z"/>
<path class="st1" d="M367.9,269.3h-8v10.3h8V269.3z"/>
<path class="st1" d="M378.1,269.3h-8v10.3h8V269.3z"/>
<path class="st1" d="M357.6,282.3h-8v10.3h8V282.3z"/>
<path class="st1" d="M367.9,282.3h-8v10.3h8V282.3z"/>
<path class="st1" d="M378.1,282.3h-8v10.3h8V282.3z"/>
<path class="st1" d="M357.6,294.8h-8V305h8V294.8z"/>
<path class="st1" d="M367.9,294.8h-8V305h8V294.8z"/>
<path class="st1" d="M378.1,294.8h-8V305h8V294.8z"/>
<path class="st1" d="M357.6,307.3h-8v10.3h8V307.3z"/>
<path class="st1" d="M367.9,307.3h-8v10.3h8V307.3z"/>
<path class="st1" d="M378.1,307.3h-8v10.3h8V307.3z"/>
<path class="st1" d="M361,184.3h-38.9v115.9H361V184.3z"/>
<path class="st2" d="M335.3,189h-7.9v8.8h7.9V189z"/>
<path class="st2" d="M345.5,189h-7.9v8.8h7.9V189z"/>
<path class="st2" d="M355.7,189h-7.9v8.8h7.9V189z"/>
<path class="st2" d="M335.3,200.9h-7.9v8.8h7.9V200.9z"/>
<path class="st2" d="M345.5,200.9h-7.9v8.8h7.9V200.9z"/>
<path class="st2" d="M355.7,200.9h-7.9v8.8h7.9V200.9z"/>
<path class="st2" d="M335.3,212h-7.9v8.8h7.9V212z"/>
<path class="st2" d="M345.5,212h-7.9v8.8h7.9V212z"/>
<path class="st2" d="M355.7,212h-7.9v8.8h7.9V212z"/>
<path class="st2" d="M335.3,222.7h-7.9v8.8h7.9V222.7z"/>
<path class="st2" d="M345.5,222.7h-7.9v8.8h7.9V222.7z"/>
<path class="st2" d="M355.7,222.7h-7.9v8.8h7.9V222.7z"/>
<path class="st2" d="M335.3,233.4h-7.9v8.8h7.9V233.4z"/>
<path class="st2" d="M345.5,233.4h-7.9v8.8h7.9V233.4z"/>
<path class="st2" d="M355.7,233.4h-7.9v8.8h7.9V233.4z"/>
<path class="st2" d="M335.3,244.6h-7.9v8.8h7.9V244.6z"/>
<path class="st2" d="M345.5,244.6h-7.9v8.8h7.9V244.6z"/>
<path class="st2" d="M355.7,244.6h-7.9v8.8h7.9V244.6z"/>
<path class="st2" d="M335.3,256.5h-7.9v8.8h7.9V256.5z"/>
<path class="st2" d="M345.5,256.5h-7.9v8.8h7.9V256.5z"/>
<path class="st2" d="M355.7,256.5h-7.9v8.8h7.9V256.5z"/>
<path class="st2" d="M335.3,267.6h-7.9v8.8h7.9V267.6z"/>
<path class="st2" d="M345.5,267.6h-7.9v8.8h7.9V267.6z"/>
<path class="st2" d="M355.7,267.6h-7.9v8.8h7.9V267.6z"/>
<path class="st2" d="M335.3,278.3h-7.9v8.8h7.9V278.3z"/>
<path class="st2" d="M345.5,278.3h-7.9v8.8h7.9V278.3z"/>
<path class="st2" d="M355.7,278.3h-7.9v8.8h7.9V278.3z"/>
<path class="st2" d="M335.3,289h-7.9v8.8h7.9V289z"/>
<path class="st2" d="M345.5,289h-7.9v8.8h7.9V289z"/>
<path class="st2" d="M355.7,289h-7.9v8.8h7.9V289z"/>
<path class="st1" d="M404.3,214.3h-38.9v86h38.9V214.3z"/>
<path class="st2" d="M378.6,221.5h-7.9V234h7.9V221.5z"/>
<path class="st2" d="M388.8,221.5h-7.9V234h7.9V221.5z"/>
<path class="st2" d="M399,221.5h-7.9V234h7.9V221.5z"/>
<path class="st2" d="M378.6,238.3h-7.9v12.5h7.9V238.3z"/>
<path class="st2" d="M388.8,238.3h-7.9v12.5h7.9V238.3z"/>
<path class="st2" d="M399,238.3h-7.9v12.5h7.9V238.3z"/>
<path class="st2" d="M378.6,254h-7.9v12.5h7.9V254z"/>
<path class="st2" d="M388.8,254h-7.9v12.5h7.9V254z"/>
<path class="st2" d="M399,254h-7.9v12.5h7.9V254z"/>
<path class="st2" d="M378.6,269.2h-7.9v12.5h7.9V269.2z"/>
<path class="st2" d="M388.8,269.2h-7.9v12.5h7.9V269.2z"/>
<path class="st2" d="M399,269.2h-7.9v12.5h7.9V269.2z"/>
<path class="st2" d="M378.6,284.4h-7.9v12.5h7.9V284.4z"/>
<path class="st2" d="M388.8,284.4h-7.9v12.5h7.9V284.4z"/>
<path class="st2" d="M399,284.4h-7.9v12.5h7.9V284.4z"/>
<path class="st3" d="M371.8,231.5h-34v68.6h34V231.5z"/>
<path class="st1" d="M348.8,235.1h-8v10.3h8V235.1z"/>
<path class="st1" d="M359.1,235.1h-8v10.3h8V235.1z"/>
<path class="st1" d="M369.3,235.1h-8v10.3h8V235.1z"/>
<path class="st1" d="M348.8,248.9h-8v10.3h8V248.9z"/>
<path class="st1" d="M359.1,248.9h-8v10.3h8V248.9z"/>
<path class="st1" d="M369.3,248.9h-8v10.3h8V248.9z"/>
<path class="st1" d="M348.8,261.9h-8v10.3h8V261.9z"/>
<path class="st1" d="M359.1,261.9h-8v10.3h8V261.9z"/>
<path class="st1" d="M369.3,261.9h-8v10.3h8V261.9z"/>
<path class="st1" d="M348.8,274.3h-8v10.3h8V274.3z"/>
<path class="st1" d="M359.1,274.3h-8v10.3h8V274.3z"/>
<path class="st1" d="M369.3,274.3h-8v10.3h8V274.3z"/>
<path class="st1" d="M348.8,286.8h-8v10.3h8V286.8z"/>
<path class="st1" d="M359.1,286.8h-8v10.3h8V286.8z"/>
<path class="st1" d="M369.3,286.8h-8v10.3h8V286.8z"/>
<path class="st1" d="M435.9,163.1h-38.9V300h38.9V163.1z"/>
<path class="st2" d="M410.3,168.7h-7.9v10.4h7.9V168.7z"/>
<path class="st2" d="M420.5,168.7h-7.9v10.4h7.9V168.7z"/>
<path class="st2" d="M430.7,168.7h-7.9v10.4h7.9V168.7z"/>
<path class="st2" d="M410.3,182.7h-7.9v10.4h7.9V182.7z"/>
<path class="st2" d="M420.5,182.7h-7.9v10.4h7.9V182.7z"/>
<path class="st2" d="M430.7,182.7h-7.9v10.4h7.9V182.7z"/>
<path class="st2" d="M410.3,195.8h-7.9v10.4h7.9V195.8z"/>
<path class="st2" d="M420.5,195.8h-7.9v10.4h7.9V195.8z"/>
<path class="st2" d="M430.7,195.8h-7.9v10.4h7.9V195.8z"/>
<path class="st2" d="M410.3,208.5h-7.9v10.4h7.9V208.5z"/>
<path class="st2" d="M420.5,208.5h-7.9v10.4h7.9V208.5z"/>
<path class="st2" d="M430.7,208.5h-7.9v10.4h7.9V208.5z"/>
<path class="st2" d="M410.3,221.1h-7.9v10.4h7.9V221.1z"/>
<path class="st2" d="M420.5,221.1h-7.9v10.4h7.9V221.1z"/>
<path class="st2" d="M430.7,221.1h-7.9v10.4h7.9V221.1z"/>
<path class="st2" d="M410.3,234.3h-7.9v10.4h7.9V234.3z"/>
<path class="st2" d="M420.5,234.3h-7.9v10.4h7.9V234.3z"/>
<path class="st2" d="M430.7,234.3h-7.9v10.4h7.9V234.3z"/>
<path class="st2" d="M410.3,248.3h-7.9v10.4h7.9V248.3z"/>
<path class="st2" d="M420.5,248.3h-7.9v10.4h7.9V248.3z"/>
<path class="st2" d="M430.7,248.3h-7.9v10.4h7.9V248.3z"/>
<path class="st2" d="M410.3,261.4h-7.9v10.4h7.9V261.4z"/>
<path class="st2" d="M420.5,261.4h-7.9v10.4h7.9V261.4z"/>
<path class="st2" d="M430.7,261.4h-7.9v10.4h7.9V261.4z"/>
<path class="st2" d="M410.3,274.1h-7.9v10.4h7.9V274.1z"/>
<path class="st2" d="M420.5,274.1h-7.9v10.4h7.9V274.1z"/>
<path class="st2" d="M430.7,274.1h-7.9v10.4h7.9V274.1z"/>
<path class="st2" d="M410.3,286.8h-7.9v10.4h7.9V286.8z"/>
<path class="st2" d="M420.5,286.8h-7.9v10.4h7.9V286.8z"/>
<path class="st2" d="M430.7,286.8h-7.9v10.4h7.9V286.8z"/>
<path class="st1" d="M528,193.4h-38.9V300H528V193.4z"/>
<path class="st2" d="M502.3,197.8h-7.9v8.1h7.9V197.8z"/>
<path class="st2" d="M512.5,197.8h-7.9v8.1h7.9V197.8z"/>
<path class="st2" d="M522.7,197.8h-7.9v8.1h7.9V197.8z"/>
<path class="st2" d="M502.3,208.7h-7.9v8.1h7.9V208.7z"/>
<path class="st2" d="M512.5,208.7h-7.9v8.1h7.9V208.7z"/>
<path class="st2" d="M522.7,208.7h-7.9v8.1h7.9V208.7z"/>
<path class="st2" d="M502.3,218.9h-7.9v8.1h7.9V218.9z"/>
<path class="st2" d="M512.5,218.9h-7.9v8.1h7.9V218.9z"/>
<path class="st2" d="M522.7,218.9h-7.9v8.1h7.9V218.9z"/>
<path class="st2" d="M502.3,228.7h-7.9v8.1h7.9V228.7z"/>
<path class="st2" d="M512.5,228.7h-7.9v8.1h7.9V228.7z"/>
<path class="st2" d="M522.7,228.7h-7.9v8.1h7.9V228.7z"/>
<path class="st2" d="M502.3,238.6h-7.9v8.1h7.9V238.6z"/>
<path class="st2" d="M512.5,238.6h-7.9v8.1h7.9V238.6z"/>
<path class="st2" d="M522.7,238.6h-7.9v8.1h7.9V238.6z"/>
<path class="st2" d="M502.3,248.9h-7.9v8.1h7.9V248.9z"/>
<path class="st2" d="M512.5,248.9h-7.9v8.1h7.9V248.9z"/>
<path class="st2" d="M522.7,248.9h-7.9v8.1h7.9V248.9z"/>
<path class="st2" d="M502.3,259.8h-7.9v8.1h7.9V259.8z"/>
<path class="st2" d="M512.5,259.8h-7.9v8.1h7.9V259.8z"/>
<path class="st2" d="M522.7,259.8h-7.9v8.1h7.9V259.8z"/>
<path class="st2" d="M502.3,270h-7.9v8.1h7.9V270z"/>
<path class="st2" d="M512.5,270h-7.9v8.1h7.9V270z"/>
<path class="st2" d="M522.7,270h-7.9v8.1h7.9V270z"/>
<path class="st2" d="M502.3,279.8h-7.9v8.1h7.9V279.8z"/>
<path class="st2" d="M512.5,279.8h-7.9v8.1h7.9V279.8z"/>
<path class="st2" d="M522.7,279.8h-7.9v8.1h7.9V279.8z"/>
<path class="st2" d="M502.3,289.7h-7.9v8.1h7.9V289.7z"/>
<path class="st2" d="M512.5,289.7h-7.9v8.1h7.9V289.7z"/>
<path class="st2" d="M522.7,289.7h-7.9v8.1h7.9V289.7z"/>
<path class="st1" d="M479.2,214h-38.9v86h38.9V214z"/>
<path class="st2" d="M453.5,221.2h-7.9v12.5h7.9V221.2z"/>
<path class="st2" d="M463.7,221.2h-7.9v12.5h7.9V221.2z"/>
<path class="st2" d="M473.9,221.2H466v12.5h7.9V221.2z"/>
<path class="st2" d="M453.5,238h-7.9v12.5h7.9V238z"/>
<path class="st2" d="M463.7,238h-7.9v12.5h7.9V238z"/>
<path class="st2" d="M473.9,238H466v12.5h7.9V238z"/>
<path class="st2" d="M453.5,253.8h-7.9v12.5h7.9V253.8z"/>
<path class="st2" d="M463.7,253.8h-7.9v12.5h7.9V253.8z"/>
<path class="st2" d="M473.9,253.8H466v12.5h7.9V253.8z"/>
<path class="st2" d="M453.5,268.9h-7.9v12.5h7.9V268.9z"/>
<path class="st2" d="M463.7,268.9h-7.9v12.5h7.9V268.9z"/>
<path class="st2" d="M473.9,268.9H466v12.5h7.9V268.9z"/>
<path class="st2" d="M453.5,284.1h-7.9v12.5h7.9V284.1z"/>
<path class="st2" d="M463.7,284.1h-7.9v12.5h7.9V284.1z"/>
<path class="st2" d="M473.9,284.1H466v12.5h7.9V284.1z"/>
<path class="st3" d="M446.8,231.3h-34v68.6h34V231.3z"/>
<path class="st1" d="M423.8,234.8h-8v10.3h8V234.8z"/>
<path class="st1" d="M434,234.8h-8v10.3h8V234.8z"/>
<path class="st1" d="M444.3,234.8h-8v10.3h8V234.8z"/>
<path class="st1" d="M423.8,248.7h-8v10.3h8V248.7z"/>
<path class="st1" d="M434,248.7h-8v10.3h8V248.7z"/>
<path class="st1" d="M444.3,248.7h-8v10.3h8V248.7z"/>
<path class="st1" d="M423.8,261.6h-8v10.3h8V261.6z"/>
<path class="st1" d="M434,261.6h-8v10.3h8V261.6z"/>
<path class="st1" d="M444.3,261.6h-8v10.3h8V261.6z"/>
<path class="st1" d="M423.8,274.1h-8v10.3h8V274.1z"/>
<path class="st1" d="M434,274.1h-8v10.3h8V274.1z"/>
<path class="st1" d="M444.3,274.1h-8v10.3h8V274.1z"/>
<path class="st1" d="M423.8,286.6h-8v10.3h8V286.6z"/>
<path class="st1" d="M434,286.6h-8v10.3h8V286.6z"/>
<path class="st1" d="M444.3,286.6h-8v10.3h8V286.6z"/>
<path class="st3" d="M501.9,231.5h-34v68.6h34V231.5z"/>
<path class="st1" d="M478.9,235.1h-8v10.3h8V235.1z"/>
<path class="st1" d="M489.1,235.1h-8v10.3h8V235.1z"/>
<path class="st1" d="M499.4,235.1h-8v10.3h8V235.1z"/>
<path class="st1" d="M478.9,248.9h-8v10.3h8V248.9z"/>
<path class="st1" d="M489.1,248.9h-8v10.3h8V248.9z"/>
<path class="st1" d="M499.4,248.9h-8v10.3h8V248.9z"/>
<path class="st1" d="M478.9,261.9h-8v10.3h8V261.9z"/>
<path class="st1" d="M489.1,261.9h-8v10.3h8V261.9z"/>
<path class="st1" d="M499.4,261.9h-8v10.3h8V261.9z"/>
<path class="st1" d="M478.9,274.3h-8v10.3h8V274.3z"/>
<path class="st1" d="M489.1,274.3h-8v10.3h8V274.3z"/>
<path class="st1" d="M499.4,274.3h-8v10.3h8V274.3z"/>
<path class="st1" d="M478.9,286.8h-8v10.3h8V286.8z"/>
<path class="st1" d="M489.1,286.8h-8v10.3h8V286.8z"/>
<path class="st1" d="M499.4,286.8h-8v10.3h8V286.8z"/>
<g class="st4">
	<path class="st5" d="M221.9,0l-63.3,250.8l24.8-0.1L245.3,0H221.9z"/>
</g>
<g class="st4">
	<path class="st5" d="M320.9,0l-65.6,249.2l113.8-1.4L440.5,0H320.9z"/>
</g>
<g class="st4">
	<path class="st5" d="M457.1,0l-63.3,250.8l24.8-0.1L480.5,0H457.1z"/>
</g>
<path class="st6" d="M455.5,0h-5.1v264.3h5.1V0z"/>
<path class="st6" d="M323.1,0H318v264.3h5.1V0z"/>
<path class="st6" d="M200.9,0h-5.1v264.3h5.1V0z"/>
<path class="st6" d="M82.7,0h-5.4v264.3h5.4V0z"/>
<path class="st6" d="M528,216.2H0v5.3h528V216.2z"/>
<path class="st7" d="M527.9,314.5H0V396h527.9V314.5z"/>
<path class="st8" d="M527.9,314.5H0v45.6h527.9V314.5z"/>
<path class="st9" d="M527.9,281.6H0v56.5h527.9V281.6z"/>
<path class="st8" d="M527.9,284.2H0v9.7h527.9V284.2z"/>
<path class="st8" d="M527.9,319.1H0v9.7h527.9V319.1z"/>
<path class="st10" d="M527.9,276.8H0v9.7h527.9V276.8z"/>
<path class="st10" d="M527.9,325.1H0v9.7h527.9V325.1z"/>
<path class="st8" d="M46.6,307c0,1.3-0.4,2.6-1.2,3.7c-0.8,1.1-1.8,2-3.1,2.4c-1.2,0.5-2.6,0.6-3.9,0.3c-1.3-0.3-2.5-0.9-3.4-1.9
	c-0.9-1-1.6-2.2-1.8-3.5c-0.3-1.3-0.1-2.7,0.4-3.9c0.5-1.2,1.4-2.3,2.5-3c1.1-0.7,2.4-1.1,3.8-1.2c0.9,0,1.8,0.2,2.6,0.5
	c0.8,0.3,1.6,0.9,2.2,1.5c0.6,0.6,1.1,1.4,1.5,2.2C46.5,305.2,46.6,306.1,46.6,307L46.6,307z"/>
<path class="st11" d="M44.4,305.8c0,1.3-0.4,2.6-1.2,3.7c-0.8,1.1-1.8,1.9-3.1,2.4c-1.2,0.5-2.6,0.6-3.9,0.3
	c-1.3-0.3-2.5-0.9-3.4-1.9c-0.9-1-1.6-2.2-1.8-3.5c-0.3-1.3-0.1-2.7,0.4-3.9c0.5-1.2,1.4-2.3,2.5-3c1.1-0.7,2.4-1.1,3.8-1.1
	c0.9,0,1.8,0.2,2.6,0.6c0.8,0.4,1.6,0.9,2.2,1.5c0.6,0.6,1.1,1.4,1.5,2.2C44.3,304,44.4,304.9,44.4,305.8L44.4,305.8z"/>
<path class="st8" d="M88.8,307c0,1.3-0.4,2.6-1.2,3.7c-0.8,1.1-1.8,2-3.1,2.4c-1.2,0.5-2.6,0.6-3.9,0.3s-2.5-0.9-3.4-1.9
	c-0.9-1-1.6-2.2-1.8-3.5c-0.3-1.3-0.1-2.7,0.4-3.9s1.4-2.3,2.5-3c1.1-0.7,2.4-1.1,3.8-1.1c1.8,0,3.6,0.8,4.8,2.1
	C88.1,303.4,88.8,305.2,88.8,307L88.8,307z"/>
<path class="st11" d="M86.6,305.8c0,1.3-0.4,2.6-1.2,3.7c-0.8,1.1-1.8,1.9-3.1,2.4c-1.2,0.5-2.6,0.6-3.9,0.3
	c-1.3-0.3-2.5-0.9-3.4-1.9c-0.9-1-1.6-2.2-1.8-3.5c-0.3-1.3-0.1-2.7,0.4-3.9c0.5-1.2,1.4-2.3,2.5-3c1.1-0.7,2.4-1.1,3.8-1.1
	c0.9,0,1.8,0.2,2.6,0.6c0.8,0.4,1.6,0.9,2.2,1.5c0.6,0.6,1.1,1.4,1.5,2.2C86.5,304,86.7,304.9,86.6,305.8L86.6,305.8z"/>
<path class="st8" d="M132.5,307c0,1.3-0.4,2.6-1.2,3.7c-0.8,1.1-1.8,1.9-3.1,2.4c-1.2,0.5-2.6,0.6-3.9,0.3c-1.3-0.3-2.5-0.9-3.4-1.9
	c-0.9-1-1.6-2.2-1.8-3.5c-0.3-1.3-0.1-2.7,0.4-3.9c0.5-1.2,1.4-2.3,2.5-3s2.4-1.1,3.8-1.1c0.9,0,1.8,0.2,2.6,0.5
	c0.8,0.4,1.6,0.9,2.2,1.5s1.1,1.4,1.5,2.2C132.3,305.2,132.5,306.1,132.5,307L132.5,307z"/>
<path class="st11" d="M130.3,305.8c0,1.3-0.4,2.6-1.2,3.7c-0.8,1.1-1.8,1.9-3.1,2.4c-1.2,0.5-2.6,0.6-3.9,0.3
	c-1.3-0.3-2.5-0.9-3.4-1.9c-0.9-1-1.6-2.2-1.8-3.5c-0.3-1.3-0.1-2.7,0.4-3.9c0.5-1.2,1.4-2.3,2.5-3c1.1-0.7,2.4-1.1,3.8-1.1
	c0.9,0,1.8,0.2,2.6,0.6c0.8,0.4,1.6,0.9,2.2,1.5c0.6,0.6,1.1,1.4,1.5,2.2C130.2,304,130.3,304.9,130.3,305.8L130.3,305.8z"/>
<path class="st8" d="M174.7,307c0,1.3-0.4,2.6-1.2,3.7c-0.8,1.1-1.8,1.9-3.1,2.4c-1.2,0.5-2.6,0.6-3.9,0.3c-1.3-0.3-2.5-0.9-3.4-1.9
	c-0.9-1-1.6-2.2-1.8-3.5c-0.3-1.3-0.1-2.7,0.4-3.9c0.5-1.2,1.4-2.3,2.5-3s2.4-1.1,3.8-1.1c0.9,0,1.8,0.2,2.6,0.5
	c0.8,0.4,1.6,0.9,2.2,1.5s1.1,1.4,1.5,2.2C174.6,305.2,174.7,306.1,174.7,307L174.7,307z"/>
<path class="st11" d="M172.5,305.8c0,1.3-0.5,2.6-1.2,3.7c-0.8,1.1-1.8,1.9-3.1,2.4c-1.2,0.5-2.6,0.6-3.9,0.3
	c-1.3-0.3-2.5-0.9-3.4-1.9c-0.9-1-1.6-2.2-1.8-3.5c-0.3-1.3-0.1-2.7,0.4-3.9c0.5-1.2,1.4-2.3,2.5-3c1.1-0.7,2.4-1.1,3.8-1.1
	c0.9,0,1.8,0.2,2.6,0.6c0.8,0.4,1.6,0.9,2.2,1.5c0.6,0.6,1.1,1.4,1.5,2.2C172.4,304,172.6,304.9,172.5,305.8L172.5,305.8z"/>
<path class="st8" d="M218.9,306.4c0,1.3-0.4,2.6-1.2,3.7c-0.8,1.1-1.8,1.9-3.1,2.4c-1.2,0.5-2.6,0.6-3.9,0.3
	c-1.3-0.3-2.5-0.9-3.4-1.9c-0.9-1-1.6-2.2-1.8-3.5c-0.3-1.3-0.1-2.7,0.4-3.9c0.5-1.2,1.4-2.3,2.5-3c1.1-0.7,2.4-1.1,3.8-1.1
	c0.9,0,1.8,0.2,2.6,0.5c0.8,0.4,1.6,0.9,2.2,1.5c0.6,0.6,1.1,1.4,1.5,2.2C218.7,304.6,218.9,305.5,218.9,306.4L218.9,306.4z"/>
<path class="st11" d="M216.7,305.1c0,1.3-0.5,2.6-1.2,3.7c-0.8,1.1-1.8,1.9-3.1,2.4c-1.2,0.5-2.6,0.6-3.9,0.3
	c-1.3-0.3-2.5-0.9-3.4-1.9c-0.9-1-1.6-2.2-1.8-3.5c-0.2-1.3-0.1-2.7,0.4-3.9c0.5-1.2,1.4-2.3,2.5-3c1.1-0.7,2.4-1.1,3.8-1.1
	c0.9,0,1.8,0.2,2.6,0.6c0.8,0.4,1.6,0.9,2.2,1.5c0.6,0.6,1.1,1.4,1.5,2.2S216.7,304.2,216.7,305.1L216.7,305.1z"/>
<path class="st8" d="M261.1,306.4c0,1.3-0.5,2.6-1.2,3.7c-0.8,1.1-1.8,1.9-3.1,2.4c-1.2,0.5-2.6,0.6-3.9,0.3
	c-1.3-0.3-2.5-0.9-3.4-1.9c-0.9-1-1.6-2.2-1.8-3.5c-0.2-1.3-0.1-2.7,0.4-3.9c0.5-1.2,1.4-2.3,2.5-3c1.1-0.7,2.4-1.1,3.8-1.1
	c0.9,0,1.8,0.2,2.6,0.5c0.8,0.4,1.6,0.9,2.2,1.5c0.6,0.6,1.1,1.4,1.5,2.2C261,304.6,261.1,305.5,261.1,306.4L261.1,306.4z"/>
<path class="st11" d="M258.9,305.1c0,1.3-0.5,2.6-1.2,3.7c-0.8,1.1-1.8,1.9-3.1,2.4c-1.2,0.5-2.6,0.6-3.9,0.3
	c-1.3-0.3-2.5-0.9-3.4-1.9c-0.9-1-1.6-2.2-1.8-3.5c-0.3-1.3-0.1-2.7,0.4-3.9c0.5-1.2,1.4-2.3,2.5-3c1.1-0.7,2.4-1.1,3.8-1.1
	c0.9,0,1.8,0.2,2.6,0.6c0.8,0.4,1.6,0.9,2.2,1.5c0.6,0.6,1.1,1.4,1.5,2.2S258.9,304.2,258.9,305.1L258.9,305.1z"/>
<path class="st8" d="M304.8,306.4c0,1.3-0.4,2.6-1.2,3.7c-0.8,1.1-1.8,1.9-3.1,2.4c-1.2,0.5-2.6,0.6-3.9,0.3
	c-1.3-0.3-2.5-0.9-3.4-1.9c-0.9-1-1.6-2.2-1.8-3.5s-0.1-2.7,0.4-3.9c0.5-1.2,1.4-2.3,2.5-3c1.1-0.7,2.4-1.1,3.8-1.1
	c0.9,0,1.8,0.2,2.6,0.5c0.8,0.4,1.6,0.9,2.2,1.5c0.6,0.6,1.1,1.4,1.5,2.2C304.6,304.6,304.8,305.5,304.8,306.4L304.8,306.4z"/>
<path class="st11" d="M302.6,305.1c0,1.3-0.5,2.6-1.2,3.7c-0.8,1.1-1.8,1.9-3.1,2.4c-1.2,0.5-2.6,0.6-3.9,0.3
	c-1.3-0.3-2.5-0.9-3.4-1.9c-0.9-1-1.6-2.2-1.8-3.5c-0.2-1.3-0.1-2.7,0.4-3.9s1.4-2.3,2.5-3c1.1-0.7,2.4-1.1,3.8-1.1
	c0.9,0,1.8,0.2,2.6,0.6c0.8,0.4,1.6,0.9,2.2,1.5c0.6,0.6,1.1,1.4,1.5,2.2S302.6,304.2,302.6,305.1L302.6,305.1z"/>
<path class="st8" d="M347,306.4c0,1.3-0.4,2.6-1.2,3.7c-0.8,1.1-1.8,1.9-3.1,2.4c-1.2,0.5-2.6,0.6-3.9,0.3c-1.3-0.3-2.5-0.9-3.4-1.9
	c-0.9-1-1.6-2.2-1.8-3.5c-0.3-1.3-0.1-2.7,0.4-3.9c0.5-1.2,1.4-2.3,2.5-3c1.1-0.7,2.4-1.1,3.8-1.1c0.9,0,1.8,0.2,2.6,0.5
	c0.8,0.4,1.6,0.9,2.2,1.5c0.6,0.6,1.1,1.4,1.5,2.2C346.9,304.6,347,305.5,347,306.4L347,306.4z"/>
<path class="st11" d="M344.8,305.1c0,1.3-0.5,2.6-1.2,3.7c-0.8,1.1-1.8,1.9-3.1,2.4c-1.2,0.5-2.6,0.6-3.9,0.3
	c-1.3-0.3-2.5-0.9-3.4-1.9c-0.9-1-1.6-2.2-1.8-3.5c-0.3-1.3-0.1-2.7,0.4-3.9s1.4-2.3,2.5-3c1.1-0.7,2.4-1.1,3.8-1.1
	c0.9,0,1.8,0.2,2.6,0.6c0.8,0.4,1.6,0.9,2.2,1.5c0.6,0.6,1.1,1.4,1.5,2.2C344.7,303.4,344.8,304.2,344.8,305.1L344.8,305.1z"/>
<path class="st8" d="M387.8,306.4c0,1.3-0.5,2.6-1.2,3.7c-0.8,1.1-1.8,1.9-3.1,2.4c-1.2,0.5-2.6,0.6-3.9,0.3
	c-1.3-0.3-2.5-0.9-3.4-1.9c-0.9-1-1.6-2.2-1.8-3.5s-0.1-2.7,0.4-3.9c0.5-1.2,1.4-2.3,2.5-3c1.1-0.7,2.4-1.1,3.8-1.1
	c0.9,0,1.8,0.2,2.6,0.5c0.8,0.4,1.6,0.9,2.2,1.5c0.6,0.6,1.1,1.4,1.5,2.2C387.6,304.6,387.8,305.5,387.8,306.4L387.8,306.4z"/>
<path class="st11" d="M385.6,305.1c0,1.3-0.5,2.6-1.2,3.7c-0.8,1.1-1.8,1.9-3.1,2.4c-1.2,0.5-2.6,0.6-3.9,0.3
	c-1.3-0.3-2.5-0.9-3.4-1.9c-0.9-1-1.6-2.2-1.8-3.5c-0.2-1.3-0.1-2.7,0.4-3.9c0.5-1.2,1.4-2.3,2.5-3c1.1-0.7,2.4-1.1,3.8-1.1
	c0.9,0,1.8,0.2,2.6,0.6c0.8,0.4,1.6,0.9,2.2,1.5c0.6,0.6,1.1,1.4,1.5,2.2C385.4,303.4,385.6,304.2,385.6,305.1L385.6,305.1z"/>
<path class="st8" d="M430,306.4c0,1.3-0.4,2.6-1.2,3.7c-0.8,1.1-1.8,2-3.1,2.4c-1.2,0.5-2.6,0.6-3.9,0.3c-1.3-0.3-2.5-0.9-3.4-1.9
	c-0.9-1-1.6-2.2-1.8-3.5c-0.3-1.3-0.1-2.7,0.4-3.9c0.5-1.2,1.4-2.3,2.5-3c1.1-0.7,2.4-1.1,3.8-1.1c1.8,0,3.6,0.8,4.8,2.1
	C429.3,302.8,430,304.6,430,306.4z"/>
<path class="st11" d="M427.8,305.1c0,1.3-0.5,2.6-1.2,3.7c-0.8,1.1-1.8,1.9-3.1,2.4c-1.2,0.5-2.6,0.6-3.9,0.3
	c-1.3-0.3-2.5-0.9-3.4-1.9c-0.9-1-1.6-2.2-1.8-3.5c-0.3-1.3-0.1-2.7,0.4-3.9c0.5-1.2,1.4-2.3,2.5-3c1.1-0.7,2.4-1.1,3.8-1.1
	c0.9,0,1.8,0.2,2.6,0.6c0.8,0.4,1.6,0.9,2.2,1.5c0.6,0.6,1.1,1.4,1.5,2.2S427.8,304.2,427.8,305.1L427.8,305.1z"/>
<path class="st8" d="M473.7,306.4c0,1.3-0.5,2.6-1.2,3.7c-0.8,1.1-1.8,1.9-3.1,2.4c-1.2,0.5-2.6,0.6-3.9,0.3
	c-1.3-0.3-2.5-0.9-3.4-1.9c-0.9-1-1.6-2.2-1.8-3.5c-0.3-1.3-0.1-2.7,0.4-3.9c0.5-1.2,1.4-2.3,2.5-3c1.1-0.7,2.4-1.1,3.8-1.1
	c1.8,0,3.6,0.8,4.8,2.1C473,302.8,473.7,304.6,473.7,306.4z"/>
<path class="st11" d="M471.5,305.1c0,1.3-0.5,2.6-1.2,3.7c-0.8,1.1-1.8,1.9-3.1,2.4c-1.2,0.5-2.6,0.6-3.9,0.3
	c-1.3-0.3-2.5-0.9-3.4-1.9c-0.9-1-1.6-2.2-1.8-3.5c-0.3-1.3-0.1-2.7,0.4-3.9c0.5-1.2,1.4-2.3,2.5-3c1.1-0.7,2.4-1.1,3.8-1.1
	c0.9,0,1.8,0.2,2.6,0.6c0.8,0.4,1.6,0.9,2.2,1.5c0.6,0.6,1.1,1.4,1.5,2.2C471.3,303.4,471.5,304.2,471.5,305.1z"/>
<path class="st8" d="M515.9,306.4c0,1.3-0.5,2.6-1.2,3.7c-0.8,1.1-1.8,1.9-3.1,2.4c-1.2,0.5-2.6,0.6-3.9,0.3
	c-1.3-0.3-2.5-0.9-3.4-1.9c-0.9-1-1.6-2.2-1.8-3.5s-0.1-2.7,0.4-3.9c0.5-1.2,1.4-2.3,2.5-3c1.1-0.7,2.4-1.1,3.8-1.1
	c0.9,0,1.8,0.2,2.6,0.5c0.8,0.4,1.6,0.9,2.2,1.5c0.6,0.6,1.1,1.4,1.5,2.2C515.7,304.6,515.9,305.5,515.9,306.4L515.9,306.4z"/>
<path class="st11" d="M513.7,305.1c0,1.3-0.5,2.6-1.2,3.7c-0.8,1.1-1.8,1.9-3.1,2.4c-1.2,0.5-2.6,0.6-3.9,0.3
	c-1.3-0.3-2.5-0.9-3.4-1.9c-0.9-1-1.6-2.2-1.8-3.5c-0.2-1.3-0.1-2.7,0.4-3.9c0.5-1.2,1.4-2.3,2.5-3c1.1-0.7,2.4-1.1,3.8-1.1
	c0.9,0,1.8,0.2,2.6,0.6c0.8,0.4,1.6,0.9,2.2,1.5c0.6,0.6,1.1,1.4,1.5,2.2S513.7,304.2,513.7,305.1z"/>
<path class="st10" d="M375.8,0h-6.6v74.8h6.6V0z"/>
<path class="st10" d="M468.5,0h-6.6v74.8h6.6V0z"/>
<path class="st7" d="M484.2,63.8H355.4v52.9h128.8V63.8z"/>
<path class="st10" d="M484.2,63.8H355.4v17h128.8V63.8z"/>
<path class="st11" d="M472.1,88.4H365.5v6.5h106.5V88.4z"/>
<path class="st11" d="M472.1,100.2H365.5v6.5h106.5V100.2z"/>
<path class="st12" d="M208.4,77.9c0.3-3.1,2.2-9.4,6.4-10.5c4.2-1,4.5,6.2,8.1,4.9s1.9-8,6.7-6.2c4.9,1.8,3.8,7.6,10.8,7.4
	c4.2-0.2,2.7-5.5,6.2-8.6s14.5-3,17.5,7.9s6.1,160.5,2.5,168c-3.6,7.4-13.9,4.7-13.9-1.2c0-6-7.6-2.3-10.2,0.9
	c-2.6,3.2-9,7.2-11.2-0.3c-2.2-7.5-16.5,0.1-17.7-8.2C212.8,225.1,204.6,116,208.4,77.9z"/>
<path class="st8" d="M274.8,383.2c125.7,0,227.6-3.6,227.6-8c0-4.4-101.9-8-227.6-8c-125.7,0-227.6,3.6-227.6,8
	C47.2,379.6,149.1,383.2,274.8,383.2z"/>
<path class="st13" d="M211,354.3c-5,0.1-10-1.1-14.4-3.5c-9.7-5.5-14.9-17.7-4.6-32.9c14.8-21.8,12.2-35.2,7.5-42.7
	c-5.5-8.7-17.2-13.9-31.3-13.9c-6.1,0-10.2-1.8-12.3-5.3c-7.1-12.5,23.4-69.4,26.1-72.7l3.2,5.5c-7,8.7-30.9,56.7-25.7,65.6
	c1.3,2.3,4.2,3.4,8.7,3.4c15.5,0,28.5,5.9,34.8,15.7c5.3,8.3,8.2,23-7.6,46.3c-7.8,11.5-6.5,22.5,3.3,28c11.6,6.5,31.8,3,46.4-16.5
	l3.4,2C237.4,348,223.1,354.3,211,354.3z"/>
<path class="st13" d="M281.4,362.4c0,0.8-0.3,1.6-0.9,2.2c-0.6,0.6-1.4,0.9-2.2,0.9h-48.9c-0.4,0-0.8-0.1-1.2-0.2
	c-0.4-0.2-0.7-0.4-1-0.7c-0.3-0.3-0.5-0.6-0.7-1c-0.2-0.4-0.2-0.8-0.2-1.2v-69.9c0-0.8,0.3-1.6,0.9-2.2c0.6-0.6,1.4-0.9,2.2-0.9
	h48.9c0.8,0,1.6,0.3,2.2,0.9c0.6,0.6,0.9,1.4,0.9,2.2V362.4z"/>
<path class="st13" d="M238,365.5h109.8c0,0,0.7-67.1-69.5-76.2L238,365.5z"/>
<path class="st14" d="M292.7,354.8c0,5.4-1.6,10.7-4.6,15.2c-3,4.5-7.3,8-12.3,10.1c-5,2.1-10.5,2.6-15.8,1.5
	c-5.3-1.1-10.2-3.7-14-7.5c-3.8-3.8-6.4-8.7-7.5-14c-1.1-5.3-0.5-10.8,1.6-15.8c2.1-5,5.6-9.3,10.1-12.3c4.5-3,9.8-4.6,15.2-4.6
	c7.3,0,14.2,2.9,19.3,8C289.8,340.6,292.7,347.5,292.7,354.8L292.7,354.8z"/>
<path class="st15" d="M281,354.8c0,3.1-0.9,6.1-2.6,8.7c-1.7,2.6-4.2,4.6-7,5.8c-2.9,1.2-6,1.5-9,0.9c-3-0.6-5.8-2.1-8-4.3
	c-2.2-2.2-3.7-5-4.3-8c-0.6-3-0.3-6.2,0.9-9c1.2-2.9,3.2-5.3,5.8-7s5.6-2.6,8.7-2.6c2.1,0,4.1,0.4,6,1.2c1.9,0.8,3.6,1.9,5.1,3.4
	c1.5,1.5,2.6,3.2,3.4,5.1C280.6,350.7,281,352.7,281,354.8L281,354.8z"/>
<path class="st16" d="M278.2,289.3c0,0-2.1,15.6,19.5,24.1c21.6,8.4,45.8,24.2,50,52.1C347.8,365.5,349.8,299.5,278.2,289.3z"/>
<path class="st17" d="M258.1,306.4c0,1.3-0.4,2.6-1.1,3.6c-0.7,1.1-1.7,1.9-2.9,2.4c-1.2,0.5-2.5,0.6-3.8,0.4
	c-1.3-0.3-2.4-0.9-3.3-1.8c-0.9-0.9-1.5-2.1-1.8-3.3c-0.3-1.3-0.1-2.6,0.4-3.8c0.5-1.2,1.3-2.2,2.4-2.9c1.1-0.7,2.3-1.1,3.6-1.1
	c1.7,0,3.4,0.7,4.6,1.9C257.4,303.1,258.1,304.7,258.1,306.4z"/>
<path class="st16" d="M443.8,273.2c0,1-2.6,1.8-3.6,1.8h-11.7c-1,0-3.6-0.8-3.6-1.8l1.8-18c0-0.2,0-0.5,0.1-0.7
	c0.1-0.2,0.2-0.4,0.4-0.6c0.2-0.2,0.4-0.3,0.6-0.4c0.2-0.1,0.5-0.1,0.7-0.1h11.7c0.5,0,0.9,0.2,1.2,0.5c0.3,0.3,0.5,0.8,0.5,1.3
	L443.8,273.2z"/>
<path class="st14" d="M455.4,312.8c-0.1-6.6-1.6-29.9-15.6-40.7h-11c-13.9,10.8-15.4,34.1-15.6,40.7c0,0,0,0.1,0,0.1v26.5
	c0,2.8,2.8,5.1,6.2,5.1h29.9c3.4,0,6.2-2.3,6.2-5.1v-26.5C455.4,312.8,455.4,312.8,455.4,312.8z"/>
<path class="st9" d="M439.9,288.9c1.6-2.7,5.1-2.6,7.5,2.7c2.5,5.4,6.1,21.2-0.6,24.1C440.1,318.6,436.9,294.2,439.9,288.9z"/>
<path class="st13" d="M443.6,266.6H425c-0.2,0-0.4,0-0.6,0.1c-0.2,0.1-0.4,0.2-0.5,0.4c-0.2,0.2-0.3,0.3-0.4,0.5
	c-0.1,0.2-0.1,0.4-0.1,0.6v8.1h22v-8.1c0-0.2,0-0.4-0.1-0.7s-0.2-0.4-0.4-0.5c-0.2-0.2-0.3-0.3-0.6-0.4
	C444.1,266.6,443.9,266.6,443.6,266.6L443.6,266.6z"/>
<g class="st18">
	<path d="M426.5,332.5c-4.5,0-9-0.9-13.2-2.5v9.4c0,2.8,2.8,5.1,6.2,5.1h29.9c3.4,0,6.2-2.3,6.2-5.1v-21.1c-3.4,4.4-7.8,8-12.8,10.5
		C437.6,331.2,432.1,332.5,426.5,332.5L426.5,332.5z"/>
</g>
<path class="st17" d="M384.1,263.4h6.2c0.9,0,1.7,0.4,2.4,1c0.6,0.6,1,1.5,1,2.4v19c0,0.9-0.4,1.7-1,2.4c-0.6,0.6-1.5,1-2.4,1h-6.2
	c-0.9,0-1.7-0.4-2.4-1s-1-1.5-1-2.4v-19c0-0.9,0.4-1.7,1-2.4C382.4,263.8,383.2,263.4,384.1,263.4z"/>
<path class="st19" d="M397.6,299.5c0,2.6-2.5,4.7-5.6,4.7h-9.6c-3.1,0-5.6-2.1-5.6-4.7v-17.5c0-2.6,2.5-4.7,5.6-4.7h9.6
	c3.1,0,5.6,2.1,5.6,4.7V299.5z"/>
<path class="st17" d="M372.8,286.3h28.7c1.3,0,2.5,0.5,3.3,1.4c0.9,0.9,1.4,2.1,1.4,3.3v71.1c0,1.3-0.5,2.5-1.4,3.3
	c-0.9,0.9-2.1,1.4-3.3,1.4h-28.7c-1.2,0-2.4-0.5-3.3-1.4c-0.9-0.9-1.4-2.1-1.4-3.3v-71.1c0-0.6,0.1-1.2,0.4-1.8
	c0.2-0.6,0.6-1.1,1-1.5c0.4-0.4,1-0.8,1.5-1C371.5,286.5,372.1,286.3,372.8,286.3L372.8,286.3z"/>
<path class="st19" d="M399.3,353.7c0,1.2-0.5,2.4-1.4,3.3c-0.9,0.9-2.1,1.4-3.3,1.4h-15.1c-1.2,0-2.4-0.5-3.3-1.4
	c-0.9-0.9-1.4-2.1-1.4-3.3v-54c0-1.2,0.5-2.4,1.4-3.3s2.1-1.4,3.3-1.4h15.1c0.6,0,1.2,0.1,1.8,0.4c0.6,0.2,1.1,0.6,1.5,1
	c0.4,0.4,0.8,1,1,1.5c0.2,0.6,0.4,1.2,0.4,1.8V353.7z"/>
<g class="st18">
	<path d="M401.5,366.9c0.6,0,1.2-0.1,1.8-0.4c0.6-0.2,1.1-0.6,1.5-1c0.4-0.4,0.8-1,1-1.5c0.2-0.6,0.4-1.2,0.4-1.8v-71.1
		c0-0.8-0.2-1.5-0.6-2.2c-0.4-0.7-0.9-1.3-1.5-1.7c-2.9,14.4-13.8,61.6-34,78.9c0.8,0.5,1.7,0.8,2.6,0.8H401.5z"/>
</g>
<path class="st20" d="M396.2,299.6c0,0.3-0.1,0.5-0.3,0.7c-0.2,0.2-0.4,0.3-0.7,0.3h-15.3c-0.3,0-0.5-0.1-0.7-0.3
	c-0.2-0.2-0.3-0.4-0.3-0.7c0-0.3,0.1-0.5,0.3-0.7c0.2-0.2,0.4-0.3,0.7-0.3h15.3c0.3,0,0.5,0.1,0.7,0.3
	C396.1,299.1,396.2,299.4,396.2,299.6z"/>
<path class="st20" d="M396.2,352.4c0,0.3-0.1,0.5-0.3,0.7c-0.2,0.2-0.4,0.3-0.7,0.3h-15.3c-0.3,0-0.5-0.1-0.7-0.3
	c-0.2-0.2-0.3-0.4-0.3-0.7c0-0.3,0.1-0.5,0.3-0.7c0.2-0.2,0.4-0.3,0.7-0.3h15.3c0.3,0,0.5,0.1,0.7,0.3
	C396,351.9,396.2,352.1,396.2,352.4z"/>
<path class="st20" d="M396.2,303.2h-17.3v9.1h17.3V303.2z"/>
<path class="st17" d="M396.2,266.7c0,0.2,0,0.5-0.1,0.7c-0.1,0.2-0.2,0.4-0.4,0.6c-0.2,0.2-0.4,0.3-0.6,0.4
	c-0.2,0.1-0.5,0.1-0.7,0.1h-3.1c-0.5,0-1-0.2-1.3-0.6c-0.4-0.4-0.6-0.8-0.6-1.3l0,0c0-0.2,0-0.5,0.1-0.7c0.1-0.2,0.2-0.4,0.4-0.6
	s0.4-0.3,0.6-0.4c0.2-0.1,0.5-0.1,0.7-0.1h3.1c0.5,0,1,0.2,1.3,0.6C395.9,265.7,396.1,266.2,396.2,266.7L396.2,266.7z"/>
<path class="st16" d="M390.2,339.2l7.7,29h62.5l6.4-29H390.2z"/>
<path class="st13" d="M395.3,358.4c6.4,1.6,13,2.5,19.6,2.4c23,0,42.1-9.3,46.3-21.6h-71L395.3,358.4z"/>
<path class="st16" d="M471.7,339.2c0,1.6-1.6,2.9-3.5,2.9H389c-1.9,0-3.5-1.3-3.5-2.9c0-1.6,1.6-2.9,3.5-2.9h79.2
	C470.1,336.3,471.7,337.6,471.7,339.2z"/>
<path class="st11" d="M458.9,345.2c0,1-0.3,2.1-0.9,2.9c-0.6,0.9-1.4,1.5-2.4,1.9c-1,0.4-2,0.5-3.1,0.3c-1-0.2-2-0.7-2.7-1.4
	c-0.7-0.7-1.2-1.7-1.4-2.7c-0.2-1-0.1-2.1,0.3-3c0.4-1,1.1-1.8,1.9-2.4c0.9-0.6,1.9-0.9,2.9-0.9c1.4,0,2.7,0.6,3.7,1.5
	C458.4,342.4,458.9,343.8,458.9,345.2z"/>
<path class="st11" d="M475.7,358.7c0,2.7-0.8,5.3-2.2,7.6c-1.5,2.2-3.6,4-6.1,5.1s-5.2,1.3-7.9,0.8c-2.6-0.5-5.1-1.8-7-3.7
	c-1.9-1.9-3.2-4.3-3.8-7c-0.5-2.6-0.3-5.4,0.7-7.9c1-2.5,2.8-4.6,5-6.1c2.2-1.5,4.9-2.3,7.6-2.3c3.6,0,7.1,1.4,9.6,3.9
	C474.2,351.6,475.6,355.1,475.7,358.7L475.7,358.7z"/>
<path class="st11" d="M485.2,363.7c0,1.7-0.5,3.3-1.4,4.8c-0.9,1.4-2.3,2.5-3.8,3.2c-1.6,0.7-3.3,0.8-4.9,0.5
	c-1.7-0.3-3.2-1.1-4.4-2.3c-1.2-1.2-2-2.7-2.4-4.4c-0.3-1.7-0.2-3.4,0.5-4.9c0.6-1.6,1.7-2.9,3.1-3.9c1.4-0.9,3-1.5,4.7-1.5
	c1.1,0,2.2,0.2,3.3,0.6c1,0.4,2,1,2.8,1.8c0.8,0.8,1.4,1.7,1.9,2.8C485,361.5,485.2,362.6,485.2,363.7z"/>
<path class="st11" d="M491,363.7c0,1.1-0.3,2.3-1,3.2c-0.6,1-1.5,1.7-2.6,2.2c-1.1,0.4-2.2,0.6-3.3,0.4c-1.1-0.2-2.2-0.8-3-1.6
	c-0.8-0.8-1.4-1.8-1.6-3c-0.2-1.1-0.1-2.3,0.3-3.4c0.4-1.1,1.2-2,2.1-2.6c0.9-0.6,2.1-1,3.2-1c1.5,0,3,0.6,4.1,1.7
	C490.4,360.7,491,362.1,491,363.7L491,363.7z"/>
<path class="st11" d="M453.8,363.9c0,1.8-0.5,3.6-1.5,5.1c-1,1.5-2.4,2.7-4.1,3.4s-3.5,0.9-5.3,0.6c-1.8-0.3-3.4-1.2-4.8-2.5
	c-1.3-1.3-2.2-2.9-2.6-4.7c-0.4-1.8-0.2-3.7,0.5-5.3c0.7-1.7,1.9-3.1,3.4-4.2c1.5-1,3.3-1.6,5.1-1.6c1.2,0,2.4,0.2,3.5,0.7
	s2.1,1.1,3,2c0.9,0.9,1.6,1.9,2,3C453.5,361.5,453.7,362.7,453.8,363.9z"/>
<path class="st11" d="M402.8,355.2c0,1.5-0.4,2.9-1.2,4.1c-0.8,1.2-1.9,2.2-3.3,2.7c-1.3,0.6-2.8,0.7-4.3,0.4c-1.4-0.3-2.7-1-3.8-2
	c-1-1-1.7-2.3-2-3.8c-0.3-1.4-0.2-2.9,0.4-4.3c0.5-1.3,1.5-2.5,2.7-3.3c1.2-0.8,2.6-1.3,4.1-1.3c1,0,1.9,0.2,2.8,0.5
	c0.9,0.4,1.7,0.9,2.4,1.6c0.7,0.7,1.2,1.5,1.6,2.4C402.6,353.3,402.8,354.2,402.8,355.2z"/>
<path class="st11" d="M396.1,360.8c0,2-0.6,4-1.7,5.7c-1.1,1.7-2.7,3-4.6,3.8c-1.9,0.8-3.9,1-5.9,0.6c-2-0.4-3.8-1.4-5.3-2.8
	c-1.4-1.4-2.4-3.3-2.8-5.2c-0.4-2-0.2-4.1,0.6-5.9c0.8-1.9,2.1-3.5,3.8-4.6c1.7-1.1,3.7-1.8,5.7-1.8c1.4,0,2.7,0.2,3.9,0.8
	s2.4,1.3,3.4,2.2c1,1,1.7,2.1,2.2,3.3C395.8,358.1,396.1,359.4,396.1,360.8L396.1,360.8z"/>
<path class="st11" d="M372.8,366.3c0,1.2-0.3,2.4-1,3.4c-0.7,1-1.6,1.8-2.7,2.2c-1.1,0.5-2.3,0.6-3.5,0.4c-1.2-0.2-2.3-0.8-3.1-1.6
	c-0.9-0.8-1.4-1.9-1.7-3.1c-0.2-1.2-0.1-2.4,0.3-3.5c0.5-1.1,1.2-2.1,2.2-2.7c1-0.7,2.2-1,3.4-1c1.6,0,3.1,0.6,4.3,1.8
	C372.1,363.2,372.8,364.7,372.8,366.3L372.8,366.3z"/>
<path class="st21" d="M376,340.4c0,0.9-0.3,1.8-0.8,2.6c-0.5,0.8-1.2,1.4-2.1,1.7c-0.9,0.4-1.8,0.5-2.7,0.3
	c-0.9-0.2-1.8-0.6-2.4-1.3c-0.7-0.7-1.1-1.5-1.3-2.4c-0.2-0.9-0.1-1.9,0.3-2.7c0.4-0.9,0.9-1.6,1.7-2.1c0.8-0.5,1.7-0.8,2.6-0.8
	c0.6,0,1.2,0.1,1.8,0.3c0.6,0.2,1.1,0.6,1.5,1c0.4,0.4,0.8,1,1,1.5C375.9,339.2,376,339.8,376,340.4L376,340.4z"/>
<path class="st21" d="M380.8,331.6c0,0.4-0.1,0.8-0.3,1.1c-0.2,0.3-0.5,0.6-0.9,0.8c-0.4,0.2-0.8,0.2-1.2,0.1
	c-0.4-0.1-0.8-0.3-1.1-0.6c-0.3-0.3-0.5-0.6-0.6-1c-0.1-0.4,0-0.8,0.1-1.2c0.2-0.4,0.4-0.7,0.8-0.9c0.3-0.2,0.7-0.3,1.1-0.4
	c0.3,0,0.5,0,0.8,0.1c0.2,0.1,0.5,0.2,0.7,0.4c0.2,0.2,0.3,0.4,0.4,0.7C380.7,331.1,380.8,331.4,380.8,331.6L380.8,331.6z"/>
<path class="st11" d="M402.2,366.1c0,1.2-0.3,2.4-1,3.4c-0.7,1-1.6,1.8-2.7,2.2c-1.1,0.5-2.3,0.6-3.5,0.4c-1.2-0.2-2.3-0.8-3.1-1.6
	c-0.9-0.8-1.4-1.9-1.7-3.1c-0.2-1.2-0.1-2.4,0.3-3.5c0.5-1.1,1.2-2.1,2.2-2.7c1-0.7,2.2-1,3.4-1c1.6,0,3.1,0.6,4.3,1.7
	C401.5,363,402.1,364.5,402.2,366.1z"/>
<path class="st11" d="M381.6,366.3c0,1.2-0.3,2.4-1,3.4c-0.7,1-1.6,1.8-2.7,2.2c-1.1,0.5-2.3,0.6-3.5,0.4c-1.2-0.2-2.3-0.8-3.1-1.6
	c-0.9-0.8-1.4-1.9-1.7-3.1c-0.2-1.2-0.1-2.4,0.3-3.5c0.5-1.1,1.2-2.1,2.2-2.7c1-0.7,2.2-1,3.4-1c0.8,0,1.6,0.1,2.3,0.4
	c0.7,0.3,1.4,0.7,2,1.3c0.6,0.6,1,1.2,1.3,2C381.4,364.7,381.6,365.5,381.6,366.3L381.6,366.3z"/>
<path class="st22" d="M192.8,153.4c0,0,4.2-5.6,10-5.8c5.2-0.2,0.4,5-6.3,9.9L192.8,153.4z"/>
<path class="st23" d="M129.2,172.1c-4.5,1.1-5.8,5-3.1,10.8c4,8.8,12.6,6.5,28.5,3.9c18.1-2.9,43-29.7,43-29.7s0.3-4.3-3.9-4.7
	c0,0-16.9,13.2-34.8,16.3C150,170.2,138.7,169.7,129.2,172.1z"/>
<path class="st24" d="M248,134.4l-52.8-29.5l5.9-10.6l52.8,29.5L248,134.4z"/>
<path class="st13" d="M182.8,193.1c-0.4,0.6-1,1.1-1.7,1.3c-0.7,0.2-1.5,0.1-2.1-0.2l0,0c-0.6-0.4-1.1-1-1.3-1.7
	c-0.2-0.7-0.1-1.5,0.2-2.1l36.6-65.6c0.4-0.6,1-1.1,1.7-1.3c0.7-0.2,1.5-0.1,2.1,0.2l0,0c0.3,0.2,0.6,0.4,0.8,0.7
	c0.2,0.3,0.4,0.6,0.5,1c0.1,0.3,0.1,0.7,0.1,1.1c0,0.4-0.2,0.7-0.3,1L182.8,193.1z"/>
<path class="st13" d="M215.7,137.4l-7.4-4.2l7.5-13.4l7.4,4.2L215.7,137.4z"/>
<path class="st17" d="M227.2,128.7l-17.1-9.5l2.6-4.6l17,9.5L227.2,128.7z"/>
<path class="st13" d="M247.3,135.6L194.5,106l0.7-1.2l52.8,29.5L247.3,135.6z"/>
<path class="st25" d="M203.7,99.8c-0.2,0.3-0.4,0.5-0.7,0.7c-0.3,0.1-0.6,0.2-0.9,0.2s-0.6-0.2-0.9-0.4c-0.2-0.2-0.4-0.5-0.5-0.8
	c-0.1-0.3-0.1-0.6,0-1c0.1-0.3,0.3-0.6,0.5-0.8s0.6-0.3,0.9-0.3c0.3,0,0.7,0,0.9,0.2c0.4,0.2,0.7,0.6,0.8,1
	C204,99,204,99.5,203.7,99.8z"/>
<path class="st25" d="M201.3,104.2c-0.2,0.3-0.4,0.5-0.7,0.7c-0.3,0.1-0.6,0.2-0.9,0.2c-0.3,0-0.6-0.2-0.9-0.4
	c-0.2-0.2-0.4-0.5-0.5-0.8c-0.1-0.3-0.1-0.6,0-1c0.1-0.3,0.3-0.6,0.5-0.8c0.3-0.2,0.6-0.3,0.9-0.3c0.3,0,0.6,0,0.9,0.2
	c0.2,0.1,0.4,0.2,0.5,0.4c0.1,0.2,0.2,0.4,0.3,0.6c0.1,0.2,0.1,0.4,0.1,0.6C201.5,103.8,201.4,104,201.3,104.2L201.3,104.2z"/>
<path class="st25" d="M208.1,102.3c-0.2,0.4-0.6,0.6-1,0.7c-0.4,0.1-0.8,0-1.2-0.2c-0.4-0.2-0.6-0.5-0.8-0.9
	c-0.1-0.4-0.1-0.8,0.1-1.2c0.1-0.2,0.2-0.4,0.4-0.5c0.2-0.1,0.4-0.3,0.6-0.3c0.2-0.1,0.4-0.1,0.7-0.1c0.2,0,0.4,0.1,0.6,0.2
	c0.2,0.1,0.4,0.3,0.5,0.4c0.1,0.2,0.2,0.4,0.3,0.6c0.1,0.2,0.1,0.4,0,0.7C208.3,101.9,208.2,102.1,208.1,102.3L208.1,102.3z"/>
<path class="st25" d="M205.6,106.6c-0.2,0.3-0.4,0.5-0.7,0.7c-0.3,0.1-0.6,0.2-0.9,0.2c-0.3,0-0.6-0.2-0.9-0.4
	c-0.2-0.2-0.4-0.5-0.5-0.8c-0.1-0.3-0.1-0.6,0-1c0.1-0.3,0.3-0.6,0.6-0.8c0.3-0.2,0.6-0.3,0.9-0.3c0.3,0,0.7,0,0.9,0.2
	c0.4,0.2,0.7,0.6,0.8,1C205.9,105.8,205.9,106.2,205.6,106.6L205.6,106.6z"/>
<path class="st25" d="M212.4,104.7c-0.2,0.3-0.4,0.5-0.7,0.7c-0.3,0.1-0.6,0.2-0.9,0.2c-0.3,0-0.6-0.2-0.9-0.4
	c-0.2-0.2-0.4-0.5-0.5-0.8c-0.1-0.3-0.1-0.6,0-1c0.1-0.3,0.3-0.6,0.5-0.8c0.3-0.2,0.6-0.3,0.9-0.4c0.3,0,0.7,0,0.9,0.2
	c0.2,0.1,0.4,0.2,0.5,0.4c0.1,0.2,0.2,0.4,0.3,0.6c0.1,0.2,0.1,0.4,0.1,0.6C212.6,104.3,212.5,104.5,212.4,104.7L212.4,104.7z"/>
<path class="st25" d="M210,109c-0.2,0.3-0.4,0.5-0.7,0.7c-0.3,0.1-0.6,0.2-0.9,0.2c-0.3,0-0.6-0.2-0.9-0.4c-0.2-0.2-0.4-0.5-0.5-0.8
	s-0.1-0.7,0-1c0.1-0.3,0.3-0.6,0.6-0.8c0.3-0.2,0.6-0.3,0.9-0.3c0.3,0,0.7,0,0.9,0.2c0.2,0.1,0.4,0.2,0.5,0.4
	c0.1,0.2,0.2,0.4,0.3,0.6c0.1,0.2,0.1,0.4,0.1,0.6C210.1,108.6,210.1,108.8,210,109L210,109z"/>
<path class="st25" d="M216.7,107.1c-0.1,0.2-0.2,0.4-0.4,0.5c-0.2,0.1-0.4,0.2-0.6,0.3c-0.2,0.1-0.4,0.1-0.7,0.1
	c-0.2,0-0.4-0.1-0.6-0.2s-0.4-0.3-0.5-0.4c-0.1-0.2-0.2-0.4-0.3-0.6c-0.1-0.2-0.1-0.4,0-0.7c0-0.2,0.1-0.4,0.2-0.6
	c0.1-0.2,0.2-0.4,0.4-0.5c0.2-0.1,0.4-0.2,0.6-0.3c0.2-0.1,0.4-0.1,0.6-0.1c0.2,0,0.4,0.1,0.6,0.2c0.2,0.1,0.4,0.2,0.5,0.4
	c0.1,0.2,0.2,0.4,0.3,0.6c0.1,0.2,0.1,0.4,0.1,0.6C216.9,106.7,216.8,106.9,216.7,107.1L216.7,107.1z"/>
<path class="st25" d="M214.3,111.4c-0.2,0.3-0.4,0.5-0.7,0.7c-0.3,0.1-0.6,0.2-0.9,0.2s-0.6-0.2-0.9-0.4c-0.2-0.2-0.4-0.5-0.5-0.8
	c-0.1-0.3-0.1-0.6,0-1c0.1-0.3,0.3-0.6,0.5-0.8c0.3-0.2,0.6-0.3,0.9-0.4c0.3,0,0.7,0,0.9,0.2c0.2,0.1,0.4,0.2,0.5,0.4
	c0.1,0.2,0.2,0.4,0.3,0.6s0.1,0.4,0.1,0.6C214.5,111,214.4,111.2,214.3,111.4L214.3,111.4z"/>
<path class="st25" d="M221,109.5c-0.2,0.3-0.4,0.5-0.7,0.7c-0.3,0.1-0.6,0.2-0.9,0.2c-0.3,0-0.6-0.2-0.9-0.4
	c-0.2-0.2-0.4-0.5-0.5-0.8c-0.1-0.3-0.1-0.6,0-1c0.1-0.3,0.3-0.6,0.5-0.8c0.3-0.2,0.6-0.3,0.9-0.4c0.3,0,0.6,0,0.9,0.2
	c0.4,0.2,0.7,0.6,0.8,1C221.3,108.7,221.2,109.1,221,109.5L221,109.5z"/>
<path class="st25" d="M218.6,113.8c-0.2,0.3-0.4,0.5-0.7,0.7c-0.3,0.1-0.6,0.2-0.9,0.2c-0.3,0-0.6-0.2-0.9-0.4
	c-0.2-0.2-0.4-0.5-0.5-0.8c-0.1-0.3-0.1-0.6,0-1c0.1-0.3,0.3-0.6,0.5-0.8c0.3-0.2,0.6-0.3,0.9-0.3c0.3,0,0.6,0,0.9,0.2
	c0.2,0.1,0.4,0.2,0.5,0.4c0.1,0.2,0.2,0.4,0.3,0.6c0.1,0.2,0.1,0.4,0,0.6C218.8,113.4,218.7,113.6,218.6,113.8z"/>
<path class="st25" d="M225.4,111.9c-0.1,0.2-0.2,0.4-0.4,0.5c-0.2,0.1-0.4,0.2-0.6,0.3c-0.2,0.1-0.4,0.1-0.6,0.1
	c-0.2,0-0.4-0.1-0.6-0.2c-0.2-0.1-0.4-0.2-0.5-0.4c-0.1-0.2-0.2-0.4-0.3-0.6c-0.1-0.2-0.1-0.4-0.1-0.6c0-0.2,0.1-0.4,0.2-0.6
	c0.2-0.4,0.6-0.7,1-0.8c0.4-0.1,0.9-0.1,1.3,0.1c0.4,0.2,0.7,0.6,0.8,1C225.6,111.1,225.6,111.5,225.4,111.9L225.4,111.9z"/>
<path class="st25" d="M222.9,116.3c-0.2,0.3-0.4,0.5-0.7,0.7c-0.3,0.1-0.6,0.2-0.9,0.2c-0.3,0-0.6-0.2-0.9-0.4
	c-0.2-0.2-0.4-0.5-0.5-0.8c-0.1-0.3-0.1-0.6,0-1c0.1-0.3,0.3-0.6,0.5-0.8c0.3-0.2,0.6-0.3,0.9-0.4s0.6,0,0.9,0.2
	c0.2,0.1,0.4,0.2,0.5,0.4c0.1,0.2,0.2,0.4,0.3,0.6c0.1,0.2,0.1,0.4,0,0.6C223.1,115.9,223,116.1,222.9,116.3L222.9,116.3z"/>
<path class="st25" d="M229.7,114.3c-0.2,0.3-0.4,0.5-0.7,0.7c-0.3,0.1-0.6,0.2-0.9,0.2c-0.3,0-0.6-0.2-0.9-0.4
	c-0.2-0.2-0.4-0.5-0.5-0.8c-0.1-0.3-0.1-0.6,0-1c0.1-0.3,0.3-0.6,0.5-0.8c0.3-0.2,0.6-0.3,0.9-0.3c0.3,0,0.6,0,0.9,0.2
	c0.2,0.1,0.4,0.2,0.5,0.4c0.1,0.2,0.2,0.4,0.3,0.6c0.1,0.2,0.1,0.4,0,0.6C229.9,114,229.8,114.2,229.7,114.3L229.7,114.3z"/>
<path class="st25" d="M227.3,118.7c-0.2,0.3-0.4,0.5-0.7,0.7c-0.3,0.1-0.6,0.2-0.9,0.2c-0.3,0-0.6-0.2-0.9-0.4
	c-0.2-0.2-0.4-0.5-0.5-0.8c-0.1-0.3-0.1-0.6,0-1c0.1-0.3,0.3-0.6,0.5-0.8c0.3-0.2,0.6-0.3,0.9-0.4c0.3,0,0.6,0,0.9,0.2
	c0.2,0.1,0.4,0.2,0.5,0.4s0.2,0.4,0.3,0.6c0.1,0.2,0.1,0.4,0.1,0.6C227.4,118.3,227.4,118.5,227.3,118.7L227.3,118.7z"/>
<path class="st25" d="M234,116.8c-0.2,0.3-0.4,0.5-0.7,0.7c-0.3,0.2-0.6,0.2-0.9,0.2c-0.3,0-0.6-0.2-0.9-0.4
	c-0.2-0.2-0.4-0.5-0.5-0.8c-0.1-0.3-0.1-0.7,0-1c0.1-0.3,0.3-0.6,0.6-0.8c0.3-0.2,0.6-0.3,0.9-0.3c0.3,0,0.7,0,0.9,0.2
	c0.4,0.2,0.7,0.6,0.8,1C234.3,115.9,234.2,116.4,234,116.8L234,116.8z"/>
<path class="st25" d="M231.6,121.1c-0.2,0.4-0.6,0.7-1,0.8c-0.4,0.1-0.9,0.1-1.3-0.1c-0.4-0.2-0.7-0.6-0.8-1
	c-0.1-0.4-0.1-0.9,0.1-1.3c0.2-0.4,0.6-0.7,1-0.8c0.4-0.1,0.9-0.1,1.3,0.2c0.4,0.2,0.7,0.6,0.8,1
	C231.8,120.3,231.8,120.7,231.6,121.1L231.6,121.1z"/>
<path class="st25" d="M238.3,119.2c-0.2,0.3-0.4,0.5-0.7,0.7c-0.3,0.1-0.6,0.2-0.9,0.2c-0.3,0-0.6-0.2-0.9-0.4
	c-0.2-0.2-0.4-0.5-0.5-0.8c-0.1-0.3-0.1-0.6,0-1c0.1-0.3,0.3-0.6,0.5-0.8c0.3-0.2,0.6-0.3,0.9-0.4c0.3,0,0.6,0,0.9,0.2
	c0.2,0.1,0.4,0.2,0.5,0.4c0.1,0.2,0.2,0.4,0.3,0.6c0.1,0.2,0.1,0.4,0.1,0.6C238.5,118.8,238.4,119,238.3,119.2L238.3,119.2z"/>
<path class="st25" d="M235.9,123.5c-0.2,0.3-0.4,0.5-0.7,0.7c-0.3,0.1-0.6,0.2-0.9,0.2c-0.3,0-0.6-0.2-0.9-0.4
	c-0.2-0.2-0.4-0.5-0.5-0.8c-0.1-0.3-0.1-0.6,0-1c0.1-0.3,0.3-0.6,0.5-0.8c0.3-0.2,0.6-0.3,0.9-0.3c0.3,0,0.7,0,0.9,0.2
	c0.4,0.2,0.7,0.6,0.8,1C236.2,122.7,236.1,123.1,235.9,123.5L235.9,123.5z"/>
<path class="st25" d="M242.6,121.6c-0.2,0.3-0.4,0.5-0.7,0.7c-0.3,0.1-0.6,0.2-0.9,0.2c-0.3,0-0.6-0.2-0.9-0.4s-0.4-0.5-0.5-0.8
	c-0.1-0.3-0.1-0.6,0-1c0.1-0.3,0.3-0.6,0.5-0.8c0.3-0.2,0.6-0.3,0.9-0.3c0.3,0,0.7,0,0.9,0.2c0.4,0.2,0.7,0.6,0.8,1
	C242.9,120.8,242.9,121.2,242.6,121.6z"/>
<path class="st25" d="M240.2,125.9c-0.2,0.4-0.6,0.7-1,0.8c-0.4,0.1-0.9,0.1-1.3-0.2c-0.2-0.1-0.4-0.2-0.5-0.4
	c-0.1-0.2-0.2-0.4-0.3-0.6c-0.1-0.2-0.1-0.4-0.1-0.6c0-0.2,0.1-0.4,0.2-0.6c0.1-0.2,0.2-0.4,0.4-0.5c0.2-0.1,0.4-0.2,0.6-0.3
	c0.2-0.1,0.4-0.1,0.6-0.1c0.2,0,0.4,0.1,0.6,0.2c0.4,0.2,0.7,0.6,0.8,1C240.5,125.1,240.4,125.5,240.2,125.9z"/>
<path class="st25" d="M247,124c-0.2,0.4-0.6,0.6-1,0.7c-0.4,0.1-0.8,0-1.2-0.2c-0.4-0.2-0.6-0.5-0.8-0.9c-0.1-0.4-0.1-0.8,0.1-1.2
	c0.1-0.2,0.2-0.4,0.4-0.5c0.2-0.2,0.4-0.3,0.6-0.3c0.2-0.1,0.4-0.1,0.7-0.1c0.2,0,0.4,0.1,0.6,0.2c0.2,0.1,0.4,0.3,0.5,0.4
	s0.2,0.4,0.3,0.6c0.1,0.2,0.1,0.4,0,0.7C247.2,123.6,247.1,123.8,247,124L247,124z"/>
<path class="st25" d="M244.6,128.3c-0.1,0.2-0.2,0.4-0.4,0.5c-0.2,0.1-0.4,0.2-0.6,0.3c-0.2,0.1-0.4,0.1-0.6,0.1
	c-0.2,0-0.4-0.1-0.6-0.2c-0.4-0.2-0.7-0.6-0.8-1c-0.1-0.4-0.1-0.9,0.1-1.3c0.2-0.4,0.6-0.7,1-0.8c0.4-0.1,0.9-0.1,1.3,0.1
	c0.4,0.2,0.7,0.6,0.8,1C244.8,127.5,244.8,128,244.6,128.3L244.6,128.3z"/>
<path class="st25" d="M251.3,126.4c-0.2,0.3-0.4,0.5-0.7,0.7c-0.3,0.1-0.6,0.2-0.9,0.2c-0.3,0-0.6-0.2-0.9-0.4
	c-0.2-0.2-0.4-0.5-0.5-0.8c-0.1-0.3-0.1-0.6,0-1c0.1-0.3,0.3-0.6,0.5-0.8c0.3-0.2,0.6-0.3,0.9-0.3c0.3,0,0.6,0,0.9,0.2
	c0.2,0.1,0.4,0.2,0.5,0.4c0.1,0.2,0.2,0.4,0.3,0.6c0.1,0.2,0.1,0.4,0,0.6C251.5,126,251.4,126.2,251.3,126.4L251.3,126.4z"/>
<path class="st25" d="M248.9,130.8c-0.2,0.3-0.4,0.5-0.7,0.7c-0.3,0.2-0.6,0.2-0.9,0.2c-0.3,0-0.6-0.2-0.9-0.4
	c-0.2-0.2-0.4-0.5-0.5-0.8c-0.1-0.3-0.1-0.7,0-1c0.1-0.3,0.3-0.6,0.6-0.8c0.3-0.2,0.6-0.3,0.9-0.3c0.3,0,0.7,0,0.9,0.2
	c0.4,0.2,0.7,0.6,0.8,1C249.1,129.9,249.1,130.4,248.9,130.8L248.9,130.8z"/>
<path class="st26" d="M153,168.7c7.6,5.8,14,19.9,17,66c0.7,10.1-58.1,12.6-58.4,2.4c-0.5-27.1,4.1-38.2,11.8-62.6
	C125.7,167.9,138.1,157.1,153,168.7z"/>
<path class="st27" d="M89.8,366c-3.1-3.5-2.9-4-2.1-5.1c0.8-1,1.6-1.9,2.5-2.8l-6.7-4.1c-1.2,2.1-2.2,4.2-2.9,6.5
	C81.1,361.1,85.1,366.3,89.8,366z"/>
<path class="st28" d="M80.6,360.5c0,0,0-0.1-0.1-0.1c-3.8,5.7,4.9,9.1,10,9.8c5.1,0.7-0.8-4.2-0.8-4.2
	C85.1,366.3,81.1,361.1,80.6,360.5z"/>
<path class="st29" d="M81.5,352.7c-0.9,3.3,6.4,8.5,8.4,6.8c17.6-15,36.4-47.5,43.4-60.8c0.3-0.6,0.6-1.1,0.9-1.6
	c3.5-5.7,5.5-4.5,17.4-31.1c3.9-8.6,6.2-23.6,6.2-23.6l-11.8-4.9l-27.1-11.4c-9.4,9-12.6,34.9-14.6,45.4c-1.7,8.9-3.6,23.2-5.5,30.2
	C92.1,325.8,87.4,330.7,81.5,352.7z"/>
<path class="st27" d="M158.6,372.5c-4.3-1.9-4.3-2.4-4.1-3.8c0.3-1.2,0.7-2.4,1.1-3.6l-7.8-0.9c-0.2,2.4-0.2,4.8,0.1,7.1
	C148.7,371.7,154.4,374.7,158.6,372.5z"/>
<path class="st28" d="M147.9,371.3l-0.1-0.1c-1.1,6.8,8.2,6.2,13.2,4.7s-2.4-3.5-2.4-3.5C154.4,374.7,148.7,371.7,147.9,371.3z"/>
<path class="st29" d="M132.3,280.6c2.2,8.8,7,17.9,7,30.2c0,25.1,2.4,30.7,6.1,53.1c0.4,2.6,5.9,4.2,8.9,3.6
	c0.4-0.1,0.8-0.2,1.1-0.4c0.2-0.1,0.4-0.3,0.6-0.6c9.7-20.9,16.2-56.5,17.1-71.5c0.5-8.8,0.3-7.8-0.1-39.3
	c-0.1-9.4-4.2-24.1-4.2-24.1l-39.1,1.3C124.9,245.1,129.7,270.2,132.3,280.6z"/>
<path class="st30" d="M154.3,367.5c0.4-0.1,0.8-0.2,1.1-0.4c5.9-16.5,8.5-34.1,10.7-49.4c1.9-12.9,4-27.5,4-41.9
	c0-15.8-2.5-29.7-7.6-41.4c0-0.1-0.1-0.2-0.2-0.2c-0.1,0-0.2,0-0.3,0c-0.1,0-0.2,0.1-0.3,0.2c0,0.1-0.1,0.2,0,0.4
	c5,11.5,7.6,25.3,7.5,41c0,14.4-2.1,29-4,41.9C162.9,333,160.3,350.9,154.3,367.5z"/>
<path class="st29" d="M159.3,173.1c0,0-12.4,13-7,36.1c0,0,3.9,14.5,16.7,13.2l2.5,21.4c0,0-23.7,12.5-59.8-5
	c0,0-5.3-35.7,12.9-66.3c0,0,3.8-5.8,8.1-7.2c0,0-21.1,35.4-5,38.4c16.1,3.1,25.4-34.9,25.4-34.9L159.3,173.1z"/>
<path class="st27" d="M137.3,157c0,0-2.8,11.7-0.5,14.4c2.3,2.8,14.5,0,13.9-4.4c-0.5-3.6-1.3-7.2-2.3-10.7L137.3,157z"/>
<path class="st27" d="M130.4,145c0,10.3,5.7,18.6,12.8,18.6c3.2,0,10.3,0.9,12.5-1.9c2.8-3.4,2.8-12.2,1.2-17.6
	c-3.7-12.6-9-16.7-16.1-16.7C133.8,127.4,130.4,134.6,130.4,145z"/>
<path class="st31" d="M142.6,164.8c-4.5,0.2-11.9-1.3-16.1-10.5c-3.8-8.4-1.6-22.3,6.8-26.6c2.7-1.3,5.6-2.1,8.6-2.1
	c3-0.1,6,0.5,8.7,1.8c7.8,3.7,6.8,8.4,5.2,9.2c-3.3,1.6-5.8-1-5.2,3.5c0.5,3.4,0.2,11-2.9,11.5c-3.2,0.5-5.9,0.5-5.1,5.1
	C143.1,160.2,147.1,164.6,142.6,164.8z"/>
<path class="st22" d="M212,149.2c0,0-2-14.8,1.4-10.8c3.4,4,7,4.6,3.9,12.3L212,149.2z"/>
<path class="st26" d="M154.6,174c-6,8.4-2.1,15,3.1,18.5c8,5.4,22.4,12.3,39.2,5.1c16.8-7.2,21.1-47.8,21.1-47.8s-2-3.8-5.8-2
	c0,0-8.8,30.5-25,33.4C179.4,182.6,160.3,166,154.6,174z"/>
</svg>
