<?xml version="1.0" encoding="utf-8"?>
<!-- Generator: Adobe Illustrator 26.1.0, SVG Export Plug-In . SVG Version: 6.00 Build 0)  -->
<svg version="1.1" id="Capa_1" xmlns="http://www.w3.org/2000/svg" xmlns:xlink="http://www.w3.org/1999/xlink" x="0px" y="0px"
	 viewBox="0 0 703 466" style="enable-background:new 0 0 703 466;" xml:space="preserve">
<style type="text/css">
	.st0{fill:#FFFFFF;}
	.st1{fill:#91D2E8;}
	.st2{fill:#54DAC6;}
	.st3{fill:#A4EDFC;}
	.st4{fill:#00A78E;}
	.st5{opacity:0.47;}
	.st6{fill:#B3EFFF;}
	.st7{opacity:0.15;fill:#292C2D;}
	.st8{fill:#2A3967;}
	.st9{fill:#2AB39C;}
	.st10{fill:#009982;}
	.st11{fill:#FFAE73;}
	.st12{fill:#93CEE5;}
	.st13{fill:#F9924F;}
	.st14{fill:#25468F;}
	.st15{fill:#FF9A28;}
	.st16{fill:#FC7600;}
	.st17{fill:#6CA3EA;}
	.st18{fill:#FF880E;}
	.st19{fill:#1E3865;}
	.st20{fill:#214D9A;}
	.st21{fill:#005C63;}
	.st22{fill:#027787;}
	.st23{fill:#1990A6;}
	.st24{fill:#6AB5D2;}
	.st25{fill:#FFD6C0;}
	.st26{fill:#E7A374;}
	.st27{fill:#1E1F33;}
	.st28{fill:#31314B;}
	.st29{fill:#201F31;}
	.st30{fill:#FBC3A0;}
	.st31{fill:#FE471F;}
	.st32{fill:#D9250E;}
	.st33{fill:#E8E8E8;}
	.st34{fill:#FFB11C;}
	.st35{fill:#7DBA47;}
	.st36{fill:#004838;}
	.st37{fill:#46A0BA;}
	.st38{opacity:0.24;}
	.st39{fill:#EBF5FF;}
	.st40{fill:#F0C19C;}
	.st41{fill:#FDDBBA;}
	.st42{fill:#FFEBD9;}
	.st43{fill:#96C2FB;}
	.st44{fill:#B53C37;}
	.st45{fill:#DB615F;}
	.st46{fill:#E7AD85;}
	.st47{fill:#FFE2C8;}
	.st48{fill:#2BB9A1;}
	.st49{fill:#009F87;}
</style>
<path class="st0" d="M703,0H0v381.5h703V0z"/>
<path class="st1" d="M703,0H0v381.5h703V0z"/>
<path class="st2" d="M703,278.7H0v186.4h703V278.7z"/>
<path class="st3" d="M703,270.4H0v11.5h703V270.4z"/>
<g>
	<path class="st4" d="M703,0H0v465.1h703V0z"/>
</g>
<g class="st5">
	<path class="st6" d="M703,0H0v282.5h703V0z"/>
</g>
<path class="st7" d="M356.7,359.2c82.3,0,149-8.6,149-19.3c0-10.7-66.7-19.3-149-19.3s-149,8.6-149,19.3
	C207.6,350.5,274.4,359.2,356.7,359.2z"/>
<path class="st8" d="M592.2,284.3c0,0,4,3.7,3.2,6.4c-0.8,2.7-4.4,4.4-4.9,7.7s-2.5,5-4.3,5h-8.4c0,0-1.3-2.3,1.8-3
	c3.2-0.7,4.3-4.5,4.1-8c-0.1-2.8,0-5.5,0.3-8.3l6.7-1.6L592.2,284.3z"/>
<path class="st8" d="M542.8,294.5c0,0,1,7.9-0.8,8.8c-1.8,0.9-22.9,0.6-22.9,0.6s0-2.7,3.6-3.2c3.6-0.6,10-2.7,11.1-7.6
	C534.9,288.2,542.8,294.5,542.8,294.5z"/>
<path class="st9" d="M523.7,174.3c0,0,1.2,14.9,2.6,32.8c1.9,24.4,4.2,54.3,4.4,59.9c0.4,9.8,2,25.6,2,25.6s3.7,3.7,11.2,2.2
	c4.3-15.1,7.1-30.6,8.6-46.2c0-0.4,0.1-0.8,0.1-1.2c1.8-24.2,4.5-75.2,4.5-75.2L523.7,174.3z"/>
<path class="st10" d="M533.2,186.2l19.2,62.3c0-0.4,0.1-0.8,0.1-1.2c1.8-24.2,4.5-75.2,4.5-75.2L533.2,186.2z"/>
<path class="st9" d="M529.1,176c0,0,21.5,54,35.7,79.4c14.2,25.4,18.6,32.5,18.6,32.5s8.1-3.2,8.9-5.5c0,0-5.4-49-14.9-60.9
	c-5.4-6.8-11.7-27-12-34.1c-0.3-7.1-1.9-21.1-1.9-21.1L529.1,176z"/>
<path class="st11" d="M502.1,193.6c0,0-4.9,6.9-5.3,8.2c-0.4,1.3-0.4,6.6-0.1,6.8c0.3,0.2,0.7,0.1,1.1-0.6c0.4-0.8,1.1-3.4,1.3-3.1
	c0.2,0.3-1.3,8.2,0.1,8.9s5.8-2.2,7.4-5.5c1.6-3.3,0.4-11.6,0.6-12.2C508.8,191,502.1,193.6,502.1,193.6z"/>
<path class="st12" d="M503.7,197.2c-2.7-0.6-3-1-3-1s0.5-27,0.4-29.4c-0.1-2.5-10.8-36.6-10.8-36.6l18.3-18.5c0,0,6.7,48.3,6.8,54.7
	c0.1,10.6-7.8,30.6-7.8,30.6C506.3,197.4,505,197.5,503.7,197.2L503.7,197.2z"/>
<path class="st11" d="M502.3,107.1c0,0-4.9,17.1-12.7,21.1c-0.4-2.4-0.4-4.9-0.1-7.4c0.1-0.5,0-1.1-0.2-1.6
	c-0.2-0.5-0.5-0.9-0.9-1.2c-0.5-0.4-0.9-0.7-1.4-1c-1.4-1.1-2.8-2.3-4.1-3.6l1-8.3l0.7-5.6c1.2,1.3,2.6,2.5,4.1,3.6
	C492.6,106,497.4,107.4,502.3,107.1z"/>
<path class="st13" d="M488.6,103c0,0,2.8,7.3-1.5,13.9c-1.4-1.1-2.8-2.3-4.1-3.6l1-8.3C485.4,104.2,487,103.5,488.6,103L488.6,103z"
	/>
<path class="st11" d="M480.9,115c0,0,11.5-8.1,6.4-15.2c-5.1-7.1-7.1-12.9-14.7-8.1c-7.6,4.9-7,8.6-5.9,11.4
	C467.9,106,477.8,117,480.9,115z"/>
<path class="st6" d="M506.4,159.4c-0.6-0.7-1.2-1.3-1.8-2c-3.1-3.3-5.8-6.9-8.3-10.7c-1.8-2.7-3.3-5.5-4.6-8.5
	c-1.6-3.4-2.5-7.1-2.6-10.9v-5.4c7.1-5.7,6.7-15.5,6.7-15.5s28.6-1.8,52.9,31.1c0,0,1.7,2.5,3.9,6.1c0.5,0.8,1,1.7,1.6,2.6
	C557.9,152.3,514,168.1,506.4,159.4z"/>
<path class="st12" d="M522.1,133.6c5.1,1.7,17.8,3.8,21.1,13c1.1,3,8.5-3.4,9.7-2.6l-5.8-9.3L522.1,133.6z"/>
<path class="st14" d="M485.6,84.7c0-0.2,0.3-0.4,0.8-0.8c-0.4,0-0.9,0.1-1.3,0.3c-0.6-0.8-1.8-2.1-3.4-1.7c0.3,0,0.6,0.1,0.9,0.3
	c0.3,0.2,0.5,0.4,0.7,0.6c-2.6-0.9-6.8-0.3-16.3,5.7c-12.5,7.9-3.8,14.1-1.6,14.3c2.2,0.1,5-4.9,8.3-6.2c3.3-1.3,6.3,2.9,7.7,3
	c1.4,0.1,0.4-0.8,1.5-2.3c1.1-1.4,2.5,0.9,2.9,2.7c0.4,1.8,3.5,2.9,3.5,2.9l0.9-3.3c0.9-3.2-2.1-13.6-4.1-15.1L485.6,84.7z"/>
<path class="st9" d="M554.2,177c-3.3,8.7-24.1,12.1-25.7,7.6c-0.4-1-3.5,5.5-3.7,4.2c-2.7-16.6-10.8-20.7-18.4-29.4
	c-0.6-0.7-1.1-1.3-1.8-2c-3.1-3.3-5.8-6.9-8.3-10.7c-1.8-2.7-3.3-5.5-4.6-8.5l12.5-8.8c1.2-0.8,2.6-1.2,4-1c1.4,0.2,2.7,0.8,3.7,1.9
	c5.1,5.6,15.4,15.1,26,14.6c4.9-0.2,9.8-0.6,14.7-1.2c0.5,0.8,1,1.7,1.6,2.6c3.7,6.1,8.5,13.7,9.2,20.1
	C564,171.2,554.8,175.4,554.2,177z"/>
<path class="st10" d="M498,106.5c0,0-1.9,4-0.7,13c0.6,4.5,1.9,8.9,3.9,13l2.2-1.3c0,0-6.3-11.8-3.1-24.5
	C499.5,106.5,498.7,106.4,498,106.5z"/>
<path class="st15" d="M666.2,298.8c0-0.9,0.3-1.9,0.8-2.6c0.5-0.8,1.3-1.4,2.1-1.7c0.9-0.4,1.8-0.5,2.7-0.3c0.9,0.2,1.8,0.6,2.4,1.3
	c0.7,0.7,1.1,1.5,1.3,2.4c0.2,0.9,0.1,1.9-0.3,2.7c-0.4,0.9-1,1.6-1.7,2.1s-1.7,0.8-2.6,0.8c-1.3,0-2.5-0.5-3.4-1.4
	C666.7,301.3,666.2,300.1,666.2,298.8L666.2,298.8z"/>
<path class="st16" d="M668,298.8c0-0.6,0.2-1.1,0.5-1.6c0.3-0.5,0.8-0.8,1.3-1.1c0.5-0.2,1.1-0.3,1.7-0.2c0.6,0.1,1.1,0.4,1.5,0.8
	s0.7,0.9,0.8,1.5c0.1,0.6,0.1,1.1-0.2,1.7c-0.2,0.5-0.6,1-1.1,1.3c-0.5,0.3-1,0.5-1.6,0.5l0,0c-0.4,0-0.8-0.1-1.1-0.2
	c-0.4-0.1-0.7-0.4-0.9-0.6c-0.3-0.3-0.5-0.6-0.6-0.9C668.1,299.6,668,299.2,668,298.8L668,298.8z"/>
<path class="st17" d="M633,294c-0.9,0-18.6-0.2-30.8-13.3c-8.4-9-12-21.8-10.7-38c2.5-33-2.9-59.8-14.8-73.4
	c-5.4-6.1-12-9.4-19.6-9.8c-13-0.7-25.2,14.3-25.4,14.4l-4.5-3.5c0.6-0.7,14.2-17.4,30.1-16.5c9.2,0.5,17.1,4.4,23.5,11.7
	c6.6,7.5,11.3,18.2,14.1,31.9c2.7,13.3,3.4,28.6,2.1,45.6c-1.1,14.5,2,25.9,9.3,33.7c10.6,11.4,26.4,11.5,26.6,11.5L633,294L633,294
	z"/>
<path class="st15" d="M682,296.6c-0.6,0.6-1.4,1.1-2.2,1.5c-0.8,0.3-1.7,0.5-2.6,0.5h-50.3c-0.6,0-1.3-0.2-1.8-0.4s-1.1-0.7-1.5-1.2
	c-0.4-0.5-0.6-1.1-0.8-1.7c-0.1-0.6-0.1-1.3,0.1-1.9c2.1-7.3,6.5-19.9,13.2-24c1.3-0.7,2.6-1.3,4.1-1.6c11.9-2.7,34.9,4.2,42.9,20.2
	c0,0,0.2,0.3,0.5,0.9c0.6,1.3,0.7,2.7,0.5,4.1C683.7,294.3,683,295.6,682,296.6L682,296.6z"/>
<path class="st14" d="M534.4,174.5l-68,90.1l-25.8,34.2l-4.4-3.2l24.8-35l65.3-92.1L534.4,174.5z"/>
<path class="st15" d="M466.3,264.6l-25.8,34.2l-4.4-3.2l24.8-35L466.3,264.6z"/>
<path class="st16" d="M446.7,295.2h-25.3c-1.4,0-2.6,1.2-2.6,2.6v2.9c0,1.4,1.2,2.6,2.6,2.6h25.3c1.4,0,2.6-1.2,2.6-2.6v-2.9
	C449.3,296.3,448.1,295.2,446.7,295.2z"/>
<path class="st15" d="M440.4,295.2h-19.1c-1.4,0-2.6,1.2-2.6,2.6v2.9c0,1.4,1.2,2.6,2.6,2.6h19.1c1.4,0,2.6-1.2,2.6-2.6v-2.9
	C443.1,296.3,441.9,295.2,440.4,295.2z"/>
<path class="st18" d="M682,296.6c-0.6,0.6-1.4,1.1-2.2,1.5c-0.8,0.3-1.7,0.5-2.6,0.5h-50.3c-0.6,0-1.3-0.2-1.8-0.4s-1.1-0.7-1.5-1.2
	c-0.4-0.5-0.6-1.1-0.8-1.7c-0.1-0.6-0.1-1.3,0.1-1.9c2.1-7.3,6.5-19.9,13.2-24c1.3-0.7,2.6-1.3,4.1-1.6
	C644.8,276.4,657.3,294.9,682,296.6z"/>
<path class="st19" d="M630.8,292.2c0-2.2,0.7-4.4,1.9-6.3c1.2-1.9,3-3.3,5.1-4.2c2.1-0.9,4.3-1.1,6.5-0.6c2.2,0.4,4.2,1.5,5.8,3.1
	c1.6,1.6,2.7,3.6,3.1,5.8c0.4,2.2,0.2,4.5-0.6,6.6c-0.9,2.1-2.3,3.8-4.2,5.1c-1.9,1.2-4.1,1.9-6.3,1.9h0c-3,0-5.9-1.2-8-3.3
	C632,298.1,630.8,295.3,630.8,292.2L630.8,292.2z"/>
<path class="st20" d="M635.2,292.2c0-1.4,0.4-2.7,1.2-3.9c0.8-1.1,1.8-2,3.1-2.6c1.3-0.5,2.7-0.7,4-0.4c1.3,0.3,2.6,0.9,3.5,1.9
	c1,1,1.6,2.2,1.9,3.5c0.3,1.3,0.1,2.7-0.4,4c-0.5,1.3-1.4,2.3-2.6,3.1c-1.1,0.8-2.5,1.2-3.8,1.2h0c-1.8,0-3.6-0.7-4.9-2
	C635.9,295.8,635.2,294.1,635.2,292.2L635.2,292.2z"/>
<path class="st11" d="M567.6,153.3c-0.6,2.4-1.1,4.9-1.5,7.4c0.1,1,0.9,4.3,1.2,4.4c0.3,0.1,1.2,0.2,1.3-0.4c0.1-0.6-0.3-1.3,0-1.2
	c0.3,0.1,0,2.6,1.3,2.7c1.3,0.1,5-0.8,5.2-3.7c0.2-2.8-3-8.4-3.1-8.9C571.7,149.5,567.6,153.3,567.6,153.3z"/>
<path class="st6" d="M570.3,153.9c-1.6,0.3-3.3,0.3-5,0c0,0-16.5-16.7-18.8-18.1c-2.3-1.4-31.9-3-31.9-3c-2.9-3.1-5.4-6.7-7.1-10.6
	c-2.6-5.7-6.3-15.6-6.3-15.6c4,0,8,0.5,12,1.5c11.6,3.5,34.6,10.6,38.8,13.3c9.5,6,21.8,29.5,21.8,29.5c-0.3,0.7-0.8,1.4-1.4,1.8
	C571.7,153.3,571,153.7,570.3,153.9L570.3,153.9z"/>
<path class="st4" d="M503.9,133.4c0-0.3,0.1-0.6,0.4-0.9c0.2-0.2,0.5-0.4,0.9-0.4s0.6,0.1,0.9,0.4c0.2,0.2,0.4,0.5,0.4,0.9
	c0,0.3-0.1,0.6-0.4,0.9c-0.2,0.2-0.5,0.4-0.9,0.4s-0.6-0.1-0.9-0.4C504,134.1,503.9,133.8,503.9,133.4z"/>
<path class="st21" d="M444.8,320.3l1.8,8.3h-3.4l-3.5-8.3H444.8z"/>
<path class="st21" d="M254.5,320.3l-1.8,8.3h3.4l3.5-8.3H254.5z"/>
<path class="st22" d="M249.4,320.6h200.4V311H251.3L249.4,320.6z"/>
<path class="st23" d="M228.9,306.1c0.7,2.5,3.1,6.8,7.9,6.8h223.8c5.6,0,8.7-4.1,8.7-6.8H228.9z"/>
<path class="st24" d="M228.9,306.1h240.5l-9.5-12.7l-220.3-1.6L228.9,306.1z"/>
<path class="st6" d="M473.7,227.4c1.7-16.4-10-27.2-27.2-27.2H257.4c-22.4,0-30.4,13.3-31.6,27.2c-1.3,13.9-5.5,29.6,23.7,33.9
	c29.2,4.3,192.7,5.3,207.6,0C472,256,472.5,238.9,473.7,227.4z"/>
<path class="st24" d="M237.3,234.7c0.9-16.5,5.9-26,19.3-26h186.5c11.2,0,23.6,6.7,19.7,26s-3.9,21.3-16.5,24.2
	c-12.7,3-185.9,0-193.9,0c-8,0-14-2.6-15.1-7.9C236.2,245.8,237.3,234.7,237.3,234.7z"/>
<path class="st23" d="M209.8,236.3c0.8-5.1,4.4-7.3,10.9-8.4c4.5-0.8,13.7-0.8,17.4,1.7c3.6,2.5,5.3,17.9,8.1,28.9
	c-3.1,5.6-5.9,32.2-5.9,32.2l-11.5,15.4C228.9,306.1,204.8,277.8,209.8,236.3z"/>
<path class="st23" d="M488.4,236.3c-0.8-5.1-4.4-7.3-10.9-8.4c-4.5-0.8-13.7-0.8-17.4,1.7c-3.6,2.5-5.3,17.9-8.1,28.9
	c3.1,5.6,5.9,32.2,5.9,32.2l11.5,15.4C469.4,306.1,493.5,277.8,488.4,236.3z"/>
<path class="st24" d="M221.8,227.7c-0.4,0-0.7,0.1-1.1,0.2c-6.5,1.1-10.1,3.3-10.9,8.4c-5,41.5,19.1,69.8,19.1,69.8l7.9-10.6
	C228.7,286,218.5,251,221.8,227.7z"/>
<path class="st24" d="M488.4,236.3c-0.8-5-4.3-7.3-10.7-8.4c1.9,20.8-8,57.9-16.3,67.6l7.9,10.6
	C469.4,306.1,493.5,277.8,488.4,236.3z"/>
<path class="st6" d="M221.6,234.5c3.3-0.4,12.9-2.9,17.3-4.1c-0.2-0.3-0.5-0.6-0.8-0.9c-3.6-2.5-12.9-2.4-17.4-1.7
	c-5.6,0.9-9,2.7-10.4,6.4C213.9,234.8,219.3,234.8,221.6,234.5z"/>
<path class="st6" d="M487.9,234.2c-1.4-3.7-4.8-5.4-10.4-6.4c-4.5-0.8-13.7-0.8-17.4,1.7c-0.3,0.2-0.6,0.5-0.8,0.9
	c4.4,1.2,14,3.8,17.3,4.1C478.9,234.8,484.4,234.8,487.9,234.2z"/>
<path class="st22" d="M240.1,312.9l-6.9,31.3h6.2l13.2-31.3H240.1z"/>
<path class="st22" d="M459.1,312.9l6.9,31.3h-6.2l-13.2-31.3H459.1z"/>
<path class="st6" d="M238.1,263.3c-2.1,2-3.7,2.9-4.5,6.4c-0.9,3.5,0.9,13.9,2.6,18.8c1.7,4.9,5.2,5.5,10.1,5.5h212.3
	c4.9,0,6.9-6.1,7.2-11.9c0.3-5.8,0.4-12-0.2-14.7c-0.6-2.6-2.6-4.9-4.5-6.1c-1.9-1.1-20.2-7.4-31.4-7.4H257.2
	C253.3,254.1,247.7,255.2,238.1,263.3z"/>
<path class="st1" d="M233.6,269.3c0,0.1-0.1,0.2-0.1,0.4c-0.9,3.5,0.9,13.9,2.6,18.8c1.7,4.9,5.2,5.5,10.1,5.5h212.3
	c4.9,0,6.9-6.1,7.2-11.9c0.2-4.7,0.4-9.7,0.1-12.8H233.6z"/>
<path class="st24" d="M295.7,263.7c8.4,0,15.1-0.8,15.1-1.9c0-1-6.8-1.9-15.1-1.9c-8.4,0-15.1,0.8-15.1,1.9
	C280.6,262.9,287.4,263.7,295.7,263.7z"/>
<path class="st25" d="M475.1,203.7l-2.9,6.2l-5.8,12.6l-0.2,0.4c0,0-1.3,1.1-3.9,2c-2.7,0.9-13-3.5-9-5c1-0.4,2-1.2,2.9-2.3
	c2.5-2.9,4.2-7.3,4.2-7.3s-2.4-0.2-4.3-0.6c-2-0.4-3.2-3.8-3.2-5c0-1.2-0.4-3.1-1.4-3.5c-1-0.4-3.1-1.3-0.9-2.1
	c2.1-0.9,2.4-4.9,3.9-10.4c0.4-1.5,1.1-2.8,2.1-4l0,0c2-2.4,4.4-3.3,4.4-3.3c6.3-2.2,11.6,2.5,14.9,6.4S475.1,203.7,475.1,203.7z"/>
<path class="st25" d="M307.9,240.6c0,0-3.9,7.3-6.3,10.5c-1,1.4-18.8,3.2-20.2,5c-1.5,1.8-2.6,5.2,10.9,5.5s16.3,0.7,17.5,0.1
	c2.7-1.4-1-7,4.7-15.9C320.2,236.9,307.9,240.6,307.9,240.6z"/>
<path class="st26" d="M466.4,222.4l-0.2,0.4c0,0-1.3,1.1-3.9,2c-2.7,0.9-13-3.5-9-5c1-0.4,2-1.2,2.9-2.3c0,0.1,1.7,4.3,5.4,5
	C463.2,222.9,465,222.7,466.4,222.4z"/>
<path class="st27" d="M396.3,234.6c0,0-43-50.7-55.5-50c-12.4,0.6-37.5,55.5-37.5,55.5s7.7,7.7,16.2,8.2c0,0,22.3-26.2,24.3-33.3
	c0,0,14.1,22.2,20.6,24.4C371,241.4,395.5,244.4,396.3,234.6z"/>
<path class="st25" d="M307.1,297.9c0,0-6.8,18.5-11.2,21.8c-4.4,3.3-13.7,9.5-17.5,12.4s5.5,6.8,14.3,2c8.8-4.7,18.4-5.6,18.4-8.1
	c0-2.5-1.4-6.5-0.6-10.8c0.8-4.3,7.6-12.2,7.6-12.2L307.1,297.9z"/>
<path class="st28" d="M396.8,259.6c-0.3,2.7-1.3,4.6-3.4,4.9c-8.5,1.3-53.2-4.9-53.2-4.9c-4.1,11.5-21.6,45.8-21.6,45.8
	c-11.9-1.2-14.6-7-14.6-7s14.7-49,17.2-55.2c2.5-6.3,7.7-6.9,7.7-6.9c19.5-3.9,63.4,0,63.4,0S397.7,251.5,396.8,259.6z"/>
<path class="st29" d="M396.8,259.6c-0.3,2.7-1.3,4.6-3.4,4.9c-8.5,1.3-53.2-4.9-53.2-4.9l2-4.2c0,0,37.5,8.5,41.5,2.1
	c3.9-6.4,5.5-10.9,5.5-10.9S395.3,252.8,396.8,259.6z"/>
<path class="st30" d="M418.6,231.4c-0.2-0.4-2.4-5.8-2.6-9.3c-0.2-3.5-0.6-3-2.1-5c-1.5-2-2.8-7.2-2.8-8.4c0-1.3-2.6,0.4-1.7,2.7
	c0.9,2.3,2.8,7.9,2.8,7.9s-2-0.6-3,0c-1,0.6-1.9,2.3-1.9,2.3s-1.3,0.9-0.7,1.7l0.6,0.7c0,0-0.5,1.1,0.2,1.8c0.7,0.7,2,0.3,2,0.3
	s2,7.5,4.6,8C416.6,234.5,418.6,231.4,418.6,231.4z"/>
<path class="st31" d="M456.1,252.3c-2.5,2.8-5.3,5.2-8.5,7.2c-8,5-18.7,6.9-28.7,7.4c-15.2,0.7-28.8-1.8-28.8-1.8
	c-3.9-8.8-0.5-21.2,1.2-26.3c0.5-1.4,0.8-2.3,0.9-2.4v0h19.7v-2.6c2-1.3,7.5-3,7.5-3c0.5,1.2,1,2.2,1,2.2
	c7.1-1.7,31.9-14.3,33.2-15.2c1.4-0.9,1.7,0.6,1.7,0.6c4,8,10.8,4.5,10.8,4.5C468.3,221.2,468,239.1,456.1,252.3z"/>
<path class="st26" d="M407.3,221.5c0.3-0.2,0.6-0.3,0.9-0.4c0.2-0.1,0.3-0.1,0.5-0.1c0.2,0,0.3-0.1,0.5-0.1c0.2,0,0.3,0,0.5-0.1
	c0.2,0,0.3,0,0.5,0c0.3,0,0.7,0,1,0.1v0c-0.3,0-0.7,0.1-1,0.1s-0.7,0.1-1,0.1c-0.3,0.1-0.7,0.1-1,0.2
	C408,221.4,407.7,221.5,407.3,221.5L407.3,221.5z"/>
<path class="st26" d="M407.3,223.9c0.2-0.2,0.5-0.4,0.8-0.5c0.3-0.1,0.6-0.2,0.9-0.3c0.3-0.1,0.6-0.1,0.9-0.1c0.3,0,0.6,0,0.9,0.1v0
	l-0.9,0.1c-0.3,0-0.6,0.1-0.9,0.2c-0.3,0.1-0.6,0.1-0.9,0.2c-0.1,0-0.3,0.1-0.4,0.1C407.6,223.8,407.4,223.9,407.3,223.9
	L407.3,223.9z"/>
<path class="st32" d="M456.1,252.3c-2.5,2.8-5.3,5.2-8.5,7.2c-8,5-18.7,6.9-28.7,7.4c-6.9-6.4-7.5-25.5-8.6-26.8
	c-1.2-1.4-19-1.4-19-1.4l0.9-2.4v0l19.7-2.6c0,0,3.9,22.1,8.2,27.3c4.3,5.2,9,4.2,11.5,3.7c2.5-0.5,21.8-15.4,21.8-15.4
	C455.2,248.4,456.1,249.9,456.1,252.3z"/>
<path class="st32" d="M448.4,230.3c0,0-18.9,18.1-20,17.2c-1.1-0.9-8-14.6-8-14.6s6.9,13.2,9.6,11.5
	C432.8,242.8,450.2,226.8,448.4,230.3z"/>
<path class="st33" d="M411.9,233.7h-34.7v4h34.7V233.7z"/>
<path class="st26" d="M475.1,203.7l-2.9,6.2c-2.1-1.3-0.7-6.9-0.7-7.6c0-0.8-1.1-1.3-1.1-1.3l1.3-0.6c0.7-0.4,1.5-3.3,0.3-4.5
	c-1.2-1.2-8.2-0.2-10.1-1.4s1.4-8.6,0-10.1c-1.4-1.5-5.4,0.4-5.5,0.4c2-2.4,4.4-3.3,4.4-3.3c6.3-2.2,11.6,2.5,14.9,6.4
	C479,191.7,475.1,203.7,475.1,203.7z"/>
<path class="st26" d="M460.3,210.3c0,0,5.1,0,6.9-0.4c1.8-0.5-2.6,3.6-8.2,3.4L460.3,210.3z"/>
<path class="st34" d="M456.4,184.7c0,0,4.1-3.4,6.8-1.5c2.7,1.9-2.7,9.5-0.5,11.1c2.2,1.6,9.1-1.6,10.4,2c1.3,3.7-2.7,4.6-2.7,4.6
	c0,0.1,1.5-0.3,1.5,0c0.1,0.6-0.3,7.4,1.4,8.3c0,0,2.9-5.2,4.3-6.3s6.5-3.9,5.1-12.8c-1.4-8.9-11.1-13.9-19.5-12.1
	C454.8,179.9,456.3,184,456.4,184.7z"/>
<path class="st0" d="M359.3,197.3l21.4,40.4h-2.9l-20.7-39.2L359.3,197.3z"/>
<g>
	<path class="st35" d="M456.1,252.3c-2.5,2.8-5.3,5.2-8.5,7.2c-8,5-18.7,6.9-28.7,7.4c-15.2,0.7-28.8-1.8-28.8-1.8
		c-3.9-8.8-0.5-21.1,1.2-26.3c0.1-0.3,0.2-0.7,0.3-0.9h20.2v-4c2-1.3,7.5-3,7.5-3c0.5,1.2,1,2.2,1,2.2c7.1-1.7,31.9-14.3,33.2-15.2
		c1.4-0.9,1.7,0.6,1.7,0.6c4,8,10.8,4.5,10.8,4.5C468.3,221.2,468,239.1,456.1,252.3z"/>
</g>
<g class="st5">
	<path class="st36" d="M405.2,102.2H354v82.5h51.2V102.2z"/>
</g>
<path class="st24" d="M407.3,100.1h-51.2v82.5h51.2V100.1z"/>
<path class="st23" d="M402.9,104.3h-42.4v74.1h42.4V104.3z"/>
<path class="st6" d="M400.9,106h-38.5v70.7h38.5V106z"/>
<path class="st37" d="M397.6,110.7h-31.8V172h31.8V110.7z"/>
<path class="st1" d="M388.5,126.3c2.3,0,4.2-1.9,4.2-4.2c0-2.3-1.9-4.2-4.2-4.2s-4.2,1.9-4.2,4.2
	C384.3,124.4,386.2,126.3,388.5,126.3z"/>
<path class="st1" d="M382.9,164.3c4.4-3.8,10-5.7,14.6-5.2v-7.1c-6.2,5.7-17.4,4.6-21.6-6.8c-2.9-8-6.6-10.8-10.3-9.1v24.7
	C370.3,165,377.5,169,382.9,164.3z"/>
<path class="st24" d="M382.9,164.3c-5.4,4.7-12.6,0.7-17.2-3.7V172h31.8v-13C392.9,158.6,387.3,160.4,382.9,164.3z"/>
<path class="st35" d="M332.8,153.4H289v-36.1h43.8V153.4z M290.4,151.9h40.9v-33.1h-40.9L290.4,151.9z"/>
<path class="st37" d="M327.2,148.1v-25.5h-32.7v25.5H327.2z"/>
<path class="st6" d="M307.4,122.7h10.5L294.5,143v-9.1L307.4,122.7z"/>
<path class="st6" d="M294.5,148.1l27.8-25.5h4.9v0.3L294.5,148.1z"/>
<g>
	<path class="st35" d="M407.3,100.1h-51.3v82.7h51.3V100.1z"/>
</g>
<g class="st38">
	<path class="st0" d="M407.3,100.1h-51.3v82.7h51.3V100.1z"/>
</g>
<g>
	<path class="st35" d="M327.2,122.1h-32.7v25.7h32.7V122.1z"/>
</g>
<g class="st38">
	<path class="st0" d="M327.2,122.1h-32.7v25.7h32.7V122.1z"/>
</g>
<path class="st39" d="M220.6,154.7h-5.2v8.9h5.2V154.7z"/>
<path class="st39" d="M191.4,180.9h-5.2v8.9h5.2V180.9z"/>
<path class="st40" d="M236.2,156.9h-3.9v20.8h3.9V156.9z"/>
<path class="st41" d="M232.3,156.9h-15.6v20.8h15.6V156.9z"/>
<path class="st40" d="M230,161.7c-0.3,0-0.6-0.1-0.9-0.4s-0.4-0.5-0.4-0.9s0.1-0.6,0.4-0.9c0.2-0.2,0.5-0.4,0.9-0.4s0.6,0.1,0.9,0.4
	c0.2,0.2,0.4,0.5,0.4,0.9s-0.1,0.6-0.4,0.9S230.3,161.7,230,161.7z M229.1,160.4c0,0.2,0.1,0.5,0.3,0.6c0.2,0.2,0.4,0.3,0.6,0.3
	c0.1,0,0.2,0,0.3-0.1c0.1,0,0.2-0.1,0.3-0.2c0.1-0.1,0.1-0.2,0.2-0.3c0-0.1,0.1-0.2,0.1-0.3c0-0.1,0-0.2-0.1-0.3
	c0-0.1-0.1-0.2-0.2-0.3s-0.2-0.1-0.3-0.2c-0.1,0-0.2-0.1-0.3-0.1c-0.2,0-0.5,0.1-0.6,0.3C229.2,160,229.1,160.2,229.1,160.4
	L229.1,160.4z"/>
<path class="st40" d="M230,170.9c-0.3,0-0.6-0.1-0.9-0.4c-0.2-0.2-0.4-0.5-0.4-0.9v0c0-0.3,0.1-0.6,0.4-0.9c0.2-0.2,0.6-0.4,0.9-0.4
	c0.3,0,0.6,0.1,0.9,0.4c0.2,0.2,0.4,0.6,0.4,0.9c0,0.2,0,0.3-0.1,0.5c-0.1,0.2-0.2,0.3-0.3,0.4c-0.1,0.1-0.3,0.2-0.4,0.3
	C230.3,170.9,230.2,170.9,230,170.9L230,170.9z M229.1,169.7c0,0.2,0.1,0.5,0.3,0.6c0.2,0.2,0.4,0.3,0.6,0.3c0.2,0,0.5-0.1,0.6-0.3
	c0.2-0.2,0.3-0.4,0.3-0.6c0-0.2-0.1-0.5-0.3-0.6c-0.2-0.2-0.4-0.3-0.6-0.3c-0.2,0-0.5,0.1-0.6,0.3
	C229.2,169.2,229.1,169.5,229.1,169.7L229.1,169.7z"/>
<path class="st42" d="M235.4,157.7h-1.5v4h1.5V157.7z"/>
<path class="st17" d="M226.5,156.9h-3.9v20.8h3.9V156.9z"/>
<path class="st43" d="M222.6,156.9h-15.6v20.8h15.6V156.9z"/>
<path class="st17" d="M220.2,161.7c-0.3,0-0.6-0.1-0.9-0.4c-0.2-0.2-0.4-0.5-0.4-0.9s0.1-0.6,0.4-0.9c0.2-0.2,0.5-0.4,0.9-0.4
	s0.6,0.1,0.9,0.4c0.2,0.2,0.4,0.5,0.4,0.9s-0.1,0.6-0.4,0.9C220.9,161.5,220.6,161.7,220.2,161.7L220.2,161.7z M219.3,160.4
	c0,0.2,0.1,0.5,0.3,0.6c0.2,0.2,0.4,0.3,0.6,0.3c0.1,0,0.2,0,0.3-0.1s0.2-0.1,0.3-0.2c0.1-0.1,0.1-0.2,0.2-0.3
	c0-0.1,0.1-0.2,0.1-0.3c0-0.1,0-0.2-0.1-0.3c0-0.1-0.1-0.2-0.2-0.3c-0.1-0.1-0.2-0.1-0.3-0.2c-0.1,0-0.2-0.1-0.3-0.1
	c-0.2,0-0.5,0.1-0.6,0.3C219.4,160,219.3,160.2,219.3,160.4L219.3,160.4z"/>
<path class="st17" d="M220.2,170.9c-0.3,0-0.6-0.1-0.9-0.4c-0.2-0.2-0.4-0.5-0.4-0.9v0c0-0.3,0.1-0.6,0.4-0.9
	c0.2-0.2,0.6-0.4,0.9-0.4c0.3,0,0.6,0.1,0.9,0.4c0.2,0.2,0.4,0.6,0.4,0.9c0,0.2,0,0.3-0.1,0.5c-0.1,0.2-0.2,0.3-0.3,0.4
	c-0.1,0.1-0.3,0.2-0.4,0.3C220.6,170.9,220.4,170.9,220.2,170.9z M219.3,169.7c0,0.2,0.1,0.5,0.3,0.6c0.2,0.2,0.4,0.3,0.6,0.3
	c0.2,0,0.5-0.1,0.6-0.3c0.2-0.2,0.3-0.4,0.3-0.6c0-0.2-0.1-0.5-0.3-0.6c-0.2-0.2-0.4-0.3-0.6-0.3c-0.2,0-0.5,0.1-0.6,0.3
	C219.4,169.2,219.3,169.5,219.3,169.7L219.3,169.7z"/>
<path class="st42" d="M225.6,166.5h-1.5v4h1.5V166.5z"/>
<path class="st40" d="M216.7,156.9h-3.9v20.8h3.9V156.9z"/>
<path class="st41" d="M212.8,156.9h-15.6v20.8h15.6V156.9z"/>
<path class="st40" d="M210.5,161.7c-0.2,0-0.3,0-0.5-0.1s-0.3-0.2-0.4-0.3c-0.1-0.1-0.2-0.2-0.3-0.4c-0.1-0.1-0.1-0.3-0.1-0.5
	s0-0.3,0.1-0.5c0.1-0.1,0.2-0.3,0.3-0.4c0.1-0.1,0.2-0.2,0.4-0.3c0.1-0.1,0.3-0.1,0.5-0.1c0.3,0,0.6,0.1,0.9,0.4
	c0.2,0.2,0.4,0.5,0.4,0.9s-0.1,0.6-0.4,0.9S210.8,161.7,210.5,161.7L210.5,161.7z M209.6,160.4c0,0.2,0.1,0.5,0.3,0.6
	c0.2,0.2,0.4,0.3,0.6,0.3c0.1,0,0.2,0,0.3-0.1c0.1,0,0.2-0.1,0.3-0.2c0.1-0.1,0.1-0.2,0.2-0.3c0-0.1,0.1-0.2,0.1-0.3
	c0-0.1,0-0.2-0.1-0.3c0-0.1-0.1-0.2-0.2-0.3c-0.1-0.1-0.2-0.1-0.3-0.2c-0.1,0-0.2-0.1-0.3-0.1c-0.2,0-0.5,0.1-0.6,0.3
	C209.7,160,209.6,160.2,209.6,160.4L209.6,160.4z"/>
<path class="st40" d="M210.5,170.9c-0.2,0-0.3,0-0.5-0.1s-0.3-0.2-0.4-0.3s-0.2-0.2-0.3-0.4c-0.1-0.1-0.1-0.3-0.1-0.5v0
	c0-0.3,0.1-0.6,0.4-0.9c0.2-0.2,0.6-0.4,0.9-0.4c0.3,0,0.6,0.1,0.9,0.4c0.2,0.2,0.4,0.6,0.4,0.9c0,0.3-0.1,0.6-0.4,0.9
	C211.1,170.8,210.8,170.9,210.5,170.9L210.5,170.9z M209.6,169.7c0,0.2,0.1,0.5,0.3,0.6c0.2,0.2,0.4,0.3,0.6,0.3
	c0.1,0,0.2,0,0.3-0.1c0.1,0,0.2-0.1,0.3-0.2c0.1-0.1,0.1-0.2,0.2-0.3c0-0.1,0.1-0.2,0.1-0.3c0-0.2-0.1-0.5-0.3-0.6
	c-0.2-0.2-0.4-0.3-0.6-0.3c-0.2,0-0.5,0.1-0.6,0.3C209.7,169.2,209.6,169.5,209.6,169.7L209.6,169.7z"/>
<path class="st42" d="M215.8,157.7h-1.5v4h1.5V157.7z"/>
<path class="st44" d="M201.8,158.5l4.5,0.9l-3.8,22.9h-4.5L201.8,158.5z"/>
<path class="st45" d="M184,158.5h17.9l-3.8,23.8h-17.9L184,158.5z"/>
<path class="st44" d="M198,164c-0.3-0.1-0.6-0.2-0.7-0.5c-0.2-0.3-0.2-0.6-0.2-0.9c0.1-0.4,0.3-0.7,0.6-1c0.3-0.2,0.7-0.4,1.1-0.4
	c0.1,0,0.1,0,0.2,0c0.3,0,0.6,0.2,0.8,0.5c0.2,0.3,0.3,0.6,0.2,0.9c-0.1,0.4-0.3,0.7-0.6,1c-0.3,0.3-0.7,0.4-1.1,0.4
	C198.2,164,198.1,164,198,164L198,164z M198.7,161.6c-0.3,0-0.5,0.1-0.8,0.3c-0.2,0.2-0.4,0.4-0.4,0.7c0,0.1,0,0.2,0,0.2
	c0,0.2,0.1,0.4,0.3,0.6c0.2,0.1,0.4,0.2,0.6,0.2c0.3,0,0.6-0.1,0.8-0.3c0.2-0.2,0.4-0.4,0.4-0.7c0-0.1,0-0.1,0-0.2
	c0-0.2-0.1-0.4-0.3-0.6C199.1,161.6,198.9,161.6,198.7,161.6L198.7,161.6z"/>
<path class="st44" d="M196.4,174.6c-0.3-0.1-0.6-0.2-0.7-0.5c-0.2-0.3-0.2-0.6-0.2-0.9c0.1-0.4,0.3-0.7,0.6-1
	c0.3-0.2,0.7-0.4,1.1-0.4c0.1,0,0.1,0,0.2,0c0.2,0,0.3,0.1,0.4,0.2c0.1,0.1,0.2,0.2,0.3,0.3c0.1,0.1,0.2,0.3,0.2,0.4
	c0,0.1,0,0.3,0,0.5c-0.1,0.4-0.3,0.7-0.6,1c-0.3,0.3-0.7,0.4-1.1,0.4C196.6,174.6,196.5,174.6,196.4,174.6L196.4,174.6z
	 M195.9,173.2c0,0.1,0,0.1,0,0.2c0,0.2,0.1,0.4,0.3,0.6c0.2,0.2,0.4,0.2,0.6,0.2c0.3,0,0.6-0.1,0.8-0.3c0.2-0.2,0.4-0.4,0.4-0.7
	c0-0.1,0-0.1,0-0.2c0-0.2-0.1-0.4-0.3-0.6c-0.2-0.2-0.4-0.2-0.6-0.2c-0.3,0-0.5,0.1-0.8,0.3C196.1,172.7,195.9,172.9,195.9,173.2
	L195.9,173.2z"/>
<path class="st40" d="M216,171.9H169v32H216V171.9z"/>
<path class="st41" d="M239.6,171.9h-47.1v32h47.1V171.9z"/>
<path class="st46" d="M169,190.5h7.5l-0.6,1.5l0.6,2.1H169V190.5z"/>
<path class="st47" d="M239.6,198.1h-7.5l0.6-1.5l-0.6-2.1h7.5V198.1z"/>
<path class="st47" d="M192.5,171.9h47.1l3.2,8.9h-47.1L192.5,171.9z"/>
<path class="st46" d="M169,171.9h23.5l-1.6,8.9h-23.5L169,171.9z"/>
<path class="st11" d="M214.4,202.5l0.2,4.2l2.5,0.5c1.9,1.3,5,0.9,7.7-0.6c2.7-1.6,2.1-0.9,4.1-2c0.1,0,0.2-0.1,0.3-0.2
	c0.1-0.1,0.2-0.2,0.3-0.4c0.1-0.1,0.1-0.3,0.1-0.5c0-0.2,0-0.3,0-0.5c0-0.2-0.1-0.3-0.2-0.4c-0.2-0.3-0.4-0.6-0.7-0.8
	c-0.3-0.2-0.6-0.4-1-0.4c-3.6-0.8-5.2-0.5-6.8,0c0.3-0.3,0.4-0.8,0.4-1.2c-0.1-0.4-2.7,1.2-3.9,2
	C215.9,202.5,214.4,202.5,214.4,202.5z"/>
<path class="st11" d="M152.6,145c-0.1-0.4,11.9,2.1,12.3,2.2c0,0,0.2,1.8,0.8,5.1c0.1,0.3,0.2,0.7,0.2,1c0.2,2.4,0.1,4.8-0.4,7.1
	c-7,4.4-14.2-1.6-14.2-1.6S154.5,153.8,152.6,145z"/>
<path class="st13" d="M165,147.2c0,0,0.2,1.8,0.8,5.1c-4.4-0.3-8.6-2.2-11.6-5.4C153.7,146.4,164.6,147.2,165,147.2z"/>
<path class="st11" d="M164.6,129.4c-1.7-2.3-4.4-4.5-11.9-0.8c-7.5,3.7-3.8,8.1-0.7,15.6c3.2,7.5,15.2,2.2,15.2,2.2
	C170.3,144.9,166.3,131.6,164.6,129.4z"/>
<path class="st44" d="M153.4,142.9c-0.6-0.8-2.8-5-0.1-4.5c2.7,0.4,2.7-0.4,2.7-1.5c0-1,0.1-4.3,1.9-5.3c1.9-1,8.3,1.7,12.6-1.8
	c0,0-4.5-2.1-6.4-5c-1.9-2.9-3.8-5.7-9.1-3.7s-11.5,5.7-12.8,9.1c-0.5,1.4-0.7,2.8-0.5,4.2c0.2,1.4,0.7,2.8,1.5,4
	c7,9.2,9.6,7.9,9.7,7.8C154.1,145.1,153.4,142.9,153.4,142.9z"/>
<path class="st28" d="M132.8,344.2c-2.9-0.6-4-4.1-3.8-7.4c0.1-1.4,0-2.9,0-4.3c-0.1-1.9-0.3-3.3-0.3-3.3l-6.2-1.4l-0.6,0.8
	l-0.6,0.8c0,0-3.7,3.4-3,5.9c0.7,2.4,4.1,4.1,4.5,7c0.4,3,2.3,4.6,3.9,4.6h7.7C134.5,347,135.7,344.9,132.8,344.2z"/>
<path class="st28" d="M185,344.4c-3.2-0.5-8.8-2.4-10.1-6.5c-0.1-0.1-0.1-0.3-0.1-0.4c-1-4.4-8.2,1.4-8.2,1.4v0.5
	c-0.2,1.6-0.6,6.9,0.8,7.6c0.1,0.1,0.3,0.1,0.4,0.1h20.5c-0.2-0.7-0.6-1.4-1.2-1.8C186.5,344.7,185.8,344.4,185,344.4L185,344.4z"/>
<path class="st48" d="M153.6,226.6c0,0,2.5,46.8,4.2,69l0.1,1.1c1.3,14.3,3.9,28.5,7.9,42.4c6.9,1.4,10.3-2,10.3-2
	s1.4-14.4,1.8-23.4c0.2-5.2,2.3-32.6,4.1-55c1.3-16.4,2.4-30.1,2.4-30.1L153.6,226.6z"/>
<path class="st4" d="M153.6,226.7c0,0,2.5,46.8,4.1,69l0.1,1.1c0,0,16.2-32.7,19.1-44.5c3.9-16,3.2-24.5,3.2-24.5L153.6,226.7z"/>
<path class="st48" d="M147.7,221.3c0,0-1.5,12.8-1.8,19.3c-0.3,6.5-6,25.1-11,31.3c-8.7,11-13.7,55.9-13.7,55.9c0.7,2,8.1,5,8.1,5
	s4.1-6.5,17-29.7c13-23.3,33.7-75.4,33.7-75.4L147.7,221.3z"/>
<path class="st6" d="M176.7,170.1c-1.7-3.8-4.2-7.3-7.2-10.1l-3.3-3c-2.6,0.7-4.9,1.6-7.8,0.4c-3.2-1.3-5-2.7-5.6-2.3
	c-3.9,3.4-7.7,10.6-8.5,19.6c-0.4,5.2-0.4,10.5,0,15.7c0.2,2.1,0.4,4.3,0.7,6.5c1.5,11.7,2.8,21.3,2.8,27.2c0,1.7,30.5,2.9,33.4,2.7
	C181.5,226.7,176.7,170.1,176.7,170.1z"/>
<path class="st48" d="M184.3,228.5l-37-2.7l-1-15.3c2.3,0,4.6-0.7,6.5-2c1.9-1.3,3.4-3.2,4.2-5.4l11.5-31.1l8.3-1.9L184.3,228.5z"/>
<path class="st6" d="M215.5,207.9c0,0-23.9,1.5-32.7-1.5c-3.9-1.3-20.4-12.2-28.7-17.7c-1.8-1.2-3.2-2.9-4-4.9c-0.8-2-1-4.2-0.6-6.3
	c0.3-2.1,1.2-4,2.6-5.5c1.4-1.6,3.2-2.7,5.2-3.2c5.7-1.5,12.3,6.5,12.3,6.5s17.3,19.4,19.3,20.2c2.1,0.8,26.6,6.2,26.6,6.2
	s1.2,0.4,1,2.9C216.5,205.7,216.1,206.9,215.5,207.9L215.5,207.9z"/>
<path class="st49" d="M168.5,171.9l3.5-0.5c0,0-7.2-7.5-9.7-9.8c-2.2-1.9-8.6-6.7-9.5-6.6l-1.2,1.1c0,0,6.2,5,8.1,6.8
	C162,165.1,168.5,171.9,168.5,171.9z"/>
</svg>
