<svg width="37" height="30" viewBox="0 0 37 30" fill="none" xmlns="http://www.w3.org/2000/svg">
<path d="M31.4944 15.7491L27.6608 6.22021C26.9308 4.38184 25.6648 2.80561 24.0275 1.69633C22.3901 0.587054 20.457 -0.00398514 18.4794 2.02237e-05H18.4603C16.4832 -0.00343527 14.5507 0.58786 12.9139 1.6971C11.277 2.80635 10.0115 4.38228 9.2816 6.22021L5.44802 15.7491C4.84466 17.2537 4.61926 18.8833 4.79152 20.4953C4.96378 22.1073 5.52846 23.6524 6.43613 24.9955C7.34381 26.3386 8.5668 27.4386 9.99803 28.1993C11.4293 28.96 13.0251 29.3582 14.6459 29.359H17.9318V23.5003C17.1902 23.3791 16.5257 22.972 16.0807 22.3664L15.0457 20.9284C14.7677 20.5534 14.6008 20.1077 14.564 19.6422C14.5272 19.1768 14.622 18.7104 14.8376 18.2963C15.0865 17.8278 15.4603 17.4375 15.9176 17.1687C16.3748 16.8998 16.8976 16.763 17.4279 16.7734H19.509C20.0404 16.763 20.5641 16.9004 21.022 17.1703C21.4798 17.4401 21.8538 17.8318 22.1022 18.3018C22.3173 18.7176 22.4108 19.1856 22.3721 19.6521C22.3333 20.1187 22.1638 20.5648 21.8831 20.9394L20.8398 22.3801C20.4003 22.9681 19.7529 23.3659 19.0298 23.4921V29.359H22.2884C23.9093 29.3589 25.5056 28.9611 26.9372 28.2006C28.3688 27.4401 29.5921 26.34 30.4999 24.9967C31.4077 23.6534 31.9723 22.108 32.1443 20.4957C32.3162 18.8835 32.0903 17.2537 31.4862 15.7491H31.4944ZM14.843 13.7825C14.5683 13.783 14.2996 13.702 14.071 13.5498C13.8423 13.3975 13.6639 13.1808 13.5584 12.9271C13.453 12.6735 13.4251 12.3942 13.4783 12.1246C13.5316 11.8551 13.6636 11.6074 13.8576 11.4129C14.0517 11.2184 14.2991 11.0859 14.5684 11.0321C14.8378 10.9783 15.1171 11.0056 15.3709 11.1106C15.6248 11.2156 15.8418 11.3936 15.9944 11.6221C16.1471 11.8505 16.2286 12.1191 16.2286 12.3938C16.2286 12.7617 16.0827 13.1144 15.8229 13.3748C15.5632 13.6351 15.2107 13.7818 14.843 13.7825ZM22.1186 13.7825C21.844 13.7825 21.5756 13.701 21.3473 13.5485C21.119 13.3959 20.941 13.179 20.836 12.9253C20.7309 12.6715 20.7034 12.3923 20.757 12.1229C20.8105 11.8535 20.9428 11.6061 21.1369 11.4119C21.3311 11.2177 21.5785 11.0854 21.8478 11.0319C22.1171 10.9783 22.3962 11.0058 22.6499 11.1109C22.9036 11.216 23.1204 11.394 23.2729 11.6223C23.4255 11.8507 23.5069 12.1192 23.5069 12.3938C23.5073 12.5763 23.4716 12.757 23.402 12.9257C23.3323 13.0943 23.2301 13.2475 23.1011 13.3766C22.9721 13.5056 22.8189 13.6079 22.6503 13.6775C22.4817 13.7472 22.301 13.7828 22.1186 13.7825Z" fill="white"/>
<path d="M35.9508 9.17165L30.5016 2.53859C29.9839 1.91044 29.2965 1.43865 28.5183 1.17744C27.7401 0.916236 26.9027 0.876207 26.1024 1.06196L25.5708 1.18741C27.1317 2.3646 28.3411 3.93373 29.0715 5.72967L32.7929 14.822C32.9631 15.2389 33.1069 15.6657 33.2235 16.1C33.9822 15.9888 34.6976 15.6825 35.2972 15.2121C35.8968 14.7417 36.3593 14.1239 36.638 13.4212C36.9167 12.7186 37.0017 11.956 36.8843 11.2106C36.7668 10.4653 36.4512 9.76372 35.9694 9.17688L35.9508 9.17165Z" fill="white"/>
<path d="M4.14357 14.8223L7.86583 5.73145C8.59539 3.93594 9.80415 2.36702 11.3648 1.18997L10.833 1.06454C10.0306 0.876182 9.19025 0.914868 8.40924 1.17613C7.62822 1.43739 6.9384 1.91055 6.41948 2.54092L0.969034 9.17807C0.48628 9.76437 0.169831 10.4657 0.0517925 11.211C-0.0662461 11.9562 0.0183166 12.7189 0.296897 13.4217C0.575476 14.1245 1.03817 14.7424 1.63807 15.2127C2.23798 15.6831 2.95376 15.9892 3.71286 16.1C3.83076 15.6662 3.97458 15.2395 4.14357 14.8223Z" fill="white"/>
</svg>
