<svg width="303" height="116" viewBox="0 0 303 116" fill="none" xmlns="http://www.w3.org/2000/svg">
<rect x="0.33429" y="0.919189" width="302.666" height="114.673" rx="10" fill="#D9F2EE"/>
<path d="M37.7805 65.2843C39.2758 63.2728 42.6016 58.3977 42.6016 55.6594C42.6016 52.337 40.1392 49.6438 37.1016 49.6438C34.0651 49.6438 31.6016 52.337 31.6016 55.6594C31.6016 58.3977 34.9531 63.2728 36.4227 65.2843C36.775 65.7636 37.4281 65.7636 37.7805 65.2843ZM37.1016 57.6646C36.0904 57.6646 35.2682 56.7654 35.2682 55.6594C35.2682 54.5534 36.0904 53.6542 37.1016 53.6542C38.1128 53.6542 38.9349 54.5534 38.9349 55.6594C38.9349 56.7654 38.1128 57.6646 37.1016 57.6646Z" fill="#00A58D"/>
<path d="M207.517 99.0534C205.877 99.0534 204.447 98.7734 203.227 98.2134C202.007 97.6334 200.897 96.7634 199.897 95.6034L202.867 92.5734C203.527 93.3734 204.257 94.0034 205.057 94.4634C205.857 94.9034 206.777 95.1234 207.817 95.1234C208.797 95.1234 209.557 94.9434 210.097 94.5834C210.637 94.2034 210.907 93.6734 210.907 92.9934C210.907 92.4134 210.727 91.9434 210.367 91.5834C210.027 91.2234 209.567 90.9134 208.987 90.6534C208.407 90.3934 207.767 90.1434 207.067 89.9034C206.367 89.6634 205.667 89.3934 204.967 89.0934C204.287 88.7734 203.657 88.3834 203.077 87.9234C202.497 87.4434 202.027 86.8534 201.667 86.1534C201.307 85.4334 201.127 84.5334 201.127 83.4534C201.127 82.1534 201.437 81.0334 202.057 80.0934C202.697 79.1534 203.567 78.4434 204.667 77.9634C205.767 77.4634 207.027 77.2134 208.447 77.2134C209.827 77.2134 211.117 77.4734 212.317 77.9934C213.517 78.5134 214.497 79.2234 215.257 80.1234L212.287 83.1534C211.667 82.4934 211.037 81.9934 210.397 81.6534C209.777 81.2934 209.097 81.1134 208.357 81.1134C207.497 81.1134 206.827 81.2734 206.347 81.5934C205.867 81.9134 205.627 82.3834 205.627 83.0034C205.627 83.5434 205.807 83.9834 206.167 84.3234C206.527 84.6434 206.997 84.9234 207.577 85.1634C208.177 85.4034 208.817 85.6434 209.497 85.8834C210.197 86.1234 210.897 86.4034 211.597 86.7234C212.297 87.0434 212.937 87.4534 213.517 87.9534C214.117 88.4334 214.597 89.0534 214.957 89.8134C215.317 90.5534 215.497 91.4734 215.497 92.5734C215.497 94.5934 214.787 96.1834 213.367 97.3434C211.967 98.4834 210.017 99.0534 207.517 99.0534ZM206.527 96.7134H209.827V101.753H206.527V96.7134ZM209.827 79.3734H206.527V74.5134H209.827V79.3734ZM226.913 99.0534C225.213 99.0534 223.673 98.5934 222.293 97.6734C220.913 96.7534 219.823 95.4734 219.023 93.8334C218.243 92.1734 217.853 90.2634 217.853 88.1034C217.853 85.9234 218.243 84.0234 219.023 82.4034C219.803 80.7634 220.873 79.4934 222.233 78.5934C223.593 77.6734 225.133 77.2134 226.853 77.2134C228.593 77.2134 230.143 77.6734 231.503 78.5934C232.863 79.4934 233.933 80.7634 234.713 82.4034C235.513 84.0434 235.913 85.9534 235.913 88.1334C235.913 90.3134 235.513 92.2234 234.713 93.8634C233.933 95.5034 232.863 96.7834 231.503 97.7034C230.163 98.6034 228.633 99.0534 226.913 99.0534ZM226.883 94.8834C227.763 94.8834 228.523 94.6334 229.163 94.1334C229.803 93.6134 230.293 92.8534 230.633 91.8534C230.993 90.8334 231.173 89.5934 231.173 88.1334C231.173 86.6534 230.993 85.4134 230.633 84.4134C230.293 83.4134 229.803 82.6634 229.163 82.1634C228.523 81.6434 227.753 81.3834 226.853 81.3834C225.993 81.3834 225.233 81.6334 224.573 82.1334C223.933 82.6334 223.443 83.3834 223.103 84.3834C222.763 85.3834 222.593 86.6234 222.593 88.1034C222.593 89.5834 222.763 90.8234 223.103 91.8234C223.443 92.8234 223.933 93.5834 224.573 94.1034C225.233 94.6234 226.003 94.8834 226.883 94.8834ZM246.894 99.0534C245.194 99.0534 243.654 98.5934 242.274 97.6734C240.894 96.7534 239.804 95.4734 239.004 93.8334C238.224 92.1734 237.834 90.2634 237.834 88.1034C237.834 85.9234 238.224 84.0234 239.004 82.4034C239.784 80.7634 240.854 79.4934 242.214 78.5934C243.574 77.6734 245.114 77.2134 246.834 77.2134C248.574 77.2134 250.124 77.6734 251.484 78.5934C252.844 79.4934 253.914 80.7634 254.694 82.4034C255.494 84.0434 255.894 85.9534 255.894 88.1334C255.894 90.3134 255.494 92.2234 254.694 93.8634C253.914 95.5034 252.844 96.7834 251.484 97.7034C250.144 98.6034 248.614 99.0534 246.894 99.0534ZM246.864 94.8834C247.744 94.8834 248.504 94.6334 249.144 94.1334C249.784 93.6134 250.274 92.8534 250.614 91.8534C250.974 90.8334 251.154 89.5934 251.154 88.1334C251.154 86.6534 250.974 85.4134 250.614 84.4134C250.274 83.4134 249.784 82.6634 249.144 82.1634C248.504 81.6434 247.734 81.3834 246.834 81.3834C245.974 81.3834 245.214 81.6334 244.554 82.1334C243.914 82.6334 243.424 83.3834 243.084 84.3834C242.744 85.3834 242.574 86.6234 242.574 88.1034C242.574 89.5834 242.744 90.8234 243.084 91.8234C243.424 92.8234 243.914 93.5834 244.554 94.1034C245.214 94.6234 245.984 94.8834 246.864 94.8834ZM258.204 101.723L260.029 98.3234L261.154 97.9984C261.038 98.2484 260.896 98.4567 260.729 98.6234C260.563 98.7734 260.371 98.8484 260.154 98.8484C259.671 98.8484 259.229 98.6484 258.829 98.2484C258.429 97.8484 258.229 97.3484 258.229 96.7484C258.229 96.0984 258.446 95.5401 258.879 95.0734C259.329 94.6067 259.879 94.3734 260.529 94.3734C261.146 94.3734 261.679 94.6067 262.129 95.0734C262.596 95.5234 262.829 96.0817 262.829 96.7484C262.829 97.0151 262.779 97.3234 262.679 97.6734C262.579 98.0234 262.379 98.4817 262.079 99.0484L260.054 102.748L258.204 101.723ZM271.821 98.9984C270.404 98.9984 269.121 98.6151 267.971 97.8484C266.821 97.0817 265.912 96.0151 265.246 94.6484C264.596 93.2651 264.271 91.6734 264.271 89.8734C264.271 88.0567 264.596 86.4734 265.246 85.1234C265.896 83.7567 266.787 82.6984 267.921 81.9484C269.054 81.1817 270.337 80.7984 271.771 80.7984C273.221 80.7984 274.512 81.1817 275.646 81.9484C276.779 82.6984 277.671 83.7567 278.321 85.1234C278.987 86.4901 279.321 88.0817 279.321 89.8984C279.321 91.7151 278.987 93.3067 278.321 94.6734C277.671 96.0401 276.779 97.1067 275.646 97.8734C274.529 98.6234 273.254 98.9984 271.821 98.9984ZM271.796 95.5234C272.529 95.5234 273.162 95.3151 273.696 94.8984C274.229 94.4651 274.637 93.8317 274.921 92.9984C275.221 92.1484 275.371 91.1151 275.371 89.8984C275.371 88.6651 275.221 87.6317 274.921 86.7984C274.637 85.9651 274.229 85.3401 273.696 84.9234C273.162 84.4901 272.521 84.2734 271.771 84.2734C271.054 84.2734 270.421 84.4817 269.871 84.8984C269.337 85.3151 268.929 85.9401 268.646 86.7734C268.362 87.6067 268.221 88.6401 268.221 89.8734C268.221 91.1067 268.362 92.1401 268.646 92.9734C268.929 93.8067 269.337 94.4401 269.871 94.8734C270.421 95.3067 271.062 95.5234 271.796 95.5234ZM288.471 98.9984C287.054 98.9984 285.771 98.6151 284.621 97.8484C283.471 97.0817 282.563 96.0151 281.896 94.6484C281.246 93.2651 280.921 91.6734 280.921 89.8734C280.921 88.0567 281.246 86.4734 281.896 85.1234C282.546 83.7567 283.438 82.6984 284.571 81.9484C285.704 81.1817 286.988 80.7984 288.421 80.7984C289.871 80.7984 291.163 81.1817 292.296 81.9484C293.429 82.6984 294.321 83.7567 294.971 85.1234C295.638 86.4901 295.971 88.0817 295.971 89.8984C295.971 91.7151 295.638 93.3067 294.971 94.6734C294.321 96.0401 293.429 97.1067 292.296 97.8734C291.179 98.6234 289.904 98.9984 288.471 98.9984ZM288.446 95.5234C289.179 95.5234 289.813 95.3151 290.346 94.8984C290.879 94.4651 291.288 93.8317 291.571 92.9984C291.871 92.1484 292.021 91.1151 292.021 89.8984C292.021 88.6651 291.871 87.6317 291.571 86.7984C291.288 85.9651 290.879 85.3401 290.346 84.9234C289.813 84.4901 289.171 84.2734 288.421 84.2734C287.704 84.2734 287.071 84.4817 286.521 84.8984C285.988 85.3151 285.579 85.9401 285.296 86.7734C285.013 87.6067 284.871 88.6401 284.871 89.8734C284.871 91.1067 285.013 92.1401 285.296 92.9734C285.579 93.8067 285.988 94.4401 286.521 94.8734C287.071 95.3067 287.713 95.5234 288.446 95.5234Z" fill="#C4DDD9"/>
<path fill-rule="evenodd" clip-rule="evenodd" d="M37.8579 82.6917C35.079 82.6917 32.8262 84.9445 32.8262 87.7234C32.8262 90.5023 35.079 92.7551 37.8579 92.7551C40.6369 92.7551 42.8896 90.5023 42.8896 87.7234C42.8896 84.9445 40.6369 82.6917 37.8579 82.6917ZM32.0103 87.7234C32.0103 84.4938 34.6283 81.8757 37.8579 81.8757C41.0875 81.8757 43.7056 84.4938 43.7056 87.7234C43.7056 90.953 41.0875 93.5711 37.8579 93.5711C34.6283 93.5711 32.0103 90.953 32.0103 87.7234Z" fill="#00A58D"/>
<path fill-rule="evenodd" clip-rule="evenodd" d="M37.8579 84.0515C38.0832 84.0515 38.2659 84.2342 38.2659 84.4595V87.8042L39.751 89.0418C39.9241 89.186 39.9475 89.4433 39.8033 89.6164C39.659 89.7895 39.4017 89.8129 39.2287 89.6686L37.5967 88.3087C37.5037 88.2312 37.45 88.1164 37.45 87.9953V84.4595C37.45 84.2342 37.6326 84.0515 37.8579 84.0515Z" fill="#00A58D"/>
<path d="M34.9519 23.9231H175.01" stroke="#00A78E" stroke-width="8" stroke-linecap="round"/>
<path d="M55.0321 47.6008H162.912" stroke="#C4DDD9" stroke-width="5" stroke-linecap="round"/>
<path d="M55.0321 61.2859H123.772" stroke="#C4DDD9" stroke-width="5" stroke-linecap="round"/>
<path d="M234.5 26.8367H270.096" stroke="#C4DDD9" stroke-width="5" stroke-linecap="round"/>
<path d="M55.0321 80.1711H101.602" stroke="#5C5C5C" stroke-width="5" stroke-linecap="round"/>
<path d="M55.0321 93.571H98.5911" stroke="#5C5C5C" stroke-width="5" stroke-linecap="round"/>
</svg>
