<svg width="29" height="29" viewBox="0 0 29 29" fill="none" xmlns="http://www.w3.org/2000/svg">
<g clip-path="url(#clip0_1184_1131)">
<path d="M14.5098 28.7769C22.2418 28.7769 28.5098 22.5088 28.5098 14.7769C28.5098 7.04487 22.2418 0.776855 14.5098 0.776855C6.77778 0.776855 0.509766 7.04487 0.509766 14.7769C0.509766 22.5088 6.77778 28.7769 14.5098 28.7769Z" fill="#00A58D"/>
<path d="M13.2499 19.9773L9.22614 21.3339C9.04872 21.3934 8.85831 21.4022 8.67615 21.3594C8.494 21.3166 8.32732 21.2238 8.195 21.0914C8.06268 20.9591 7.96993 20.7925 7.92711 20.6104C7.88428 20.4282 7.89307 20.2377 7.95257 20.0603L9.30928 16.032L16.3646 8.9766C16.6222 8.715 16.9293 8.50727 17.2679 8.36547C17.6066 8.22367 17.9701 8.15063 18.3373 8.15063C18.7044 8.15063 19.0679 8.22367 19.4066 8.36547C19.7453 8.50727 20.0522 8.715 20.3099 8.9766V8.9766C20.5715 9.23421 20.7792 9.54129 20.921 9.87995C21.0628 10.2186 21.1359 10.5821 21.1359 10.9492C21.1359 11.3164 21.0628 11.6799 20.921 12.0185C20.7792 12.3572 20.5715 12.6643 20.3099 12.9219L13.2499 19.9773Z" stroke="white" stroke-width="2" stroke-miterlimit="10"/>
<path d="M15.5342 9.81177L19.4749 13.7524" stroke="white" stroke-width="2" stroke-miterlimit="10"/>
</g>
<defs>
<clipPath id="clip0_1184_1131">
<rect width="28" height="28" fill="white" transform="translate(0.509766 0.776855)"/>
</clipPath>
</defs>
</svg>
