<svg width="15" height="23" viewBox="0 0 15 23" fill="none" xmlns="http://www.w3.org/2000/svg">
<path d="M14.1597 8.42243C14.1597 14.374 9.319 19.8119 7.99237 21.1904C7.80711 21.3829 7.51223 21.3829 7.32696 21.1904C6.00033 19.8119 1.15967 14.374 1.15967 8.42243C1.15967 4.2845 4.40967 1.52588 7.65967 1.52588C10.9097 1.52588 14.1597 4.2845 14.1597 8.42243Z" fill="#00A78E"/>
<path fill-rule="evenodd" clip-rule="evenodd" d="M7.65967 2.27588C4.81695 2.27588 1.90967 4.70561 1.90967 8.42243C1.90967 11.2043 3.04549 13.9135 4.38763 16.1332C5.59612 18.1319 6.93895 19.6799 7.65967 20.4512C8.38039 19.6799 9.72322 18.1319 10.9317 16.1332C12.2739 13.9135 13.4097 11.2043 13.4097 8.42243C13.4097 4.70561 10.5024 2.27588 7.65967 2.27588ZM0.409668 8.42243C0.409668 3.86339 4.00238 0.775879 7.65967 0.775879C11.317 0.775879 14.9097 3.86339 14.9097 8.42243C14.9097 11.5921 13.6252 14.5776 12.2153 16.9093C10.8002 19.2498 9.21778 20.9987 8.53278 21.7105C8.05247 22.2096 7.26686 22.2096 6.78655 21.7105C6.10155 20.9987 4.51916 19.2498 3.10403 16.9093C1.69418 14.5776 0.409668 11.5921 0.409668 8.42243Z" fill="#00A78E"/>
<path d="M9.65967 9.50391C9.65967 10.6085 8.76424 11.5039 7.65967 11.5039C6.5551 11.5039 5.65967 10.6085 5.65967 9.50391C5.65967 8.39934 6.5551 7.50391 7.65967 7.50391C8.76424 7.50391 9.65967 8.39934 9.65967 9.50391Z" fill="white"/>
</svg>
