<svg width="34" height="31" viewBox="0 0 34 31" fill="none" xmlns="http://www.w3.org/2000/svg">
<path fill-rule="evenodd" clip-rule="evenodd" d="M16.892 4.57089L30.0409 17.7198V26.9393C30.0409 27.8112 29.6946 28.6473 29.0781 29.2638C28.4617 29.8802 27.6255 30.2266 26.7537 30.2266H7.03039C6.15856 30.2266 5.32244 29.8802 4.70597 29.2638C4.0895 28.6473 3.74316 27.8112 3.74316 26.9393V17.7198L16.892 4.57089ZM27.8495 2.83305V10.5032L23.4665 6.12027V2.83305C23.4665 2.54244 23.5819 2.26373 23.7874 2.05824C23.9929 1.85275 24.2716 1.7373 24.5622 1.7373H26.7537C27.0443 1.7373 27.323 1.85275 27.5285 2.05824C27.734 2.26373 27.8495 2.54244 27.8495 2.83305Z" fill="white"/>
<path fill-rule="evenodd" clip-rule="evenodd" d="M15.3427 0.641636C15.7537 0.230797 16.311 0 16.8921 0C17.4732 0 18.0305 0.230797 18.4415 0.641636L33.0082 15.2062C33.214 15.412 33.3296 15.691 33.3296 15.982C33.3296 16.273 33.214 16.552 33.0082 16.7578C32.8025 16.9635 32.5234 17.0791 32.2324 17.0791C31.9415 17.0791 31.6624 16.9635 31.4567 16.7578L16.8921 2.19101L2.3275 16.7578C2.12175 16.9635 1.84269 17.0791 1.55171 17.0791C1.26074 17.0791 0.981681 16.9635 0.77593 16.7578C0.570179 16.552 0.45459 16.273 0.45459 15.982C0.45459 15.691 0.570179 15.412 0.77593 15.2062L15.3427 0.641636Z" fill="white"/>
</svg>
