<svg width="51" height="46" viewBox="0 0 51 46" fill="none" xmlns="http://www.w3.org/2000/svg">
<path fill-rule="evenodd" clip-rule="evenodd" d="M25.8064 7.03539L45.7183 26.9473V40.9088C45.7183 42.229 45.1938 43.4952 44.2603 44.4288C43.3267 45.3623 42.0605 45.8868 40.7403 45.8868H10.8725C9.55226 45.8868 8.28609 45.3623 7.35254 44.4288C6.41899 43.4952 5.89453 42.229 5.89453 40.9088V26.9473L25.8064 7.03539ZM42.3996 4.40371V16.019L35.7623 9.38167V4.40371C35.7623 3.96363 35.9372 3.54157 36.2483 3.23039C36.5595 2.91921 36.9816 2.74438 37.4217 2.74438H40.7403C41.1804 2.74438 41.6024 2.91921 41.9136 3.23039C42.2248 3.54157 42.3996 3.96363 42.3996 4.40371Z" fill="#00A58D"/>
<path fill-rule="evenodd" clip-rule="evenodd" d="M23.4602 1.08494C24.0825 0.462786 24.9265 0.113281 25.8065 0.113281C26.6865 0.113281 27.5304 0.462786 28.1528 1.08494L50.2118 23.1406C50.5234 23.4522 50.6984 23.8748 50.6984 24.3154C50.6984 24.7561 50.5234 25.1787 50.2118 25.4902C49.9002 25.8018 49.4776 25.9769 49.037 25.9769C48.5964 25.9769 48.1738 25.8018 47.8622 25.4902L25.8065 3.43122L3.75077 25.4902C3.43919 25.8018 3.0166 25.9769 2.57597 25.9769C2.13533 25.9769 1.71275 25.8018 1.40117 25.4902C1.08959 25.1787 0.914551 24.7561 0.914551 24.3154C0.914551 23.8748 1.08959 23.4522 1.40117 23.1406L23.4602 1.08494Z" fill="#00A58D"/>
</svg>
