<svg width="20" height="20" viewBox="0 0 20 20" fill="none" xmlns="http://www.w3.org/2000/svg">
<path d="M10 19.5833C11.1033 19.5833 12.006 18.6795 12.006 17.5748H7.99398C7.99398 18.6795 8.89669 19.5833 10 19.5833ZM16.0181 13.5577V8.53633C16.0181 5.45321 14.3832 2.87222 11.5045 2.18932V1.50641C11.5045 0.672863 10.8325 0 10 0C9.1675 0 8.49549 0.672863 8.49549 1.50641V2.18932C5.62688 2.87222 3.98195 5.44316 3.98195 8.53633V13.5577L1.97593 15.5662V16.5705H18.0241V15.5662L16.0181 13.5577ZM14.012 14.562H5.98796V8.53633C5.98796 6.04573 7.50251 4.01709 10 4.01709C12.4975 4.01709 14.012 6.04573 14.012 8.53633V14.562ZM5.5667 1.58675L4.1324 0.150641C1.72518 1.98846 0.140421 4.82051 0 8.03419H2.00602C2.07707 6.76058 2.43413 5.51942 3.05062 4.40312C3.66711 3.28683 4.52715 2.32414 5.5667 1.58675ZM17.994 8.03419H20C19.8495 4.82051 18.2648 1.98846 15.8676 0.150641L14.4433 1.58675C15.4784 2.32777 16.3346 3.29152 16.9491 4.40722C17.5635 5.52292 17.9205 6.76224 17.994 8.03419Z" fill="white"/>
</svg>
