<svg width="16" height="15" viewBox="0 0 16 15" fill="none" xmlns="http://www.w3.org/2000/svg">
<path d="M7.85102 0.0839844C3.73386 0.0839844 0.395996 3.42184 0.395996 7.539C0.395996 11.6562 3.73386 14.994 7.85102 14.994C11.9682 14.994 15.306 11.6562 15.306 7.539C15.306 3.42184 11.9682 0.0839844 7.85102 0.0839844ZM9.09352 12.4469H6.60851V6.48288H9.09352V12.4469ZM7.85102 5.11612C7.52148 5.11612 7.20545 4.98522 6.97243 4.7522C6.73942 4.51919 6.60851 4.20315 6.60851 3.87362C6.60851 3.54409 6.73942 3.22805 6.97243 2.99504C7.20545 2.76202 7.52148 2.63112 7.85102 2.63112C8.18055 2.63112 8.49658 2.76202 8.7296 2.99504C8.96261 3.22805 9.09352 3.54409 9.09352 3.87362C9.09352 4.20315 8.96261 4.51919 8.7296 4.7522C8.49658 4.98522 8.18055 5.11612 7.85102 5.11612Z" fill="#00A78E"/>
</svg>
