<svg width="16" height="16" viewBox="0 0 16 16" fill="none" xmlns="http://www.w3.org/2000/svg">
<path d="M7.81488 0.621826C3.69772 0.621826 0.359863 3.95969 0.359863 8.07685C0.359863 12.194 3.69772 15.5319 7.81488 15.5319C11.932 15.5319 15.2699 12.194 15.2699 8.07685C15.2699 3.95969 11.932 0.621826 7.81488 0.621826ZM9.05739 12.9847H6.57238V7.02072H9.05739V12.9847ZM7.81488 5.65396C7.48535 5.65396 7.16931 5.52306 6.9363 5.29004C6.70329 5.05703 6.57238 4.74099 6.57238 4.41146C6.57238 4.08193 6.70329 3.76589 6.9363 3.53288C7.16931 3.29986 7.48535 3.16896 7.81488 3.16896C8.14441 3.16896 8.46045 3.29986 8.69346 3.53288C8.92648 3.76589 9.05739 4.08193 9.05739 4.41146C9.05739 4.74099 8.92648 5.05703 8.69346 5.29004C8.46045 5.52306 8.14441 5.65396 7.81488 5.65396Z" fill="#00A78E"/>
</svg>
