<svg width="16" height="15" viewBox="0 0 16 15" fill="none" xmlns="http://www.w3.org/2000/svg">
<path d="M14.4842 2.07053L9.32791 13.3205C9.28491 13.4151 9.21173 13.4926 9.11987 13.5411C9.02801 13.5895 8.92267 13.606 8.82038 13.5881C8.71809 13.5702 8.62465 13.5188 8.55472 13.4421C8.48479 13.3653 8.44233 13.2675 8.43401 13.164L7.99807 7.93413L2.76869 7.49819C2.66536 7.48969 2.56775 7.44716 2.49116 7.37727C2.41457 7.30737 2.36331 7.21406 2.34542 7.11193C2.32752 7.00979 2.34399 6.90461 2.39225 6.81284C2.44051 6.72106 2.51784 6.64788 2.61213 6.60475L13.8621 1.4485C13.9491 1.40857 14.0463 1.39623 14.1405 1.41313C14.2347 1.43003 14.3215 1.47537 14.3891 1.54306C14.4568 1.61074 14.5022 1.69752 14.5191 1.79173C14.536 1.88594 14.5236 1.98307 14.4837 2.07006L14.4842 2.07053Z" fill="#00A78E"/>
</svg>
