<svg width="10" height="14" viewBox="0 0 10 14" fill="none" xmlns="http://www.w3.org/2000/svg">
<path d="M5.61719 13.6854C6.97656 11.9254 10 7.65967 10 5.26362C10 2.35657 7.76146 0 5 0C2.23958 0 0 2.35657 0 5.26362C0 7.65967 3.04688 11.9254 4.38281 13.6854C4.70312 14.1049 5.29688 14.1049 5.61719 13.6854ZM5 7.01816C4.08073 7.01816 3.33333 6.23136 3.33333 5.26362C3.33333 4.29588 4.08073 3.50908 5 3.50908C5.91927 3.50908 6.66667 4.29588 6.66667 5.26362C6.66667 6.23136 5.91927 7.01816 5 7.01816Z" fill="#00A58D"/>
</svg>
