<svg width="33" height="25" viewBox="0 0 33 25" fill="none" xmlns="http://www.w3.org/2000/svg">
<path d="M12.4429 2.24512H21.0541V17.718H12.4429V2.24512Z" fill="#FF5F00"/>
<path d="M6.62018 24.7984V23.1582C6.62018 22.5294 6.23738 22.1194 5.58124 22.1194C5.25323 22.1194 4.89782 22.2287 4.65175 22.5841C4.46047 22.2834 4.18713 22.1194 3.77706 22.1194C3.50359 22.1194 3.23038 22.2013 3.01158 22.5021V22.1741H2.4375V24.7984H3.01158V23.3495C3.01158 22.8849 3.25765 22.6661 3.64045 22.6661C4.023 22.6661 4.21453 22.9122 4.21453 23.3495V24.7984H4.78861V23.3495C4.78861 22.8849 5.06183 22.6661 5.41723 22.6661C5.80003 22.6661 5.99131 22.9122 5.99131 23.3495V24.7984H6.62018ZM15.1219 22.1741H14.1925V21.3813H13.6185V22.1741H13.0991V22.6934H13.6183V23.8963C13.6183 24.4978 13.8644 24.8531 14.5206 24.8531C14.7666 24.8531 15.0398 24.7711 15.2314 24.6618L15.0672 24.1697C14.9032 24.279 14.712 24.3064 14.5752 24.3064C14.3019 24.3064 14.1925 24.1424 14.1925 23.8689V22.6934H15.1219V22.1741ZM19.988 22.1193C19.66 22.1193 19.4413 22.2834 19.3046 22.5021V22.1741H18.7305V24.7984H19.3046V23.3222C19.3046 22.8849 19.4959 22.6388 19.8513 22.6388C19.9606 22.6388 20.0973 22.6662 20.2067 22.6935L20.3707 22.1468C20.2613 22.1194 20.0973 22.1194 19.988 22.1194V22.1193ZM12.6343 22.3927C12.3608 22.2013 11.9782 22.1194 11.5681 22.1194C10.9121 22.1194 10.4747 22.4474 10.4747 22.9668C10.4747 23.4043 10.8027 23.6502 11.3768 23.7323L11.6502 23.7597C11.9509 23.8142 12.1149 23.8963 12.1149 24.033C12.1149 24.2243 11.8962 24.3611 11.5134 24.3611C11.1307 24.3611 10.83 24.2243 10.6386 24.0877L10.3653 24.5251C10.666 24.7437 11.0761 24.8531 11.486 24.8531C12.2515 24.8531 12.689 24.4978 12.689 24.0056C12.689 23.5409 12.3336 23.2948 11.7868 23.2129L11.5134 23.1855C11.2674 23.1581 11.0761 23.1036 11.0761 22.9396C11.0761 22.7482 11.2674 22.6388 11.5681 22.6388C11.8962 22.6388 12.2242 22.7754 12.3882 22.8575L12.6343 22.3927ZM27.8885 22.1194C27.5604 22.1194 27.3417 22.2834 27.205 22.5021V22.1741H26.6309V24.7984H27.205V23.3222C27.205 22.8849 27.3964 22.6388 27.7516 22.6388C27.8611 22.6388 27.9978 22.6662 28.1072 22.6935L28.2712 22.1468C28.1618 22.1194 27.9978 22.1194 27.8885 22.1194ZM20.5621 23.4862C20.5621 24.279 21.1088 24.8531 21.9563 24.8531C22.339 24.8531 22.6123 24.7711 22.8857 24.5525L22.6123 24.0877C22.3937 24.2517 22.175 24.3337 21.9289 24.3337C21.4642 24.3337 21.1362 24.0056 21.1362 23.4862C21.1362 22.9942 21.4642 22.6661 21.9289 22.6388C22.175 22.6388 22.3937 22.7208 22.6123 22.8849L22.8857 22.4201C22.6123 22.2013 22.339 22.1194 21.9563 22.1194C21.1088 22.1194 20.5621 22.6935 20.5621 23.4862ZM25.8655 23.4862V22.1741H25.2914V22.5021C25.1 22.2561 24.8267 22.1194 24.4713 22.1194C23.7332 22.1194 23.1591 22.6935 23.1591 23.4862C23.1591 24.279 23.7332 24.8531 24.4713 24.8531C24.854 24.8531 25.1274 24.7165 25.2914 24.4704V24.7984H25.8655V23.4862ZM23.7605 23.4862C23.7605 23.0215 24.0612 22.6388 24.5532 22.6388C25.018 22.6388 25.3461 22.9942 25.3461 23.4862C25.3461 23.951 25.018 24.3337 24.5532 24.3337C24.0612 24.3063 23.7605 23.951 23.7605 23.4862ZM16.8989 22.1194C16.1335 22.1194 15.5866 22.6661 15.5866 23.4862C15.5866 24.3064 16.1333 24.8531 16.9262 24.8531C17.3089 24.8531 17.6917 24.7437 17.9924 24.4978L17.719 24.0877C17.5003 24.2517 17.2269 24.3611 16.9536 24.3611C16.5982 24.3611 16.2428 24.1971 16.1607 23.7322H18.1018V23.5136C18.1292 22.6661 17.637 22.1194 16.8988 22.1194H16.8989ZM16.8989 22.6114C17.2542 22.6114 17.5004 22.8302 17.555 23.2403H16.1881C16.2428 22.8849 16.4889 22.6114 16.8989 22.6114ZM31.1416 23.4862V21.1353H30.5675V22.5021C30.3761 22.2561 30.1028 22.1194 29.7473 22.1194C29.0093 22.1194 28.4352 22.6935 28.4352 23.4862C28.4352 24.279 29.0093 24.8531 29.7473 24.8531C30.1301 24.8531 30.4035 24.7165 30.5675 24.4704V24.7984H31.1416V23.4862ZM29.0367 23.4862C29.0367 23.0215 29.3373 22.6388 29.8294 22.6388C30.2942 22.6388 30.6222 22.9942 30.6222 23.4862C30.6222 23.951 30.2942 24.3337 29.8294 24.3337C29.3373 24.3063 29.0367 23.951 29.0367 23.4862ZM9.84586 23.4862V22.1741H9.27178V22.5021C9.08038 22.2561 8.80704 22.1194 8.45163 22.1194C7.71355 22.1194 7.13947 22.6935 7.13947 23.4862C7.13947 24.279 7.71355 24.8531 8.45163 24.8531C8.83443 24.8531 9.10777 24.7165 9.27178 24.4704V24.7984H9.84586V23.4862ZM7.71355 23.4862C7.71355 23.0215 8.01429 22.6388 8.5063 22.6388C8.97104 22.6388 9.29918 22.9942 9.29918 23.4862C9.29918 23.951 8.97104 24.3337 8.5063 24.3337C8.01429 24.3063 7.71355 23.951 7.71355 23.4862Z" fill="black"/>
<path d="M12.9898 9.98167C12.9898 6.83793 14.466 4.04947 16.7349 2.24517C15.0675 0.933011 12.9626 0.140259 10.6662 0.140259C5.22594 0.140259 0.824707 4.54149 0.824707 9.98167C0.824707 15.4217 5.22594 19.8231 10.6661 19.8231C12.9624 19.8231 15.0673 19.0303 16.7349 17.718C14.466 15.9411 12.9898 13.1254 12.9898 9.98167Z" fill="#EB001B"/>
<path d="M32.6724 9.98167C32.6724 15.4217 28.2712 19.8231 22.831 19.8231C20.5347 19.8231 18.4298 19.0303 16.7622 17.718C19.0585 15.9139 20.5074 13.1254 20.5074 9.98167C20.5074 6.83793 19.0311 4.04947 16.7622 2.24517C18.4297 0.933011 20.5347 0.140259 22.831 0.140259C28.2712 0.140259 32.6725 4.56889 32.6725 9.98167H32.6724Z" fill="#F79E1B"/>
</svg>
