<svg width="20" height="22" viewBox="0 0 20 22" fill="none" xmlns="http://www.w3.org/2000/svg">
<path d="M4.40379 13.0734V7.84199C4.40379 3.10286 15.5959 3.1028 15.5959 7.84206V13.0734C15.5959 13.193 15.6397 13.308 15.719 13.3976L18.3508 16.3694C18.9104 17.0014 18.4618 17.998 17.6176 17.998H2.3821C1.53797 17.998 1.08931 17.0014 1.64895 16.3694L4.28072 13.3976C4.36001 13.308 4.40379 13.193 4.40379 13.0734Z" fill="white"/>
<path fill-rule="evenodd" clip-rule="evenodd" d="M14.2083 4.53666C15.4098 5.21501 16.3305 6.31306 16.3305 7.84207V12.9801L18.9007 15.8825C19.8801 16.9884 19.0949 18.7325 17.6177 18.7325H2.38218C0.904937 18.7325 0.119793 16.9884 1.09916 15.8825L3.66939 12.9801V7.84201C3.66939 6.31302 4.59006 5.21499 5.79154 4.53665C6.97969 3.86584 8.51204 3.55316 9.99994 3.55316C11.4878 3.55316 13.0202 3.86584 14.2083 4.53666ZM6.51374 5.81583C5.6167 6.32228 5.13836 7.00143 5.13836 7.84201V13.0734C5.13836 13.3731 5.02847 13.6612 4.83066 13.8845L2.19889 16.8564C2.05898 17.0144 2.17115 17.2635 2.38218 17.2635H17.6177C17.8287 17.2635 17.9409 17.0144 17.801 16.8564L15.1692 13.8845L15.7191 13.3976L15.1692 13.8845C14.9714 13.6612 14.8615 13.3731 14.8615 13.0734V7.84207C14.8615 7.00146 14.3832 6.32229 13.4861 5.81584C12.5758 5.30185 11.3101 5.02213 9.99994 5.02213C8.6898 5.02213 7.42412 5.30185 6.51374 5.81583Z" fill="white"/>
<path d="M11.9588 2.81867C11.9588 3.90039 11.0818 4.77729 10.0001 4.77729C8.91841 4.77729 8.0415 3.90039 8.0415 2.81867C8.0415 1.73695 8.91841 0.860046 10.0001 0.860046C11.0818 0.860046 11.9588 1.73695 11.9588 2.81867Z" fill="white"/>
<path fill-rule="evenodd" clip-rule="evenodd" d="M5.83789 17.2635H14.1616V17.998C14.1616 19.0117 13.6909 19.9562 12.9012 20.6331C12.1151 21.307 11.07 21.6704 9.99956 21.6704C8.93415 21.6704 7.86324 21.3099 7.07359 20.6331C6.27195 19.946 5.83789 18.9967 5.83789 17.998L5.83789 17.2635ZM7.45178 18.7325C7.57063 19.0209 7.76288 19.2892 8.02959 19.5178C8.52553 19.9429 9.24686 20.2015 9.99956 20.2015C10.7473 20.2015 11.4458 19.9459 11.9452 19.5178C12.2155 19.2861 12.4132 19.0173 12.5371 18.7325H7.45178Z" fill="white"/>
</svg>
