<svg width="14" height="14" viewBox="0 0 14 14" fill="none" xmlns="http://www.w3.org/2000/svg">
<path d="M13.0756 10.5907L10.1092 7.8936C9.96902 7.76615 9.78476 7.69818 9.59536 7.70403C9.40596 7.70989 9.22625 7.78911 9.09417 7.92497L7.3479 9.72085C6.92757 9.64058 6.08253 9.37715 5.21268 8.50949C4.34283 7.63892 4.07939 6.7917 4.00131 6.37429L5.79574 4.6273C5.93177 4.49531 6.01111 4.31558 6.01697 4.12613C6.02283 3.93668 5.95474 3.75238 5.82712 3.61224L3.13073 0.646599C3.00305 0.506021 2.82561 0.420749 2.63608 0.408895C2.44654 0.397041 2.25985 0.459538 2.11566 0.583112L0.532122 1.94115C0.405958 2.06777 0.330654 2.23629 0.320497 2.41475C0.309551 2.59718 0.100845 6.91867 3.45181 10.2711C6.37516 13.1937 10.037 13.4075 11.0455 13.4075C11.1929 13.4075 11.2834 13.4031 11.3075 13.4016C11.4859 13.3916 11.6543 13.316 11.7803 13.1893L13.1377 11.605C13.2617 11.4613 13.3247 11.2748 13.3131 11.0852C13.3015 10.8957 13.2163 10.7182 13.0756 10.5907Z" fill="#00A58D"/>
</svg>
