<svg xmlns="http://www.w3.org/2000/svg" viewBox="0 0 530.11 255.64"><defs><style>.cls-1{fill:#fff;}</style></defs><g id="Capa_2" data-name="Capa 2"><g id="Capa_1-2" data-name="Capa 1"><circle class="cls-1" cx="87.21" cy="89.03" r="33.8"/><path class="cls-1" d="M159.33,39.46C145.44,19.1,123.25,4.47,98.8.87A84.79,84.79,0,0,0,88.25,0H84.47A86.74,86.74,0,0,0,73.92.87C49.45,4.47,27.25,19.1,13.36,39.46-9.81,73.52.57,113.15,18.67,146.93q5.8,10.86,11.92,21.57L83.4,141.78c.17-.07.3-.14.47-.2a6.18,6.18,0,0,1,.83-.27,5.77,5.77,0,0,1,4,.43l53.32,27q6.09-10.81,12-21.81C172.11,113.15,182.5,73.52,159.33,39.46ZM146.72,118.3s0,0,0,0a5,5,0,0,1-4.51,2.77,5.4,5.4,0,0,1-2.2-.5l-16.74-8.25a42.73,42.73,0,1,1,4.44-9l16.76,8.25A5,5,0,0,1,146.72,118.3Z"/><path class="cls-1" d="M86.58,153.58l50.14,25.31C122.9,203,108.58,226.79,95.09,251a9.68,9.68,0,0,1-16.49,0C65,226.73,50.69,202.82,36.86,178.65Z"/><circle class="cls-1" cx="87.21" cy="89.03" r="33.8"/><circle class="cls-1" cx="87.21" cy="89.03" r="33.8"/><path class="cls-1" d="M258,146.62V76.05H227.32v17H240l-.06,53.55c0,2.39-2.75,4.82-7.44,4.82s-7.63-5.76-8.07-7.69l-8.14,14.33A22.45,22.45,0,0,0,258,146.63Z"/><path class="cls-1" d="M459.28,166.81l-.09-.5a59.2,59.2,0,0,1-1-10.46V126.67a26.56,26.56,0,0,0-23-26.47,38.11,38.11,0,0,0-4.53-.27c-15.25,0-27.61,9.23-27.61,20.63h18.87c1.51-2.74,3-5.08,8.78-5.3,7.65-.29,9.31,4.29,9.31,5.3v7.11H423.6a22.25,22.25,0,0,0-12.9,4,17.55,17.55,0,0,0-7.64,15c0,16.15,11.06,20.19,20.37,20.19,6.33,0,13-3.12,16.59-7.7v.33a48.36,48.36,0,0,0,1,7.3v.07Zm-28.34-13.45c-4.66,1.24-10.57-1.39-10.57-6.94,0-3.06,2.65-4.72,5-5.61a15.85,15.85,0,0,1,5.46-.91H440l0,4.23C439,147.87,434.81,152.32,430.94,153.36Z"/><path class="cls-1" d="M322.15,166.81l-.09-.5a58.27,58.27,0,0,1-1-10.46l0-29.18a26.56,26.56,0,0,0-23-26.47,38.28,38.28,0,0,0-4.54-.27c-15.24,0-27.6,9.23-27.6,20.63h18.88c1.52-2.74,3-5.08,8.79-5.3,7.65-.29,9.3,4.29,9.3,5.3v7.11H286.46a22.28,22.28,0,0,0-12.91,4,17.58,17.58,0,0,0-7.63,15c0,16.15,11.06,20.19,20.36,20.19,6.33,0,13-3.12,16.59-7.7v.33a50,50,0,0,0,1,7.3v.07Zm-19.28-22.68c-1,3.74-5.2,8.19-9.07,9.23-4.67,1.24-10.55-1.39-10.55-6.94,0-3.06,2.64-4.72,5-5.61a16,16,0,0,1,5.47-.91h9.15Z"/><path class="cls-1" d="M394.25,101.73h-25.2A32,32,0,0,0,358.64,100c-15.38,0-27.85,10.59-27.85,23.65,0,7.84,4.49,14.78,11.4,19.09l-5.52,11.87v11.6h33c.49,0,2.33.32,2.33,3.75,0,6.32-5.73,7.72-14.16,7.72S342,176,337.59,172.2L330,184.26s7,9.42,29.32,9.42,31-10.65,31-24.11-10.74-18.42-19.75-18.42H356.12l1-3.85h1.49c15.39,0,27.86-10.59,27.86-23.66a20.15,20.15,0,0,0-1.48-7.59h9.26Zm-35.61,29.54h0a7.6,7.6,0,1,1,7.6-7.6A7.6,7.6,0,0,1,358.61,131.27Z"/><path class="cls-1" d="M498.16,100c-9.36,0-31.84,4.88-31.84,33.2s19.43,33.2,31.44,33.2,32.35-1.94,32.35-32.36S507.87,99.93,498.16,100Zm.09,51.16h0c-8.37,0-15.16-8-15.16-18s6.79-18,15.16-18,15.15,8,15.15,18S506.59,151.18,498.25,151.18Z"/></g></g></svg>