<svg width="70" height="70" viewBox="0 0 70 70" fill="none" xmlns="http://www.w3.org/2000/svg">
<rect width="70" height="70" fill="white"/>
<path d="M18.3373 40.7496V25.1692C18.3373 11.0547 51.6707 11.0545 51.6707 25.1693V40.7496C51.6707 41.1059 51.8011 41.4485 52.0372 41.7152L59.8754 50.5662C61.5421 52.4484 60.2059 55.4166 57.6918 55.4166H12.3162C9.80208 55.4166 8.46586 52.4484 10.1326 50.5662L17.9708 41.7152C18.2069 41.4485 18.3373 41.1059 18.3373 40.7496Z" fill="#00A78E"/>
<path fill-rule="evenodd" clip-rule="evenodd" d="M47.5363 15.3249C51.1147 17.3452 53.8567 20.6155 53.8567 25.1693V40.4719L61.5116 49.116C64.4284 52.4098 62.09 57.6041 57.6904 57.6041H12.3147C7.91505 57.6041 5.57667 52.4097 8.4935 49.116L16.1484 40.4719V25.1692C16.1484 20.6154 18.8904 17.3451 22.4687 15.3249C26.0074 13.327 30.5712 12.3958 35.0025 12.3958C39.4339 12.3958 43.9977 13.327 47.5363 15.3249ZM24.6197 19.1346C21.948 20.643 20.5234 22.6657 20.5234 25.1692V40.7496C20.5234 41.6422 20.1961 42.5002 19.607 43.1655L11.7688 52.0165C11.3521 52.487 11.6862 53.2291 12.3147 53.2291H57.6904C58.3189 53.2291 58.6529 52.487 58.2362 52.0165L50.3981 43.1655L52.0358 41.7152L50.3981 43.1655C49.809 42.5002 49.4817 41.6422 49.4817 40.7496V25.1693C49.4817 22.6658 48.057 20.643 45.3854 19.1346C42.6741 17.6038 38.9045 16.7708 35.0025 16.7708C31.1006 16.7708 27.331 17.6038 24.6197 19.1346Z" fill="#00A78E"/>
<path d="M40.8334 10.2083C40.8334 13.43 38.2217 16.0417 35.0001 16.0417C31.7784 16.0417 29.1667 13.43 29.1667 10.2083C29.1667 6.98667 31.7784 4.375 35.0001 4.375C38.2217 4.375 40.8334 6.98667 40.8334 10.2083Z" fill="#00A78E"/>
<path d="M45.2072 55.4167C45.2072 57.7374 44.1317 59.963 42.2173 61.6039C40.3028 63.2449 37.7063 64.1667 34.9989 64.1667C32.2915 64.1667 29.6226 63.2449 27.7081 61.6039C25.7937 59.963 24.7917 57.7374 24.7917 55.4167H34.9989H45.2072Z" fill="white"/>
<path fill-rule="evenodd" clip-rule="evenodd" d="M22.6042 53.2292H47.3947V55.4167C47.3947 58.4359 45.9927 61.2489 43.6409 63.2648C41.2995 65.2717 38.1868 66.3542 34.9989 66.3542C31.8258 66.3542 28.6363 65.2806 26.2845 63.2648C23.897 61.2184 22.6042 58.3913 22.6042 55.4167L22.6042 53.2292ZM27.4109 57.6042C27.7648 58.4633 28.3374 59.2622 29.1317 59.9431C30.6088 61.2091 32.7571 61.9792 34.9989 61.9792C37.2257 61.9792 39.3062 61.218 40.7937 59.9431C41.5987 59.2531 42.1874 58.4525 42.5565 57.6042H27.4109Z" fill="#00A78E"/>
<path fill-rule="evenodd" clip-rule="evenodd" d="M49.1663 9.08312C49.7879 8.04717 51.1316 7.71124 52.1675 8.33282C60.4786 13.3195 61.9796 21.6504 61.9796 29.1669C61.9796 30.375 61.0002 31.3544 59.7921 31.3544C58.584 31.3544 57.6046 30.375 57.6046 29.1669C57.6046 22.1001 56.1889 15.8477 49.9166 12.0843C48.8807 11.4628 48.5447 10.1191 49.1663 9.08312Z" fill="#00A78E"/>
<path fill-rule="evenodd" clip-rule="evenodd" d="M20.8338 9.08312C20.2122 8.04717 18.8685 7.71124 17.8326 8.33282C13.8359 10.7308 11.3032 13.6267 9.82594 17.2142C8.38326 20.7179 8.02054 24.7128 8.02054 29.1669C8.02054 30.375 8.99992 31.3544 10.208 31.3544C11.4162 31.3544 12.3955 30.375 12.3955 29.1669C12.3955 24.871 12.762 21.5743 13.8714 18.88C14.9463 16.2697 16.7885 14.0613 20.0835 12.0843C21.1195 11.4628 21.4554 10.1191 20.8338 9.08312Z" fill="#00A78E"/>
</svg>
