<svg width="18" height="17" viewBox="0 0 18 17" fill="none" xmlns="http://www.w3.org/2000/svg">
<g clip-path="url(#clip0_2696_1911)">
<path d="M1.05064 6.2477C1.09105 6.13006 1.23427 6.03856 1.35386 6.03856H2.90723C3.02677 6.03856 3.17004 6.13006 3.21049 6.2477C3.25003 6.36284 3.27958 6.46558 3.29923 6.5622L4.33685 3.69155C4.50799 3.21818 4.96124 2.90015 5.46455 2.90015H13.4006C13.904 2.90015 14.3571 3.21818 14.5284 3.69163L15.566 6.56254C15.5857 6.46584 15.6153 6.36297 15.6549 6.2477C15.6953 6.13006 15.8385 6.03856 15.9581 6.03856H17.5115C17.631 6.03856 17.7743 6.13006 17.8147 6.2477C17.972 6.70573 17.9719 6.96793 17.8146 7.42601C17.7742 7.54365 17.6309 7.63514 17.5114 7.63514H15.958C15.9566 7.63514 15.955 7.63476 15.9535 7.63471L15.9769 7.69963C16.2937 7.80486 16.5224 8.10304 16.5224 8.45514V13.7172C16.5224 13.7675 16.5125 13.8172 16.4932 13.8637C16.474 13.9101 16.4458 13.9523 16.4103 13.9879C16.3747 14.0234 16.3325 14.0516 16.2861 14.0709C16.2396 14.0901 16.1898 14.1 16.1396 14.1H14.2129C14.1114 14.1 14.014 14.0597 13.9422 13.9879C13.8704 13.9161 13.8301 13.8187 13.8301 13.7172V11.8536H5.03516V13.7172C5.03516 13.8187 4.99483 13.9161 4.92304 13.9879C4.85124 14.0597 4.75387 14.1 4.65234 14.1H2.72567C2.67539 14.1 2.62561 14.0901 2.57916 14.0709C2.53271 14.0516 2.49051 14.0234 2.45496 13.9879C2.41941 13.9523 2.39121 13.9101 2.37197 13.8637C2.35274 13.8172 2.34284 13.7675 2.34284 13.7172V8.45514C2.34284 8.10313 2.57145 7.80499 2.88806 7.69967L2.91154 7.63471C2.91012 7.63476 2.90861 7.6351 2.90719 7.6351H1.35381C1.23423 7.6351 1.091 7.54361 1.0506 7.42596C0.893324 6.96793 0.893412 6.70573 1.05064 6.2477ZM13.254 4.30892H5.61221L4.40142 7.65862H14.4648L13.254 4.30892ZM13.0409 10.0184H14.6527C14.9986 10.0184 15.2788 9.73809 15.2788 9.39227C15.2788 9.0465 14.9986 8.76616 14.6527 8.76616H13.0409C12.6951 8.76616 12.4148 9.04645 12.4148 9.39227C12.4147 9.73809 12.6951 10.0184 13.0409 10.0184ZM4.21262 10.0184H5.82445C6.17022 10.0184 6.45056 9.73809 6.45056 9.39227C6.45056 9.0465 6.17022 8.76616 5.82445 8.76616H4.21262C3.8668 8.76616 3.5865 9.04645 3.5865 9.39227C3.5865 9.73809 3.8668 10.0184 4.21262 10.0184Z" fill="#00A78E"/>
</g>
<defs>
<clipPath id="clip0_2696_1911">
<rect width="17" height="17" fill="white" transform="matrix(-1 0 0 1 17.9326 0)"/>
</clipPath>
</defs>
</svg>
