<svg width="23" height="23" viewBox="0 0 23 23" fill="none" xmlns="http://www.w3.org/2000/svg">
<path fill-rule="evenodd" clip-rule="evenodd" d="M0.588867 4.89062C0.588867 4.47641 0.924654 4.14062 1.33887 4.14062H21.3386C21.7528 4.14062 22.0886 4.47641 22.0886 4.89062C22.0886 5.30484 21.7528 5.64062 21.3386 5.64062H1.33887C0.924654 5.64062 0.588867 5.30484 0.588867 4.89062Z" fill="#CB3131"/>
<path d="M4.1958 16.219V4.99063C4.1958 4.9354 4.24057 4.89062 4.2958 4.89062H18.3813C18.4366 4.89062 18.4813 4.9354 18.4813 4.99063V16.219C18.4813 19.0356 16.198 21.319 13.3813 21.319H9.2958C6.47915 21.319 4.1958 19.0356 4.1958 16.219Z" fill="#CB3131"/>
<path fill-rule="evenodd" clip-rule="evenodd" d="M4.9458 5.64062V16.219C4.9458 18.6214 6.89336 20.569 9.2958 20.569H13.3813C15.7838 20.569 17.7313 18.6214 17.7313 16.219V5.64062H4.9458ZM3.4458 4.99063C3.4458 4.52118 3.82636 4.14062 4.2958 4.14062H18.3813C18.8508 4.14062 19.2313 4.52119 19.2313 4.99063V16.219C19.2313 19.4499 16.6122 22.069 13.3813 22.069H9.2958C6.06494 22.069 3.4458 19.4499 3.4458 16.219V4.99063Z" fill="#CB3131"/>
<path fill-rule="evenodd" clip-rule="evenodd" d="M8.48145 9.14062C8.89566 9.14062 9.23145 9.47641 9.23145 9.89062V15.6048C9.23145 16.0191 8.89566 16.3548 8.48145 16.3548C8.06723 16.3548 7.73145 16.0191 7.73145 15.6048V9.89062C7.73145 9.47641 8.06723 9.14062 8.48145 9.14062Z" fill="white"/>
<path fill-rule="evenodd" clip-rule="evenodd" d="M14.1958 9.14062C14.61 9.14062 14.9458 9.47641 14.9458 9.89062V15.6048C14.9458 16.0191 14.61 16.3548 14.1958 16.3548C13.7816 16.3548 13.4458 16.0191 13.4458 15.6048V9.89062C13.4458 9.47641 13.7816 9.14062 14.1958 9.14062Z" fill="white"/>
<path fill-rule="evenodd" clip-rule="evenodd" d="M9.05322 2.06934C8.36287 2.06934 7.80322 2.62898 7.80322 3.31933V4.89072C7.80322 5.30493 7.46744 5.64072 7.05322 5.64072C6.63901 5.64072 6.30322 5.30493 6.30322 4.89072V3.31933C6.30322 1.80055 7.53444 0.569336 9.05322 0.569336H13.6245C15.1433 0.569336 16.3745 1.80055 16.3745 3.31934V4.89072C16.3745 5.30493 16.0388 5.64072 15.6245 5.64072C15.2103 5.64072 14.8745 5.30493 14.8745 4.89072V3.31934C14.8745 2.62898 14.3149 2.06934 13.6245 2.06934H9.05322Z" fill="#CB3131"/>
</svg>
