<svg width="20" height="14" viewBox="0 0 20 14" fill="none" xmlns="http://www.w3.org/2000/svg">
<path d="M5.91846 2.5782V10.4502L1.98248 6.51418L5.91846 2.5782ZM0.340548 5.68739C0.232596 5.79512 0.14695 5.92308 0.0885146 6.06396C0.0300788 6.20483 0 6.35584 0 6.50835C0 6.66086 0.0300788 6.81188 0.0885146 6.95275C0.14695 7.09362 0.232596 7.22159 0.340548 7.32932L5.68556 12.6743C6.40755 13.408 7.6652 12.8956 7.6652 11.8592V1.16916C7.6652 0.132766 6.40755 -0.391255 5.67392 0.342374L0.340548 5.68739ZM12.3232 1.16916V11.8475C12.3232 12.8839 13.5808 13.408 14.3144 12.6743L19.6595 7.32932C19.7674 7.22159 19.853 7.09362 19.9115 6.95275C19.9699 6.81188 20 6.66086 20 6.50835C20 6.35584 19.9699 6.20483 19.9115 6.06396C19.853 5.92308 19.7674 5.79512 19.6595 5.68739L14.3144 0.342374C13.5808 -0.379611 12.3232 0.132766 12.3232 1.16916Z" fill="white"/>
</svg>
