<svg width="35" height="25" viewBox="0 0 35 25" fill="none" xmlns="http://www.w3.org/2000/svg">
<path d="M33.1188 2.1609H30.4582V0.637284C30.4582 0.465546 30.3889 0.30084 30.2655 0.179404C30.1421 0.0579671 29.9747 -0.0102539 29.8002 -0.0102539H23.4933C23.3186 -0.0102552 23.1509 0.0578845 23.0271 0.179249C22.9033 0.300613 22.8334 0.465313 22.8327 0.637284V2.1609H12.1673V0.637284C12.1673 0.465546 12.098 0.30084 11.9746 0.179404C11.8512 0.0579671 11.6838 -0.0102539 11.5092 -0.0102539H5.20238C5.02762 -0.0102552 4.85999 0.0578845 4.73617 0.179249C4.61235 0.300613 4.54244 0.465313 4.54176 0.637284V2.1609H1.88122C1.38249 2.16157 0.904403 2.35682 0.551753 2.70384C0.199104 3.05086 0.000682713 3.52133 0 4.01209V23.1487C0.000682713 23.6395 0.199104 24.1099 0.551753 24.457C0.904403 24.804 1.38249 24.9992 1.88122 24.9999H33.1188C33.6175 24.9992 34.0956 24.804 34.4482 24.457C34.8009 24.1099 34.9993 23.6395 35 23.1487V4.01209C34.9993 3.52133 34.8009 3.05086 34.4482 2.70384C34.0956 2.35682 33.6175 2.16157 33.1188 2.1609ZM10.9983 9.71296H5.71076V8.69721H10.9983V9.71296ZM29.2892 9.71296H27.1629V11.8079H26.1307V9.71296H24.0017V8.69721H26.1307V6.60478H27.1629V8.69721H29.2892V9.71296Z" fill="white"/>
</svg>
