<svg width="20" height="20" viewBox="0 0 20 20" fill="none" xmlns="http://www.w3.org/2000/svg">
<path d="M10 3.99999C8.95708 4.00131 7.95723 4.41621 7.21974 5.15369C6.48226 5.89117 6.06736 6.89103 6.06604 7.93399H8.06604C8.06604 6.86699 8.93404 5.99999 10 5.99999C11.066 5.99999 11.934 6.86699 11.934 7.93399C11.934 8.53199 11.453 8.96599 10.718 9.55999C10.4779 9.74809 10.2473 9.948 10.027 10.159C9.02904 11.156 9.00004 12.215 9.00004 12.333V13H11L10.999 12.367C11 12.351 11.032 11.981 11.44 11.574C11.59 11.424 11.779 11.274 11.975 11.116C12.754 10.485 13.933 9.53199 13.933 7.93399C13.9322 6.89104 13.5177 5.89103 12.7803 5.15346C12.0429 4.41589 11.043 4.00105 10 3.99999ZM9.00004 14H11V16H9.00004V14Z" fill="white"/>
<path d="M10 0C4.486 0 0 4.486 0 10C0 15.514 4.486 20 10 20C15.514 20 20 15.514 20 10C20 4.486 15.514 0 10 0ZM10 18C5.589 18 2 14.411 2 10C2 5.589 5.589 2 10 2C14.411 2 18 5.589 18 10C18 14.411 14.411 18 10 18Z" fill="white"/>
</svg>
