<svg width="16" height="16" viewBox="0 0 16 16" fill="none" xmlns="http://www.w3.org/2000/svg">
<path d="M7.78644 0.945801C3.66928 0.945801 0.331421 4.28366 0.331421 8.40082C0.331421 12.518 3.66928 15.8558 7.78644 15.8558C11.9036 15.8558 15.2415 12.518 15.2415 8.40082C15.2415 4.28366 11.9036 0.945801 7.78644 0.945801ZM9.02894 13.3087H6.54394V7.34469H9.02894V13.3087ZM7.78644 5.97794C7.45691 5.97794 7.14087 5.84703 6.90786 5.61402C6.67484 5.381 6.54394 5.06497 6.54394 4.73544C6.54394 4.4059 6.67484 4.08987 6.90786 3.85685C7.14087 3.62384 7.45691 3.49293 7.78644 3.49293C8.11597 3.49293 8.43201 3.62384 8.66502 3.85685C8.89804 4.08987 9.02894 4.4059 9.02894 4.73544C9.02894 5.06497 8.89804 5.381 8.66502 5.61402C8.43201 5.84703 8.11597 5.97794 7.78644 5.97794Z" fill="#00A78E"/>
</svg>
