<svg width="35" height="35" viewBox="0 0 35 35" fill="none" xmlns="http://www.w3.org/2000/svg">
<path d="M17.5 0C14.0388 0 10.6554 1.02636 7.77752 2.94928C4.89966 4.87221 2.65664 7.60533 1.33211 10.803C0.0075771 14.0007 -0.338974 17.5194 0.336267 20.9141C1.01151 24.3088 2.67822 27.427 5.12563 29.8744C7.57305 32.3218 10.6913 33.9885 14.0859 34.6637C17.4806 35.339 20.9992 34.9924 24.197 33.6679C27.3947 32.3434 30.1278 30.1003 32.0507 27.2225C33.9736 24.3446 35 20.9612 35 17.5C34.994 12.8606 33.1483 8.41286 29.8677 5.13228C26.5872 1.85169 22.1395 0.00601688 17.5 0ZM13.1469 29.6821C11.1888 28.9904 9.4273 27.8349 8.013 26.3142C6.59869 24.7936 5.57366 22.953 5.02553 20.95H10.1907C10.9728 20.9508 11.7226 21.2619 12.2755 21.8149C12.8285 22.3679 13.1396 23.1176 13.1404 23.8997L13.1469 29.6821ZM17.5 21.0084C16.8058 21.0091 16.1271 20.8038 15.5496 20.4185C14.9721 20.0333 14.5219 19.4853 14.256 18.8441C13.99 18.2029 13.9203 17.4972 14.0556 16.8163C14.1908 16.1355 14.525 15.51 15.0159 15.0192C15.5068 14.5283 16.1322 14.1941 16.8131 14.0588C17.494 13.9235 18.1997 13.9933 18.8409 14.2592C19.4821 14.5252 20.03 14.9754 20.4153 15.5528C20.8005 16.1303 21.0058 16.8091 21.0052 17.5032C21.0035 18.4324 20.6336 19.3229 19.9767 19.9799C19.3197 20.6369 18.4291 21.0067 17.5 21.0084ZM17.7339 11.3895C16.1724 11.3914 14.6364 11.7857 13.2671 12.5362C12.089 13.1775 10.7687 13.5126 9.42732 13.5108H5.20419C6.0471 10.9098 7.69227 8.64268 9.90362 7.03474C12.115 5.4268 14.7788 4.56069 17.513 4.56069C20.2471 4.56069 22.911 5.4268 25.1224 7.03474C27.3337 8.64268 28.9789 10.9098 29.8218 13.5108H26.0925C24.8794 13.5091 23.6823 13.2337 22.5905 12.7051L21.8173 12.325C20.5448 11.7075 19.1484 11.3875 17.7339 11.3895ZM21.8401 29.6821V23.8899C21.8409 23.1079 22.152 22.3581 22.705 21.8051C23.258 21.2521 24.0077 20.9411 24.7898 20.9402H29.9615C29.4147 22.9451 28.3903 24.7876 26.9759 26.31C25.5616 27.8325 23.7993 28.9895 21.8401 29.6821Z" fill="white"/>
</svg>
