<svg width="12" height="17" viewBox="0 0 12 17" fill="none" xmlns="http://www.w3.org/2000/svg">
<path d="M6.47001 15.9257C8.03571 13.8985 11.5181 8.98529 11.5181 6.22556C11.5181 2.87725 8.93975 0.162994 5.75914 0.162994C2.57973 0.162994 0.000208855 2.87725 0.000208855 6.22556C0.000208855 8.98529 3.50956 13.8985 5.04827 15.9257C5.4172 16.4088 6.10107 16.4088 6.47001 15.9257ZM5.75914 8.24641C4.70033 8.24641 3.83949 7.34019 3.83949 6.22556C3.83949 5.11093 4.70033 4.2047 5.75914 4.2047C6.81794 4.2047 7.67878 5.11093 7.67878 6.22556C7.67878 7.34019 6.81794 8.24641 5.75914 8.24641Z" fill="#00A58D"/>
</svg>
