<svg width="12" height="13" viewBox="0 0 12 13" fill="none" xmlns="http://www.w3.org/2000/svg">
<path fill-rule="evenodd" clip-rule="evenodd" d="M6.14747 1.69974C3.36853 1.69974 1.11576 3.95252 1.11576 6.73145C1.11576 9.51039 3.36853 11.7632 6.14747 11.7632C8.92641 11.7632 11.1792 9.51039 11.1792 6.73145C11.1792 3.95252 8.92641 1.69974 6.14747 1.69974ZM0.299805 6.73145C0.299805 3.50188 2.91789 0.883789 6.14747 0.883789C9.37704 0.883789 11.9951 3.50188 11.9951 6.73145C11.9951 9.96103 9.37704 12.5791 6.14747 12.5791C2.91789 12.5791 0.299805 9.96103 0.299805 6.73145Z" fill="#00A58D"/>
<path fill-rule="evenodd" clip-rule="evenodd" d="M6.14723 3.05969C6.37255 3.05969 6.55521 3.24235 6.55521 3.46767V6.81238L8.04032 8.04997C8.21342 8.19422 8.2368 8.45147 8.09256 8.62457C7.94831 8.79766 7.69106 8.82105 7.51796 8.6768L5.88605 7.31688C5.79304 7.23937 5.73926 7.12454 5.73926 7.00347V3.46767C5.73926 3.24235 5.92192 3.05969 6.14723 3.05969Z" fill="#00A58D"/>
</svg>
