<svg width="33" height="11" viewBox="0 0 33 11" fill="none" xmlns="http://www.w3.org/2000/svg">
<path d="M17.2959 3.46061C17.2777 4.89328 18.5727 5.69272 19.5481 6.16809C20.5504 6.65576 20.887 6.96852 20.883 7.40469C20.8756 8.07214 20.0836 8.36674 19.3425 8.37818C18.0495 8.39821 17.2977 8.02909 16.7001 7.74992L16.2343 9.92942C16.8339 10.2057 17.9443 10.4467 19.0957 10.4573C21.7984 10.4573 23.5666 9.12313 23.5762 7.05461C23.5868 4.42937 19.945 4.28406 19.9699 3.11065C19.9785 2.75485 20.318 2.37516 21.0619 2.27862C21.4302 2.22985 22.4467 2.19253 23.5992 2.72325L24.0515 0.614544C23.4318 0.388869 22.6352 0.172773 21.6434 0.172773C19.0995 0.172773 17.3103 1.52508 17.2959 3.46061ZM28.3981 0.354408C27.9046 0.354408 27.4887 0.642286 27.3031 1.08406L23.4423 10.3024H26.1431L26.6805 8.81709H29.9808L30.2926 10.3024H32.673L30.5957 0.354408H28.3981ZM28.7759 3.04173L29.5553 6.77731H27.4207L28.7759 3.04173ZM14.0213 0.354532L11.8925 10.3023H14.4661L16.594 0.354283H14.0213V0.354532ZM10.2141 0.354283L7.53536 7.1254L6.45177 1.3682C6.32463 0.725515 5.82252 0.354408 5.26493 0.354408H0.88604L0.824707 0.643282C1.72367 0.838352 2.74506 1.15298 3.36386 1.48962C3.74256 1.69527 3.85054 1.87504 3.97495 2.36371L6.0273 10.3024H8.74696L12.9166 0.354408H10.2141" fill="url(#paint0_linear_1319_984)"/>
<defs>
<linearGradient id="paint0_linear_1319_984" x1="15.4666" y1="10.6636" x2="15.7643" y2="0.101248" gradientUnits="userSpaceOnUse">
<stop stop-color="#222357"/>
<stop offset="1" stop-color="#254AA5"/>
</linearGradient>
</defs>
</svg>
