<svg width="22" height="22" viewBox="0 0 22 22" fill="none" xmlns="http://www.w3.org/2000/svg">
<path fill-rule="evenodd" clip-rule="evenodd" d="M0.317261 9.95679C0.317261 7.88572 1.99619 6.20679 4.06726 6.20679H18.0673C20.1383 6.20679 21.8173 7.88572 21.8173 9.95679V17.9568C21.8173 20.0279 20.1383 21.7068 18.0673 21.7068H4.06726C1.99619 21.7068 0.317261 20.0279 0.317261 17.9568V9.95679ZM4.06726 7.70679C2.82462 7.70679 1.81726 8.71415 1.81726 9.95679V17.9568C1.81726 19.1994 2.82462 20.2068 4.06726 20.2068H18.0673C19.3099 20.2068 20.3173 19.1994 20.3173 17.9568V9.95679C20.3173 8.71415 19.3099 7.70679 18.0673 7.70679H4.06726Z" fill="#00A78E"/>
<path fill-rule="evenodd" clip-rule="evenodd" d="M17.3173 2.45273C17.3173 2.2746 17.1363 2.15362 16.9717 2.22173L7.34131 6.20671H17.3173V2.45273ZM16.3982 0.835701C17.5503 0.358938 18.8173 1.20581 18.8173 2.45273V6.85671C18.8173 7.32615 18.4367 7.70671 17.9673 7.70671H4.07047C3.1402 7.70671 2.88589 6.42698 3.74547 6.07129L16.3982 0.835701Z" fill="#00A78E"/>
<path fill-rule="evenodd" clip-rule="evenodd" d="M1.31726 11.9568C1.31726 11.5426 1.65305 11.2068 2.06726 11.2068H20.0673C20.4815 11.2068 20.8173 11.5426 20.8173 11.9568C20.8173 12.371 20.4815 12.7068 20.0673 12.7068H2.06726C1.65305 12.7068 1.31726 12.371 1.31726 11.9568Z" fill="#00A78E"/>
<path fill-rule="evenodd" clip-rule="evenodd" d="M3.31726 16.9568C3.31726 16.5426 3.65305 16.2068 4.06726 16.2068H10.0673C10.4815 16.2068 10.8173 16.5426 10.8173 16.9568C10.8173 17.371 10.4815 17.7068 10.0673 17.7068H4.06726C3.65305 17.7068 3.31726 17.371 3.31726 16.9568Z" fill="#00A78E"/>
</svg>
