<svg width="42" height="43" viewBox="0 0 42 43" fill="none" xmlns="http://www.w3.org/2000/svg">
<g clip-path="url(#clip0_1466_2707)">
<path d="M35.2332 6.62981C31.3788 2.69625 26.2535 0.528719 20.7929 0.526367C9.54028 0.526367 0.382969 9.86213 0.378356 21.3372C0.377038 25.0053 1.31685 28.5857 3.10308 31.7419L0.207031 42.5264L11.029 39.6326C14.0107 41.2909 17.3677 42.1647 20.7841 42.1662H20.7929C32.0436 42.1662 41.2023 32.8287 41.207 21.3542C41.2088 15.7929 39.0872 10.5637 35.2332 6.62997V6.62981ZM20.7927 38.6509H20.7861C17.741 38.6493 14.7548 37.8155 12.1502 36.2393L11.5303 35.8645L5.1084 37.5816L6.82297 31.1985L6.41904 30.5441C4.72045 27.7897 3.8238 24.6068 3.82495 21.3384C3.82874 11.8007 11.4398 4.04143 20.7991 4.04143C25.3313 4.04328 29.5912 5.84491 32.7948 9.11453C35.9983 12.384 37.7613 16.7303 37.7599 21.3527C37.756 30.8907 30.1446 38.6511 20.7927 38.6511V38.6509Z" fill="#E0E0E0"/>
<path d="M1.14429 41.5665L3.90822 31.2748C2.20304 28.2628 1.30639 24.8455 1.30754 21.3457C1.31182 10.3951 10.0509 1.48608 20.7885 1.48608C26.0001 1.48844 30.8912 3.55685 34.5689 7.31081C38.2473 11.0648 40.2719 16.0545 40.2698 21.3613C40.2653 32.3122 31.5256 41.2221 20.7893 41.2221C20.7885 41.2221 20.7898 41.2221 20.7893 41.2221H20.7806C17.5203 41.2211 14.3169 40.3865 11.4715 38.8049L1.14429 41.5665Z" fill="url(#paint0_linear_1466_2707)"/>
<path fill-rule="evenodd" clip-rule="evenodd" d="M15.7482 12.502C15.3704 11.6457 14.9729 11.6285 14.6135 11.6134C14.3196 11.6005 13.9832 11.6013 13.6471 11.6013C13.3111 11.6013 12.7647 11.7302 12.3026 12.2448C11.8403 12.7594 10.5376 14.0032 10.5376 16.5331C10.5376 19.063 12.3446 21.508 12.5965 21.8513C12.8487 22.1942 16.0847 27.5518 21.2098 29.6129C25.4692 31.3259 26.3359 30.9852 27.2605 30.8995C28.1852 30.8138 30.2437 29.6558 30.664 28.4551C31.0842 27.2546 31.0842 26.2256 30.9582 26.0104C30.8322 25.7962 30.4959 25.6675 29.9917 25.4104C29.4874 25.1534 27.0085 23.9092 26.5463 23.7376C26.084 23.5661 25.7478 23.4804 25.4116 23.9954C25.0753 24.5096 24.1097 25.6676 23.8154 26.0104C23.5212 26.3539 23.2272 26.3969 22.7227 26.1397C22.2185 25.8818 20.5945 25.3394 18.6679 23.5876C17.169 22.2248 16.1571 20.5416 15.8628 20.0269C15.5686 19.5126 15.8314 19.2341 16.0842 18.9777C16.3106 18.7474 16.5885 18.3774 16.8407 18.0772C17.0923 17.777 17.1764 17.5626 17.3445 17.2198C17.5125 16.8764 17.4285 16.5761 17.3025 16.3189C17.1764 16.0617 16.1964 13.5189 15.7482 12.5021V12.502Z" fill="white"/>
<path d="M35.0665 6.56341C31.2563 2.67505 26.1897 0.532549 20.7918 0.530029C9.66839 0.530029 0.616179 9.75877 0.611731 21.102C0.610413 24.7279 1.53936 28.2673 3.30515 31.3873L0.442383 42.0479L11.1401 39.1872C14.0876 40.8263 17.4062 41.6902 20.7832 41.6915H20.792C31.9136 41.6915 40.9671 32.4613 40.9717 21.1184C40.9735 15.621 38.8763 10.4519 35.0666 6.56324L35.0665 6.56341ZM20.7918 38.217H20.7852C17.775 38.2153 14.8231 37.3912 12.2483 35.833L11.6355 35.4626L5.28725 37.1601L6.98205 30.8503L6.58289 30.2035C4.90375 27.4808 4.01731 24.3343 4.01862 21.1035C4.02225 11.6753 11.5462 4.00511 20.7979 4.00511C25.2782 4.00696 29.489 5.78792 32.6561 9.01991C35.8228 12.2519 37.5655 16.5482 37.5642 21.1176C37.5602 30.5461 30.0361 38.2173 20.7916 38.2173L20.7918 38.217Z" fill="white"/>
</g>
<defs>
<linearGradient id="paint0_linear_1466_2707" x1="20.6929" y1="41.5782" x2="20.6929" y2="1.51322" gradientUnits="userSpaceOnUse">
<stop stop-color="#20B038"/>
<stop offset="1" stop-color="#60D66A"/>
</linearGradient>
<clipPath id="clip0_1466_2707">
<rect width="41" height="42" fill="white" transform="translate(0.207031 0.526367)"/>
</clipPath>
</defs>
</svg>
