<svg width="310" height="304" viewBox="0 0 310 304" fill="none" xmlns="http://www.w3.org/2000/svg">
<path d="M215.418 264.362C215.418 264.362 198.64 230.563 194.409 211.864C190.178 193.165 185.947 179.305 191.661 186.649C197.375 193.992 211.6 223.122 218.627 237.931C222.944 247.032 227.816 255.859 233.217 264.362H215.418Z" fill="#9CD8CE"/>
<path d="M238.493 264.361C237.192 243.112 234.364 221.984 230.031 201.14C223.369 168.703 214.785 147.645 211.065 151.414C207.345 155.183 213.302 188.01 218.579 216.727C221.383 232.791 225.208 248.661 230.031 264.24L238.493 264.361Z" fill="#9CD8CE"/>
<path d="M245.471 264.361C245.714 264.361 248.145 212.982 245.471 182.101C242.796 151.22 242.48 136.168 237.252 136.509C233.094 136.776 229.617 169.967 232.024 197.979C234.431 225.991 238.492 264.434 238.492 264.434L245.471 264.361Z" fill="#9CD8CE"/>
<path d="M245.471 264.362C245.471 264.362 259.137 196.593 267.988 198.271C276.839 199.949 259.137 264.362 259.137 264.362H245.471Z" fill="#9CD8CE"/>
<path d="M266.651 264.362C267.891 263.414 282.335 227.134 288.803 207.755C295.271 188.375 295.781 182.685 293.058 182.126C290.335 181.567 272.438 208.873 264.414 234.551C256.39 260.228 255.174 264.362 255.174 264.362H266.651Z" fill="#9CD8CE"/>
<path d="M246.711 265.797C246.954 265.797 259.209 210.405 263.416 186.041C267.622 161.676 270.711 146.673 267.087 146.138C263.464 145.603 250.066 179.548 245.203 209.165C240.34 238.782 235.258 265.772 236.668 265.772L246.711 265.797Z" fill="#9CD8CE"/>
<path d="M230.03 264.362C229.204 261.736 215.076 189.785 208.584 190.32C202.091 190.855 220.62 264.362 220.62 264.362H230.03Z" fill="#9CD8CE"/>
<path d="M0.17334 257.626H309.811C309.811 257.626 301.32 271.062 285.86 285.274C263.276 306.035 154.331 305.18 118.657 301.976C82.9835 298.772 35.685 288.101 19.6017 277.736C3.51837 267.37 0.17334 257.626 0.17334 257.626Z" fill="#F6EDC4"/>
<path d="M211.503 182.174C209.62 182.594 207.711 182.886 205.789 183.049C201.291 183.536 194.823 184.046 187.893 184.387C180.963 184.727 174.276 184.922 168.246 184.849H166.665C161.072 184.703 156.768 184.484 153.51 184.241L150.179 183.949C146.459 183.584 145 183.293 145 183.293C144.173 179.499 151.832 132.667 154.264 124.351C156.696 116.035 165.449 104.047 165.449 104.047C165.449 102.783 165.644 101.373 165.79 99.8407C166.179 96.1447 166.738 91.8408 167.297 87.853C168.246 81.1661 169.194 75.4519 169.194 75.4519C185.096 75.9139 192.27 73.9929 192.294 73.9929C192.318 73.9929 193.023 75.5491 193.899 77.5674C195.188 80.6068 196.768 84.6676 196.452 85.932C195.639 87.8185 194.467 89.5283 192.999 90.9654L192.294 91.7192C192.561 95.1963 196.89 124.862 200.245 136.46C203.601 148.059 211.503 182.174 211.503 182.174Z" fill="#A6DDEB"/>
<path d="M196.45 86.0053C195.638 87.8918 194.465 89.6016 192.997 91.0387C188.474 92.4733 187.818 91.1602 187.818 91.1602C194.164 89.3609 194.018 79.7318 193.897 77.6406C195.186 80.5585 196.766 84.6193 196.45 86.0053Z" fill="#66C8CE"/>
<path d="M176.197 91.0383C176.197 91.0383 172.671 95.3665 168.245 93.4699C168.162 98.049 167.748 102.616 167.005 107.135C161.268 119.504 157.228 132.591 154.993 146.041C152.051 162.94 150.689 177.433 150.13 183.925C146.41 183.56 144.951 183.268 144.951 183.268C144.124 179.475 151.784 132.643 154.215 124.327C156.647 116.011 165.4 104.023 165.4 104.023C165.4 102.759 165.595 101.348 165.741 99.8163C166.13 96.1203 166.689 91.8164 167.248 87.8286C168.387 89.0232 169.789 89.9354 171.343 90.4926C172.896 91.0498 174.558 91.2367 176.197 91.0383Z" fill="#66C8CE"/>
<path d="M156.791 119.245C156.791 119.245 156.037 122.211 154.992 122.503C153.946 122.795 148.378 117.251 141.424 110.199C136.558 105.073 132.088 99.5863 128.05 93.7861C129.63 88.2177 143.515 71.5857 143.515 71.5857C145.894 72.9403 148.004 74.7206 149.74 76.8379C150.314 77.5374 150.85 78.2679 151.344 79.0263C152.329 80.4054 153.069 81.9435 153.533 83.5734C150.532 87.0778 147.072 90.1613 143.247 92.7404C143.247 92.7404 148.11 101.275 150.858 106.333C150.98 106.527 151.077 106.722 151.174 106.917C153.27 110.92 155.145 115.036 156.791 119.245Z" fill="#F1B5AB"/>
<path d="M192.293 73.8472C190.914 74.1727 189.518 74.4162 188.11 74.5766L187.284 74.6983C182.375 75.2314 177.437 75.4587 172.5 75.3791H171.649H169.217C169.217 75.3791 168.269 81.1419 167.32 87.8774C166.81 91.3789 166.323 95.1722 165.959 98.5521L165.813 99.7679C165.813 99.5004 165.691 99.2329 165.618 98.9412C163.77 91.0385 160.244 76.1815 160.244 76.1815C158.155 78.7372 155.922 81.1727 153.558 83.4762C153.558 83.4762 152.779 81.6769 151.661 79.683C151.095 78.6614 150.461 77.6785 149.764 76.7408C147.915 74.7376 145.714 73.0895 143.272 71.8776C144.001 70.9779 153.752 57.8474 158.445 55.0024C160.762 53.6463 163.157 52.4283 165.618 51.355L166.396 51.0146C168.6 49.9893 170.896 49.1751 173.253 48.583C173.253 48.583 177.533 48.8992 179.648 49.3369C180.426 49.4773 181.19 49.6806 181.934 49.9448L182.882 50.3338C184.358 50.933 185.602 51.9899 186.433 53.349C187.964 55.9994 189.034 56.3884 189.205 60.0844C189.886 64.7431 190.919 69.3438 192.293 73.8472Z" fill="#7DBA47"/>
<path d="M172.499 75.4762C172.498 75.5699 172.466 75.6606 172.409 75.735C172.353 75.8094 172.273 75.8636 172.183 75.8896C172.089 75.8922 171.996 75.8623 171.921 75.8047C171.845 75.7472 171.792 75.6655 171.77 75.5734L165.715 51.5008L166.493 51.1604L172.621 75.4762H172.499Z" fill="#90D6E9"/>
<path d="M193.874 41.264C191.029 44.2306 185.436 45.0816 180.549 43.6956C180.111 43.5497 179.649 43.4038 179.211 43.2093L178.506 42.9175C175.511 41.3739 172.939 39.1197 171.017 36.3522C170.36 35.4282 169.996 34.8203 169.996 34.8203C169.098 34.781 168.241 34.438 167.564 33.8476C164.792 31.4161 164.743 25.3128 166.932 24.2915C169.679 23.0271 170.093 26.407 170.093 26.407C170.774 23.389 172.002 20.5212 173.716 17.9451C173.931 17.6608 174.167 17.3926 174.421 17.1427C176.731 14.7111 180.378 11.4042 181.716 10.1154L182.299 9.55615C190.421 11.3555 193.241 10.1884 193.241 10.1884C193.241 10.1884 193.363 10.5045 193.533 11.0151C193.703 11.5257 193.703 11.5258 193.801 11.8662C194.822 14.8327 196.889 21.0575 197.983 24.7292C198.529 27.6187 198.444 30.5918 197.735 33.4455C197.026 36.2992 195.708 38.9662 193.874 41.264Z" fill="#F1B5AB"/>
<path d="M166.251 211.743C165.741 224.995 166.251 263.705 166.251 263.705H163.82C163.504 263.705 150.568 220.691 150.033 210.381C149.909 203.824 151.905 197.403 155.723 192.071L153.607 184.193L156.914 184.411C159.637 184.557 162.896 184.703 166.762 184.801H168.343C167.881 188.472 166.689 200.63 166.251 211.743Z" fill="#00A58D"/>
<path d="M222.565 260.885L219.623 261.493C219.623 261.493 209.095 243.912 203.21 235.499C197.326 227.086 191.417 216.557 190.469 208.752C190.08 202.646 190.546 196.516 191.855 190.539L188.013 184.339C189.763 184.339 191.49 184.168 193.168 184.047C198.031 183.731 202.554 183.366 205.909 183.001C206.493 186.867 208.584 200.557 210.456 211.913C212.547 225.335 222.565 260.885 222.565 260.885Z" fill="#00A58D"/>
<path d="M165.327 119.682C164.573 120.096 161.412 117.761 159.102 118.515C159.102 118.515 163.309 120.728 162.774 121.968C162.239 123.208 158.762 121.457 157.91 120.947C158.64 121.579 160.707 124.278 160.22 124.91C159.734 125.542 156.33 122.479 156.33 122.479C156.33 122.479 157.716 125.299 156.865 126.15C156.014 127.001 154.968 122.479 154.968 122.479C155.475 121.344 156.077 120.254 156.768 119.22C157.959 117.591 159.491 114.916 161.29 115.646C163.09 116.375 166.081 119.245 165.327 119.682Z" fill="#F1B5AB"/>
<path d="M213.812 93.8832C213.326 98.5275 211.527 100.594 208.949 101.178C207.505 101.392 206.032 101.31 204.621 100.935C199.758 99.7677 197.788 93.2511 196.11 87.0262C194.433 80.8014 190.323 67.768 189.594 62.9535C189.156 60.3763 189.009 57.7581 189.156 55.1481C188.423 55.0617 187.731 54.7663 187.162 54.2971C187.149 54.2664 187.142 54.2333 187.142 54.1998C187.142 54.1664 187.149 54.1332 187.162 54.1026C187.162 53.6892 188.013 53.2272 188.791 52.8868C187.551 53.3245 185.703 53.8594 185.29 53.373C184.876 52.8867 188.135 49.8473 188.329 49.6771C188.11 49.6771 184.098 51.4521 183.612 50.9415C183.126 50.4308 187.186 47.902 187.673 47.6102C187.138 47.829 182.566 49.75 182.104 48.9476C181.642 48.1452 186.603 45.0327 188.232 44.4248C188.777 44.2919 189.348 44.31 189.883 44.4771C190.419 44.6441 190.899 44.954 191.271 45.3732C191.271 45.3732 193.703 44.9598 193.484 46.7349C194.095 47.0649 194.587 47.5774 194.892 48.2008C195.197 48.8242 195.3 49.5273 195.186 50.212C194.828 51.8831 194.299 53.5128 193.606 55.0752C193.8 55.3913 202.967 69.6647 206.858 75.2816C210.748 80.8986 214.566 87.0505 213.812 93.8832Z" fill="#F1B5AB"/>
<path d="M219.502 261.517L220.67 264.775H234.87C234.87 264.775 227.916 257.407 219.502 261.517Z" fill="#D24C27"/>
<path d="M180.596 43.6225L180.426 46.0541L180.037 52.0114C177.727 53.1786 173.301 50.2364 173.301 49.1665C173.301 48.6802 172.839 45.9811 172.328 43.1362C171.721 39.732 171.064 36.1819 171.064 36.1819C172.986 38.9494 175.558 41.2035 178.553 42.7471C179.213 43.0858 179.896 43.3784 180.596 43.6225Z" fill="#F1B5AB"/>
<path d="M199.392 7.17328V7.34351C199.392 9.41036 196.377 10.7478 193.581 10.9423C193.41 10.4317 193.289 10.1156 193.289 10.1156C193.289 10.1156 190.468 11.2827 182.347 9.48332C182.347 9.48332 177.313 14.0304 174.371 17.0698C172.736 19.0043 171.519 21.2561 170.797 23.6838C170.286 25.2157 170.043 26.3342 170.043 26.3342C170.043 26.3342 169.678 23.392 167.417 24.0242L166.882 24.2187C165.763 24.7293 165.228 26.6503 165.35 28.5469C165.405 30.1049 165.884 31.6183 166.736 32.9238C166.976 33.2243 167.236 33.5086 167.514 33.7748C167.103 34.557 166.753 35.37 166.468 36.2064C164.475 41.9449 170.675 46.7838 173.933 49.8233C175.498 51.3857 176.629 53.3277 177.217 55.4589C177.806 57.5902 177.83 59.8376 177.289 61.9812C176.779 63.3713 175.821 64.5519 174.566 65.3368C172.933 66.443 171.061 67.1455 169.103 67.3865C167.146 67.6275 165.16 67.4 163.307 66.7228C166.566 64.2912 164.474 58.504 159.83 55.8779C155.186 53.2518 153.095 51.2336 152.997 44.1577C152.9 37.0818 161.313 31.3676 161.313 31.3676L163.575 26.9664L164.693 24.8023C164.11 22.0789 162.675 15.2218 165.228 9.62921C167.781 4.03656 175.222 0.291947 185.094 1.21595C194.967 2.13995 199.392 4.76602 199.392 7.17328Z" fill="#721813"/>
<path d="M170.798 23.6836C170.287 25.2155 170.044 26.3341 170.044 26.3341C170.044 26.3341 169.631 22.9542 166.883 24.2186C164.913 25.1426 164.743 30.1517 166.737 32.9237C164.646 31.6836 162.287 29.6167 163.576 26.9906C164.224 25.7 165.293 24.6689 166.606 24.0677C167.919 23.4664 169.397 23.3309 170.798 23.6836Z" fill="#983222"/>
<path d="M188.11 74.6494C188.12 74.7006 188.12 74.7533 188.11 74.8046C188.1 74.8558 188.079 74.9044 188.05 74.9475C188.02 74.9907 187.982 75.0274 187.938 75.0555C187.894 75.0837 187.845 75.1027 187.794 75.1114C187.698 75.119 187.603 75.091 187.526 75.0327C187.45 74.9743 187.398 74.8898 187.38 74.7953L182.006 49.9932L182.955 50.3822L188.11 74.6494Z" fill="#90D6E9"/>
<path d="M143.248 92.74C143.248 92.74 148.111 101.275 150.859 106.333C147.743 102.114 144.415 98.0566 140.889 94.1746C143.856 91.9862 149.254 82.7949 151.345 79.0989C152.33 80.4779 153.07 82.016 153.533 83.6459C150.528 87.1246 147.068 90.1834 143.248 92.74Z" fill="#F5948D"/>
<path d="M165.327 119.682C164.573 120.096 161.412 117.761 159.102 118.515C159.102 118.515 163.309 120.728 162.774 121.968C162.239 123.208 158.762 121.457 157.91 120.947C158.64 121.579 160.707 124.278 160.22 124.91C159.734 125.542 156.33 122.479 156.33 122.479C156.33 122.479 157.716 125.299 156.865 126.15C156.014 127.001 154.968 122.479 154.968 122.479C155.475 121.344 156.077 120.254 156.768 119.22C157.959 117.591 159.491 114.916 161.29 115.646C163.09 116.375 166.081 119.245 165.327 119.682Z" fill="#F5948D"/>
<path d="M208.877 101.081C207.432 101.295 205.96 101.212 204.548 100.837C199.685 99.6703 197.716 93.1536 196.038 86.9288C194.36 80.7039 190.251 67.6706 189.521 62.8561C189.084 60.2789 188.937 57.6606 189.084 55.0507C188.351 54.9643 187.659 54.6689 187.09 54.1997C187.076 54.169 187.069 54.1359 187.069 54.1024C187.069 54.0689 187.076 54.0358 187.09 54.0051C187.876 54.2335 188.707 54.2596 189.506 54.0811C190.305 53.9026 191.047 53.5252 191.661 52.9839C190.944 56.6451 190.944 60.4107 191.661 64.0719C193.672 71.9905 196.957 79.5294 201.387 86.3938C204.296 91.0679 206.802 95.9813 208.877 101.081Z" fill="#F5948D"/>
<path d="M180.596 43.6225L180.426 46.0541C177.48 45.9931 174.636 44.9681 172.328 43.1362C171.721 39.732 171.064 36.1819 171.064 36.1819C172.986 38.9494 175.558 41.2035 178.553 42.7471C179.213 43.0858 179.896 43.3784 180.596 43.6225Z" fill="#F5948D"/>
<path d="M179.283 43.1362L178.578 42.8444C175.582 41.3008 173.011 39.0466 171.089 36.2791C170.432 35.3551 170.067 34.7473 170.067 34.7473C169.17 34.7079 168.313 34.3649 167.636 33.7746C164.864 31.343 164.815 25.2397 167.004 24.2185C169.751 22.954 170.165 26.3339 170.165 26.3339C170.846 23.3159 172.074 20.4481 173.788 17.8721C172.039 22.5405 171.767 27.6336 173.01 32.4616C174.054 36.5397 176.228 40.2399 179.283 43.1362Z" fill="#F5948D"/>
<path d="M193.873 11.7932C189.747 11.974 185.623 11.3802 181.715 10.0424L182.299 9.48315C190.42 11.2825 193.241 10.1154 193.241 10.1154C193.241 10.1154 193.363 10.4315 193.533 10.9421C193.703 11.4528 193.873 11.4528 193.873 11.7932Z" fill="#F5948D"/>
<path d="M138.094 95.3422C137.988 95.3424 137.886 95.3022 137.81 95.2299C137.733 95.1575 137.686 95.0585 137.68 94.9532C137.673 94.8446 137.706 94.7372 137.773 94.6517C137.841 94.5663 137.938 94.509 138.045 94.4912C140.269 94.0137 142.351 93.0228 144.124 91.5976C144.201 91.5203 144.306 91.4771 144.416 91.4771C144.525 91.4771 144.63 91.5203 144.707 91.5976C144.785 91.675 144.828 91.78 144.828 91.8894C144.828 91.9988 144.785 92.1037 144.707 92.1812C142.81 93.7113 140.577 94.7696 138.191 95.2693L138.094 95.3422Z" fill="#983222"/>
<path d="M186.968 32.0972H186.287C186.229 32.0972 186.173 32.0742 186.132 32.0332C186.091 31.9921 186.068 31.9364 186.068 31.8784C186.079 31.8266 186.106 31.7796 186.145 31.7445C186.185 31.7094 186.235 31.6881 186.287 31.6839C187.829 31.9199 189.405 31.6558 190.786 30.9301C189.612 28.0963 188.653 25.1783 187.916 22.2007C187.916 22.173 187.922 22.1456 187.933 22.1202C187.944 22.0949 187.961 22.0722 187.982 22.0538C188.002 22.0354 188.027 22.0216 188.053 22.0134C188.08 22.0052 188.108 22.0027 188.135 22.0062C188.185 22.0114 188.231 22.0337 188.267 22.0691C188.302 22.1045 188.324 22.1509 188.33 22.2007C189.087 25.1594 190.054 28.0602 191.223 30.8814C191.247 30.9174 191.26 30.9598 191.26 31.0031C191.26 31.0463 191.247 31.0886 191.223 31.1246C191.223 31.1246 190.299 32.0972 186.968 32.0972Z" fill="#983222"/>
<path d="M173.934 20.5222C174.776 19.1591 175.979 18.0564 177.411 17.3369C179.075 16.8133 180.868 16.8733 182.493 17.507C182.493 17.507 181.909 17.7016 178.092 18.6256C174.274 19.5496 173.934 20.5222 173.934 20.5222Z" fill="#721813"/>
<path d="M188.013 18.0908C188.662 17.4942 189.433 17.046 190.273 16.7772C191.113 16.5085 192.001 16.4257 192.876 16.5345C195.599 16.9965 195.94 18.7959 195.94 18.7959C194.812 18.2793 193.602 17.9665 192.365 17.8719C191.101 17.7747 189.934 18.1394 188.013 18.0908Z" fill="#721813"/>
<path d="M168.609 32.0966C168.553 32.0852 168.503 32.0547 168.467 32.0103C168.432 31.9659 168.413 31.9104 168.414 31.8535C168.373 29.8883 167.837 27.965 166.858 26.2608C166.837 26.2426 166.821 26.2202 166.809 26.195C166.798 26.1699 166.792 26.1425 166.792 26.1149C166.792 26.0873 166.798 26.0601 166.809 26.0349C166.821 26.0098 166.837 25.9873 166.858 25.9691C166.894 25.9348 166.942 25.9158 166.992 25.9158C167.041 25.9158 167.089 25.9348 167.125 25.9691C168.172 27.7459 168.734 29.7668 168.755 31.8292C168.766 31.8562 168.771 31.8853 168.77 31.9146C168.768 31.9438 168.76 31.9724 168.746 31.9981C168.732 32.0239 168.712 32.0461 168.689 32.0631C168.665 32.0802 168.637 32.0916 168.609 32.0966Z" fill="#983222"/>
<path d="M167.806 30.2971C167.608 30.3184 167.408 30.2814 167.231 30.1907C167.054 30.1 166.907 29.9595 166.809 29.7865C166.493 29.0327 167.562 28.0601 167.684 27.9628C167.702 27.9329 167.727 27.9077 167.756 27.8893C167.786 27.8709 167.819 27.8598 167.854 27.8569C167.889 27.8541 167.924 27.8596 167.956 27.873C167.988 27.8863 168.016 27.9071 168.039 27.9337C168.061 27.9603 168.077 27.9919 168.085 28.0258C168.093 28.0598 168.093 28.0951 168.084 28.1288C168.075 28.1626 168.059 28.1938 168.036 28.2199C168.013 28.246 167.984 28.2663 167.951 28.2789C167.708 28.4978 167.027 29.2272 167.198 29.6163C167.368 30.0053 168.146 29.8595 168.413 29.7865C168.468 29.7713 168.527 29.7781 168.577 29.8053C168.627 29.8325 168.664 29.8781 168.681 29.9324C168.696 29.9872 168.689 30.0457 168.662 30.0957C168.635 30.1456 168.589 30.1829 168.535 30.1998C168.296 30.2574 168.051 30.2901 167.806 30.2971Z" fill="#983222"/>
<path d="M180.257 23.1728C180.257 24.3399 179.843 25.3126 179.308 25.3126C178.773 25.3126 178.384 24.3399 178.384 23.1728C178.384 22.0056 178.798 21.033 179.308 21.033C179.819 21.033 180.257 21.9813 180.257 23.1728Z" fill="#1E1724"/>
<path d="M192.293 22.7836C192.293 24.2182 191.856 25.3611 191.345 25.3611C190.834 25.3611 190.421 24.2182 190.421 22.7836C190.421 21.349 190.834 20.2305 191.345 20.2305C191.856 20.2305 192.293 21.3247 192.293 22.7836Z" fill="#1E1724"/>
<path d="M167.296 87.9019C166.785 91.4034 166.299 95.1967 165.934 98.5766L165.594 98.9656C163.746 91.063 160.22 76.206 160.22 76.206C158.131 78.7618 155.898 81.1972 153.533 83.5008C153.533 83.5008 152.755 81.7014 151.637 79.7075C154.311 77.5434 160.342 72.4128 161.363 68.1089C161.314 68.1818 161.776 81.5069 167.296 87.9019Z" fill="#648446"/>
<path d="M173.935 49.8957C175.499 51.4582 176.631 53.4002 177.219 55.5314C177.807 57.6626 177.832 59.91 177.29 62.0537C177.346 59.8394 176.795 57.6522 175.698 55.728C174.601 53.8039 172.999 52.2161 171.066 51.1359C163.625 47.5858 160.391 36.6923 164.476 30.1513C164.768 29.6407 165.084 29.13 165.351 28.6194C165.406 30.1773 165.885 31.6908 166.737 32.9963C166.978 33.2968 167.238 33.581 167.515 33.8473C167.104 34.6294 166.755 35.4424 166.47 36.2789C164.476 42.0174 170.676 46.8563 173.935 49.8957Z" fill="#661513"/>
<path d="M199.393 7.34317C199.393 9.41002 196.378 10.7474 193.581 10.9419C193.411 10.4313 193.29 10.1152 193.29 10.1152C193.29 10.1152 190.469 11.2823 182.347 9.48298C182.347 9.48298 177.314 14.03 174.372 17.0695C172.737 19.004 171.52 21.2558 170.797 23.6834C170.287 25.2153 170.044 26.3338 170.044 26.3338C170.044 26.3338 169.679 23.3917 167.417 24.0239C169.265 19.4039 170.651 14.9541 174.566 11.866C177.939 8.99104 182.011 7.05853 186.371 6.26429C190.731 5.47004 195.223 5.84224 199.393 7.34317Z" fill="#661513"/>
<path d="M205.228 230.685C211.113 242.235 216.754 255.389 219.623 261.493C219.623 261.493 209.095 243.912 203.21 235.499C197.326 227.086 191.417 216.557 190.469 208.752C190.08 202.646 190.546 196.516 191.855 190.539L188.013 184.339C189.763 184.339 191.49 184.168 193.168 184.047L194.675 190.855C192.244 199.317 197.301 215.122 205.228 230.685Z" fill="#1C7263"/>
<path d="M164.695 263.705H163.82C163.504 263.705 150.568 220.691 150.033 210.381C149.909 203.824 151.905 197.403 155.723 192.071L153.607 184.193L156.914 184.411C156.914 188.326 156.914 194.916 156.914 194.916C156.914 194.916 153.024 199.779 155.115 216.8C156.865 231.9 163.139 257.821 164.695 263.705Z" fill="#1C7263"/>
<path d="M95.248 261.614C95.317 261.446 95.3983 261.284 95.4912 261.128C95.4002 261.285 95.3189 261.447 95.248 261.614Z" fill="#B75349"/>
<path d="M95.2476 261.614C95.3018 261.44 95.3667 261.27 95.4421 261.104C96.2202 259.304 97.8738 257.554 98.8464 257.991C100.719 258.745 97.5333 265.578 95.5637 264.338C95.3378 264.159 95.1619 263.924 95.0531 263.657C94.9079 262.972 94.9758 262.259 95.2476 261.614Z" fill="#1DA8B7"/>
<path d="M55.8316 250.137L55.6128 253.858H55.8559H56.2207C59.9653 253.59 73.6551 256.557 83.9407 258.964C89.12 260.155 93.4239 261.225 95.199 261.663C95.2679 261.495 95.3491 261.332 95.4421 261.176C96.2202 259.377 97.8737 257.626 98.8463 258.064C96.056 256.897 93.2073 255.874 90.3115 255C79.1495 251.558 67.5103 249.916 55.8316 250.137Z" fill="#A6D6B4"/>
<path d="M95.0537 263.657C95.1626 263.924 95.3385 264.158 95.5644 264.338C95.3177 264.18 95.1363 263.938 95.0537 263.657Z" fill="#732723"/>
<path d="M83.9414 258.89C89.1207 260.082 93.4246 261.152 95.1996 261.59C95.2686 261.422 95.3498 261.259 95.4427 261.103C96.2209 259.304 97.8744 257.553 98.847 257.991C96.0567 256.823 93.2079 255.801 90.3121 254.927C88.2939 256.216 85.9596 257.699 83.9414 258.89Z" fill="#63C4BA"/>
<path d="M77.1571 254.027H77.4245C77.7787 254.046 78.1286 253.942 78.416 253.734C78.7035 253.527 78.9113 253.227 79.0051 252.885L102.275 157.712L130.336 43.0877C130.431 42.6944 130.367 42.2792 130.158 41.933C129.948 41.5867 129.61 41.3374 129.217 41.2396C128.821 41.1435 128.403 41.2068 128.052 41.416C127.702 41.6252 127.448 41.9635 127.345 42.3582L97.9228 162.576L76.0385 252.131C75.9839 252.329 75.9697 252.536 75.9967 252.74C76.0237 252.943 76.0914 253.139 76.1958 253.316C76.3001 253.493 76.439 253.647 76.6041 253.77C76.7693 253.892 76.9573 253.979 77.1571 254.027Z" fill="#D0918E"/>
<path d="M77.1571 254.027H77.4245C77.7787 254.045 78.1286 253.942 78.416 253.734C78.7035 253.526 78.9113 253.226 79.0051 252.884L102.275 157.712L97.9228 162.575L76.0385 252.131C75.9839 252.329 75.9697 252.536 75.9967 252.739C76.0237 252.943 76.0914 253.139 76.1958 253.316C76.3001 253.493 76.439 253.647 76.6041 253.769C76.7693 253.891 76.9573 253.979 77.1571 254.027Z" fill="#B97B7B"/>
<path d="M54.6156 258.647C55.6854 259.523 56.5851 258.331 57.0471 257.48C57.0988 257.213 57.2157 256.962 57.3875 256.751C57.3875 256.751 57.2417 257.115 57.0471 257.48C56.9602 257.941 57.0467 258.417 57.2902 258.817C57.9711 260.033 62.5911 257.918 62.5911 257.918C62.5929 258.304 62.6864 258.683 62.864 259.026C63.0416 259.368 63.2981 259.664 63.6124 259.887C64.4148 260.447 65.2415 259.279 65.6549 258.599C65.708 258.431 65.7903 258.275 65.8981 258.137L65.6549 258.599C65.436 259.182 65.4117 260.179 67.2597 260.909C67.9919 261.235 68.7987 261.358 69.5948 261.264C70.3909 261.169 71.1467 260.862 71.7825 260.374C71.9651 260.835 72.2577 261.245 72.6349 261.567C73.0122 261.889 73.4625 262.114 73.9466 262.222C75.8432 262.854 78.1289 260.763 78.1289 260.763C78.1121 261.551 78.3796 262.319 78.8827 262.927C79.0842 263.184 79.3421 263.392 79.6365 263.535C81.1441 264.313 83.5271 262.684 83.7702 262.514C84.0134 262.343 83.3811 263.51 86.4936 264.459C88.4309 265.085 90.5295 264.991 92.4023 264.191C92.8176 264.59 93.3607 264.828 93.935 264.863C94.5094 264.899 95.0777 264.73 95.5391 264.386C95.4111 264.308 95.3 264.206 95.2123 264.085C95.1246 263.964 95.0621 263.826 95.0285 263.681C94.8146 263.006 94.8668 262.275 95.1743 261.638C93.2777 261.176 88.4388 259.985 82.7489 258.672C72.6092 256.24 59.7948 253.565 56.1961 253.808H55.8313H55.5882C55.5882 253.808 53.0593 257.31 54.6156 258.647Z" fill="#FFC40C"/>
<path d="M78.9077 262.878C79.1092 263.136 79.3671 263.344 79.6615 263.486C81.1691 264.264 83.5521 262.635 83.7952 262.465C84.0384 262.295 83.4062 263.462 86.5186 264.41C88.4559 265.037 90.5545 264.942 92.4273 264.143C92.8426 264.541 93.3857 264.779 93.96 264.815C94.5344 264.85 95.1028 264.681 95.5641 264.337C95.4361 264.26 95.3251 264.157 95.2373 264.036C95.1496 263.915 95.087 263.778 95.0534 263.632C94.8395 262.957 94.8918 262.227 95.1994 261.589C93.3027 261.127 88.4638 259.936 82.7739 258.623C81.6326 260.168 80.3372 261.594 78.9077 262.878Z" fill="#F7981D"/>
<path d="M162.262 258.939C161.674 260.761 161.179 262.611 160.779 264.483C163.592 264.497 166.403 264.318 169.192 263.948L166.25 258.647L162.262 258.939Z" fill="#D24C27"/>
<path d="M183.612 36.23C185.025 35.5759 186.567 35.2472 188.124 35.2683C189.682 35.2893 191.214 35.6595 192.609 36.3515C192.649 36.3721 192.685 36.4004 192.714 36.4348C192.743 36.4692 192.765 36.5091 192.779 36.5521C192.792 36.5951 192.797 36.6403 192.793 36.6852C192.789 36.7301 192.776 36.7737 192.755 36.8136C192.734 36.8537 192.706 36.8893 192.672 36.9184C192.637 36.9475 192.597 36.9695 192.554 36.983C192.512 36.9966 192.466 37.0016 192.421 36.9975C192.376 36.9935 192.333 36.9805 192.293 36.9594C190.896 36.2808 189.357 35.9466 187.804 35.9847C186.252 36.0227 184.731 36.4321 183.369 37.1783C183.337 37.2107 183.3 37.2363 183.258 37.2539C183.216 37.2714 183.171 37.2805 183.126 37.2805C183.081 37.2805 183.036 37.2714 182.994 37.2539C182.952 37.2363 182.914 37.2107 182.883 37.1783C182.828 37.1093 182.797 37.0236 182.797 36.9352C182.797 36.8468 182.828 36.761 182.883 36.692C183.199 36.4732 183.393 36.3273 183.612 36.23Z" fill="#CB3D27"/>
<path d="M100.013 260.714C99.9444 260.718 99.8754 260.707 99.8106 260.683C99.7458 260.659 99.6866 260.621 99.6366 260.574C99.5866 260.526 99.5468 260.469 99.5196 260.405C99.4925 260.341 99.4784 260.273 99.4785 260.204V256.216C99.4785 256.074 99.5349 255.938 99.6352 255.838C99.7356 255.737 99.8716 255.681 100.013 255.681C100.083 255.681 100.151 255.695 100.215 255.722C100.278 255.749 100.336 255.789 100.383 255.839C100.431 255.889 100.468 255.948 100.492 256.013C100.517 256.078 100.527 256.147 100.524 256.216V260.301C100.501 260.419 100.438 260.525 100.344 260.601C100.251 260.676 100.134 260.717 100.013 260.714Z" fill="#4B4063"/>
<path d="M121.266 262.83C121.196 262.83 121.126 262.816 121.061 262.789C120.996 262.762 120.937 262.723 120.888 262.673C120.838 262.623 120.799 262.564 120.772 262.499C120.745 262.435 120.731 262.365 120.731 262.295V258.647C120.731 258.577 120.745 258.508 120.772 258.443C120.799 258.378 120.838 258.319 120.888 258.269C120.937 258.219 120.996 258.18 121.061 258.153C121.126 258.126 121.196 258.113 121.266 258.113C121.335 258.112 121.403 258.126 121.467 258.154C121.531 258.181 121.588 258.22 121.636 258.27C121.684 258.32 121.721 258.38 121.745 258.445C121.769 258.509 121.78 258.578 121.777 258.647V262.392C121.759 262.514 121.697 262.626 121.603 262.707C121.509 262.787 121.39 262.831 121.266 262.83Z" fill="#4B4063"/>
<path d="M142.81 262.83C142.74 262.83 142.672 262.816 142.608 262.789C142.545 262.762 142.487 262.722 142.44 262.672C142.392 262.622 142.355 262.563 142.331 262.498C142.306 262.433 142.296 262.364 142.299 262.295V258.161C142.296 258.092 142.306 258.023 142.331 257.958C142.355 257.894 142.392 257.835 142.44 257.785C142.487 257.735 142.545 257.695 142.608 257.667C142.672 257.64 142.74 257.626 142.81 257.626C142.951 257.626 143.088 257.683 143.188 257.783C143.288 257.883 143.344 258.019 143.344 258.161V262.295C143.344 262.437 143.288 262.573 143.188 262.673C143.088 262.774 142.951 262.83 142.81 262.83Z" fill="#4B4063"/>
<path d="M147.892 229.468C147.483 230.863 147.175 232.285 146.968 233.724C146.482 236.739 145.995 240.678 145.606 244.569C145.436 246.003 145.29 247.438 145.169 248.824C144.634 254.441 144.293 259.012 144.293 259.012C136.387 259.953 128.413 260.197 120.464 259.742L117.4 259.596C103.297 258.915 99.2117 256.872 99.2117 256.435C99.2117 255.997 96.0263 226.94 95.5156 222.538C95.5156 222.174 95.5156 221.979 95.5156 221.979C97.7549 223.037 100.082 223.9 102.47 224.556C106.631 225.775 110.861 226.741 115.139 227.45L118.786 228.034L121.047 228.35C138.944 230.708 147.892 229.468 147.892 229.468Z" fill="#F79738"/>
<path d="M147.892 229.468C147.483 230.863 147.175 232.285 146.968 233.724C140.608 234.426 134.191 234.426 127.831 233.724C109.23 232.192 99.4791 225.87 95.5156 222.514C95.5156 222.149 95.5156 221.955 95.5156 221.955C97.7549 223.013 100.082 223.875 102.47 224.532C106.631 225.751 110.861 226.717 115.139 227.426L118.786 228.009L121.047 228.325C138.944 230.708 147.892 229.468 147.892 229.468Z" fill="#ED8222"/>
<path d="M129.607 205.153L114.093 205.42L106.798 205.566L89.6313 200.557L108.379 198.782C108.889 198.782 109.522 199.001 110.227 199.171C116.671 200.8 129.607 205.153 129.607 205.153Z" fill="#ED7D27"/>
<path d="M114.093 205.517L106.798 205.663L89.6313 200.654L108.379 198.879C108.889 198.879 109.522 199.098 110.227 199.268C111.323 201.464 112.617 203.556 114.093 205.517Z" fill="#D64E27"/>
<path d="M117.4 259.596C103.296 258.915 99.2115 256.872 99.2115 256.435C99.2115 255.997 95.4668 221.979 95.4668 221.979C97.7061 223.037 100.033 223.9 102.421 224.556C105.242 233.821 110.98 250.745 117.4 259.596Z" fill="#ED8222"/>
<path d="M106.457 197.59L97.436 177.554H100.208L108.937 197.59H106.457Z" fill="#5B1436"/>
<path d="M102.688 262.586C102.688 263.149 102.522 263.699 102.209 264.167C101.896 264.635 101.452 264.999 100.932 265.215C100.412 265.43 99.8403 265.486 99.2884 265.377C98.7366 265.267 98.2297 264.996 97.8318 264.598C97.4339 264.2 97.163 263.693 97.0532 263.141C96.9434 262.59 96.9997 262.017 97.2151 261.498C97.4304 260.978 97.7951 260.533 98.2629 260.221C98.7308 259.908 99.2808 259.741 99.8434 259.741C100.598 259.741 101.322 260.041 101.855 260.575C102.389 261.108 102.688 261.832 102.688 262.586Z" fill="#6C5964"/>
<path d="M124.305 263.948C124.3 264.554 124.116 265.145 123.775 265.646C123.435 266.147 122.953 266.536 122.391 266.763C121.83 266.991 121.213 267.046 120.62 266.924C120.027 266.801 119.483 266.505 119.058 266.073C118.633 265.641 118.345 265.093 118.232 264.497C118.118 263.902 118.184 263.287 118.42 262.729C118.657 262.171 119.053 261.695 119.56 261.363C120.066 261.03 120.66 260.855 121.266 260.86C121.669 260.86 122.068 260.94 122.44 261.096C122.812 261.251 123.149 261.48 123.432 261.767C123.715 262.055 123.938 262.395 124.088 262.77C124.238 263.144 124.312 263.545 124.305 263.948Z" fill="#6C5964"/>
<path d="M142.737 265.432C144.429 265.432 145.801 264.06 145.801 262.368C145.801 260.676 144.429 259.304 142.737 259.304C141.045 259.304 139.673 260.676 139.673 262.368C139.673 264.06 141.045 265.432 142.737 265.432Z" fill="#6C5964"/>
<path d="M122.263 221.857L120.78 226.721C120.78 226.721 115.479 225.967 108.208 224.775C100.938 223.584 97.4606 221.663 97.5822 220.374L103.88 221.274L122.263 221.857Z" fill="#D64E27"/>
<path d="M137.947 208.46C137.95 208.616 137.923 208.772 137.866 208.918C137.809 209.063 137.724 209.196 137.616 209.309C137.507 209.422 137.378 209.513 137.234 209.576C137.091 209.638 136.937 209.672 136.78 209.675C136.462 209.669 136.159 209.538 135.936 209.311C135.713 209.084 135.589 208.778 135.589 208.46C135.585 208.301 135.614 208.144 135.672 207.996C135.731 207.849 135.818 207.715 135.929 207.601C136.04 207.488 136.172 207.398 136.318 207.337C136.465 207.276 136.622 207.244 136.78 207.244C136.938 207.244 137.093 207.276 137.238 207.337C137.383 207.399 137.514 207.489 137.623 207.603C137.732 207.716 137.817 207.851 137.873 207.998C137.928 208.145 137.954 208.302 137.947 208.46Z" fill="#7BC6C9"/>
<path d="M150.47 215.269C150.457 215.479 150.403 215.686 150.311 215.876C150.219 216.066 150.09 216.236 149.932 216.376C149.773 216.516 149.589 216.623 149.389 216.692C149.19 216.761 148.978 216.789 148.768 216.776C148.552 216.804 148.333 216.785 148.125 216.721C147.917 216.657 147.725 216.549 147.562 216.406C147.399 216.262 147.268 216.085 147.179 215.887C147.089 215.689 147.043 215.474 147.043 215.257C147.043 215.039 147.089 214.824 147.179 214.626C147.268 214.428 147.399 214.251 147.562 214.107C147.725 213.963 147.917 213.856 148.125 213.792C148.333 213.728 148.552 213.709 148.768 213.737C148.98 213.724 149.194 213.753 149.395 213.823C149.596 213.893 149.781 214.003 149.94 214.146C150.098 214.288 150.227 214.461 150.318 214.654C150.409 214.847 150.46 215.056 150.47 215.269Z" fill="#7BC6C9"/>
<path d="M156.378 221.59C156.359 221.802 156.278 222.004 156.146 222.172C156.014 222.339 155.836 222.464 155.634 222.531C155.431 222.598 155.214 222.605 155.008 222.55C154.802 222.496 154.616 222.382 154.474 222.224C154.332 222.065 154.239 221.868 154.206 221.658C154.174 221.447 154.204 221.232 154.293 221.038C154.381 220.844 154.525 220.68 154.705 220.567C154.885 220.453 155.095 220.395 155.308 220.399C155.607 220.417 155.886 220.553 156.087 220.776C156.287 220.998 156.391 221.291 156.378 221.59Z" fill="#7BC6C9"/>
<path d="M87.4917 200.703L96.0509 220.18L103.881 221.298L106.507 206.952L87.4917 200.703Z" fill="#F7991C"/>
<path d="M103.88 221.298L126.324 221.955L130.531 206.757L106.506 206.952L103.88 221.298Z" fill="#FFC40C"/>
<path d="M106.457 207.22L106.847 205.639L87.1021 199.901L87.8315 201.457L106.457 207.22Z" fill="#EDD260"/>
<path d="M106.458 207.22L130.531 206.758L131.333 204.861L106.847 205.639L106.458 207.22Z" fill="#F5E38F"/>
<path d="M89.6795 200.654L108.427 198.855V197.347L87.1021 199.9L89.6795 200.654Z" fill="#F5E38F"/>
<path d="M108.428 198.855L128.95 204.934L131.333 204.861L108.428 197.347V198.855Z" fill="#EDD260"/>
<path d="M77.6919 178.989L93.1081 208.873L95.4668 208.484L79.8803 178.138L77.6919 178.989Z" fill="#5B1436"/>
<path d="M120.731 227.036C121.608 223.247 123.06 219.615 125.035 216.265C128.099 211.401 128.925 210.696 130.53 211.11C132.135 211.523 133.448 215.632 133.448 215.632C133.448 215.632 135.296 211.523 138.627 212.471C141.959 213.42 141.521 218.526 141.521 218.526C141.521 218.526 142.761 216.094 144.415 216.435C146.068 216.775 145.655 220.204 145.655 220.204C145.789 219.893 145.987 219.613 146.235 219.383C146.484 219.153 146.778 218.977 147.099 218.867C147.419 218.757 147.759 218.715 148.097 218.745C148.434 218.774 148.762 218.873 149.059 219.037C151.247 220.204 150.566 223.267 150.566 223.267C150.566 223.267 153.63 221.249 153.703 224.678C153.776 228.106 154.676 229.541 141.424 229.541C134.449 229.57 127.497 228.729 120.731 227.036Z" fill="#CDE4E1"/>
<path d="M147.454 224.265C147.459 224.569 147.373 224.867 147.207 225.122C147.042 225.377 146.805 225.577 146.525 225.697C146.246 225.817 145.937 225.851 145.638 225.794C145.339 225.738 145.064 225.594 144.847 225.381C144.631 225.168 144.483 224.895 144.421 224.597C144.36 224.299 144.389 223.99 144.504 223.709C144.62 223.427 144.816 223.187 145.068 223.017C145.321 222.848 145.618 222.757 145.922 222.757C146.324 222.757 146.71 222.915 146.997 223.197C147.283 223.479 147.447 223.863 147.454 224.265Z" fill="#7BC6C9"/>
<path d="M137.242 223.755C137.242 224.236 137.099 224.706 136.832 225.105C136.565 225.505 136.185 225.817 135.741 226.001C135.296 226.185 134.807 226.233 134.336 226.139C133.864 226.046 133.431 225.814 133.091 225.474C132.751 225.134 132.519 224.701 132.425 224.229C132.331 223.757 132.379 223.268 132.564 222.824C132.748 222.38 133.059 222 133.459 221.733C133.859 221.466 134.329 221.323 134.81 221.323C135.455 221.323 136.073 221.579 136.529 222.035C136.985 222.491 137.242 223.11 137.242 223.755Z" fill="#7BC6C9"/>
<path d="M130.992 219.013C131.758 219.013 132.378 218.392 132.378 217.627C132.378 216.862 131.758 216.241 130.992 216.241C130.227 216.241 129.606 216.862 129.606 217.627C129.606 218.392 130.227 219.013 130.992 219.013Z" fill="#7BC6C9"/>
<path d="M145.606 244.569C145.436 246.003 145.29 247.438 145.169 248.824C139.656 248.533 134.304 246.861 129.607 243.961C123.228 239.988 118.155 234.23 115.017 227.402L118.664 227.985C121.607 232.46 126.445 239.049 131.017 241.748C135.569 243.891 140.584 244.86 145.606 244.569Z" fill="#ED8222"/>
<path d="M145.243 245.104C140.325 245.046 135.479 243.917 131.042 241.797C125.127 238.74 119.988 234.374 116.015 229.031C115.966 228.919 115.958 228.793 115.991 228.676C116.023 228.558 116.096 228.455 116.195 228.384C116.295 228.313 116.415 228.278 116.537 228.285C116.66 228.292 116.775 228.341 116.866 228.423C116.866 228.423 86.5441 224.265 131.455 240.849C140.428 244.131 150.568 245.177 154.847 241.262C155.373 240.783 155.774 240.182 156.016 239.513C156.257 238.843 156.332 238.125 156.233 237.42C155.569 233.922 153.584 230.813 150.689 228.739C150.59 228.657 150.525 228.541 150.504 228.414C150.484 228.287 150.51 228.156 150.578 228.047C150.646 227.937 150.752 227.856 150.875 227.818C150.998 227.78 151.131 227.788 151.249 227.84C154.421 230.091 156.586 233.495 157.279 237.323C157.399 238.187 157.305 239.067 157.004 239.886C156.703 240.704 156.204 241.436 155.552 242.016C152.598 244.25 148.939 245.347 145.243 245.104Z" fill="#5B1436"/>
<path d="M147.892 229.931C146.919 230.733 140.913 231.341 128.269 230.369C123.718 229.981 119.195 229.315 114.725 228.375C109.246 227.224 103.839 225.754 98.5308 223.973C94.2512 222.466 94.8591 220.375 95.7345 219.475L98.1661 220.715C97.9473 221.907 101.886 223.439 113.363 225.578L119.856 226.672C129.108 228.234 138.487 228.91 147.868 228.691C147.868 228.691 148.889 229.128 147.892 229.931Z" fill="#FFC40C"/>
<path d="M114.725 228.375C109.246 227.224 103.839 225.754 98.5308 223.973C94.2512 222.466 94.8591 220.375 95.7345 219.475L98.1661 220.715C97.9473 221.907 101.886 223.439 113.363 225.578C113.756 226.539 114.211 227.473 114.725 228.375Z" fill="#F7991C"/>
</svg>
